<?xml version="1.0" encoding="utf-8"?>
<!-- Generator: Adobe Illustrator 15.0.0, SVG Export Plug-In . SVG Version: 6.00 Build 0)  -->
<!DOCTYPE svg PUBLIC "-//W3C//DTD SVG 1.1//EN" "http://www.w3.org/Graphics/SVG/1.1/DTD/svg11.dtd">
<svg version="1.1" id="图层_1" xmlns="http://www.w3.org/2000/svg" xmlns:xlink="http://www.w3.org/1999/xlink" x="0px" y="0px"
	 width="841.891px" height="595.279px" viewBox="0 0 841.891 595.279" enable-background="new 0 0 841.891 595.279"
	 xml:space="preserve">
<g>
	<path fill="#C8C8C8" d="M45.769,112.314c-2.158,0-3.867-0.813-3.867-3.672V94.91c-0.981-0.336-1.654-0.364-2.047-0.364
		c-1.849,0-2.298,1.037-2.298,2.103v1.794h2.887v2.55h-2.887v11.322H34.39v-11.322h-1.626v-2.55h1.626v-1.878
		c0-3.588,2.382-4.82,5.325-4.82c0.84,0,2.83,0.112,5.324,1.064l0.027,15.358c0,1.037,0.504,1.345,1.346,1.345h0.56v2.804
		L45.769,112.314L45.769,112.314z"/>
	<path fill="#C8C8C8" d="M59.751,100.598c0.701,1.094,1.037,2.69,1.01,4.568c0,2.102-0.309,3.587-0.954,4.708
		c-1.065,1.737-3.026,2.634-5.212,2.634c-2.074,0-3.783-0.701-4.793-2.186c-0.784-1.178-1.121-2.831-1.093-4.934
		c0-1.484,0.195-2.887,0.7-3.923c0.952-2.046,2.999-3.194,5.521-3.194C57.005,98.273,58.741,99.113,59.751,100.598z M52.381,102.701
		c-0.336,0.729-0.449,1.654-0.478,2.719c0,1.093,0.084,1.99,0.421,2.662c0.422,0.954,1.262,1.542,2.354,1.542
		c1.206,0,2.188-0.645,2.606-1.99c0.169-0.532,0.252-1.261,0.252-2.466c0-1.037-0.111-1.877-0.363-2.438
		c-0.421-1.094-1.317-1.598-2.354-1.598C53.754,101.132,52.829,101.719,52.381,102.701z"/>
	<path fill="#C8C8C8" d="M75.979,107.606c0.223-0.785,0.419-1.625,0.616-2.384c0.336-1.093,0.561-2.186,1.878-6.78h3.391
		c-1.513,4.624-3.055,9.248-4.597,13.872h-2.774c-0.673-2.131-1.316-4.316-1.961-6.475l-0.813-2.634h-0.056l-0.869,2.971
		c-0.588,2.045-1.205,4.063-1.878,6.138h-2.774l-4.596-13.872h3.391c0.394,1.289,0.756,2.605,1.121,3.924
		c0.504,1.709,0.896,3.447,1.429,5.156H67.6c0.616-1.962,0.588-1.935,1.177-3.896l1.626-5.185h2.663c0.7,2.241,1.4,4.54,2.073,6.81
		l0.673,2.354H75.979L75.979,107.606z"/>
	<path fill="#C8C8C8" d="M96.451,110.8c-0.868,1.373-2.745,1.682-4.651,1.682c-2.663,0-4.876-1.288-4.876-3.951
		c0-2.242,1.513-3.896,4.456-3.896h5.1v-1.988c0-2.047-1.036-3.224-4.008-3.224c-1.373,0-2.746,0.31-3.866,1.345l-0.786-0.841
		c1.121-1.093,2.72-1.652,4.682-1.652c2.83,0,5.212,0.84,5.212,4.315v9.726H96.48v-1.514L96.451,110.8L96.451,110.8z M91.66,105.672
		c-2.214,0-3.56,0.925-3.56,2.803c0,1.905,1.513,2.943,3.868,2.943c1.794,0,4.512-0.533,4.512-2.971v-2.774L91.66,105.672
		L91.66,105.672z"/>
	<path fill="#C8C8C8" d="M105.047,112.51c-1.99,0-3.951-0.533-5.464-1.709l0.729-0.953c1.346,1.065,3.055,1.57,4.934,1.57
		c1.681,0,3.922-0.673,3.922-2.915c0-1.934-1.961-2.521-3.867-2.775c-2.495-0.364-4.905-0.813-4.905-3.475
		c0-2.466,2.046-3.979,4.989-3.979c1.99,0,3.335,0.42,4.568,1.261l-0.673,0.979c-1.093-0.672-2.299-1.121-3.812-1.121
		c-2.188,0-3.812,0.952-3.839,2.746c0,1.878,1.85,2.187,4.008,2.494c2.242,0.336,4.764,1.065,4.764,3.924
		C110.401,110.772,108.551,112.51,105.047,112.51z"/>
	<rect x="113.073" y="98.413" fill="#C8C8C8" width="1.234" height="13.901"/>
	<path fill="#C8C8C8" d="M126.574,110.8c-0.868,1.373-2.745,1.682-4.651,1.682c-2.663,0-4.875-1.288-4.875-3.951
		c0-2.242,1.513-3.896,4.456-3.896h5.101v-1.988c0-2.047-1.037-3.224-4.008-3.224c-1.373,0-2.746,0.31-3.868,1.345l-0.784-0.841
		c1.121-1.093,2.719-1.652,4.682-1.652c2.83,0,5.212,0.84,5.212,4.315v9.726h-1.232v-1.514L126.574,110.8L126.574,110.8z
		 M121.783,105.672c-2.214,0-3.56,0.925-3.56,2.803c0,1.905,1.513,2.943,3.868,2.943c1.794,0,4.512-0.533,4.512-2.971v-2.774
		L121.783,105.672L121.783,105.672z"/>
	<circle fill="#C8C8C8" cx="82.901" cy="110.981" r="1.349"/>
	<circle fill="#C8C8C8" cx="113.71" cy="95.221" r="0.781"/>
</g>
<polygon points="748.897,455.627 747.799,454.53 739.005,463.323 730.211,454.53 729.111,455.627 737.906,464.422 729.111,473.217 
	730.211,474.315 739.005,465.521 747.799,474.315 748.897,473.217 740.102,464.422 "/>
<g>
	<rect x="36.496" y="177.769" width="26.224" height="1.541"/>
	<rect x="36.496" y="187.797" width="26.224" height="1.541"/>
	<rect x="36.496" y="197.824" width="26.224" height="1.541"/>
</g>
<g>
	<g>
		<defs>
			<rect id="SVGID_1_" x="102.337" y="173.256" width="33.933" height="30.623"/>
		</defs>
		<clipPath id="SVGID_2_">
			<use xlink:href="#SVGID_1_"  overflow="visible"/>
		</clipPath>
		<path clip-path="url(#SVGID_2_)" d="M135.856,183.271c-0.083-0.083-0.993-0.414-2.4-0.828c-0.083,0-0.166-0.083-0.166-0.165
			c-2.4-5.297-7.78-9.021-13.987-9.021c-6.207,0-11.504,3.725-13.904,9.021c0,0.083-0.083,0.083-0.166,0.165
			c-1.407,0.497-2.317,0.828-2.4,0.828l-0.497,0.248v10.015l0.497,0.165c0.083,0,0.911,0.331,2.235,0.745
			c0.083,0,0.165,0.083,0.165,0.166c2.317,5.462,7.78,9.27,14.07,9.27c6.291,0,11.67-3.807,13.987-9.187
			c0-0.083,0.083-0.083,0.166-0.165c1.407-0.497,2.234-0.828,2.317-0.828l0.497-0.248v-10.015L135.856,183.271z M119.303,174.911
			c4.8,0,9.021,2.483,11.421,6.207c0.166,0.249-0.083,0.497-0.331,0.414c-3.145-0.828-7.283-1.655-11.256-1.655
			c-3.89,0-7.862,0.828-10.925,1.655c-0.248,0.083-0.414-0.166-0.331-0.414C110.365,177.394,114.586,174.911,119.303,174.911
			 M119.303,202.223c-4.883,0-9.187-2.566-11.586-6.539c-0.166-0.248,0.083-0.496,0.331-0.414c3.228,0.828,7.366,1.738,11.255,1.738
			c4.139,0,8.194-0.827,11.256-1.655c0.249-0.083,0.414,0.166,0.331,0.414C128.49,199.657,124.186,202.223,119.303,202.223
			 M134.697,192.209c0,0.083-0.083,0.248-0.166,0.248c-2.069,0.745-8.607,2.979-15.229,2.979c-5.876,0-12.911-2.234-15.146-2.979
			c-0.083,0-0.166-0.166-0.166-0.248v-7.366c0-0.083,0.083-0.248,0.166-0.248c2.152-0.745,8.773-2.979,15.063-2.979
			c6.207,0,13.159,2.234,15.311,2.979c0.083,0,0.166,0.165,0.166,0.248V192.209z"/>
		<path clip-path="url(#SVGID_2_)" d="M117.814,191.464l5.297-3.063c0.248-0.165,0.248-0.579,0-0.662l-5.297-3.145
			c-0.249-0.166-0.58,0-0.58,0.331v6.124C117.234,191.464,117.565,191.63,117.814,191.464"/>
	</g>
</g>
<g>
	<g>
		<defs>
			<rect id="SVGID_3_" x="176.361" y="173.256" width="19.05" height="30.623"/>
		</defs>
		<clipPath id="SVGID_4_">
			<use xlink:href="#SVGID_3_"  overflow="visible"/>
		</clipPath>
		<path clip-path="url(#SVGID_4_)" d="M186.676,173.256h-1.58c-4.913,0.394-8.734,4.508-8.734,9.452v11.646
			c0,5.252,4.272,9.525,9.524,9.525s9.525-4.273,9.525-9.525v-11.646C195.411,177.767,191.591,173.652,186.676,173.256
			 M193.831,194.354c0,4.381-3.564,7.945-7.945,7.945c-4.38,0-7.944-3.563-7.944-7.945v-11.646c0-4.38,3.563-7.944,7.944-7.944
			s7.945,3.564,7.945,7.944V194.354z"/>
		<path clip-path="url(#SVGID_4_)" d="M185.885,181.336c-0.707,0-1.28,0.573-1.28,1.281v3.298c0,0.708,0.573,1.282,1.28,1.282
			s1.281-0.574,1.281-1.282v-3.298C187.167,181.91,186.594,181.336,185.885,181.336"/>
	</g>
</g>
<g>
	<g>
		<defs>
			<rect id="SVGID_5_" x="242.282" y="172.985" width="31.166" height="31.166"/>
		</defs>
		<clipPath id="SVGID_6_">
			<use xlink:href="#SVGID_5_"  overflow="visible"/>
		</clipPath>
		<path clip-path="url(#SVGID_6_)" d="M257.865,204.15c0,0-0.001,0-0.001,0c-4.139,0-8.037-1.606-10.975-4.521
			c-6.099-6.052-6.138-15.938-0.085-22.037c2.948-2.971,6.876-4.607,11.062-4.607c4.139,0,8.038,1.605,10.976,4.521
			c5.208,5.167,6.095,13.328,2.143,19.477l0.018,4.62l-4.62,0.018C263.85,203.276,260.91,204.15,257.865,204.15z M257.865,174.251
			c-3.845,0-7.454,1.503-10.162,4.233c-5.56,5.603-5.525,14.686,0.079,20.246c2.699,2.678,6.279,4.153,10.082,4.153
			c0,0,0.001,0,0.001,0c2.857,0,5.613-0.837,7.971-2.421l0.159-0.107l3.734-0.015l-0.014-3.734l0.105-0.16
			c3.742-5.665,2.955-13.252-1.872-18.041C265.249,175.727,261.668,174.251,257.865,174.251z"/>
	</g>
	<g>
		<g>
			<circle cx="253.032" cy="188.568" r="1.188"/>
			<circle cx="257.969" cy="188.568" r="1.188"/>
		</g>
		<circle cx="262.698" cy="188.568" r="1.188"/>
	</g>
</g>
<g>
	<path d="M332.274,204.61c-8.846,0-16.042-7.196-16.042-16.042c0-8.845,7.197-16.042,16.042-16.042s16.041,7.197,16.041,16.042
		C348.315,197.413,341.12,204.61,332.274,204.61z M332.274,173.127c-8.515,0-15.441,6.927-15.441,15.441s6.927,15.441,15.441,15.441
		c8.514,0,15.441-6.927,15.441-15.441S340.788,173.127,332.274,173.127z"/>
	<polygon points="334.798,188.646 330.455,184.156 329.887,184.705 333.673,188.618 329.75,192.412 330.298,192.98 334.221,189.186 
		334.23,189.196 	"/>
</g>
<g>
	<g>
		<path d="M543.553,350.235c-5.849,0-10.606-4.759-10.606-10.606s4.758-10.605,10.606-10.605s10.605,4.758,10.605,10.605
			S549.402,350.235,543.553,350.235z M543.553,329.419c-5.63,0-10.209,4.58-10.209,10.209s4.579,10.208,10.209,10.208
			c5.629,0,10.209-4.579,10.209-10.208S549.182,329.419,543.553,329.419z"/>
		<path d="M543.553,350.735c-6.124,0-11.106-4.982-11.106-11.106s4.982-11.105,11.106-11.105s11.105,4.981,11.105,11.105
			S549.677,350.735,543.553,350.735z M543.553,329.919c-5.354,0-9.709,4.355-9.709,9.709s4.355,9.708,9.709,9.708
			s9.709-4.354,9.709-9.708S548.907,329.919,543.553,329.919z"/>
	</g>
	<polygon points="546.077,339.706 541.734,335.216 541.167,335.765 544.952,339.678 541.029,343.472 541.577,344.04 
		545.501,340.245 545.51,340.255 	"/>
</g>
<g>
	<g>
		<path d="M615.209,329.023c5.849,0,10.606,4.758,10.606,10.606c0,5.848-4.758,10.605-10.606,10.605s-10.605-4.758-10.605-10.605
			C604.603,333.781,609.36,329.023,615.209,329.023z M615.209,349.837c5.63,0,10.209-4.58,10.209-10.208
			c0-5.63-4.579-10.208-10.209-10.208c-5.629,0-10.209,4.578-10.209,10.208C605,345.257,609.58,349.837,615.209,349.837z"/>
		<path d="M615.209,328.523c6.124,0,11.106,4.982,11.106,11.106s-4.982,11.105-11.106,11.105s-11.105-4.981-11.105-11.105
			S609.085,328.523,615.209,328.523z M615.209,349.337c5.354,0,9.709-4.355,9.709-9.708c0-5.354-4.355-9.708-9.709-9.708
			s-9.709,4.354-9.709,9.708C605.5,344.982,609.855,349.337,615.209,349.337z"/>
	</g>
	<polygon points="612.685,339.55 617.028,344.04 617.595,343.491 613.81,339.578 617.733,335.784 617.185,335.216 613.261,339.011 
		613.253,339.001 	"/>
</g>
<g>
	<path d="M420.176,188.567c0,8.846-7.196,16.042-16.042,16.042c-8.845,0-16.042-7.196-16.042-16.042s7.197-16.041,16.042-16.041
		C412.979,172.526,420.176,179.721,420.176,188.567z M388.693,188.567c0,8.515,6.927,15.441,15.44,15.441
		c8.515,0,15.441-6.927,15.441-15.441c0-8.514-6.927-15.441-15.441-15.441C395.62,173.126,388.693,180.053,388.693,188.567z"/>
	<polygon points="404.213,186.044 399.722,190.386 400.271,190.954 404.184,187.169 407.978,191.092 408.546,190.544 
		404.752,186.62 404.761,186.611 	"/>
</g>
<g>
	<path d="M470.312,172.526c8.846,0,16.041,7.196,16.041,16.042c0,8.845-7.195,16.042-16.041,16.042s-16.042-7.197-16.042-16.042
		C454.27,179.722,461.467,172.526,470.312,172.526z M470.312,204.008c8.514,0,15.441-6.927,15.441-15.44
		c0-8.515-6.928-15.441-15.441-15.441s-15.442,6.927-15.442,15.441C454.87,197.081,461.799,204.008,470.312,204.008z"/>
	<polygon points="467.789,188.489 472.131,192.979 472.699,192.43 468.914,188.517 472.836,184.723 472.289,184.156 
		468.365,187.949 468.355,187.94 	"/>
</g>
<polygon points="621.233,188.755 610.87,178.039 609.515,179.348 618.548,188.687 609.185,197.741 610.495,199.096 619.856,190.042 
	619.878,190.065 "/>
<polygon points="681.629,194.592 692.344,184.228 691.035,182.874 681.696,191.906 672.642,182.544 671.287,183.853 
	680.342,193.215 680.318,193.236 "/>
<polygon points="732.98,188.381 743.344,199.096 744.698,197.787 735.666,188.448 745.028,179.395 743.719,178.039 734.357,187.094 
	734.336,187.071 "/>
<polygon points="796.795,182.544 786.08,192.907 787.388,194.261 796.727,185.229 805.781,194.592 807.136,193.282 798.082,183.921 
	798.105,183.899 "/>
<g>
	<path d="M544.276,173.035c8.564,0,15.533,6.967,15.533,15.532c0,1.917-0.353,3.752-0.99,5.45l0.414,1.972
		c1.115-2.238,1.745-4.757,1.745-7.422c0-9.209-7.492-16.701-16.702-16.701c-6.964,0-12.943,4.286-15.445,10.357l1.116,0.355
		C532.296,176.979,537.834,173.035,544.276,173.035"/>
	<path d="M544.276,204.099c-0.48,0-0.956-0.026-1.427-0.068l-2.168,0.844c1.159,0.255,2.36,0.395,3.595,0.395
		c2.561,0,4.988-0.581,7.16-1.616l-1.583-0.593C548.122,203.728,546.242,204.099,544.276,204.099"/>
	<rect x="528.449" y="199.745" transform="matrix(0.9313 0.3644 -0.3644 0.9313 109.4673 -180.123)" width="7.248" height="0.58"/>
	
		<rect x="548.892" y="199.617" transform="matrix(-0.9365 -0.3506 0.3506 -0.9365 1000.2385 580.9277)" width="7.644" height="0.578"/>
	<rect x="538.445" y="199.706" transform="matrix(0.933 -0.3599 0.3599 0.933 -35.6548 208.5157)" width="7.232" height="0.579"/>
	<path d="M549.783,185.402c-0.161,0.337-0.344,0.668-0.541,0.998l5.41,1.609l3.142,14.986l-9.719-3.641l-0.682-10.043
		c-0.052,0.091-0.105,0.182-0.161,0.274c-0.093,0.154-0.186,0.311-0.272,0.468c-0.191,0.327-0.376,0.646-0.563,0.969l0.565,8.355
		l-9.406,3.661l1.054-15.046l1.684-0.518c-0.201-0.323-0.401-0.649-0.594-0.979l-1.611,0.497l-8.546-2.719l-3.414,15.821
		l10.892,4.261l0.061-0.154l0.071,0.185l10.393-4.044l11.751,4.401l-3.691-17.609L549.783,185.402z M536.451,202.941l-9.037-3.537
		l2.957-13.705l7.129,2.269L536.451,202.941z"/>
	<path d="M549.491,182.508c0-0.181-0.225-0.818-0.237-0.857c-0.053-0.194-0.158-0.403-0.236-0.585
		c-0.935-2.246-2.978-3.052-4.628-3.052c-2.207,0-4.64,1.48-4.965,4.533v0.623c0,0.026,0.01,0.26,0.022,0.377
		c0.182,1.454,1.33,3,2.187,4.455c0.922,1.558,1.879,3.091,2.827,4.624c0.585-1,1.167-2.013,1.738-2.987
		c0.156-0.286,0.337-0.571,0.492-0.843c0.104-0.183,0.303-0.364,0.394-0.533c0.922-1.688,2.405-3.39,2.405-5.065L549.491,182.508
		L549.491,182.508z M544.446,184.837c-1.064,0-1.927-0.863-1.927-1.928s0.862-1.929,1.927-1.929c1.065,0,1.929,0.864,1.929,1.929
		S545.511,184.837,544.446,184.837"/>
</g>
<g>
	<path d="M45.886,263.221v3.868h-2.834v4.73h2.834v14.058h5.822v-14.056h3.907c0,0,0.366-2.27,0.543-4.749H51.73v-3.234
		c0-0.483,0.635-1.133,1.262-1.133h3.172v-4.925h-4.313C45.742,257.779,45.886,262.515,45.886,263.221"/>
</g>
<g>
	<path d="M104.166,281.415c3.345,0.308,6.364-0.52,9.037-2.577c-1.308-0.089-2.493-0.494-3.538-1.276
		c-1.041-0.778-1.761-1.79-2.176-2.991c0.457,0,0.904,0.019,1.349-0.006c0.436-0.024,0.87-0.094,1.307-0.184
		c-1.792-0.494-3.176-1.493-4.085-3.111c-0.55-0.979-0.857-2.226-0.767-3.052c0.436,0.163,0.862,0.355,1.307,0.479
		c0.448,0.124,0.915,0.179,1.376,0.237c-2.739-2.312-3.339-5.065-1.85-8.356c3.412,4.005,7.674,6.197,12.892,6.555
		c-0.04-0.397-0.093-0.756-0.11-1.116c-0.091-1.938,0.573-3.583,1.993-4.896c1.561-1.444,3.425-1.919,5.496-1.531
		c1.196,0.225,2.24,0.788,3.102,1.663c0.125,0.127,0.241,0.167,0.427,0.124c1.167-0.27,2.285-0.663,3.331-1.253
		c0.104-0.06,0.214-0.105,0.381-0.186c-0.485,1.455-1.364,2.529-2.573,3.366c1.173-0.092,2.273-0.438,3.406-0.903
		c-0.578,0.867-1.206,1.594-1.92,2.245c-0.305,0.277-0.625,0.539-0.952,0.79c-0.165,0.127-0.228,0.261-0.22,0.471
		c0.073,1.79-0.162,3.546-0.645,5.265c-0.413,1.471-1,2.873-1.758,4.203c-0.819,1.438-1.807,2.744-2.982,3.907
		c-1.59,1.576-3.423,2.789-5.5,3.628c-1.958,0.791-3.997,1.201-6.105,1.273c-1.481,0.051-2.953-0.043-4.401-0.354
		c-1.461-0.314-2.876-0.776-4.208-1.469c-0.55-0.287-1.094-0.586-1.64-0.88C104.147,281.46,104.157,281.438,104.166,281.415"/>
</g>
<g>
	<path d="M175.765,259.053c1.959,0,3.167,1.29,3.204,2.98c0,1.654-1.248,2.976-3.245,2.976h-0.035c-1.923,0-3.168-1.322-3.168-2.976
		C172.521,260.343,173.804,259.053,175.765,259.053 M192.657,266.961c3.77,0,6.595,2.462,6.595,7.757v9.885h-5.728v-9.221
		c0-2.316-0.832-3.898-2.906-3.898c-1.583,0-2.521,1.063-2.935,2.094c-0.15,0.367-0.192,0.883-0.192,1.398v9.627h-5.729
		c0,0,0.076-15.618,0-17.235h5.729v2.443C188.251,268.636,189.613,266.961,192.657,266.961 M172.86,267.366h5.729v17.236h-5.729
		V267.366z"/>
</g>
<path d="M329.098,271.828L329.098,271.828z"/>
<g>
	<path d="M266.506,271.312c-0.484-0.145-0.818-0.244-0.563-0.88c0.549-1.384,0.605-2.575,0.01-3.426
		c-1.117-1.594-4.172-1.508-7.674-0.042c0-0.002-1.099,0.481-0.818-0.393c0.539-1.731,0.458-3.181-0.38-4.019
		c-1.9-1.901-6.952,0.072-11.286,4.403c-3.243,3.246-5.127,6.684-5.127,9.659c0,5.687,7.294,9.146,14.43,9.146
		c9.354,0,15.577-5.435,15.577-9.749C270.675,273.404,268.479,271.923,266.506,271.312 M255.116,283.722
		c-5.693,0.561-10.609-2.012-10.979-5.75c-0.37-3.738,3.948-7.225,9.641-7.787c5.695-0.564,10.611,2.01,10.979,5.747
		C265.127,279.671,260.811,283.158,255.116,283.722"/>
	<path d="M272.717,260.902L272.717,260.902c-2.258-2.504-5.59-3.459-8.667-2.805h-0.001c-0.71,0.152-1.165,0.852-1.012,1.563
		c0.151,0.71,0.852,1.164,1.563,1.013c2.188-0.465,4.556,0.216,6.162,1.994c1.605,1.779,2.041,4.205,1.354,6.332v0.002
		c-0.224,0.693,0.155,1.434,0.849,1.658c0.691,0.223,1.434-0.156,1.658-0.847c0-0.001,0-0.003,0.001-0.005
		C275.587,266.815,274.977,263.404,272.717,260.902"/>
	<path d="M265.027,262.669c-0.613,0.129-1.003,0.733-0.871,1.346c0.131,0.61,0.733,1.002,1.343,0.87v0.001
		c0.733-0.156,1.527,0.07,2.065,0.665c0.539,0.598,0.684,1.41,0.453,2.123h0c-0.192,0.595,0.133,1.235,0.729,1.429
		c0.597,0.189,1.236-0.135,1.429-0.732c0.47-1.458,0.176-3.119-0.926-4.337C268.148,262.813,266.525,262.35,265.027,262.669"/>
	<path d="M255.686,273.062c-2.71-0.706-5.772,0.645-6.949,3.032c-1.198,2.435-0.04,5.138,2.697,6.022
		c2.836,0.914,6.178-0.488,7.341-3.115C259.921,276.431,258.49,273.785,255.686,273.062 M253.616,279.281
		c-0.551,0.877-1.729,1.264-2.619,0.857c-0.875-0.398-1.133-1.419-0.583-2.275c0.544-0.854,1.684-1.234,2.566-0.864
		C253.872,277.379,254.157,278.392,253.616,279.281 M255.431,276.95c-0.199,0.341-0.64,0.504-0.984,0.363
		c-0.339-0.14-0.446-0.52-0.253-0.855c0.199-0.333,0.622-0.496,0.96-0.361C255.498,276.223,255.621,276.609,255.431,276.95"/>
</g>
<g>
	<text transform="matrix(1 0 0 1 315.2737 289.9172)" font-family="'AvenirLT-Medium'" font-size="8.8244">BEIJING</text>
	<path d="M331.757,254.681c2.837,0,5.146,2.308,5.146,5.146s-2.309,5.146-5.146,5.146s-5.146-2.308-5.146-5.146
		S328.919,254.681,331.757,254.681 M331.757,251.251c-4.736,0-8.576,3.839-8.576,8.576c0,5.738,5.783,16.26,8.576,16.26
		c2.925,0,8.576-10.825,8.576-16.26C340.332,255.09,336.493,251.251,331.757,251.251"/>
</g>
<g>
	<text transform="matrix(1 0 0 1 380.9041 289.8391)" font-family="'AvenirLT-Medium'" font-size="8.769">SHANGHAI</text>
	<path d="M404.116,254.754c2.82,0,5.114,2.294,5.114,5.113c0,2.82-2.294,5.113-5.114,5.113c-2.819,0-5.112-2.293-5.112-5.113
		C399.004,257.048,401.297,254.754,404.116,254.754 M404.116,251.345c-4.706,0-8.521,3.814-8.521,8.522
		c0,5.703,5.746,16.16,8.521,16.16c2.906,0,8.523-10.758,8.523-16.16C412.639,255.159,408.823,251.345,404.116,251.345"/>
</g>
<g>
	<path d="M463.813,270.394c0.025,0.006,0.051,0.008,0.076,0.008h12.846c0.196,0,0.355-0.161,0.354-0.358
		c0-0.025-0.002-0.051-0.008-0.075l-1.428-7.137c-0.036-0.162-0.18-0.277-0.346-0.278h-9.992c-0.021-0.003-0.044-0.003-0.065,0
		c-0.141,0.028-0.251,0.138-0.279,0.278l-1.427,7.137C463.5,270.159,463.621,270.351,463.813,270.394 M465.606,263.266h9.411
		l1.282,6.423h-11.976L465.606,263.266z"/>
	<path d="M467.09,273.536c-0.037-0.162-0.18-0.278-0.346-0.279h-9.992c-0.021-0.002-0.044-0.002-0.065,0
		c-0.142,0.029-0.251,0.139-0.28,0.279l-1.427,7.137c-0.043,0.191,0.077,0.383,0.27,0.426c0.025,0.006,0.051,0.008,0.076,0.008
		h12.847c0.196,0,0.354-0.162,0.354-0.359c0-0.025-0.003-0.05-0.008-0.074L467.09,273.536z M455.76,280.394l1.282-6.423h9.412
		l1.282,6.423H455.76z"/>
	<path d="M485.645,280.673l-1.428-7.137c-0.036-0.162-0.18-0.278-0.346-0.279h-9.992c-0.021-0.002-0.044-0.002-0.066,0
		c-0.141,0.029-0.251,0.139-0.279,0.279l-1.427,7.137c-0.043,0.191,0.077,0.383,0.271,0.426c0.024,0.006,0.05,0.008,0.075,0.008
		H485.3c0.196,0,0.355-0.162,0.354-0.359C485.653,280.722,485.651,280.698,485.645,280.673 M472.887,280.394l1.283-6.423h9.411
		l1.281,6.423H472.887z"/>
</g>
<g>
	<path d="M558.138,261.695c-0.208-0.153-0.503-0.108-0.655,0.101l-9.011,12.288c-1.425-0.46-2.922-0.726-4.45-0.771h-0.938
		c-1.528,0.045-3.025,0.311-4.45,0.771l-9.011-12.289c-0.152-0.208-0.445-0.253-0.655-0.101c-0.209,0.153-0.253,0.446-0.101,0.655
		l8.845,12.062c-3.354,1.313-6.241,3.732-8.096,6.939c-0.13,0.223-0.053,0.51,0.171,0.639c0.225,0.13,0.511,0.053,0.64-0.17
		c1.791-3.095,4.604-5.406,7.863-6.619l4.885,6.66c0.003,0.006,0.009,0.009,0.012,0.014c0.015,0.018,0.032,0.035,0.05,0.053
		c0.009,0.008,0.018,0.017,0.026,0.023c0.005,0.004,0.009,0.008,0.013,0.012c0.007,0.005,0.015,0.007,0.021,0.01
		c0.029,0.021,0.06,0.035,0.092,0.049c0.012,0.004,0.023,0.008,0.035,0.012c0.042,0.012,0.084,0.02,0.126,0.02
		c0.001,0,0.002,0,0.002,0l0,0h0.001c0.001,0,0.001,0,0.002,0c0.043,0,0.085-0.008,0.126-0.02c0.013-0.004,0.023-0.008,0.035-0.012
		c0.032-0.014,0.063-0.029,0.093-0.049c0.007-0.004,0.015-0.006,0.021-0.01c0.004-0.003,0.008-0.008,0.011-0.01
		c0.011-0.009,0.021-0.018,0.03-0.027c0.017-0.016,0.033-0.033,0.047-0.05c0.005-0.005,0.01-0.009,0.013-0.015l4.885-6.66
		c3.261,1.213,6.073,3.525,7.864,6.619c0.086,0.15,0.243,0.234,0.405,0.234c0.079,0,0.16-0.02,0.234-0.063
		c0.224-0.129,0.301-0.416,0.172-0.641c-1.854-3.207-4.741-5.627-8.097-6.939l8.845-12.062
		C558.391,262.141,558.346,261.848,558.138,261.695 M543.553,280.792l-4.33-5.904c1.39-0.417,2.845-0.645,4.33-0.645
		s2.94,0.228,4.33,0.645L543.553,280.792z"/>
	<rect x="528.777" y="261.604" fill="none" width="29.552" height="20.45"/>
</g>
<g>
	<path d="M614.848,275.49c0.1,0.1,0.298,0.1,0.397,0.1c0.099,0,0.298,0,0.396-0.1l12.607-8.141c0.198-0.099,0.397-0.397,0.298-0.695
		c0-0.298-0.198-0.496-0.396-0.596l-12.607-6.949c-0.199-0.1-0.496-0.1-0.695,0l-12.607,6.949c-0.198,0.1-0.396,0.397-0.396,0.596
		c0,0.298,0.099,0.497,0.298,0.695L614.848,275.49z M615.246,260.599l11.218,6.154l-11.218,7.147l-11.218-7.147L615.246,260.599z"/>
	<path d="M627.457,270.624l-12.211,7.844l-12.211-7.844c-0.298-0.197-0.794-0.099-0.992,0.199c-0.199,0.298-0.1,0.794,0.198,0.992
		l12.607,8.141c0.1,0.1,0.298,0.1,0.397,0.1c0.099,0,0.298,0,0.396-0.1l12.607-8.141c0.298-0.198,0.398-0.694,0.198-0.992
		C628.349,270.526,627.853,270.427,627.457,270.624"/>
	<path d="M627.457,275.191l-12.211,7.844l-12.211-7.844c-0.298-0.197-0.794-0.099-0.992,0.199c-0.199,0.298-0.1,0.794,0.198,0.992
		l12.607,8.141c0.1,0.1,0.298,0.1,0.397,0.1c0.099,0,0.298,0,0.396-0.1l12.607-8.141c0.298-0.198,0.398-0.694,0.198-0.992
		C628.349,274.993,627.853,274.894,627.457,275.191"/>
</g>
<path d="M681.815,260.36c-6.334,0-11.469,5.135-11.469,11.469s5.135,11.469,11.469,11.469s11.469-5.135,11.469-11.469
	S688.149,260.36,681.815,260.36z M679.083,276.116v-8.576l7.427,4.288L679.083,276.116z"/>
<g>
	<path d="M742.401,267.298l-6.72,0c-0.443,0-0.735,0.217-0.539,0.404c0.72,0.682,2.487,2.02,3.361,2.674
		c0.235,0.176,0.778,0.176,1.013,0c0.866-0.652,2.621-1.982,3.41-2.663C743.145,267.526,742.856,267.298,742.401,267.298z"/>
	<path d="M746.77,261.321L746.77,261.321c0-0.586-0.479-1.066-1.066-1.066l-13.4,0c-0.587,0-1.066,0.479-1.066,1.066l0,0
		c-0.001,0.586,0.479,1.066,1.066,1.066l0.567,0c-0.176,0.467-0.299,0.942-0.36,1.42c-0.331,2.582,0.828,5.039,3.045,6.424
		c0.143,0.091,0.32,0.193,0.513,0.305c0.478,0.276,1.578,0.912,1.649,1.293c-0.07,0.381-1.172,1.017-1.649,1.292
		c-0.193,0.112-0.37,0.215-0.533,0.318c-2.197,1.373-3.355,3.83-3.024,6.412c0.062,0.479,0.185,0.954,0.359,1.42h-0.567
		c-0.586,0-1.065,0.48-1.065,1.066l0,0c0,0.586,0.479,1.065,1.066,1.064l13.4,0.002c0.587-0.001,1.067-0.48,1.066-1.066l0,0
		c0.001-0.587-0.479-1.066-1.066-1.066h-0.574c0.275-0.734,0.423-1.5,0.423-2.285c0-2.234-1.126-4.291-3.031-5.517
		c-0.135-0.087-0.296-0.185-0.47-0.29c-0.514-0.309-1.569-0.946-1.635-1.351c0.065-0.404,1.122-1.042,1.636-1.351
		c0.174-0.105,0.334-0.201,0.49-0.303c1.885-1.213,3.01-3.27,3.01-5.504c-0.001-0.785-0.147-1.551-0.424-2.285l0.576,0
		C746.291,262.386,746.77,261.906,746.77,261.321z M742.021,269.423c-0.126,0.082-0.276,0.173-0.44,0.271
		c-0.904,0.546-2.029,1.223-2.079,2.108l-0.002,0.026l0.002,0.025c0.05,0.884,1.175,1.563,2.078,2.107
		c0.164,0.099,0.315,0.189,0.468,0.289c1.622,1.042,2.591,2.813,2.591,4.734c0,0.68-0.121,1.345-0.361,1.98h-0.404
		c-0.012-0.029-3.099-4.256-4.174-5.604c-0.288-0.362-0.956-0.361-1.242,0.001c-1.065,1.344-4.234,5.565-4.248,5.603h-0.48
		c-0.153-0.404-0.258-0.818-0.311-1.232c-0.286-2.223,0.711-4.339,2.628-5.537c0.134-0.085,0.299-0.18,0.479-0.285
		c0.917-0.529,2.058-1.188,2.107-2.057l0.002-0.026l-0.001-0.026c-0.051-0.869-1.191-1.527-2.108-2.057
		c-0.181-0.105-0.347-0.2-0.506-0.302c-1.891-1.183-2.889-3.297-2.602-5.521c0.053-0.414,0.157-0.827,0.311-1.232h10.549
		c0.24,0.636,0.361,1.301,0.361,1.981C744.638,266.593,743.671,268.364,742.021,269.423z"/>
</g>
<g>
	<path d="M801.885,270.622c-0.381-0.975-1.261-2.004-2.743-2.318c-0.499-0.105-0.754-0.324-0.882-0.549
		c-0.015-0.026-0.033-0.044-0.055-0.054c0.298-0.285,0.46-0.509,0.557-1.258c0.204-0.118,0.394-0.392,0.501-0.725
		c0.186-0.577,0.057-1.112-0.304-1.118c0.073-0.422,0.091-0.796,0.088-1.077c-0.005-0.495-0.135-0.98-0.384-1.408
		c-0.729-1.253-1.985-1.204-1.985-1.204c-0.975-0.048-1.407,0.473-1.58,0.797c-0.034,0.064-0.059,0.122-0.075,0.165l-0.141,0.136
		c-0.737,0.399-0.648,1.701-0.487,2.592c-0.22,0.006-0.337,0.206-0.372,0.429c-0.081,0.496,0.193,1.19,0.566,1.411
		c0.027,0.217,0.065,0.41,0.112,0.572c0.069,0.237,0.2,0.454,0.38,0.627l0.065,0.063c-0.02,0.01-0.038,0.027-0.052,0.052
		c-0.127,0.225-0.383,0.443-0.881,0.549c-1.482,0.314-2.363,1.344-2.744,2.318c-0.297,0.76-0.372,1.503-0.369,2.071
		c1.295,0.71,3.353,1.169,5.67,1.169c2.209,0,4.182-0.417,5.483-1.071C802.265,272.212,802.2,271.427,801.885,270.622z"/>
	<circle cx="791.692" cy="280.434" r="2.315"/>
	<circle cx="807.526" cy="276.823" r="2.315"/>
	<circle cx="805.582" cy="264.018" r="1.944"/>
	<circle cx="785.211" cy="269.916" r="1.836"/>
	<path d="M790.278,266.115l2.468,2.418c0.268-0.172,0.555-0.313,0.861-0.419l-2.698-2.644
		C790.759,265.736,790.54,265.958,790.278,266.115z"/>
	<path d="M790.904,271.285c0.062-0.271,0.143-0.535,0.242-0.789c0.011-0.027,0.021-0.055,0.033-0.081l-3.788-0.607
		c0.002,0.036,0.003,0.072,0.003,0.108c0,0.276-0.052,0.54-0.146,0.783L790.904,271.285z"/>
	<path d="M792.607,277.935c0.287,0.105,0.552,0.259,0.782,0.45l2.413-4.202c-0.338-0.018-0.669-0.046-0.993-0.083L792.607,277.935z"
		/>
	<path d="M804.182,265.831c-0.24-0.186-0.441-0.417-0.593-0.682l-3.546,3.08c0.294,0.129,0.568,0.29,0.821,0.482L804.182,265.831z"
		/>
	<path d="M801.471,273.495c-0.414,0.145-0.861,0.27-1.336,0.372l4.822,2.254c0.081-0.296,0.213-0.571,0.384-0.817L801.471,273.495z"
		/>
	<circle cx="789.378" cy="264.601" r="1.414"/>
</g>
<g>
	<path d="M57.294,329.681H41.922c-0.257,0-0.503,0.104-0.686,0.285l-4.578,4.578c-0.362,0.361-0.38,0.943-0.041,1.326l12.264,13.378
		c0.386,0.437,1.066,0.437,1.452,0l12.264-13.378c0.339-0.383,0.321-0.965-0.041-1.326l-4.579-4.578
		C57.797,329.784,57.551,329.681,57.294,329.681z M37.779,334.849l3.992-3.992c0.107-0.107,0.253-0.168,0.406-0.168H57.04
		c0.152,0,0.298,0.061,0.406,0.168l3.992,3.992c0.214,0.215,0.225,0.559,0.024,0.785l-11.127,12.249
		c-0.386,0.436-1.066,0.436-1.452,0l-11.127-12.249C37.554,335.407,37.564,335.064,37.779,334.849z"/>
	<g>
		<path d="M53.605,335.581h-7.995c-0.127,0-0.217,0.127-0.174,0.246l3.998,11.224c0.058,0.163,0.289,0.163,0.347,0l3.998-11.224
			C53.822,335.708,53.733,335.581,53.605,335.581z"/>
		<path d="M38.876,335.888l9.631,10.892c0.136,0.154,0.384,0.004,0.311-0.188L44.673,335.7c-0.027-0.072-0.096-0.119-0.172-0.119
			h-5.486C38.855,335.581,38.77,335.769,38.876,335.888z"/>
		<path d="M54.543,335.7l-4.145,10.892c-0.073,0.191,0.175,0.342,0.311,0.188l9.631-10.892c0.105-0.119,0.021-0.307-0.138-0.307
			h-5.486C54.639,335.581,54.571,335.628,54.543,335.7z"/>
		<path d="M45.638,334.909h7.94c0.148,0,0.236-0.166,0.152-0.289l-2.162-3.178c-0.034-0.051-0.091-0.082-0.153-0.082h-1.808h-1.807
			c-0.061,0-0.119,0.031-0.153,0.082l-2.162,3.178C45.402,334.743,45.49,334.909,45.638,334.909z"/>
		<path d="M54.837,334.909h5.265c0.165,0,0.247-0.199,0.13-0.314l-3.179-3.18c-0.035-0.035-0.082-0.055-0.13-0.055h-4.249
			c-0.148,0-0.236,0.166-0.153,0.289l2.163,3.18C54.719,334.88,54.776,334.909,54.837,334.909z"/>
		<path d="M44.531,334.829l2.163-3.18c0.083-0.123-0.004-0.289-0.153-0.289h-4.249c-0.049,0-0.096,0.02-0.13,0.055l-3.179,3.18
			c-0.116,0.115-0.034,0.314,0.13,0.314h5.265C44.44,334.909,44.497,334.88,44.531,334.829z"/>
	</g>
</g>
<g>
	<path d="M129.667,340.935v-1.289c0-1.877-1.522-3.398-3.4-3.398h-13.928c-1.878,0-3.4,1.521-3.4,3.398v1.289H129.667z"/>
	<g>
		<path d="M113.321,335.589v-1.752c0-3.299,2.684-5.982,5.982-5.982s5.983,2.684,5.983,5.982v1.752h1.459v-1.752
			c0-4.104-3.339-7.441-7.442-7.441c-4.103,0-7.442,3.338-7.442,7.441v1.752H113.321z"/>
	</g>
	<g>
		<path d="M108.939,341.921v8.884c0,1.136,0.92,2.057,2.056,2.057h16.615c1.136,0,2.057-0.921,2.057-2.057v-8.884H108.939z
			 M121.279,347.922c-0.253,0.274-0.309,0.667-0.197,1.022c0.056,0.176,0.086,0.363,0.086,0.558c0,1.054-0.873,1.902-1.934,1.863
			c-0.987-0.035-1.793-0.872-1.795-1.859c0-0.196,0.03-0.386,0.086-0.563c0.114-0.36,0.048-0.753-0.206-1.031
			c-0.478-0.523-0.752-1.235-0.695-2.013c0.098-1.336,1.207-2.415,2.545-2.48c1.545-0.075,2.821,1.155,2.821,2.684
			C121.99,346.805,121.72,347.444,121.279,347.922z"/>
	</g>
</g>
<g>
	<path d="M189.334,355.345c-3.653,0-7.442-1.196-10.67-3.369c-3.281-2.209-5.749-5.282-6.948-8.655
		c-1.274-3.58-0.469-7.363,2.33-10.939c1.786-2.284,4.37-4.395,7.275-5.942c2.836-1.512,5.805-2.404,8.358-2.516
		c0.169-0.008,0.34-0.011,0.505-0.011c4.004,0,6.136,2.15,7.219,3.955c1.071,1.784,1.336,3.553,1.375,3.862
		c0.173,0.712,2.156,9.025,1.831,14.401c-0.151,2.483-0.909,4.495-2.254,5.978c-1.134,1.249-2.395,1.789-2.933,2.02
		C193.538,354.936,191.489,355.345,189.334,355.345z M190.184,325.169c-0.147,0-0.299,0.004-0.45,0.011
		c-4.992,0.217-11.311,3.646-14.698,7.977c-1.757,2.245-3.554,5.758-2.136,9.743c2.269,6.378,9.333,11.188,16.434,11.188
		c1.984,0,3.866-0.376,5.594-1.116c1.018-0.437,4.113-1.762,4.426-6.917c0.322-5.31-1.784-13.976-1.806-14.063l-0.01-0.041
		l-0.005-0.041c-0.002-0.017-0.205-1.744-1.229-3.432C194.969,326.282,192.911,325.169,190.184,325.169z"/>
</g>
<g>
	<path d="M236.294,344.093l4.658,0.932c0.557,1.325,1.868,2.258,3.394,2.258c1.253,0,2.36-0.63,3.025-1.59h20.991
		c0.664,0.959,1.772,1.59,3.024,1.59c1.253,0,2.36-0.63,3.025-1.59h1.747c0.077,0,0.154-0.019,0.222-0.053l3.181-1.591
		c0.168-0.085,0.275-0.257,0.275-0.445v-3.181c0-0.133-0.053-0.258-0.146-0.352l-1.59-1.591c-0.074-0.073-0.168-0.122-0.269-0.14
		l-9.471-1.577l-9.476-4.739c-0.068-0.032-0.144-0.051-0.222-0.051h-7.953c-0.068,0-0.135,0.014-0.196,0.041l-11.041,4.731h-3.08
		c-0.275,0-0.498,0.222-0.498,0.497v6.361C235.895,343.842,236.063,344.046,236.294,344.093 M244.345,346.289
		c-1.48,0-2.685-1.203-2.685-2.685c0-1.479,1.204-2.684,2.685-2.684c1.479,0,2.684,1.205,2.684,2.684
		C247.03,345.086,245.825,346.289,244.345,346.289 M271.387,346.289c-1.48,0-2.685-1.203-2.685-2.685
		c0-1.479,1.205-2.684,2.685-2.684c1.48,0,2.685,1.205,2.685,2.684C274.071,345.086,272.867,346.289,271.387,346.289
		 M255.977,332.968h2.567l7.556,3.779h-10.123V332.968z M248.035,334.157l2.775-1.189h4.173v3.779h-8.243L248.035,334.157z
		 M246.62,334.764l-0.991,1.982h-3.633L246.62,334.764z M236.889,337.74h2.685h6.362l0,0h0.001h22.228l9.346,1.559l1.333,1.332
		v2.667l-2.802,1.402h-1.142c0.108-0.346,0.166-0.713,0.166-1.094c0-2.028-1.65-3.679-3.679-3.679s-3.678,1.65-3.678,3.679
		c0,0.381,0.058,0.748,0.166,1.094h-20.015c0.108-0.346,0.166-0.713,0.166-1.094c0-2.028-1.649-3.679-3.678-3.679
		s-3.679,1.65-3.679,3.679c0,0.119,0.007,0.236,0.018,0.352l-3.795-0.759L236.889,337.74L236.889,337.74z"/>
</g>
<g>
	<path d="M341.037,327.495H323.51c-1.86,0-3.37,1.51-3.37,3.369v17.526c0,1.861,1.51,3.371,3.37,3.371h17.526
		c1.86,0,3.37-1.51,3.37-3.371v-17.526C344.407,329.005,342.897,327.495,341.037,327.495 M343.058,348.391
		c0,1.105-0.916,2.022-2.021,2.022H323.51c-1.105,0-2.022-0.917-2.022-2.022v-17.526c0-1.105,0.917-2.021,2.022-2.021h17.526
		c1.105,0,2.021,0.916,2.021,2.021V348.391z"/>
	<path d="M332.273,332.888c-3.721,0-6.74,3.02-6.74,6.74s3.02,6.741,6.74,6.741s6.741-3.021,6.741-6.741
		S335.994,332.888,332.273,332.888 M332.273,345.021c-2.966,0-5.393-2.427-5.393-5.393c0-2.965,2.427-5.393,5.393-5.393
		s5.393,2.428,5.393,5.393C337.666,342.594,335.239,345.021,332.273,345.021"/>
	<path d="M330.251,338.63c-0.539,0-1.024,0.459-1.024,1.025c0,0.539,0.459,1.024,1.024,1.024c0.54,0,1.025-0.459,1.025-1.024
		C331.276,339.089,330.791,338.63,330.251,338.63"/>
	<path d="M334.296,338.63c-0.539,0-1.024,0.459-1.024,1.025c0,0.539,0.458,1.024,1.024,1.024c0.539,0,1.024-0.459,1.024-1.024
		C335.32,339.089,334.835,338.63,334.296,338.63"/>
</g>
<g>
	<path d="M419.002,331.765c-3.985-3.984-9.251-6.189-14.873-6.189c-5.621,0-10.887,2.205-14.872,6.189
		c-0.641,0.641-0.641,1.637,0,2.277s1.637,0.641,2.277,0c3.344-3.344,7.827-5.266,12.595-5.266s9.251,1.85,12.667,5.266
		c0.284,0.285,0.711,0.498,1.139,0.498c0.427,0,0.782-0.143,1.138-0.498C419.641,333.402,419.641,332.335,419.002,331.765"/>
	<path d="M410.391,341.941c0.427,0,0.782-0.143,1.139-0.427c0.64-0.641,0.64-1.637,0-2.277c-1.993-1.991-4.626-3.06-7.401-3.06
		s-5.408,1.068-7.4,3.06c-0.641,0.641-0.641,1.637,0,2.277c0.641,0.64,1.637,0.64,2.277,0c1.352-1.353,3.202-2.135,5.123-2.135
		c1.922,0,3.771,0.782,5.124,2.135C409.608,341.798,409.964,341.941,410.391,341.941"/>
	<path d="M404.129,347.135c1.809,0,3.273,1.466,3.273,3.273s-1.465,3.273-3.273,3.273c-1.808,0-3.273-1.466-3.273-3.273
		S402.321,347.135,404.129,347.135"/>
</g>
<g>
	<path d="M476.071,350.624h-11.52c-0.578,0-1.047,0.469-1.047,1.047s0.469,1.047,1.047,1.047h11.52c0.578,0,1.047-0.468,1.047-1.047
		C477.118,351.093,476.649,350.624,476.071,350.624"/>
	<path d="M483.009,326.538h-25.395c-1.084,0-1.964,0.879-1.964,1.965v18.063c0,1.085,0.88,1.964,1.964,1.964h25.395
		c1.084,0,1.964-0.879,1.964-1.964v-18.063C484.972,327.417,484.093,326.538,483.009,326.538 M482.878,344.341h-25.133v-15.708
		h25.133V344.341z"/>
</g>
<path d="M689.189,327.31h-14.747c-0.974,0-1.766,0.792-1.766,1.766v21.106c0,0.975,0.792,1.766,1.766,1.766h14.747
	c0.974,0,1.766-0.792,1.766-1.766v-21.106C690.955,328.102,690.163,327.31,689.189,327.31 M690.072,350.182
	c0,0.487-0.396,0.884-0.883,0.884h-14.747c-0.486,0-0.883-0.396-0.883-0.884v-21.106c0-0.486,0.396-0.883,0.883-0.883h14.747
	c0.486,0,0.883,0.396,0.883,0.883V350.182z"/>
<path d="M678.546,342.915c0.875,0.869,2.036,1.348,3.269,1.349l0,0h0.001h0.023c2.546-0.014,4.608-2.088,4.611-4.63v-0.005v-0.005
	v-0.02c-0.006-1.229-0.489-2.385-1.357-3.254c-0.869-0.869-2.024-1.351-3.255-1.357h-0.047c-2.545,0.014-4.607,2.088-4.61,4.63
	c0,0.002,0,0.004,0,0.006c0,0,0,0.002,0,0.003c0,0.007,0,0.014,0,0.02C677.186,340.886,677.672,342.045,678.546,342.915
	 M682.768,343.701c0.505-0.529,0.901-1.143,1.177-1.811c0.342,0.14,0.672,0.313,0.988,0.522
	C684.37,343.043,683.618,343.502,682.768,343.701 M685.217,342.059c-0.355-0.238-0.729-0.437-1.116-0.593
	c0.137-0.424,0.226-0.866,0.265-1.321c0.008-0.097,0.014-0.193,0.017-0.29h1.61C685.948,340.673,685.667,341.431,685.217,342.059
	 M685.215,337.2c0.451,0.628,0.732,1.385,0.776,2.202h-1.61c-0.021-0.551-0.121-1.091-0.293-1.606
	C684.478,337.64,684.856,337.441,685.215,337.2 M684.93,336.847c-0.319,0.211-0.655,0.386-1.002,0.525
	c-0.229-0.541-0.54-1.051-0.93-1.514c-0.092-0.108-0.188-0.213-0.286-0.314C683.583,335.736,684.354,336.202,684.93,336.847
	 M682.041,335.533c0.22,0.188,0.426,0.396,0.611,0.616c0.358,0.425,0.641,0.889,0.848,1.375c-0.476,0.148-0.966,0.232-1.459,0.253
	V335.533z M682.041,338.23c0.547-0.021,1.091-0.113,1.618-0.28c0.156,0.474,0.244,0.962,0.267,1.453h-1.885V338.23z
	 M682.041,339.855h1.886c-0.019,0.493-0.104,0.983-0.256,1.457c-0.53-0.17-1.079-0.264-1.63-0.285V339.855z M682.041,341.48
	c0.498,0.021,0.994,0.105,1.475,0.258c-0.315,0.76-0.809,1.459-1.475,2.03V341.48z M678.698,342.411
	c0.315-0.208,0.646-0.382,0.987-0.521c0.229,0.557,0.547,1.08,0.946,1.554c0.074,0.087,0.151,0.173,0.231,0.257
	C680.013,343.502,679.261,343.043,678.698,342.411 M681.589,343.769c-0.22-0.188-0.426-0.396-0.611-0.616
	c-0.368-0.437-0.656-0.915-0.864-1.415c0.48-0.152,0.978-0.237,1.476-0.258V343.769z M681.589,341.027
	c-0.552,0.021-1.101,0.116-1.631,0.285c-0.152-0.475-0.237-0.966-0.255-1.457h1.886V341.027z M681.589,339.403h-1.884
	c0.022-0.493,0.112-0.981,0.267-1.452c0.526,0.166,1.071,0.259,1.617,0.279V339.403z M681.589,335.533v2.244
	c-0.492-0.021-0.982-0.103-1.457-0.252C680.447,336.781,680.934,336.095,681.589,335.533 M680.918,335.542
	c-0.522,0.533-0.934,1.152-1.217,1.83c-0.348-0.14-0.684-0.316-1.005-0.529C679.272,336.2,680.045,335.734,680.918,335.542
	 M678.413,337.198c0.359,0.242,0.738,0.441,1.13,0.598c-0.145,0.436-0.238,0.892-0.278,1.361c-0.007,0.082-0.012,0.164-0.015,0.245
	h-1.611C677.681,338.583,677.963,337.826,678.413,337.198 M679.248,339.855c0.018,0.552,0.113,1.094,0.28,1.612
	c-0.386,0.155-0.76,0.354-1.114,0.591c-0.45-0.628-0.731-1.385-0.775-2.203H679.248L679.248,339.855z"/>
<path d="M686.76,338.966h-9.888c-0.365,0-0.662,0.296-0.662,0.662c0,0.365,0.297,0.662,0.662,0.662h9.888
	c0.365,0,0.662-0.297,0.662-0.662C687.422,339.262,687.125,338.966,686.76,338.966"/>
<g>
	<path d="M735.506,344.625c-4.684,0-8.494-3.811-8.494-8.494c0-4.685,3.811-8.495,8.494-8.495c4.685,0,8.495,3.811,8.495,8.495
		c0,0.359-0.029,0.712-0.073,1.062c-0.034,0.274-0.292,0.465-0.559,0.434c-0.272-0.034-0.468-0.284-0.434-0.558
		c0.038-0.308,0.066-0.62,0.066-0.938c0-4.134-3.362-7.495-7.496-7.495c-4.133,0-7.495,3.361-7.495,7.495
		c0,4.133,3.362,7.495,7.495,7.495c0.318,0,0.63-0.028,0.938-0.065c0.27-0.032,0.523,0.159,0.559,0.434
		c0.034,0.273-0.16,0.523-0.434,0.558C736.219,344.595,735.867,344.625,735.506,344.625"/>
	<path d="M750.496,351.62h-13.99c-0.276,0-0.5-0.224-0.5-0.499V337.13c0-0.275,0.224-0.5,0.5-0.5h13.99c0.276,0,0.5,0.225,0.5,0.5
		v13.991C750.996,351.397,750.772,351.62,750.496,351.62 M737.005,350.621h12.992V337.63h-12.992V350.621z"/>
</g>
<g>
	<path d="M796.619,341.566c1.081,0,1.95-0.893,1.95-1.949s-0.893-1.949-1.95-1.949c-1.057,0-1.949,0.893-1.949,1.949
		S795.539,341.566,796.619,341.566 M803.948,327.872h-6.365v1.949h6.365c1.456,0,2.443,0.986,2.443,2.443v14.681
		c0,1.456-0.987,2.442-2.443,2.442h-6.365v1.95h6.365c2.937,0,4.416-1.457,4.416-4.417v-14.68
		C808.364,329.328,806.908,327.872,803.948,327.872 M786.824,346.946v-14.681c0-1.457,0.986-2.443,2.443-2.443h6.365v-1.949h-6.365
		c-2.937,0-4.416,1.456-4.416,4.416v14.681c0,2.936,1.456,4.416,4.416,4.416h6.365v-1.949h-6.365
		C787.81,349.412,786.824,348.425,786.824,346.946"/>
</g>
<g>
	<g>
		<rect x="36.249" y="394.658" width="25.814" height="1.032"/>
		<polygon points="43.829,405.329 43.829,399.448 45.051,399.448 45.051,401.69 47.336,401.69 47.336,399.448 48.557,399.448 
			48.557,405.329 47.336,405.329 47.336,402.703 45.051,402.703 45.051,405.329 		"/>
		<path d="M53.184,399.575c0.413,0.136,0.747,0.385,1.002,0.746c0.205,0.293,0.344,0.609,0.419,0.949
			c0.074,0.341,0.112,0.666,0.112,0.974c0,0.782-0.157,1.444-0.471,1.986c-0.427,0.732-1.083,1.099-1.973,1.099h-2.535v-5.881h2.535
			C52.638,399.452,52.942,399.495,53.184,399.575 M50.931,400.47v3.837h1.135c0.582,0,0.986-0.286,1.215-0.857
			c0.125-0.313,0.188-0.688,0.188-1.12c0-0.599-0.094-1.059-0.282-1.38c-0.188-0.32-0.561-0.479-1.121-0.479H50.931L50.931,400.47z"
			/>
		<rect x="47.349" y="409.889" width="3.614" height="1.549"/>
		<rect x="44.51" y="411.438" width="9.293" height="1.29"/>
		<rect x="36.249" y="408.857" width="25.814" height="1.032"/>
		<rect x="36.249" y="394.658" width="1.033" height="15.23"/>
	</g>
	<rect x="61.934" y="394.658" width="1.033" height="15.229"/>
</g>
<g>
	<path d="M122.11,392.562c-1.36,0.254-2.575,1.072-3.419,2.304c0,0-7.263,10.509-7.263,10.509c-0.181,0.262-0.115,0.62,0.146,0.801
		c0.262,0.181,0.62,0.115,0.801-0.146l7.265-10.511c0.671-0.98,1.624-1.627,2.682-1.825c0.967-0.181,1.927,0.031,2.773,0.612
		c1.876,1.286,1.68,3.976,0.406,5.834l-7.875,11.382c-1.501,2.189-2.875,2.72-4.59,1.772c-0.022-0.017-0.031-0.023-0.051-0.039
		c-0.562-0.531-0.848-1.124-0.848-1.834c0-0.948,0.507-2.104,1.54-3.603c0.001-0.001,7.161-10.446,7.161-10.446
		c0.542-0.791,1.08-1.241,1.6-1.338c0.383-0.071,0.786,0.043,1.234,0.35c1.187,0.813,0.287,2.505-0.354,3.44l-6.299,9.189
		c-0.18,0.262-0.113,0.62,0.15,0.801c0.262,0.179,0.62,0.112,0.8-0.15l6.299-9.188c1.483-2.163,1.504-4.048,0.056-5.041
		c-0.703-0.481-1.408-0.66-2.097-0.532c-0.842,0.157-1.606,0.752-2.337,1.818l-7.161,10.445c-1.447,2.101-2.815,4.789-0.52,6.94
		c0.014,0.014,0.028,0.025,0.043,0.037l0.125,0.096c0.022,0.017,0.045,0.032,0.069,0.045c2.276,1.276,4.281,0.586,6.129-2.109
		l7.875-11.382c1.595-2.327,1.767-5.743-0.703-7.437C124.656,392.609,123.365,392.327,122.11,392.562"/>
</g>
<g>
	<path d="M196.373,411.926l-3.738-9.236c-0.176-0.462-0.321-0.831-0.436-1.107c-0.113-0.276-0.253-0.536-0.419-0.776
		c-0.166-0.241-0.384-0.438-0.654-0.591c-0.271-0.153-0.606-0.229-1.011-0.229c-0.396,0-0.73,0.076-1,0.229
		c-0.271,0.152-0.488,0.353-0.654,0.601c-0.166,0.247-0.322,0.558-0.469,0.932c-0.146,0.375-0.271,0.695-0.376,0.962l-1.561,3.964
		c-0.718-0.24-1.357-0.65-1.866-1.19c1.616-1.339,2.646-3.36,2.646-5.618v-1.006h4.174c0.765,0,1.385-0.62,1.385-1.385
		s-0.62-1.384-1.385-1.384h-4.174v-2.106c0-0.765-0.62-1.384-1.385-1.384s-1.384,0.619-1.384,1.384v2.106h-7.722
		c-0.765,0-1.385,0.619-1.385,1.384s0.62,1.385,1.385,1.385h7.722v1.006c0,1.123-0.412,2.151-1.092,2.944
		c-0.013-0.142-0.021-0.284-0.021-0.429c0-0.764-0.62-1.384-1.385-1.384c-0.764,0-1.384,0.62-1.384,1.384
		c0,0.665,0.091,1.31,0.258,1.921c-0.292,0.061-0.595,0.092-0.905,0.092c-0.764,0-1.384,0.619-1.384,1.384s0.62,1.384,1.384,1.384
		c0.755,0,1.483-0.115,2.169-0.329c0.848,1.098,2,1.947,3.33,2.42l-1.084,2.752c-0.149,0.371-0.257,0.66-0.322,0.869
		c-0.064,0.208-0.098,0.41-0.098,0.605c0,0.338,0.14,0.641,0.42,0.907c0.28,0.268,0.603,0.401,0.967,0.401
		c0.43,0,0.738-0.126,0.928-0.376c0.188-0.251,0.416-0.734,0.683-1.45l0.684-1.835h5.818l0.684,1.796
		c0.092,0.222,0.2,0.477,0.327,0.767c0.127,0.289,0.246,0.504,0.356,0.645c0.11,0.14,0.247,0.25,0.41,0.331
		c0.162,0.082,0.358,0.122,0.586,0.122c0.391,0,0.724-0.138,1.001-0.415c0.276-0.276,0.414-0.581,0.414-0.912
		C196.812,413.139,196.666,412.628,196.373,411.926 M187.977,408.948l2.118-5.906l2.157,5.906H187.977z"/>
</g>
<g>
	<path d="M269.474,408.762h-12.375c0.391-1.28,0.742-2.663,1.067-4.078c0.868-0.591,1.721-1.076,2.452-1.365
		c0.603-0.238,0.906-0.256,1.021-0.256c0.036,0,0.054,0.002,0.056-0.002c0.022,0.057,0.243,0.748-1.03,3.293
		c-0.285,0.57-0.228,0.988,0.168,1.246c0.619,0.4,0.908,0.051,1.981-1.26c0.727-0.887,1.942-2.371,2.545-2.779
		c0.641-0.432,1.01-0.448,1.089-0.383c0.146,0.113,0.295,0.818-0.208,2.166c-0.146,0.393,0.053,0.827,0.444,0.975
		c0.395,0.147,0.828-0.055,0.974-0.443c0.673-1.804,0.574-3.221-0.273-3.889c-0.415-0.325-1.337-0.719-2.874,0.319
		c-0.362,0.245-0.793,0.665-1.276,1.195c0.042-0.631-0.099-1.108-0.42-1.458c-0.824-0.898-2.279-0.322-2.755-0.133
		c-0.433,0.172-0.92,0.414-1.438,0.712c0.118-0.548,0.233-1.093,0.348-1.632c0.045-0.216,0.09-0.429,0.135-0.641
		c1.251-0.657,2.315-1.4,2.841-2.104c2.173-2.896,1.923-4.48,1.581-5.164c-0.303-0.605-0.896-0.967-1.585-0.967
		c-1.055,0-2.104,0.785-2.736,2.052c-0.496,0.991-0.943,2.882-1.43,5.147c-1.78,0.842-3.858,1.5-4.96,1.5
		c-0.418,0-0.757,0.34-0.757,0.758s0.339,0.757,0.757,0.757c1.118,0,2.873-0.478,4.569-1.178c-0.178,0.838-0.369,1.735-0.577,2.651
		c-2.026,1.461-4.076,3.395-4.963,4.959h-5.59c-0.279,0-0.505,0.226-0.505,0.504c0,0.279,0.226,0.505,0.505,0.505h5.08
		c-0.608,1.335-1.445,3.651-0.585,4.83c0.235,0.323,0.665,0.669,1.423,0.669c0.165,0,0.344-0.017,0.54-0.053
		c1.79-0.329,3.059-2.518,4.059-5.447h12.701c0.279,0,0.505-0.226,0.505-0.505C269.979,408.987,269.753,408.762,269.474,408.762
		 M260.562,394.844c0.417-0.834,1.009-1.214,1.382-1.214c0.152,0,0.198,0.063,0.231,0.13c0.186,0.371,0.091,1.541-1.438,3.578
		c-0.24,0.322-0.663,0.669-1.196,1.016C259.891,396.799,260.232,395.506,260.562,394.844 M256.25,406.143
		c-0.231,0.904-0.477,1.788-0.741,2.619h-1.846C254.293,407.94,255.221,407.011,256.25,406.143 M252.441,413.729
		c-0.293,0.055-0.439,0.018-0.465-0.019c-0.277-0.382,0.125-2.158,1.047-3.939h2.148
		C254.399,411.93,253.497,413.535,252.441,413.729"/>
	<path d="M245.9,406.472c0.099,0.099,0.228,0.147,0.357,0.147s0.258-0.049,0.357-0.147l1.157-1.157l1.157,1.156
		c0.099,0.1,0.228,0.148,0.357,0.148s0.258-0.049,0.357-0.147c0.197-0.196,0.197-0.517,0-0.714l-1.158-1.157l1.157-1.157
		c0.197-0.197,0.197-0.517,0-0.713c-0.197-0.197-0.517-0.197-0.714,0l-1.157,1.156l-1.157-1.156c-0.197-0.197-0.517-0.197-0.714,0
		c-0.197,0.196-0.197,0.516,0,0.713l1.157,1.157l-1.157,1.157C245.703,405.955,245.703,406.274,245.9,406.472"/>
</g>
<path d="M344.407,401.042c-0.157-0.151-0.323-0.295-0.495-0.43l-2.362-2.002c-0.908-0.646-1.995-1.055-3.17-1.138l0.124,0.124
	l-1.433-1.441l-0.009,0.002c-0.399-0.363-0.93-0.585-1.513-0.585c-1,0-1.847,0.652-2.139,1.555
	c-0.288-0.183-0.623-0.297-0.983-0.318c-0.06-0.006-0.12-0.009-0.18-0.009c-0.41,0-0.792,0.119-1.113,0.324
	c-0.294-0.898-1.139-1.548-2.136-1.548c-0.583,0-1.114,0.222-1.514,0.585l-0.009-0.002l-1.434,1.441l0.124-0.125
	c-1.175,0.084-2.261,0.493-3.17,1.139l-2.361,2.002c-0.173,0.135-0.338,0.278-0.495,0.43c-1.178,1.141-1.912,2.737-1.912,4.503
	c0,3.454,2.811,6.264,6.265,6.264c3.193,0,5.835-2.401,6.217-5.493c0.461,0.265,0.995,0.417,1.564,0.417
	c0.568,0,1.102-0.152,1.563-0.417c0.383,3.09,3.025,5.489,6.217,5.489c3.454,0,6.264-2.811,6.264-6.265
	C346.319,403.779,345.585,402.183,344.407,401.042 M324.492,409.824c-2.361,0-4.275-1.914-4.275-4.275
	c0-2.362,1.915-4.276,4.275-4.276c0.136,0,0.269,0.007,0.401,0.02l0.539,0.085c1.909,0.428,3.337,2.133,3.337,4.172
	C328.769,407.91,326.854,409.824,324.492,409.824 M332.273,405.274c-0.821,0-1.506-0.582-1.665-1.355
	c-0.021-0.11-0.034-0.224-0.034-0.339c0-0.938,0.761-1.698,1.699-1.698h0.001c0.82,0,1.505,0.582,1.664,1.355
	c0.022,0.109,0.034,0.223,0.034,0.339C333.972,404.513,333.211,405.274,332.273,405.274 M340.054,409.821
	c-2.362,0-4.276-1.915-4.276-4.275c0-2.04,1.428-3.744,3.338-4.172l0.537-0.085c0.132-0.012,0.266-0.02,0.401-0.02
	c2.361,0,4.275,1.914,4.275,4.276C344.33,407.906,342.415,409.821,340.054,409.821"/>
<g>
	<path d="M411.731,402.646c-1.072-0.536-2.467-0.832-3.926-0.832c-0.434,0-0.861,0.026-1.276,0.077v-4.993
		c0-1.164-0.781-2.222-2.141-2.902c-1.072-0.536-2.467-0.831-3.927-0.831c-1.459,0-2.854,0.295-3.926,0.831
		c-1.36,0.681-2.141,1.738-2.141,2.902v10.193c0,1.164,0.78,2.222,2.141,2.902c1.072,0.536,2.467,0.831,3.926,0.831
		c0.439,0,0.871-0.028,1.291-0.08c0.105,1.062,0.866,2.016,2.126,2.646c1.072,0.536,2.467,0.831,3.927,0.831
		c1.459,0,2.854-0.295,3.926-0.831c1.36-0.681,2.141-1.738,2.141-2.902v-4.941C413.872,404.384,413.092,403.325,411.731,402.646
		 M412.393,405.547c0,0.813-1.744,1.945-4.588,1.945s-4.59-1.133-4.59-1.945c0-0.812,1.746-1.944,4.59-1.944
		S412.393,404.736,412.393,405.547 M412.393,408.193c0,0.812-1.744,1.944-4.588,1.944s-4.59-1.133-4.59-1.944
		c0-0.12,0.041-0.247,0.114-0.376c1.08,0.668,2.658,1.076,4.476,1.076c1.816,0,3.395-0.408,4.474-1.076
		C412.354,407.946,412.393,408.073,412.393,408.193 M400.462,394.953c2.844,0,4.59,1.132,4.59,1.944c0,0.812-1.746,1.945-4.59,1.945
		c-2.842,0-4.588-1.134-4.588-1.945C395.874,396.085,397.619,394.953,400.462,394.953 M395.988,399.167
		c1.079,0.668,2.657,1.075,4.474,1.075c1.817,0,3.396-0.407,4.476-1.075c0.073,0.128,0.114,0.255,0.114,0.375
		c0,0.813-1.746,1.944-4.59,1.944c-2.842,0-4.588-1.132-4.588-1.944C395.874,399.422,395.914,399.295,395.988,399.167
		 M395.988,401.812c1.079,0.667,2.657,1.075,4.474,1.075c1.817,0,3.396-0.408,4.476-1.075c0.073,0.129,0.114,0.255,0.114,0.375
		c0,0.002,0,0.004,0,0.006c-0.421,0.122-0.814,0.273-1.173,0.453c-0.702,0.351-1.248,0.804-1.614,1.318
		c-0.535,0.104-1.139,0.168-1.803,0.168c-2.842,0-4.588-1.133-4.588-1.945C395.874,402.067,395.914,401.941,395.988,401.812
		 M395.988,404.455c1.079,0.668,2.657,1.076,4.474,1.076c0.442,0,0.87-0.025,1.28-0.072c-0.001,0.03-0.004,0.059-0.004,0.088v1.146
		c-0.396,0.053-0.821,0.082-1.276,0.082c-2.843,0-4.589-1.133-4.589-1.944C395.874,404.712,395.914,404.585,395.988,404.455
		 M395.795,407.091v-0.115c1.081,0.742,2.74,1.2,4.667,1.2c0.442,0,0.867-0.025,1.276-0.071v1.229
		c-0.405,0.058-0.833,0.091-1.276,0.091C397.885,409.425,395.795,408.38,395.795,407.091 M412.472,410.489
		c0,1.288-2.09,2.334-4.667,2.334s-4.667-1.046-4.667-2.334v-0.02v-0.133c1.081,0.742,2.739,1.2,4.667,1.2
		c1.927,0,3.587-0.458,4.667-1.2V410.489z"/>
</g>
<image overflow="visible" width="325" height="146" xlink:href="6BEE68CD.jpg"  transform="matrix(0.0912 0 0 0.0912 779.8591 100.7854)">
</image>
<g>
	<g>
		<path d="M467.176,416.993c-0.056,0-0.109-0.005-0.164-0.01c-0.663-0.077-1.146-0.606-1.455-1.108
			c-0.239,0.363-0.588,0.708-1.078,0.793c-0.761,0.135-1.538-0.389-2.375-1.597c-1.013-1.461-0.771-4.053,0.72-7.701
			c0.906-2.215,1.986-4.125,2.346-4.736l-2.063-4.754c-0.052-0.117-0.05-0.251,0.003-0.369c0.054-0.114,0.155-0.203,0.278-0.241
			c0.96-0.289,1.651-0.839,2.059-1.632c0.979-1.91,0.072-4.622,0.063-4.648c-0.045-0.139-0.023-0.29,0.062-0.408
			c0.084-0.119,0.221-0.188,0.365-0.188h1.896c0.248,0,0.45,0.202,0.45,0.45c0,0.25-0.202,0.45-0.45,0.45h-1.301
			c0.244,1.005,0.574,3.085-0.282,4.755c-0.451,0.881-1.165,1.522-2.125,1.915l1.965,4.523c0.059,0.133,0.049,0.288-0.027,0.412
			c-1.465,2.422-4.899,9.233-3.217,11.66c0.827,1.19,1.312,1.251,1.481,1.221c0.389-0.067,0.7-0.769,0.783-1.08
			c0.052-0.192,0.222-0.328,0.42-0.336c0.198-0.005,0.378,0.118,0.44,0.307c0.151,0.436,0.629,1.358,1.148,1.42
			c0.381,0.043,0.868-0.38,1.377-1.189c0.095-0.149,0.27-0.23,0.445-0.205c0.177,0.026,0.321,0.152,0.369,0.325
			c0.002,0.01,0.327,1.07,1.003,1.07c0.248,0,0.45,0.202,0.45,0.45c0,0.25-0.202,0.45-0.45,0.45c-0.749,0-1.233-0.495-1.521-0.958
			C468.262,416.672,467.723,416.993,467.176,416.993z"/>
		<path d="M473.447,416.993c-0.547,0-1.089-0.321-1.613-0.96c-0.288,0.463-0.772,0.958-1.521,0.958c-0.25,0-0.451-0.2-0.451-0.45
			c0-0.248,0.201-0.45,0.451-0.45c0.677,0,0.999-1.061,1.004-1.072c0.05-0.171,0.192-0.297,0.368-0.321
			c0.177-0.026,0.352,0.055,0.446,0.203c0.508,0.812,0.996,1.229,1.377,1.189c0.522-0.062,0.998-0.984,1.146-1.42
			c0.063-0.188,0.243-0.314,0.441-0.307c0.199,0.008,0.37,0.144,0.421,0.336c0.088,0.322,0.395,1.015,0.783,1.082
			c0.171,0.028,0.654-0.032,1.481-1.223c1.684-2.427-1.751-9.238-3.216-11.66c-0.076-0.124-0.086-0.279-0.028-0.412l1.963-4.523
			c-0.959-0.393-1.672-1.034-2.123-1.915c-0.857-1.67-0.526-3.75-0.281-4.755h-1.302c-0.249,0-0.45-0.2-0.45-0.45
			c0-0.248,0.201-0.45,0.45-0.45h1.894c0.146,0,0.282,0.069,0.368,0.188c0.084,0.118,0.106,0.27,0.059,0.408
			c-0.007,0.026-0.912,2.748,0.065,4.65c0.406,0.792,1.099,1.341,2.056,1.63c0.124,0.038,0.225,0.127,0.277,0.241
			c0.057,0.118,0.057,0.252,0.007,0.369l-2.063,4.754c0.356,0.611,1.438,2.521,2.343,4.736c1.493,3.648,1.735,6.24,0.723,7.701
			c-0.838,1.208-1.617,1.729-2.378,1.597c-0.489-0.085-0.837-0.43-1.075-0.793c-0.313,0.502-0.792,1.031-1.457,1.108
			C473.557,416.989,473.501,416.993,473.447,416.993z"/>
	</g>
	<path d="M470.31,395.865c-1.698,0-3.029-2.177-3.029-4.958c0-0.171,0.099-0.329,0.253-0.403c0.155-0.076,0.339-0.057,0.475,0.05
		c0.006,0.005,0.823,0.613,2.302,0.613c1.478,0,2.295-0.606,2.303-0.613c0.136-0.106,0.321-0.126,0.476-0.05
		c0.154,0.074,0.254,0.232,0.254,0.403C473.343,393.689,472.01,395.865,470.31,395.865z M468.222,391.68
		c0.194,1.846,1.072,3.285,2.088,3.285c1.018,0,1.894-1.439,2.09-3.285c-0.483,0.197-1.186,0.391-2.09,0.391
		C469.409,392.071,468.704,391.877,468.222,391.68z"/>
	<path d="M470.26,407.775c-0.972,0-1.841-0.083-2.568-0.195c-2.3-0.358-3.735-1.062-3.795-1.091
		c-0.225-0.111-0.313-0.381-0.205-0.605c0.111-0.223,0.381-0.313,0.605-0.203l0,0c0.014,0.007,1.396,0.681,3.566,1.012
		c1.993,0.307,5.083,0.376,8.481-1.024c0.229-0.096,0.494,0.016,0.587,0.245c0.095,0.23-0.014,0.492-0.244,0.588
		C474.327,407.474,472.105,407.775,470.26,407.775z"/>
	<path d="M470.247,412.655c-1.165,0-2.206-0.083-3.082-0.196c-2.758-0.354-4.476-1.049-4.548-1.078
		c-0.229-0.094-0.339-0.356-0.246-0.587c0.096-0.23,0.357-0.341,0.588-0.247l0,0c0.018,0.009,1.705,0.688,4.354,1.024
		c2.437,0.307,6.214,0.381,10.366-1.034c0.233-0.079,0.491,0.047,0.571,0.282c0.079,0.236-0.047,0.492-0.282,0.571
		C475.134,412.355,472.464,412.655,470.247,412.655z"/>
</g>
<g>
	<g>
		<path d="M535.49,413.66c-0.498,0-0.979-0.18-1.35-0.545l0,0c-0.001-0.001-0.002-0.003-0.004-0.004
			c-0.001-0.002-0.003-0.003-0.004-0.005l0,0c-0.79-0.799-0.716-2.114,0.171-3l6.926-6.925c0.173-0.175,0.455-0.175,0.63,0
			c0.174,0.174,0.174,0.455,0,0.631l-6.926,6.926c-0.533,0.533-0.606,1.297-0.166,1.742c0.445,0.438,1.207,0.367,1.741-0.168
			l6.926-6.926c0.173-0.173,0.456-0.173,0.63,0c0.175,0.176,0.175,0.457,0,0.632l-6.924,6.925
			C536.665,413.418,536.066,413.66,535.49,413.66z"/>
	</g>
	<g>
		<path d="M545.945,407.271c-0.811,0-1.575-0.317-2.152-0.895l-2.937-2.937c-0.575-0.575-0.891-1.338-0.891-2.149
			c0-0.813,0.315-1.575,0.891-2.15l5.415-5.415l7.25,7.251l-5.379,5.378C547.552,406.946,546.77,407.271,545.945,407.271z
			 M546.271,394.986l-4.785,4.786c-0.405,0.405-0.629,0.944-0.629,1.519s0.224,1.113,0.629,1.519l2.937,2.937
			c0.408,0.409,0.949,0.634,1.522,0.634c0.588,0,1.145-0.233,1.566-0.656l4.749-4.747L546.271,394.986z"/>
	</g>
	<g>
		<path d="M548.006,405.991c-0.114,0-0.228-0.044-0.316-0.131l-6.46-6.462c-0.176-0.175-0.176-0.456,0-0.63
			c0.173-0.175,0.455-0.175,0.629,0l6.462,6.462c0.175,0.174,0.175,0.455,0,0.63C548.233,405.948,548.119,405.991,548.006,405.991z"
			/>
	</g>
	<g>
		<path d="M545.799,398.426c-0.113,0-0.228-0.043-0.315-0.13c-0.174-0.175-0.174-0.456,0-0.632l1.983-1.981
			c0.173-0.175,0.456-0.175,0.63,0c0.175,0.174,0.175,0.457,0,0.63l-1.981,1.983C546.026,398.383,545.913,398.426,545.799,398.426z"
			/>
	</g>
	<g>
		<path d="M546.271,401.421c-0.114,0-0.228-0.043-0.314-0.131c-0.175-0.174-0.175-0.456,0-0.631l3.252-3.252
			c0.174-0.175,0.457-0.175,0.631,0c0.175,0.173,0.175,0.455,0,0.63l-3.253,3.253C546.5,401.376,546.385,401.421,546.271,401.421z"
			/>
	</g>
	<g>
		<path d="M543.736,404.202c-0.181,0-0.352-0.071-0.479-0.199c-0.265-0.265-0.265-0.694,0-0.959c0.256-0.256,0.702-0.256,0.959,0
			c0.265,0.265,0.265,0.695,0,0.959C544.088,404.131,543.917,404.202,543.736,404.202z M543.736,403.31
			c-0.058,0-0.111,0.023-0.151,0.063c-0.084,0.084-0.084,0.22,0,0.302c0.08,0.08,0.222,0.08,0.302,0
			c0.084-0.082,0.084-0.219,0-0.302C543.846,403.333,543.793,403.31,543.736,403.31z"/>
	</g>
</g>
<g>
	<g>
		<path d="M605.148,410.531h-2.474v-13.659h2.474V410.531L605.148,410.531z M602.9,410.306h2.022v-13.209H602.9V410.306z"/>
	</g>
	<g>
		<path d="M627.744,399.346h-25.069v-2.474h25.069V399.346z M602.9,399.12h24.618v-2.023H602.9V399.12z"/>
	</g>
	<g>
		<polygon points="602.849,410.482 602.724,410.356 604.91,408.17 602.662,405.922 604.91,403.674 602.662,401.425 604.91,399.177 
			602.781,397.047 602.907,396.922 605.161,399.177 602.913,401.425 605.161,403.674 602.913,405.922 605.161,408.17 		"/>
	</g>
	<g>
		<path d="M627.744,410.531h-2.474v-13.659h2.474V410.531z M625.496,410.306h2.022v-13.209h-2.022V410.306z"/>
	</g>
	<g>
		<polygon points="625.446,410.482 625.32,410.356 627.506,408.17 625.258,405.922 627.506,403.674 625.258,401.425 
			627.506,399.176 625.377,397.047 625.503,396.922 627.757,399.176 625.509,401.425 627.757,403.674 625.509,405.922 
			627.757,408.17 		"/>
	</g>
	<g>
		<polygon points="625.36,399.411 623.055,397.106 620.802,399.359 618.55,397.106 616.292,399.363 614.039,397.11 611.791,399.359 
			609.537,397.106 607.284,399.359 605.036,397.11 602.849,399.296 602.724,399.17 605.036,396.86 607.284,399.108 609.537,396.855 
			611.791,399.108 614.039,396.86 616.292,399.113 618.55,396.855 620.802,399.108 623.055,396.855 625.36,399.16 627.598,396.922 
			627.723,397.047 		"/>
	</g>
	<g>
		<g>
			
				<rect x="608.411" y="398.937" transform="matrix(0.9465 -0.3227 0.3227 0.9465 -96.4525 217.8942)" width="1.229" height="1.896"/>
		</g>
		<g>
			<g>
				<rect x="608.446" y="400.128" width="0.169" height="0.932"/>
			</g>
			<g>
				
					<rect x="609.384" y="400.058" transform="matrix(-0.6346 -0.7728 0.7728 -0.6346 687.6198 1125.3901)" width="0.933" height="0.169"/>
			</g>
		</g>
	</g>
	<g>
		<g>
			<rect x="613.695" y="398.706" width="1.229" height="1.896"/>
		</g>
		<g>
			<g>
				
					<rect x="613.529" y="399.699" transform="matrix(-0.9377 -0.3473 0.3473 -0.9377 1050.0447 988.5364)" width="0.169" height="0.932"/>
			</g>
			<g>
				
					<rect x="614.542" y="400.081" transform="matrix(-0.3503 -0.9366 0.9366 -0.3503 455.6492 1116.3855)" width="0.931" height="0.169"/>
			</g>
		</g>
	</g>
	<g>
		<g>
			
				<rect x="621.753" y="398.62" transform="matrix(0.7075 0.7067 -0.7067 0.7075 464.4186 -322.9614)" width="1.23" height="1.896"/>
		</g>
		<g>
			<g>
				
					<rect x="621.428" y="398.969" transform="matrix(-0.4147 -0.91 0.91 -0.4147 515.7613 1130.6284)" width="0.17" height="0.932"/>
			</g>
			<g>
				
					<rect x="622.415" y="399.956" transform="matrix(-0.9112 -0.4121 0.4121 -0.9112 1024.6993 1021.7733)" width="0.168" height="0.932"/>
			</g>
		</g>
	</g>
</g>
<g>
	<path d="M685.348,404.355c-1.048-0.348-1.675-1.345-1.675-2.668c0-0.276-0.225-0.501-0.501-0.501h-2.715
		c-0.276,0-0.501,0.225-0.501,0.501c0,1.323-0.626,2.32-1.676,2.669c-0.206,0.068-0.344,0.259-0.344,0.476v4.375v1.341
		c0,0.276,0.224,0.501,0.5,0.501h6.755c0.276,0,0.501-0.225,0.501-0.501v-5.716C685.693,404.615,685.554,404.422,685.348,404.355z
		 M681.815,406.249c0.204,0,0.372,0.167,0.372,0.371s-0.168,0.37-0.372,0.37c-0.205,0-0.372-0.166-0.372-0.37
		S681.61,406.249,681.815,406.249z M684.691,410.044h-5.753v-0.339h5.753V410.044z M684.691,408.703h-5.752v-3.532
		c1.121-0.515,1.851-1.607,1.994-2.983h0.381v3.158c-0.509,0.2-0.873,0.694-0.873,1.274c0,0.757,0.617,1.372,1.374,1.372
		s1.374-0.615,1.374-1.372c0-0.58-0.363-1.074-0.873-1.274v-3.158h0.382c0.142,1.376,0.871,2.469,1.993,2.983V408.703
		L684.691,408.703z M691.573,404.622c-0.095-0.094-0.223-0.146-0.354-0.146h-0.797c-0.489-2.575-2.107-4.752-4.317-5.998h3.191
		c0.167,0.258,0.454,0.431,0.783,0.431c0.514,0,0.932-0.418,0.932-0.932s-0.418-0.932-0.932-0.932c-0.329,0-0.616,0.172-0.783,0.431
		h-5.841v-0.639c0-0.134-0.052-0.26-0.146-0.354c-0.096-0.095-0.223-0.147-0.355-0.147h-2.278c-0.276,0-0.501,0.225-0.501,0.501
		v0.639h-5.97c-0.164-0.259-0.453-0.432-0.782-0.432c-0.514,0-0.932,0.418-0.932,0.933c0,0.514,0.418,0.932,0.932,0.932
		c0.329,0,0.618-0.173,0.782-0.432h3.327c-2.213,1.246-3.829,3.423-4.319,5.999h-0.801c-0.134,0-0.26,0.052-0.354,0.146
		c-0.095,0.094-0.147,0.223-0.147,0.354v2.279c0,0.134,0.053,0.26,0.147,0.354c0.094,0.095,0.22,0.147,0.354,0.147h2.278
		c0.276,0,0.501-0.225,0.501-0.501v-2.279c0-0.132-0.052-0.261-0.146-0.354c-0.095-0.094-0.223-0.146-0.355-0.146h-0.459
		c0.642-2.966,2.978-5.305,5.943-5.944v0.584c0,0.276,0.225,0.501,0.501,0.501h2.278c0.277,0,0.501-0.225,0.501-0.501v-0.58
		c2.966,0.641,5.304,2.977,5.944,5.94h-0.46c-0.276,0-0.501,0.224-0.501,0.5v2.279c0,0.134,0.053,0.26,0.147,0.354
		c0.094,0.095,0.222,0.147,0.354,0.147h2.279c0.276,0,0.501-0.225,0.501-0.501v-2.279
		C691.719,404.845,691.667,404.716,691.573,404.622z M674.189,406.755h-1.276v-1.276h1.276V406.755z M682.453,398.615h-1.276v-1.276
		h1.276V398.615z M690.718,406.755h-1.277v-1.276h1.277V406.755z"/>
</g>
<g>
	<path d="M744.259,395.185l-1.829-3.012c-0.043-0.069-0.111-0.12-0.191-0.139s-0.163-0.005-0.232,0.039l-3.088,1.944
		c-0.045,0.028-0.081,0.067-0.106,0.113l-5.07,9.378c-0.023,0.045-0.036,0.096-0.036,0.146v9.188c0,0.073,0.026,0.146,0.075,0.201
		l1.944,2.211c0.061,0.068,0.145,0.104,0.23,0.104c0.056,0,0.113-0.017,0.165-0.049l3.431-2.212c0.046-0.029,0.083-0.071,0.108-0.12
		l4.612-9.303c0.021-0.042,0.032-0.089,0.032-0.136v-8.197C744.303,395.287,744.288,395.233,744.259,395.185z M743.693,395.429
		v0.153l-4.41,8.044l-3.038,0.855l5.855-11.674L743.693,395.429z M739.31,394.491l2.345-1.476l-5.767,11.496l-1.539-0.846
		L739.31,394.491z M734.315,412.728v-8.731l1.486,0.815v9.606L734.315,412.728z M736.106,414.593v-9.756l3.127-0.88v8.506
		l-0.084,0.168L736.106,414.593z M739.538,411.849v-8.054l4.155-7.578v7.252L739.538,411.849z"/>
</g>
<g>
	<path d="M804.291,403.313c-0.694-0.417-1.505-0.625-2.314-0.625c-0.833,0-1.644,0.231-2.338,0.647
		c-0.231-0.555-0.647-1.041-1.157-1.365c0.023-0.115,0.023-0.208,0.023-0.324c-0.046-1.296,0.625-2.476,1.735-3.124
		c0.324-0.186,0.672-0.324,1.019-0.394c0.625-0.139,1.111-0.625,1.227-1.25c0.116-0.624-0.139-1.227-0.694-1.573
		c-1.203-0.787-2.8-1.25-4.513-1.296c-1.319-0.047-2.546,0.439-3.495,1.319c-0.926,0.879-1.435,2.036-1.435,3.31
		c0,1.712,0.949,3.217,2.338,4.026c-0.371,0.463-0.579,1.042-0.602,1.689c-0.093,0.046-0.186,0.069-0.278,0.139
		c-0.556,0.348-1.203,0.532-1.852,0.532c-0.602,0-1.203-0.162-1.735-0.463c-0.324-0.185-0.602-0.416-0.856-0.694
		c-0.301-0.347-0.718-0.532-1.157-0.532c-0.833,0-1.527,0.648-1.551,1.481c-0.069,1.435,0.348,3.078,1.157,4.56
		c0.856,1.573,2.477,2.568,4.212,2.568c0.787,0,1.574-0.208,2.245-0.602c1.481-0.856,2.314-2.43,2.314-4.027
		c0.139,0.023,0.255,0.023,0.394,0.023c0.486,0,0.949-0.115,1.365-0.347c0.093,0.069,0.162,0.115,0.255,0.185
		c1.134,0.602,1.852,1.782,1.852,3.055c0,0.371-0.069,0.741-0.162,1.088c-0.162,0.486-0.093,0.995,0.208,1.412
		s0.764,0.647,1.25,0.647c0.254,0,0.485-0.069,0.717-0.185c1.297-0.671,2.477-1.828,3.379-3.286c0.694-1.135,0.903-2.5,0.579-3.749
		C806.119,404.932,805.355,403.914,804.291,403.313z M793.506,398.638c0-0.926,0.37-1.806,1.064-2.454
		c0.694-0.647,1.597-1.018,2.569-1.018c0.046,0,0.069,0,0.115,0c1.505,0.046,2.894,0.439,3.935,1.11
		c0.208,0.139,0.186,0.324,0.186,0.394s-0.07,0.278-0.324,0.324c-0.486,0.093-0.926,0.277-1.365,0.532
		c-1.436,0.833-2.314,2.384-2.314,4.027c-0.14-0.023-0.255-0.023-0.394-0.023c-0.463,0-0.926,0.115-1.319,0.324
		C794.408,401.323,793.506,400.096,793.506,398.638z M793.714,410.324c-0.509,0.301-1.088,0.44-1.666,0.44
		c-1.319,0-2.546-0.741-3.193-1.944c-0.718-1.319-1.064-2.731-1.019-3.958c0.023-0.277,0.255-0.37,0.394-0.37
		c0.069,0,0.208,0.023,0.301,0.139c0.324,0.371,0.717,0.672,1.134,0.926c0.694,0.417,1.505,0.625,2.314,0.625
		c0.833,0,1.644-0.231,2.337-0.647c0.231,0.555,0.603,1.018,1.111,1.319C795.589,408.196,794.964,409.608,793.714,410.324z
		 M796.977,406.159c-0.949,0-1.736-0.787-1.736-1.736s0.787-1.735,1.736-1.735s1.735,0.786,1.735,1.735
		S797.927,406.159,796.977,406.159z M804.845,409.283c-0.786,1.272-1.828,2.291-2.916,2.869c-0.069,0.023-0.115,0.047-0.185,0.047
		c-0.116,0-0.255-0.069-0.324-0.162c-0.046-0.093-0.093-0.208-0.046-0.394c0.161-0.463,0.231-0.949,0.231-1.435
		c0-1.666-0.903-3.194-2.338-4.027c0.347-0.463,0.578-1.018,0.602-1.62c0.602-0.463,1.343-0.74,2.129-0.74
		c0.603,0,1.204,0.162,1.736,0.463c0.787,0.463,1.365,1.203,1.573,2.106C805.54,407.386,805.378,408.427,804.845,409.283z"/>
</g>
<g>
	<g>
		<path d="M52.198,468.583H35.637c-0.499,0-0.874-0.375-0.874-0.874v-11.566c0-0.5,0.375-0.874,0.874-0.874h16.602
			c0.458,0,0.874,0.374,0.874,0.874v11.608C53.072,468.208,52.697,468.583,52.198,468.583z M35.637,456.101
			C35.596,456.101,35.596,456.101,35.637,456.101l-0.041,11.608c0,0.042,0,0.042,0.041,0.042h16.602c0,0,0.042,0,0.042-0.042
			v-11.566c0,0,0-0.042-0.042-0.042H35.637z"/>
	</g>
	<g>
		<path d="M41.047,473.575c-1.29,0-2.33-1.04-2.33-2.329c0-1.291,1.04-2.331,2.33-2.331s2.33,1.04,2.33,2.331
			C43.377,472.535,42.337,473.575,41.047,473.575z M41.047,469.747c-0.832,0-1.498,0.666-1.498,1.499
			c0,0.831,0.666,1.497,1.498,1.497c0.833,0,1.498-0.666,1.498-1.497C42.545,470.413,41.879,469.747,41.047,469.747z"/>
	</g>
	<g>
		<path d="M41.047,471.911c-0.375,0-0.666-0.292-0.666-0.665c0-0.375,0.291-0.666,0.666-0.666s0.666,0.291,0.666,0.666
			C41.712,471.578,41.421,471.911,41.047,471.911z M41.047,471.079c-0.083,0-0.167,0.083-0.167,0.167
			c0,0.082,0.083,0.166,0.167,0.166c0.083,0,0.167-0.084,0.167-0.166C41.213,471.162,41.13,471.079,41.047,471.079z"/>
	</g>
	<g>
		<path d="M58.563,473.575c-1.29,0-2.33-1.04-2.33-2.329c0-1.291,1.04-2.331,2.33-2.331c1.29,0,2.331,1.04,2.331,2.331
			C60.894,472.535,59.853,473.575,58.563,473.575z M58.563,469.747c-0.832,0-1.498,0.666-1.498,1.499
			c0,0.831,0.666,1.497,1.498,1.497c0.833,0,1.498-0.666,1.498-1.497C60.061,470.413,59.396,469.747,58.563,469.747z"/>
	</g>
	<g>
		<path d="M58.563,471.911c-0.374,0-0.666-0.292-0.666-0.665c0-0.375,0.292-0.666,0.666-0.666c0.375,0,0.666,0.291,0.666,0.666
			C59.229,471.578,58.938,471.911,58.563,471.911z M58.563,471.079c-0.083,0-0.166,0.083-0.166,0.167
			c0,0.082,0.083,0.166,0.166,0.166c0.083,0,0.167-0.084,0.167-0.166C58.73,471.162,58.647,471.079,58.563,471.079z"/>
	</g>
	<g>
		<rect x="35.18" y="469.415" width="2.913" height="0.831"/>
	</g>
	<g>
		<rect x="44.75" y="469.415" width="10.818" height="0.831"/>
	</g>
	<g>
		<path d="M63.764,470.246h-1.955v-0.831h1.248c0.042-0.333,0.125-0.791,0.208-1.29c0.416-2.122,0.416-2.705,0.375-2.871
			c-0.292-0.208-2.039-1.081-3.62-1.831c-0.916-0.083-1.415-1.04-1.914-1.997c-0.333-0.707-0.708-1.414-1.165-1.581
			c-1.498-0.582-3.329-2.954-3.37-3.037l0.666-0.5c0.499,0.625,1.956,2.372,3.037,2.789c0.749,0.291,1.165,1.247,1.581,2.08
			c0.375,0.748,0.791,1.623,1.249,1.623h0.083l0.083-0.042c1.332,0.624,3.662,1.706,3.953,1.997
			c0.291,0.291,0.374,0.957-0.167,3.578c-0.167,0.791-0.25,1.581-0.25,1.581L63.764,470.246z"/>
	</g>
	<g>
		<path d="M61.393,464.006h-6.657c-0.374,0-0.832-0.291-0.832-0.749v-2.247c0-0.458,0.458-0.749,0.832-0.749h3.329v0.832h-3.329
			v2.08h6.657V464.006z"/>
	</g>
	<g>
		<rect x="62.641" y="467.335" width="1.248" height="0.832"/>
	</g>
	<g>
		<rect x="38.925" y="456.101" width="0.832" height="11.65"/>
	</g>
	<g>
		<rect x="43.502" y="456.101" width="0.832" height="11.65"/>
	</g>
	<g>
		<rect x="48.078" y="456.101" width="0.832" height="11.65"/>
	</g>
	<g>
		<g>
			<rect x="43.918" y="458.182" width="1.248" height="0.831"/>
		</g>
		<g>
			<rect x="43.918" y="464.838" width="1.248" height="0.832"/>
		</g>
	</g>
	<g>
		<g>
			<rect x="48.494" y="458.182" width="1.249" height="0.831"/>
		</g>
		<g>
			<rect x="48.494" y="464.838" width="1.249" height="0.832"/>
		</g>
	</g>
	<g>
		<g>
			<rect x="39.341" y="458.182" width="1.248" height="0.831"/>
		</g>
		<g>
			<rect x="39.341" y="464.838" width="1.248" height="0.832"/>
		</g>
	</g>
	<g>
		<g>
			<rect x="35.18" y="458.182" width="1.249" height="0.831"/>
		</g>
		<g>
			<rect x="35.18" y="464.838" width="1.249" height="0.832"/>
		</g>
	</g>
</g>
<g>
	<path d="M128.715,474.867h-18.823c-0.215,0-0.39-0.174-0.39-0.39v-2.278c0-0.216,0.174-0.39,0.39-0.39h7.145
		c0.043-0.017,0.09-0.025,0.137-0.025h0.037c0.029-0.011,0.059-0.018,0.09-0.022c0.034-0.019,0.071-0.034,0.109-0.042
		c0.025-0.012,0.052-0.02,0.079-0.025c0.009-0.006,0.018-0.011,0.026-0.016c0.039-0.032,0.083-0.057,0.129-0.073
		c0.013-0.008,0.026-0.017,0.04-0.023l0.03-0.031c0.028-0.027,0.06-0.051,0.094-0.068l0.134-0.134
		c0.019-0.034,0.042-0.065,0.069-0.094l0.005-0.005c0.003-0.006,0.006-0.012,0.01-0.018c0.007-0.017,0.015-0.033,0.024-0.049
		c0.011-0.026,0.024-0.051,0.041-0.073c0.008-0.026,0.02-0.052,0.034-0.075c0.002-0.004,0.003-0.008,0.005-0.012
		c0.005-0.025,0.014-0.05,0.024-0.073c0.006-0.026,0.014-0.051,0.025-0.075c0.003-0.018,0.009-0.034,0.015-0.051v-0.012
		c0-0.048,0.008-0.094,0.024-0.137V458.17c-0.016-0.043-0.024-0.09-0.024-0.137v-0.012c-0.006-0.017-0.012-0.034-0.015-0.052
		c-0.011-0.024-0.019-0.048-0.025-0.074c-0.011-0.023-0.019-0.049-0.024-0.074c-0.002-0.004-0.003-0.007-0.005-0.011
		c-0.014-0.023-0.025-0.049-0.034-0.075c-0.016-0.023-0.03-0.048-0.041-0.073c-0.009-0.017-0.018-0.033-0.024-0.05
		c-0.003-0.006-0.007-0.012-0.01-0.017l-0.005-0.006c-0.028-0.027-0.051-0.06-0.069-0.094l-0.134-0.134
		c-0.034-0.018-0.066-0.041-0.094-0.068l-0.029-0.03c-0.014-0.007-0.027-0.016-0.041-0.024c-0.047-0.016-0.091-0.04-0.129-0.072
		c-0.009-0.005-0.018-0.01-0.026-0.016c-0.027-0.005-0.054-0.015-0.079-0.026c-0.039-0.008-0.076-0.022-0.109-0.042
		c-0.031-0.003-0.062-0.011-0.09-0.021h-0.037c-0.047,0-0.094-0.01-0.137-0.025h-7.145c-0.215,0-0.39-0.175-0.39-0.39v-2.278
		c0-0.216,0.174-0.391,0.39-0.391h18.823c0.215,0,0.39,0.175,0.39,0.391v2.278c0,0.215-0.174,0.39-0.39,0.39h-7.145
		c-0.043,0.016-0.09,0.025-0.137,0.025h-0.036c-0.029,0.011-0.06,0.019-0.09,0.021c-0.034,0.02-0.071,0.034-0.11,0.042
		c-0.023,0.011-0.047,0.02-0.072,0.025l-0.033,0.017c-0.039,0.032-0.082,0.057-0.129,0.072c-0.013,0.009-0.026,0.018-0.04,0.024
		l-0.03,0.03c-0.028,0.027-0.06,0.051-0.094,0.068l-0.134,0.134c-0.018,0.034-0.041,0.066-0.069,0.094l-0.005,0.006
		c-0.003,0.005-0.006,0.011-0.01,0.017c-0.007,0.017-0.015,0.034-0.024,0.05c-0.011,0.025-0.024,0.05-0.04,0.073
		c-0.009,0.026-0.02,0.051-0.034,0.075c-0.002,0.003-0.003,0.007-0.005,0.011c-0.006,0.025-0.014,0.051-0.025,0.074
		c-0.006,0.026-0.014,0.051-0.025,0.075c-0.003,0.017-0.009,0.034-0.015,0.051v0.012c0,0.047-0.009,0.094-0.025,0.137v12.505
		c0.016,0.044,0.025,0.09,0.025,0.138v0.012c0.006,0.017,0.011,0.033,0.015,0.051c0.011,0.024,0.019,0.049,0.025,0.075
		c0.011,0.023,0.019,0.048,0.025,0.073c0.002,0.004,0.003,0.008,0.005,0.012c0.014,0.023,0.025,0.049,0.034,0.075
		c0.016,0.022,0.029,0.047,0.04,0.073c0.009,0.016,0.018,0.032,0.024,0.049c0.003,0.006,0.007,0.012,0.01,0.018l0.005,0.005
		c0.028,0.028,0.051,0.06,0.069,0.094l0.134,0.134c0.034,0.018,0.066,0.041,0.094,0.068l0.03,0.031
		c0.014,0.007,0.027,0.016,0.041,0.023c0.047,0.017,0.09,0.041,0.129,0.073l0.033,0.016c0.025,0.006,0.049,0.015,0.073,0.025
		c0.039,0.008,0.076,0.023,0.11,0.042c0.031,0.005,0.061,0.012,0.09,0.022h0.036c0.047,0,0.094,0.009,0.137,0.025h7.145
		c0.215,0,0.39,0.174,0.39,0.39v2.278C129.104,474.694,128.93,474.867,128.715,474.867z M110.282,474.088h18.042v-1.499h-6.867
		c-0.047,0-0.093-0.008-0.136-0.024h-0.012c-0.049,0-0.098-0.01-0.143-0.027c-0.04-0.005-0.079-0.016-0.116-0.032
		c-0.039-0.008-0.076-0.023-0.11-0.042c-0.063-0.008-0.124-0.031-0.176-0.067c-0.046-0.015-0.09-0.04-0.128-0.072l-0.046-0.023
		c-0.008-0.004-0.017-0.008-0.024-0.013c-0.047-0.02-0.09-0.049-0.126-0.085l-0.03-0.029c-0.034-0.019-0.066-0.041-0.094-0.069
		l-0.272-0.272c-0.029-0.029-0.053-0.062-0.072-0.098c-0.02-0.022-0.036-0.048-0.05-0.075c-0.026-0.03-0.047-0.065-0.063-0.103
		c-0.009-0.016-0.018-0.032-0.024-0.05c-0.005-0.007-0.009-0.016-0.013-0.023l-0.025-0.05c-0.004-0.009-0.008-0.018-0.012-0.026
		c-0.021-0.034-0.036-0.072-0.045-0.112c-0.001-0.004-0.003-0.007-0.004-0.01c-0.021-0.036-0.036-0.074-0.045-0.114
		c-0.017-0.035-0.027-0.075-0.032-0.115c-0.017-0.042-0.026-0.085-0.027-0.13c-0.016-0.044-0.025-0.09-0.025-0.138v-12.729
		c0-0.047,0.009-0.094,0.025-0.137c0.001-0.045,0.011-0.089,0.027-0.131c0.004-0.04,0.015-0.078,0.032-0.115
		c0.009-0.04,0.024-0.078,0.045-0.112c0.001-0.005,0.003-0.008,0.004-0.012c0.009-0.039,0.024-0.077,0.045-0.112
		c0.003-0.009,0.007-0.018,0.012-0.026l0.025-0.049c0.004-0.009,0.008-0.017,0.013-0.024c0.007-0.017,0.015-0.033,0.025-0.049
		c0.015-0.038,0.036-0.072,0.062-0.104c0.014-0.026,0.03-0.052,0.05-0.074c0.019-0.036,0.042-0.069,0.072-0.099l0.272-0.272
		c0.028-0.027,0.06-0.051,0.094-0.068l0.029-0.029c0.037-0.037,0.08-0.066,0.127-0.085c0.008-0.006,0.016-0.01,0.024-0.014
		l0.046-0.023c0.038-0.032,0.082-0.057,0.128-0.072c0.052-0.035,0.113-0.059,0.176-0.066c0.034-0.02,0.071-0.035,0.109-0.043
		c0.037-0.017,0.076-0.027,0.116-0.031c0.045-0.019,0.094-0.027,0.143-0.027h0.012c0.043-0.017,0.089-0.025,0.136-0.025h6.867
		v-1.498h-18.042v1.498h6.866c0.047,0,0.093,0.009,0.136,0.025h0.012c0.049,0,0.098,0.009,0.144,0.027
		c0.04,0.004,0.079,0.015,0.116,0.031c0.039,0.009,0.075,0.023,0.109,0.043c0.044,0.005,0.088,0.019,0.128,0.038l0.049,0.025
		c0.008,0.004,0.016,0.008,0.024,0.013c0.037,0.016,0.072,0.037,0.103,0.063l0.046,0.023c0.008,0.004,0.017,0.008,0.024,0.014
		c0.047,0.019,0.09,0.048,0.127,0.084l0.029,0.03c0.035,0.019,0.066,0.041,0.094,0.068l0.272,0.272
		c0.029,0.029,0.053,0.063,0.071,0.099c0.02,0.022,0.036,0.048,0.05,0.074c0.026,0.031,0.047,0.065,0.063,0.104
		c0.01,0.016,0.018,0.032,0.024,0.049c0.005,0.008,0.01,0.016,0.014,0.024l0.024,0.049c0.004,0.009,0.008,0.017,0.012,0.026
		c0.021,0.035,0.036,0.073,0.045,0.112c0.001,0.004,0.003,0.007,0.004,0.012c0.021,0.034,0.036,0.072,0.045,0.112
		c0.016,0.037,0.027,0.075,0.032,0.115c0.016,0.042,0.025,0.086,0.027,0.131c0.017,0.043,0.025,0.09,0.025,0.137v12.729
		c0,0.048-0.008,0.094-0.025,0.138c-0.001,0.044-0.011,0.088-0.027,0.13c-0.005,0.04-0.016,0.079-0.032,0.115
		c-0.009,0.04-0.024,0.078-0.045,0.114c-0.001,0.003-0.003,0.006-0.004,0.01c-0.009,0.04-0.024,0.078-0.045,0.112
		c-0.003,0.01-0.007,0.018-0.012,0.026l-0.025,0.05c-0.004,0.008-0.008,0.017-0.013,0.023c-0.006,0.018-0.015,0.033-0.024,0.05
		c-0.015,0.037-0.037,0.072-0.063,0.104c-0.014,0.026-0.03,0.052-0.05,0.074c-0.019,0.036-0.042,0.068-0.072,0.098l-0.272,0.272
		c-0.027,0.028-0.06,0.051-0.094,0.069l-0.03,0.029c-0.037,0.036-0.08,0.065-0.126,0.085c-0.008,0.005-0.016,0.009-0.024,0.013
		l-0.047,0.023c-0.031,0.026-0.065,0.048-0.103,0.063c-0.008,0.004-0.016,0.009-0.024,0.013l-0.05,0.025
		c-0.04,0.02-0.083,0.032-0.127,0.038c-0.034,0.019-0.071,0.034-0.11,0.042c-0.037,0.017-0.075,0.027-0.115,0.032
		c-0.045,0.018-0.094,0.027-0.144,0.027h-0.012c-0.043,0.017-0.089,0.024-0.137,0.024h-6.866V474.088z"/>
</g>
<g>
	<path d="M189.98,455.328c-0.218-2.065-1.993-3.659-4.094-3.659c-2.101,0-3.876,1.63-4.094,3.659h-5.326v21.847h18.839v-21.847
		H189.98z M185.886,452.394c1.703,0,3.152,1.305,3.333,2.935h-6.667C182.734,453.661,184.183,452.394,185.886,452.394z
		 M194.581,476.45h-17.39v-20.397h17.39V476.45z"/>
	<circle cx="182.154" cy="459.024" r="0.543"/>
	<circle cx="189.618" cy="459.024" r="0.543"/>
</g>
<g>
	<path d="M257.848,453.053c-0.191,0-0.393,0.009-0.584,0.02c-6.271,0.333-11.082,5.688-10.75,11.948
		c0.313,6.08,5.365,10.801,11.395,10.771h0.01c0.021,0,0.051,0,0.07,0h10.951c0.151,0,0.292-0.131,0.292-0.282
		c0-0.15-0.141-0.291-0.292-0.282h-7.539c4.751-1.56,8.083-6.16,7.812-11.395C268.89,457.763,263.857,453.042,257.848,453.053
		L257.848,453.053z M257.848,453.637c5.707-0.011,10.488,4.448,10.79,10.227c0.313,5.949-4.258,11.041-10.216,11.354
		c-5.96,0.313-11.022-4.268-11.334-10.217c-0.313-5.959,4.237-11.041,10.196-11.354
		C257.475,453.637,257.667,453.637,257.848,453.637L257.848,453.637z M257.858,455.268c-1.167,0-2.274,0.221-3.302,0.624
		c-0.12,0.04-0.2,0.191-0.171,0.322c0.252,1.098,0.715,2.042,1.299,2.727c0.594,0.686,1.349,1.119,2.174,1.119
		s1.581-0.434,2.175-1.119c0.594-0.683,1.047-1.629,1.299-2.727c0.029-0.131-0.051-0.282-0.171-0.322
		C260.134,455.489,259.015,455.268,257.858,455.268L257.858,455.268z M257.858,455.83c0.986,0,1.942,0.201,2.828,0.515
		c-0.251,0.896-0.623,1.68-1.087,2.224c-0.523,0.594-1.117,0.927-1.741,0.927c-0.635,0-1.228-0.322-1.741-0.917
		c-0.473-0.543-0.836-1.338-1.087-2.233C255.926,456.032,256.862,455.83,257.858,455.83L257.858,455.83z M266.112,460.935
		c-0.011,0.01-0.02,0.01-0.04,0.01c0,0.01,0,0.01-0.01,0.01c-1.098,0.261-2.033,0.705-2.718,1.298
		c-0.685,0.594-1.117,1.34-1.117,2.164c0,0.826,0.433,1.582,1.117,2.176c0.685,0.593,1.621,1.046,2.718,1.308
		c0.141,0.031,0.292-0.05,0.343-0.181c0.392-1.017,0.623-2.134,0.623-3.302c0-1.158-0.231-2.265-0.623-3.291
		C266.364,461.004,266.232,460.924,266.112,460.935L266.112,460.935z M249.534,460.945c-0.09,0.02-0.181,0.09-0.222,0.181
		c-0.392,1.026-0.614,2.134-0.614,3.291c0,1.169,0.223,2.286,0.614,3.302c0.051,0.131,0.201,0.211,0.343,0.182
		c1.097-0.262,2.032-0.715,2.728-1.309c0.685-0.595,1.117-1.349,1.117-2.175c0-0.825-0.433-1.57-1.117-2.164
		c-0.695-0.594-1.631-1.037-2.728-1.298C249.615,460.945,249.575,460.945,249.534,460.945L249.534,460.945z M257.858,461.548
		c-1.591,0-2.878,1.298-2.878,2.879c0,1.591,1.288,2.878,2.878,2.878c1.581,0,2.879-1.287,2.879-2.878
		C260.737,462.846,259.439,461.548,257.858,461.548L257.858,461.548z M249.776,461.599c0.905,0.241,1.69,0.613,2.224,1.076
		c0.604,0.523,0.927,1.117,0.927,1.741c0,0.636-0.322,1.238-0.927,1.753c-0.533,0.472-1.318,0.835-2.224,1.087
		c-0.313-0.896-0.514-1.842-0.514-2.84C249.262,463.42,249.464,462.484,249.776,461.599L249.776,461.599z M265.94,461.599
		c0.313,0.885,0.514,1.821,0.514,2.817c0,0.998-0.201,1.943-0.514,2.84c-0.905-0.252-1.681-0.615-2.224-1.087
		c-0.604-0.515-0.927-1.118-0.927-1.753c0-0.624,0.322-1.218,0.927-1.741C264.26,462.212,265.035,461.84,265.94,461.599
		L265.94,461.599z M257.858,462.121c1.278,0,2.306,1.027,2.306,2.306s-1.027,2.305-2.306,2.305s-2.305-1.026-2.305-2.305
		S256.58,462.121,257.858,462.121L257.858,462.121z M257.858,468.786c-0.825,0-1.58,0.432-2.174,1.117
		c-0.584,0.685-1.047,1.64-1.299,2.737c-0.029,0.131,0.051,0.282,0.171,0.332c1.027,0.393,2.135,0.614,3.302,0.614
		c1.157,0,2.275-0.222,3.302-0.614c0.121-0.05,0.201-0.201,0.171-0.332c-0.252-1.098-0.704-2.053-1.299-2.737
		C259.438,469.218,258.683,468.786,257.858,468.786L257.858,468.786z M257.858,469.36c0.624,0,1.219,0.321,1.742,0.915
		c0.463,0.544,0.835,1.329,1.087,2.244c-0.886,0.313-1.843,0.504-2.829,0.504c-0.996,0-1.941-0.191-2.828-0.504
		c0.251-0.915,0.614-1.7,1.088-2.244C256.631,469.682,257.224,469.36,257.858,469.36L257.858,469.36z"/>
</g>
<g>
	<path d="M343.966,457.793h0.026l-4.828-4.697c-0.079-0.078-0.157-0.156-0.261-0.156h-13.075c-0.104,0-0.183,0.078-0.261,0.156
		l-4.828,4.672h-0.052c-0.052,0.078-0.157,0.183-0.157,0.286v6.682c0,0.209,0.261,0.47,0.47,0.47h0.835v10.204
		c0,0.209,0.261,0.496,0.469,0.496h20.2c0.208,0,0.469-0.287,0.469-0.496v-10.204h0.757c0.209,0,0.287-0.261,0.287-0.47v-6.682
		C344.018,457.95,344.018,457.846,343.966,457.793z M325.984,453.723h12.762l4.045,3.914h-20.853L325.984,453.723z M342.191,475.122
		h-19.573v-9.917h19.573V475.122z M343.235,464.422h-21.923v-6.002h21.923V464.422z"/>
</g>
<path d="M479.602,462.714h-18.58c-0.944,0-1.709,0.765-1.709,1.709c0,0.943,0.765,1.708,1.709,1.708h18.58
	c0.943,0,1.708-0.765,1.708-1.708C481.31,463.479,480.546,462.714,479.602,462.714z"/>
<path d="M413.424,462.714h-7.583v-7.582c0-0.943-0.765-1.708-1.708-1.708c-0.944,0-1.709,0.765-1.709,1.708v7.582h-7.58
	c-0.944,0-1.709,0.765-1.709,1.709c0,0.943,0.765,1.708,1.709,1.708h7.58v7.581c0,0.944,0.765,1.709,1.709,1.709
	c0.943,0,1.708-0.765,1.708-1.709v-7.581h7.583c0.943,0,1.708-0.765,1.708-1.708C415.132,463.479,414.367,462.714,413.424,462.714z"
	/>
<g>
	<path d="M550.348,475.609c0.114-0.285,0.086-0.628-0.086-0.971l-2.426-4.597h-0.029c-0.085-0.171-0.229-0.314-0.457-0.457
		c-0.313-0.2-0.656-0.257-1.027-0.2l-1.828,0.457c-0.028,0-0.085,0-0.171,0c-0.086-0.028-0.114-0.028-0.143-0.057l-0.229-0.229
		c-0.143-0.143-0.314-0.371-0.543-0.714c-0.199-0.343-0.457-0.828-0.713-1.456c-0.258-0.629-0.486-1.428-0.715-2.398
		c-0.229-0.972-0.371-1.771-0.428-2.428c-0.058-0.656-0.058-1.198-0.028-1.599c0.028-0.457,0.114-0.856,0.228-1.171
		c0.029-0.028,0.058-0.086,0.114-0.143c0.058-0.057,0.114-0.086,0.144-0.086l1.57-0.371c0.285-0.057,0.514-0.199,0.714-0.428
		c0.199-0.229,0.313-0.457,0.343-0.742l0.428-5.312c0-0.199-0.028-0.399-0.114-0.57c-0.085-0.172-0.199-0.314-0.371-0.429
		c-0.229-0.143-0.514-0.172-0.8-0.114l-4.254,0.999c-0.2,0.028-0.4,0.114-0.628,0.257c-0.2,0.143-0.372,0.286-0.514,0.457
		c-0.029,0.028-0.114,0.143-0.258,0.371c-0.171,0.229-0.343,0.571-0.514,1.028c-0.2,0.457-0.371,1.027-0.543,1.713
		c-0.171,0.686-0.285,1.485-0.343,2.428c-0.057,0.941-0.057,1.998,0.029,3.197c0.085,1.199,0.313,2.541,0.686,4.026
		c0.428,1.885,0.97,3.483,1.57,4.797c0.6,1.313,1.228,2.37,1.827,3.227c0.6,0.827,1.171,1.456,1.655,1.913
		c0.515,0.428,0.886,0.714,1.143,0.885c0.114,0.058,0.2,0.114,0.257,0.143c0.058,0.029,0.114,0.058,0.114,0.058
		c0.2,0.086,0.429,0.143,0.686,0.171c0.257,0.029,0.485,0,0.686-0.057l4.226-0.971C549.949,476.123,550.206,475.923,550.348,475.609
		z"/>
</g>
<g>
	<path d="M618.318,464.841l7.662,6.294c-0.112,0.379-0.465,0.657-0.879,0.657h-19.784c-0.414,0-0.766-0.278-0.878-0.657l7.662-6.294
		l2.194,1.803c0.264,0.215,0.591,0.313,0.914,0.313c0.322,0,0.65-0.099,0.913-0.313L618.318,464.841z M626.018,470.329v-11.813
		l-7.191,5.907L626.018,470.329z M604.4,458.516v11.813l7.191-5.907L604.4,458.516z M625.101,457.053h-19.784
		c-0.414,0-0.766,0.278-0.878,0.657l0.472,0.387l9.796,8.047c0.127,0.105,0.313,0.167,0.503,0.167s0.376-0.062,0.503-0.167
		l9.797-8.047l0.471-0.387C625.868,457.331,625.515,457.053,625.101,457.053z"/>
</g>
<g>
	<path d="M688.113,459.146c0-3.479-2.819-6.298-6.298-6.298s-6.299,2.819-6.299,6.298s6.299,13.296,6.299,13.296
		S688.113,462.624,688.113,459.146z M679.716,459.263c0-1.159,0.94-2.1,2.1-2.1s2.1,0.94,2.1,2.1s-0.94,2.1-2.1,2.1
		S679.716,460.422,679.716,459.263z"/>
	<path d="M686.732,468.848c-0.555-0.177-1.144,0.131-1.317,0.684c-0.176,0.553,0.13,1.143,0.683,1.317
		c1.486,0.471,1.986,1.042,1.986,1.23c0,0.527-2.196,1.817-6.269,1.817s-6.269-1.29-6.269-1.817c0-0.188,0.499-0.759,1.983-1.229
		c0.553-0.175,0.858-0.766,0.684-1.317c-0.176-0.554-0.766-0.858-1.317-0.684c-3.001,0.951-3.449,2.432-3.449,3.23
		c0,2.571,4.21,3.917,8.368,3.917s8.368-1.346,8.368-3.917C690.183,471.281,689.735,469.8,686.732,468.848z"/>
</g>
<g>
	<path d="M806.876,472.676l-5.441-5.441c0.997-1.398,1.585-3.106,1.585-4.949c0-4.714-3.835-8.549-8.548-8.549
		c-4.714,0-8.549,3.835-8.549,8.549c0,4.713,3.835,8.548,8.549,8.548c1.843,0,3.551-0.588,4.948-1.585l5.442,5.442
		c0.277,0.278,0.642,0.417,1.007,0.417c0.364,0,0.729-0.139,1.007-0.417C807.432,474.134,807.432,473.232,806.876,472.676z
		 M794.471,467.984c-3.147,0-5.699-2.551-5.699-5.698s2.552-5.699,5.699-5.699c3.146,0,5.698,2.552,5.698,5.699
		S797.618,467.984,794.471,467.984z"/>
</g>
</svg>
