<?xml version="1.0" encoding="utf-8"?>
<!-- Generator: Adobe Illustrator 19.2.1, SVG Export Plug-In . SVG Version: 6.00 Build 0)  -->
<svg version="1.1" id="图层_1" xmlns="http://www.w3.org/2000/svg" xmlns:xlink="http://www.w3.org/1999/xlink" x="0px" y="0px"
	 viewBox="0 0 90.6 62.7" style="enable-background:new 0 0 90.6 62.7;" xml:space="preserve">
<style type="text/css">
	.st0{fill:#F9F9F9;}
</style>
<g>
	<g>
		<path class="st0" d="M31.4,45.2c-0.3-0.3-0.7-0.6-1.2-0.7c-0.3-0.1-0.8-0.1-1.5-0.1h-3V52h3.1c0.6,0,1-0.1,1.4-0.2
			c0.5-0.1,0.8-0.4,1.1-0.6c0.4-0.3,0.6-0.8,0.8-1.4c0.2-0.5,0.2-1,0.2-1.7c0-0.7-0.1-1.3-0.3-1.8C31.9,45.9,31.7,45.5,31.4,45.2z
			 M30.6,49.6c-0.1,0.3-0.2,0.6-0.4,0.7c-0.2,0.2-0.4,0.3-0.6,0.3c-0.2,0.1-0.5,0.1-0.9,0.1h-1.4v-5.1h0.9c0.6,0,1.1,0,1.3,0.1
			c0.3,0.1,0.5,0.2,0.7,0.4c0.2,0.2,0.3,0.4,0.4,0.8c0.1,0.3,0.2,0.8,0.2,1.4S30.7,49.2,30.6,49.6z"/>
		<path class="st0" d="M71.1,45.2c-0.3-0.3-0.7-0.6-1.2-0.7c-0.3-0.1-0.8-0.1-1.5-0.1h-3V52h3.1c0.6,0,1-0.1,1.4-0.2
			c0.5-0.1,0.8-0.4,1.1-0.6c0.4-0.3,0.6-0.8,0.8-1.4c0.2-0.5,0.2-1,0.2-1.7c0-0.7-0.1-1.3-0.3-1.8C71.7,45.9,71.4,45.5,71.1,45.2z
			 M70.3,49.6c-0.1,0.3-0.2,0.6-0.4,0.7s-0.4,0.3-0.6,0.3c-0.2,0.1-0.5,0.1-0.9,0.1h-1.4v-5.1h0.9c0.6,0,1.1,0,1.3,0.1
			c0.3,0.1,0.5,0.2,0.7,0.4c0.2,0.2,0.3,0.4,0.4,0.8c0.1,0.3,0.2,0.8,0.2,1.4S70.4,49.2,70.3,49.6z"/>
		<polygon class="st0" points="8.4,44.3 7.3,49.7 5.8,44.3 4.1,44.3 2.5,49.7 1.5,44.3 0,44.3 1.7,52 3.4,52 4.9,46.5 6.5,52 
			8.1,52 9.9,44.3 		"/>
		<path class="st0" d="M12.4,44.3l-3,7.8h1.7l0.8-2.2h2.8l0.8,2.2h1.7l-3.1-7.8H12.4z M12.3,48.8l1-2.7l1,2.7H12.3z"/>
		<path class="st0" d="M35.8,44.3l-3,7.8h1.7l0.8-2.2H38l0.8,2.2h1.7l-3.1-7.8H35.8z M35.6,48.8l1-2.7l1,2.7H35.6z"/>
		<polygon class="st0" points="22.7,49.5 19.4,44.3 18,44.3 18,52 19.4,52 19.4,47 22.7,52 24.1,52 24.1,44.3 22.7,44.3 		"/>
		<path class="st0" d="M48.7,47.8c-0.4-0.2-0.9-0.4-1.7-0.6c-0.8-0.2-1.2-0.4-1.4-0.5c-0.2-0.1-0.2-0.3-0.2-0.5
			c0-0.2,0.1-0.4,0.2-0.5c0.3-0.2,0.6-0.3,1.1-0.3c0.4,0,0.8,0.1,1,0.3c0.2,0.2,0.4,0.5,0.4,1h1.6c-0.1-0.9-0.3-1.5-0.8-1.9
			s-1.2-0.6-2.2-0.6c-0.6,0-1.1,0.1-1.5,0.3s-0.7,0.4-1,0.8c-0.2,0.3-0.3,0.7-0.3,1.1c0,0.6,0.1,1.1,0.7,1.6c0.4,0.4,1,0.5,1.8,0.7
			c0.7,0.1,1.1,0.3,1.3,0.3c0.3,0.1,0.5,0.2,0.6,0.3c0.1,0.1,0.2,0.3,0.2,0.5c0,0.3-0.1,0.5-0.4,0.7c-0.3,0.2-0.6,0.3-1.1,0.3
			c-0.5,0-0.9-0.1-1.1-0.4c-0.3-0.2-0.5-0.8-0.6-1.2h-1.5c0.1,0.9,0.4,1.7,0.9,2.2c0.5,0.5,1.3,0.7,2.3,0.7c0.7,0,1.2-0.1,1.7-0.3
			c0.5-0.2,0.8-0.5,1-0.9c0.2-0.4,0.4-0.8,0.4-1.2c0-0.5-0.1-0.9-0.3-1.2C49.3,48.2,49,48,48.7,47.8z"/>
		<path class="st0" d="M90.3,48.6c-0.2-0.3-0.5-0.6-0.9-0.8c-0.4-0.2-0.9-0.4-1.7-0.6c-0.8-0.2-1.2-0.4-1.4-0.5
			c-0.2-0.1-0.2-0.3-0.2-0.5c0-0.2,0.1-0.4,0.2-0.5c0.3-0.2,0.6-0.3,1.1-0.3c0.4,0,0.8,0.1,1,0.3c0.2,0.2,0.4,0.5,0.4,1h1.6
			c-0.1-0.9-0.3-1.5-0.8-1.9c-0.5-0.4-1.2-0.6-2.2-0.6c-0.6,0-1.1,0.1-1.5,0.3c-0.4,0.2-0.7,0.4-1,0.8c-0.2,0.3-0.3,0.7-0.3,1.1
			c0,0.6,0.1,1.1,0.7,1.6c0.4,0.4,1,0.5,1.8,0.7c0.7,0.1,1.1,0.3,1.3,0.3c0.3,0.1,0.5,0.2,0.6,0.3c0.1,0.1,0.2,0.3,0.2,0.5
			c0,0.3-0.1,0.5-0.4,0.7c-0.3,0.2-0.6,0.3-1.1,0.3c-0.5,0-0.9-0.1-1.1-0.4c-0.3-0.2-0.5-0.8-0.6-1.2h-1.5c0.1,0.9,0.4,1.7,0.9,2.2
			c0.5,0.5,1.3,0.7,2.3,0.7c0.7,0,1.2-0.1,1.7-0.3c0.5-0.2,0.8-0.5,1-0.9c0.2-0.4,0.4-0.8,0.4-1.2C90.6,49.3,90.5,48.9,90.3,48.6z"
			/>
		<path class="st0" d="M79.7,44.2c-0.6,0-1.4,0.1-1.8,0.3c-0.3,0.2-0.6,0.4-0.9,0.7c-0.3,0.3-0.5,0.7-0.7,1.1
			c-0.2,0.5-0.3,1.2-0.3,2c0,1.2,0.3,2.2,0.9,2.9c0.6,0.7,1.7,1.1,2.8,1.1c1,0,2.2-0.4,2.9-1.1c0.6-0.7,0.9-1.7,0.9-2.9
			c0-1.3-0.3-2.3-0.9-3C81.9,44.5,80.7,44.2,79.7,44.2z M81.4,50.2c-0.4,0.4-1.2,0.7-1.8,0.7s-1.3-0.2-1.7-0.7
			c-0.4-0.5-0.6-1.1-0.6-2c0-0.9,0.2-1.6,0.5-2c0.4-0.4,1.1-0.7,1.7-0.7s1.4,0.2,1.8,0.7c0.4,0.4,0.5,1.1,0.5,2
			C82,49,81.8,49.7,81.4,50.2z"/>
		<polygon class="st0" points="50.6,45.7 52.9,45.7 52.9,52.1 54.4,52.1 54.4,45.7 56.7,45.7 56.7,44.3 50.6,44.3 		"/>
		<rect x="73.3" y="44.3" class="st0" width="1.5" height="7.8"/>
		<path class="st0" d="M62.4,48.6c0,0.4,0,0.5,0,0.8l0,0.5c-0.2,0.6-0.7,1.1-1.4,1.1c-0.6,0-1-0.1-1-0.1c-0.5-0.2-0.9-0.7-0.9-1.3
			l0-1v-4.2h-1.5v4.1c0,0.9,0,1.5,0.1,2c0.1,0.3,0.2,0.6,0.4,0.9c0.2,0.3,0.5,0.5,0.8,0.7c0.4,0.2,1.1,0.3,1.8,0.3
			c0.6,0,1.2-0.1,1.6-0.2c0.4-0.2,0.6-0.4,0.9-0.6c0.2-0.3,0.4-0.6,0.4-1c0.1-0.4,0.1-1,0.1-2v-4.1h-1.5L62.4,48.6L62.4,48.6z"/>
	</g>
	<g>
		<path class="st0" d="M60.5,10.7c-0.2,1.1-0.7,2.2-1.7,3.1c1.6-3.1,1.3-7-0.9-9.9c-2.8-3.6-7.7-4.6-11.6-2.7c0.9,0.7,1.6,1.7,1.9,3
			c-1.9-2.9-5.4-4.6-9-4.2c-4.5,0.6-7.8,4.3-8.1,8.7c1-0.4,2.2-0.5,3.5-0.1c-3.5,0.2-6.7,2.3-8.1,5.7c-1.7,4.2-0.2,9,3.5,11.4
			c0.2-1.1,0.7-2.2,1.7-3.1c-1.6,3.1-1.3,7,0.9,9.9c2.8,3.6,7.7,4.6,11.6,2.7c-0.9-0.7-1.6-1.7-1.9-3c1.9,2.9,5.4,4.6,9,4.2
			c4.5-0.6,7.8-4.3,8.1-8.7c-1,0.4-2.2,0.5-3.5,0.1c3.5-0.2,6.7-2.3,8.1-5.7C65.8,17.8,64.2,13.1,60.5,10.7z M45.3,32.5
			c-7.9,0-14.3-6.4-14.3-14.3S37.4,3.9,45.3,3.9c7.9,0,14.3,6.4,14.3,14.3S53.2,32.5,45.3,32.5z"/>
		<path class="st0" d="M45.1,22.9c-1,0.9-2.2,1.3-3.4,1.4c0.9-3.5-0.4-10.5-1.6-15c1.3,0,3.5-0.2,4.1,0C45,12.6,46.3,19.3,45.1,22.9
			z"/>
		<path class="st0" d="M41.8,12.7c0-0.1,0-0.1-0.1-0.2c-0.1,0-0.2,0-0.3,0c0,0.1,0,0.2,0.1,0.3c0,0.1,0,0.1,0.1,0.3
			c0.1,0,0.2,0,0.3-0.1C41.8,12.8,41.8,12.8,41.8,12.7z M41.6,11.7c0-0.1,0-0.1-0.1-0.3c-0.1,0-0.2,0-0.3,0c0,0.1,0,0.2,0.1,0.3
			c0,0.1,0,0.2,0.1,0.3c0.1,0,0.2,0,0.3,0C41.6,11.8,41.6,11.8,41.6,11.7z M41.3,10.7c0-0.1,0-0.2-0.1-0.3c-0.1,0-0.2,0-0.3,0
			c0,0.1,0,0.2,0.1,0.3c0,0.1,0,0.2,0.1,0.3c0.1,0,0.2,0,0.3,0C41.4,10.8,41.3,10.8,41.3,10.7z M44.5,14.6c0,0.1,0,0.1,0,0.2
			c0.1,0,0.1-0.1,0.2-0.1c0-0.1,0-0.2,0-0.2c0-0.1,0-0.1,0-0.2c-0.1,0-0.1,0-0.2,0.1C44.5,14.5,44.5,14.6,44.5,14.6z M42.2,14.7
			c0-0.1,0-0.1,0-0.2c-0.1,0-0.2,0-0.3,0.1c0,0.1,0,0.2,0,0.2c0,0.1,0,0.1,0,0.2c0.1,0,0.2,0,0.3-0.1C42.2,14.8,42.2,14.7,42.2,14.7
			z M42.5,17.6c0-0.1,0-0.1,0-0.2c-0.1,0-0.2,0-0.3,0.1c0,0.1,0,0.2,0,0.2c0,0.1,0,0.1,0,0.2c0.1,0,0.2,0,0.3-0.1
			C42.6,17.7,42.5,17.6,42.5,17.6z M42.4,16.6c0-0.1,0-0.1,0-0.2c-0.1,0-0.2,0-0.3,0.1c0,0.1,0,0.2,0,0.2c0,0.1,0,0.1,0,0.2
			c0.1,0,0.2,0,0.3-0.1C42.5,16.7,42.4,16.7,42.4,16.6z M42.3,15.6c0-0.1,0-0.1,0-0.2c-0.1,0-0.2,0-0.3,0.1c0,0.1,0,0.2,0,0.2
			c0,0.1,0,0.1,0,0.2c0.1,0,0.2,0,0.3-0.1C42.3,15.8,42.3,15.7,42.3,15.6z M44.7,22.7c0,0.1,0,0.1,0,0.2c0.1,0,0.1-0.1,0.2-0.1
			c0-0.1,0-0.1,0-0.2c0-0.1,0-0.1,0-0.2c-0.1,0-0.1,0.1-0.2,0.1C44.7,22.6,44.7,22.6,44.7,22.7z M42.3,18.8c0.1,0,0.2,0,0.3-0.1
			c0-0.1,0-0.2,0-0.2c0-0.1,0-0.1,0-0.2c-0.1,0-0.2,0-0.3,0.1c0,0.1,0,0.2,0,0.2C42.3,18.6,42.3,18.7,42.3,18.8z M44.8,21
			c0,0.1,0,0.1,0,0.2c0.1,0,0.1-0.1,0.2-0.1c0-0.1,0-0.2,0-0.2c0-0.1,0-0.1,0-0.2c-0.1,0-0.1,0.1-0.2,0.1
			C44.8,20.8,44.8,20.9,44.8,21z M44.8,21.8c0,0.1,0,0.1,0,0.2c0.1,0,0.1-0.1,0.2-0.1c0-0.1,0-0.2,0-0.2c0-0.1,0-0.1,0-0.2
			c-0.1,0-0.1,0.1-0.2,0.1C44.8,21.7,44.8,21.8,44.8,21.8z M44.8,19.2c0,0.1,0,0.1,0,0.2c0.1,0,0.1-0.1,0.2-0.1c0-0.1,0-0.2,0-0.2
			c0-0.1,0-0.1,0-0.2c-0.1,0-0.1,0.1-0.2,0.1C44.8,19.1,44.8,19.1,44.8,19.2z M44.9,15.5c0-0.1,0-0.1,0-0.2c-0.1,0-0.1,0.1-0.2,0.1
			c0,0.1,0,0.2,0,0.2c0,0.1,0,0.1,0,0.2c0.1,0,0.1-0.1,0.2-0.1C44.9,15.6,44.9,15.5,44.9,15.5z M44.9,16.6c0-0.1,0-0.2,0-0.2
			c0-0.1,0-0.1,0-0.2c-0.1,0-0.1,0.1-0.2,0.1c0,0.1,0,0.2,0,0.2c0,0.1,0,0.1,0,0.2C44.8,16.7,44.9,16.6,44.9,16.6z M44.8,17.4
			c0,0.1,0,0.1,0,0.2c0.1,0,0.1-0.1,0.2-0.1c0-0.1,0-0.2,0-0.2c0-0.1,0-0.1,0-0.2c-0.1,0-0.1,0.1-0.2,0.1
			C44.8,17.3,44.8,17.3,44.8,17.4z M44.8,18.3c0,0.1,0,0.1,0,0.2c0.1,0,0.1-0.1,0.2-0.1c0-0.1,0-0.2,0-0.2c0-0.1,0-0.1,0-0.2
			c-0.1,0-0.1,0.1-0.2,0.1C44.8,18.2,44.8,18.2,44.8,18.3z M42,13.7c0-0.1,0-0.1,0-0.2c-0.1,0-0.2,0-0.3,0.1c0,0.1,0,0.2,0,0.2
			s0,0.2,0,0.2c0.1,0,0.2,0,0.3-0.1C42,13.8,42,13.8,42,13.7z M44.1,11.8c0,0.1,0,0.1,0,0.2c0.1,0,0.1,0,0.2-0.1c0-0.1,0-0.2,0-0.2
			c0-0.1,0-0.1,0-0.2c-0.1,0-0.1,0-0.2,0.1C44.1,11.7,44.1,11.7,44.1,11.8z M44,10.9c0,0.1,0,0.1,0,0.2c0.1,0,0.1,0,0.2-0.1
			c0-0.1,0-0.2,0-0.2c0-0.1,0-0.1,0-0.2c-0.1,0-0.2,0-0.2,0.1C44,10.7,44,10.8,44,10.9z M42.7,19.2c-0.1,0-0.2,0.1-0.3,0.1
			c0,0.1,0,0.2,0,0.2s0,0.1,0,0.2c0.1,0,0.2,0,0.3-0.1c0-0.1,0-0.2,0-0.2C42.7,19.3,42.7,19.3,42.7,19.2z M44.3,12.7
			c0,0.1,0,0.1,0,0.2c0.1,0,0.1-0.1,0.2-0.1c0-0.1,0-0.2,0-0.2c0-0.1,0-0.1,0-0.2c-0.1,0-0.1,0-0.2,0.1
			C44.3,12.6,44.3,12.7,44.3,12.7z M44.4,13.7c0,0.1,0,0.1,0,0.2c0.1,0,0.1-0.1,0.2-0.1c0-0.1,0-0.2,0-0.2c0-0.1,0-0.1,0-0.2
			c-0.1,0-0.1,0-0.2,0.1C44.4,13.5,44.4,13.6,44.4,13.7z M41.5,10.1c0,0.1,0.1,0.2,0.1,0.3s0.1,0.2,0.1,0.3c0,0.1,0.1,0.2,0.1,0.3
			c0,0.1,0,0.2,0.1,0.3c0,0.1,0,0.2,0.1,0.3c0,0.1,0,0.2,0.1,0.3c0,0.1,0.1,0.2,0.1,0.4c0,0.1,0.1,0.3,0.1,0.4
			c0.1,0,0.2-0.1,0.3-0.1s0.2-0.1,0.3-0.1c0.1,0,0.2-0.1,0.3-0.1c0.1,0,0.2-0.1,0.3-0.1c0.1,0,0.2-0.1,0.3-0.1
			c0.1,0,0.2-0.1,0.3-0.1c0-0.1,0-0.3-0.1-0.4c0-0.1,0-0.2-0.1-0.4c0-0.1,0-0.2-0.1-0.3c0-0.1,0-0.2-0.1-0.3c0-0.1,0-0.2-0.1-0.3
			c0-0.1,0-0.2-0.1-0.3s0-0.2-0.1-0.3c0-0.1,0-0.2-0.1-0.3c0-0.1,0-0.2-0.1-0.3c-0.5,0-1.2,0-1.8,0c-0.1,0-0.2,0-0.3,0.1
			c0,0.1,0.1,0.3,0.1,0.4C41.5,9.9,41.5,10,41.5,10.1z M44.8,19.9c0,0.1,0,0.2,0,0.2c0,0.1,0,0.1,0,0.2c0.1,0,0.1-0.1,0.2-0.1
			c0-0.1,0-0.2,0-0.2c0-0.1,0-0.1,0-0.2C45,19.8,44.9,19.8,44.8,19.9z M41.1,9.7c0-0.1,0-0.2-0.1-0.3c-0.1,0-0.2,0-0.3,0
			c0,0.1,0.1,0.2,0.1,0.3c0,0.1,0,0.2,0.1,0.3c0.1,0,0.2,0,0.3,0C41.1,9.8,41.1,9.8,41.1,9.7z M43.8,10.1c0.1,0,0.2,0,0.3-0.1
			c0-0.1,0-0.2,0-0.2c0-0.1,0-0.1,0-0.2c-0.1,0-0.2,0-0.3,0c0,0.1,0,0.2,0,0.2C43.8,10,43.8,10.1,43.8,10.1z M42.4,22.1
			c0,0.1,0,0.1,0,0.2c0.1,0,0.2,0,0.3-0.1c0-0.1,0-0.1,0-0.2c0-0.1,0-0.1,0-0.2c-0.1,0-0.2,0.1-0.3,0.1C42.4,22,42.4,22.1,42.4,22.1
			z M42.4,23c0,0.1,0,0.1,0,0.2c0.1,0,0.2,0,0.3-0.1c0-0.1,0-0.1,0-0.2c0-0.1,0-0.1,0-0.2c-0.1,0-0.2,0.1-0.3,0.1
			C42.4,22.9,42.4,22.9,42.4,23z M42.3,23.8c0,0.1,0,0.1,0,0.2c0.1,0,0.2,0,0.3-0.1c0-0.1,0-0.1,0-0.2c0-0.1,0-0.1,0-0.2
			c-0.1,0-0.2,0.1-0.3,0.1C42.3,23.7,42.3,23.8,42.3,23.8z M42.4,20.6c0.1,0,0.2,0,0.3-0.1c0-0.1,0-0.2,0-0.2c0-0.1,0-0.1,0-0.2
			c-0.1,0-0.2,0.1-0.3,0.1c0,0.1,0,0.2,0,0.2C42.4,20.5,42.4,20.5,42.4,20.6z M43,19c0,0.1,0,0.2,0,0.3c0,0.1,0,0.2,0,0.3
			c0,0.1,0,0.2,0,0.4c0,0.1,0,0.3,0,0.4c0.1-0.1,0.3-0.1,0.4-0.2c0.1-0.1,0.2-0.1,0.3-0.2c0.1-0.1,0.2-0.1,0.3-0.2
			c0.1-0.1,0.2-0.1,0.3-0.2c0.1-0.1,0.2-0.1,0.3-0.2c0-0.1,0-0.3,0-0.4c0-0.1,0-0.2,0-0.4c0-0.1,0-0.2,0-0.3c0-0.1,0-0.2,0-0.3
			c0-0.1,0-0.2,0-0.3c0-0.1,0-0.2,0-0.3c0-0.1,0-0.2,0-0.3c0-0.1,0-0.2,0-0.4c0-0.1,0-0.3,0-0.4c-0.1,0.1-0.2,0.1-0.3,0.2
			c-0.1,0.1-0.2,0.1-0.3,0.2c-0.1,0.1-0.2,0.1-0.3,0.2c-0.1,0.1-0.2,0.1-0.3,0.2c-0.1,0.1-0.2,0.1-0.4,0.2c0,0.1,0,0.3,0,0.4
			c0,0.1,0,0.3,0,0.4c0,0.1,0,0.2,0,0.3c0,0.1,0,0.2,0,0.3C43,18.8,43,18.9,43,19z M44,20.4c-0.1,0.1-0.2,0.1-0.3,0.2
			c-0.1,0.1-0.2,0.1-0.3,0.2c-0.1,0.1-0.2,0.1-0.4,0.2c0,0.1,0,0.3,0,0.4c0,0.1,0,0.2,0,0.3c0,0.1,0,0.2,0,0.3c0,0.1,0,0.2,0,0.3
			c0,0.1,0,0.2,0,0.3c0,0.1,0,0.2,0,0.3c0,0.1,0,0.2,0,0.3c0,0.1,0,0.2,0,0.3c0,0.1,0,0.2,0,0.4c0.1-0.1,0.3-0.1,0.4-0.2
			c0.1-0.1,0.2-0.1,0.3-0.2c0.1,0,0.2-0.1,0.3-0.2c0.1-0.1,0.2-0.1,0.3-0.2s0.2-0.1,0.3-0.2c0-0.1,0-0.3,0-0.4s0-0.2,0-0.3
			c0-0.1,0-0.2,0-0.3c0-0.1,0-0.2,0-0.3c0-0.1,0-0.2,0-0.3c0-0.1,0-0.2,0-0.3c0-0.1,0-0.2,0-0.3c0-0.1,0-0.2,0-0.4
			c0-0.1,0-0.3,0-0.4c-0.1,0.1-0.2,0.1-0.3,0.2C44.2,20.3,44.1,20.3,44,20.4z M42.7,21c-0.1,0-0.2,0.1-0.3,0.1c0,0.1,0,0.2,0,0.2
			s0,0.1,0,0.2c0.1,0,0.2,0,0.3-0.1c0-0.1,0-0.2,0-0.2C42.7,21.1,42.7,21.1,42.7,21z M43.5,16.4c0.1-0.1,0.2-0.1,0.3-0.2
			c0.1-0.1,0.2-0.1,0.3-0.2c0.1-0.1,0.2-0.1,0.3-0.2c0-0.1,0-0.3,0-0.4c0-0.1,0-0.2,0-0.3c0-0.1,0-0.2,0-0.3c0-0.1,0-0.2,0-0.3
			c0-0.1,0-0.2,0-0.3c0-0.1,0-0.2,0-0.3c0-0.1,0-0.2,0-0.3c0-0.1,0-0.2,0-0.3c0-0.1,0-0.2,0-0.3c0-0.1,0-0.2-0.1-0.4
			c-0.1,0-0.2,0.1-0.3,0.1c-0.1,0-0.2,0.1-0.3,0.1c-0.1,0-0.2,0.1-0.3,0.1c-0.1,0-0.2,0.1-0.3,0.1c-0.1,0-0.2,0.1-0.3,0.1
			s-0.2,0.1-0.3,0.1c0,0.1,0,0.3,0.1,0.4c0,0.1,0,0.2,0.1,0.4c0,0.1,0,0.2,0.1,0.3c0,0.1,0,0.2,0,0.3c0,0.1,0,0.2,0,0.3
			c0,0.1,0,0.2,0,0.3c0,0.1,0,0.2,0,0.3c0,0.1,0,0.2,0,0.3c0,0.1,0,0.2,0,0.3s0,0.2,0,0.4c0.1-0.1,0.3-0.1,0.4-0.2
			C43.3,16.5,43.4,16.5,43.5,16.4z"/>
		<path class="st0" d="M47.4,23.4c-1.4,1.1-2.4,1.8-3.6,2.2c0.3,0.3,0.6,0.5,0.9,0.8c1.7,1.1,8.7,0.8,9.6-3.1
			C52.9,24.5,49.9,24.5,47.4,23.4z"/>
		<path class="st0" d="M51.7,25.5c-0.1,0-0.1,0.1-0.2,0.1c-0.1,0-0.1,0.1-0.2,0.1c0.1,0,0.2-0.1,0.3-0.1c0.1,0,0.2-0.1,0.3-0.1
			c0.1,0,0.2-0.1,0.2-0.1c0.1,0,0.1-0.1,0.2-0.1c-0.1,0-0.2,0.1-0.3,0.1C51.9,25.5,51.8,25.5,51.7,25.5z M50.8,25.7
			c0.1,0,0.2-0.1,0.3-0.1c0.1,0,0.2-0.1,0.3-0.1c0.1,0,0.2-0.1,0.3-0.1c0.1,0,0.2-0.1,0.4-0.1c0.1,0,0.3-0.1,0.4-0.2
			c0.1-0.1,0.2-0.2,0.3-0.3c0.1-0.1,0.2-0.2,0.2-0.2c0.1-0.1,0.1-0.1,0.2-0.2c0.1-0.1,0.1-0.1,0.2-0.2c0.1-0.1,0.1-0.1,0.2-0.2
			c0.1-0.1,0.1-0.2,0.2-0.2c-0.1,0.1-0.3,0.1-0.4,0.2c-0.1,0.1-0.2,0.1-0.3,0.2c-0.1,0.1-0.2,0.1-0.3,0.1c-0.1,0-0.2,0.1-0.3,0.1
			c-0.1,0-0.2,0.1-0.3,0.1c-0.1,0-0.2,0.1-0.3,0.1c-0.1,0-0.2,0.1-0.3,0.1c-0.1,0-0.2,0.1-0.3,0.1c-0.1,0-0.2,0-0.4,0.1
			c-0.1,0.1-0.2,0.1-0.3,0.2s-0.2,0.1-0.2,0.2c-0.1,0.1-0.1,0.1-0.2,0.2c-0.1,0.1-0.2,0.1-0.2,0.2c-0.1,0.1-0.2,0.1-0.3,0.2
			c-0.1,0.1-0.2,0.1-0.4,0.2c0.1,0,0.2,0,0.4,0c0.1,0,0.2,0,0.3,0s0.2,0,0.3,0s0.2,0,0.3-0.1C50.6,25.7,50.7,25.7,50.8,25.7z
			 M50.7,25.8c-0.1,0-0.1,0.1-0.2,0.1c-0.1,0-0.1,0.1-0.2,0.1c0.1,0,0.2,0,0.3-0.1C50.6,26,50.6,25.9,50.7,25.8c0.2,0,0.2,0,0.3,0
			c0.1,0,0.1-0.1,0.2-0.1c-0.1,0-0.2,0.1-0.3,0.1C50.8,25.8,50.8,25.8,50.7,25.8z M48.8,26.1c-0.1,0-0.1,0.1-0.2,0.1
			s-0.1,0.1-0.2,0.1c0.1,0,0.2,0,0.2,0c0.1,0,0.1,0,0.2,0c0.1,0,0.2-0.1,0.2-0.1c0.1,0,0.1-0.1,0.2-0.1c-0.1,0-0.2,0-0.2,0
			S48.8,26.1,48.8,26.1z M49.7,26c-0.1,0-0.1,0.1-0.2,0.1c-0.1,0-0.1,0.1-0.2,0.1c0.1,0,0.2,0,0.2,0c0.1,0,0.1,0,0.2,0
			c0.1,0,0.2-0.1,0.2-0.1s0.1-0.1,0.2-0.1c-0.1,0-0.2,0-0.2,0C49.9,26,49.8,26,49.7,26z M50.6,24.6c0.1-0.1,0.1-0.1,0.2-0.1
			c-0.1,0-0.1,0-0.2,0c-0.1,0-0.1,0-0.2,0c-0.1,0.1-0.2,0.1-0.2,0.1c0.1,0,0.1,0,0.2,0C50.5,24.6,50.6,24.6,50.6,24.6z M53.2,23.9
			c0,0,0.1-0.1,0.1-0.1C53.3,23.8,53.2,23.8,53.2,23.9C53.2,23.8,53.2,23.8,53.2,23.9c-0.1,0-0.1,0-0.1,0c0,0-0.1,0-0.1,0
			c0,0,0,0,0,0c-0.1,0.1-0.1,0.1-0.2,0.2c0.1,0,0.1-0.1,0.2-0.1C53,24,53.1,23.9,53.2,23.9z M51.5,24.5c0.1-0.1,0.1-0.1,0.2-0.2
			c-0.1,0-0.1,0-0.2,0c-0.1,0-0.1,0-0.2,0c-0.1,0.1-0.1,0.1-0.2,0.2c0.1,0,0.1,0,0.2,0C51.3,24.5,51.4,24.5,51.5,24.5z M54,23.9
			c0,0.1-0.1,0.1-0.1,0.2c-0.1,0.1-0.1,0.1-0.2,0.2c-0.1,0.1-0.1,0.2-0.2,0.2c-0.1,0.1-0.2,0.2-0.3,0.3c0.1-0.1,0.2-0.1,0.3-0.2
			c0,0,0.1,0,0.1,0c0,0,0.1-0.1,0.1-0.1c0,0,0,0,0,0c0,0,0.1-0.1,0.1-0.1c0,0,0,0,0,0c0.2-0.2,0.3-0.5,0.4-0.8c0,0,0,0,0,0
			C54.1,23.7,54,23.8,54,23.9z M49.8,24.6c0.1-0.1,0.1-0.1,0.2-0.1c-0.1,0-0.1,0-0.2,0c-0.1,0-0.1,0-0.2,0c-0.1,0.1-0.2,0.1-0.2,0.1
			c0.1,0,0.1,0,0.2,0C49.7,24.6,49.7,24.6,49.8,24.6z M52.3,24.2c0.1-0.1,0.1-0.1,0.2-0.2C52.5,24.1,52.4,24.1,52.3,24.2
			c-0.1-0.1-0.1-0.1-0.2,0c-0.1,0.1-0.1,0.1-0.2,0.2c0.1,0,0.1,0,0.2-0.1C52.2,24.3,52.2,24.3,52.3,24.2z M54,23.4
			c0.1-0.1,0.1-0.1,0.2-0.2c0,0-0.1,0-0.1,0.1C54.1,23.3,54.1,23.4,54,23.4C54,23.4,54,23.4,54,23.4c-0.1,0-0.1,0-0.1,0
			c0,0,0,0-0.1,0c0,0-0.1,0-0.1,0.1c0,0,0,0,0,0c0,0,0,0,0,0c0,0,0,0-0.1,0.1c0.1,0,0.1-0.1,0.2-0.1C53.9,23.5,53.9,23.5,54,23.4z
			 M46.4,25.8c-0.1,0-0.1,0-0.2-0.1c-0.1,0-0.1,0-0.2,0.1c-0.1,0-0.1,0-0.2,0.1c0.1,0,0.1,0,0.2,0.1c0.1,0,0.1,0,0.2,0.1
			c0.1,0,0.1-0.1,0.2-0.1c0.1,0,0.1,0,0.2-0.1C46.5,25.9,46.5,25.8,46.4,25.8z M47,26c-0.1,0-0.1,0.1-0.2,0.1c-0.1,0-0.1,0-0.2,0.1
			c0.1,0,0.1,0,0.2,0c0.1,0,0.1,0,0.2,0c0.1,0,0.2-0.1,0.2-0.1c0.1,0,0.1,0,0.2-0.1c-0.1,0-0.1,0-0.2,0C47.2,26,47.1,26,47,26z
			 M49.1,25.7c0.1-0.1,0.2-0.1,0.3-0.2c0.1-0.1,0.2-0.1,0.2-0.2c0.1-0.1,0.2-0.1,0.2-0.2C50,25.1,50,25,50.1,25
			c0.1-0.1,0.2-0.1,0.3-0.2c-0.1,0-0.3,0-0.4,0c-0.1,0-0.3,0-0.4,0s-0.2,0-0.3,0c-0.1,0-0.2,0-0.3,0c-0.1,0-0.2,0-0.3,0
			c-0.1,0-0.2,0-0.3-0.1c-0.1,0-0.2-0.1-0.4-0.1c-0.1,0-0.3-0.1-0.4-0.1c-0.1,0.1-0.2,0.1-0.3,0.2c-0.1,0-0.2,0.1-0.2,0.1
			c-0.1,0-0.2,0.1-0.2,0.1c-0.1,0-0.2,0.1-0.3,0.1c-0.1,0-0.2,0.1-0.3,0.1c-0.1,0-0.2,0.1-0.4,0.2c0.1,0.1,0.2,0.1,0.3,0.1
			c0.1,0,0.2,0.1,0.3,0.1c0.1,0,0.2,0.1,0.3,0.1c0.1,0,0.2,0.1,0.3,0.1c0.1,0,0.2,0,0.3,0.1c0.1,0,0.2,0,0.3,0.1s0.2,0,0.3,0
			s0.2,0,0.3,0c0.1,0,0.3,0,0.4,0C48.9,25.8,49,25.8,49.1,25.7z M52.7,25.1c-0.1,0-0.1,0.1-0.2,0.1c-0.1,0-0.1,0.1-0.2,0.1
			c0.1,0,0.2-0.1,0.3-0.1c0.1,0,0.2-0.1,0.3-0.1C53,25,53,25,53.1,25c0.1,0,0.1-0.1,0.2-0.1c-0.1,0.1-0.2,0.1-0.3,0.1
			C52.9,25,52.8,25,52.7,25.1z M47.9,26.1c-0.1,0-0.1,0.1-0.2,0.1c-0.1,0-0.1,0-0.2,0.1c0.1,0,0.1,0,0.2,0c0.1,0,0.1,0,0.2,0
			c0.1,0,0.2-0.1,0.2-0.1c0.1,0,0.1-0.1,0.2-0.1c-0.1,0-0.2,0-0.2,0C48,26.1,48,26.1,47.9,26.1z M44.9,25.1c0,0-0.1,0-0.1-0.1
			c-0.1,0.1-0.2,0.1-0.3,0.1c0,0,0,0,0.1,0c0,0,0.1,0.1,0.2,0.1c0.1,0,0.1,0,0.2-0.1c0.1,0,0.1,0,0.2-0.1C45,25.2,45,25.2,44.9,25.1
			z M45.5,25.1c0.1-0.1,0.3-0.1,0.4-0.2c0.1,0,0.2-0.1,0.3-0.1c0.1,0,0.2-0.1,0.2-0.1s0.2-0.1,0.2-0.1c0.1,0,0.2-0.1,0.2-0.1
			c0.1,0,0.2-0.1,0.3-0.1c-0.1-0.1-0.3-0.1-0.4-0.2c-0.1,0-0.2-0.1-0.3-0.1c-0.5,0.4-0.9,0.7-1.4,0.9c0,0,0,0,0,0
			C45.3,25,45.4,25.1,45.5,25.1z M47.4,24.2c0.1,0,0.1-0.1,0.2-0.1c-0.1,0-0.1,0-0.2-0.1c-0.1,0-0.1,0-0.2-0.1
			C47.2,24,47.1,24,47,24c0.1,0,0.1,0.1,0.2,0.1C47.3,24.1,47.3,24.2,47.4,24.2z M48.2,24.4c0.1,0,0.1-0.1,0.2-0.1
			c-0.1,0-0.1,0-0.2-0.1c-0.1,0-0.1,0-0.2-0.1c-0.1,0-0.2,0.1-0.2,0.1c0.1,0,0.1,0,0.2,0.1C48.1,24.4,48.1,24.4,48.2,24.4z
			 M45.7,25.5c-0.1,0-0.1,0-0.2-0.1c-0.1,0-0.1,0-0.2,0.1s-0.1,0-0.2,0.1c0.1,0,0.1,0.1,0.2,0.1c0.1,0,0.1,0.1,0.2,0.1
			c0.1,0,0.1,0,0.2-0.1c0.1,0,0.1,0,0.2-0.1C45.8,25.6,45.7,25.6,45.7,25.5z M46.9,23.7C46.9,23.8,46.8,23.8,46.9,23.7
			C46.8,23.8,46.9,23.8,46.9,23.7C46.9,23.7,46.9,23.7,46.9,23.7z M49,24.6c0.1-0.1,0.1-0.1,0.2-0.1c-0.1,0-0.1,0-0.2,0
			c-0.1,0-0.1,0-0.2,0c-0.1,0-0.2,0.1-0.2,0.1c0.1,0,0.1,0,0.2,0C48.8,24.6,48.9,24.6,49,24.6z"/>
		<path class="st0" d="M45.9,26.3c3.3-2.2,3.5-8.1,0.9-10.2c2.6,6.7-7.7,9.9-10.6,7.1C37.2,27,44.2,27.4,45.9,26.3z"/>
		<path class="st0" d="M45.4,22.8c0,0,0.1-0.1,0.2-0.1c-0.1,0-0.1,0-0.2-0.1c-0.1,0.1-0.1,0.1-0.2,0.1c0,0-0.1,0.1-0.2,0.1
			c0.1,0,0.1,0,0.2,0.1C45.3,22.9,45.4,22.9,45.4,22.8z M46.9,24.1c0,0-0.1,0.1-0.1,0.1c0.1,0,0.2,0.1,0.3,0.1
			c0.1-0.1,0.1-0.1,0.1-0.1c0,0,0.1-0.1,0.1-0.2c-0.1,0-0.2,0-0.3-0.1C47,24,47,24.1,46.9,24.1z M46.6,21.6c0-0.1,0.1-0.1,0.1-0.2
			c-0.1,0-0.1,0-0.2,0c-0.1,0.1-0.1,0.1-0.1,0.2c0,0.1-0.1,0.1-0.1,0.2c0.1,0,0.1,0,0.2,0.1C46.5,21.7,46.6,21.6,46.6,21.6z
			 M47.1,20.9c0-0.1,0.1-0.1,0.1-0.2c-0.1,0-0.1,0-0.2,0c0,0.1-0.1,0.1-0.1,0.2c0,0.1-0.1,0.1-0.1,0.2c0.1,0,0.1,0,0.2,0
			C47.1,21,47.1,20.9,47.1,20.9z M47.5,23.5c0,0-0.1,0.1-0.1,0.2c0.1,0,0.2,0,0.3,0.1c0.1-0.1,0.1-0.1,0.1-0.2
			c0-0.1,0.1-0.1,0.1-0.2c-0.1,0-0.2,0-0.3-0.1C47.6,23.4,47.5,23.4,47.5,23.5z M47.6,20.1c0-0.1,0.1-0.1,0.1-0.2
			c-0.1,0-0.1,0-0.2,0c0,0.1-0.1,0.1-0.1,0.2c0,0.1-0.1,0.1-0.1,0.2c0.1,0,0.1,0,0.2,0C47.5,20.2,47.6,20.2,47.6,20.1z M48.1,19.5
			c0.1,0,0.2,0,0.3,0c0.1,0,0.1,0,0.2,0c0-0.3-0.1-0.6-0.2-0.9c0,0.1,0,0.1-0.1,0.2c0,0.1-0.1,0.2-0.1,0.3
			C48.2,19.3,48.1,19.4,48.1,19.5z M48.3,18.4C48.3,18.4,48.3,18.3,48.3,18.4c0-0.1,0-0.2,0-0.2c0,0,0,0-0.1,0c0,0.1,0,0.2-0.1,0.2
			c0,0.1,0,0.1-0.1,0.2c0.1,0,0.1,0,0.2,0C48.3,18.5,48.3,18.4,48.3,18.4z M46.1,22.2c0,0,0.1-0.1,0.1-0.2c-0.1,0-0.1,0-0.2-0.1
			c-0.1,0.1-0.1,0.1-0.1,0.2c0,0-0.1,0.1-0.2,0.1c0.1,0,0.1,0,0.2,0.1C46,22.3,46,22.3,46.1,22.2z M48,19.3c0-0.1,0.1-0.1,0.1-0.2
			c-0.1,0-0.1,0-0.2,0c0,0.1-0.1,0.2-0.1,0.2c0,0.1-0.1,0.1-0.1,0.2c0.1,0,0.1,0,0.2,0C47.9,19.4,48,19.3,48,19.3z M45.1,25.4
			c-0.1,0-0.1,0.1-0.2,0.1c-0.1,0-0.1,0-0.2,0.1c0.1,0,0.1,0,0.2,0.1c0.1,0,0.1,0,0.2,0.1c0.1,0,0.1-0.1,0.2-0.1s0.1-0.1,0.2-0.1
			c-0.1,0-0.1,0-0.2-0.1C45.2,25.5,45.2,25.5,45.1,25.4z M48.6,20c0,0-0.1,0-0.1,0c-0.1,0-0.2,0-0.3,0s-0.2,0-0.3,0
			c-0.1,0.1-0.1,0.3-0.2,0.4c-0.1,0.1-0.1,0.2-0.2,0.3c-0.1,0.1-0.1,0.2-0.2,0.3c-0.1,0.1-0.1,0.2-0.2,0.3c-0.1,0.1-0.1,0.2-0.2,0.3
			c-0.1,0.1-0.1,0.2-0.2,0.3c-0.1,0.1-0.1,0.2-0.2,0.3c-0.1,0.1-0.1,0.2-0.2,0.3s-0.2,0.2-0.3,0.3c0.1,0,0.2,0.1,0.3,0.1
			c0.1,0,0.2,0.1,0.3,0.1c0.1,0,0.2,0.1,0.3,0.1c0.1,0,0.2,0.1,0.3,0.1c0.1,0,0.2,0.1,0.4,0.1c0.1-0.1,0.1-0.2,0.2-0.3
			c0.1-0.1,0.1-0.2,0.2-0.3c0.1-0.1,0.1-0.2,0.2-0.3c0.1-0.1,0.1-0.2,0.2-0.3c0-0.1,0.1-0.2,0.1-0.3c0-0.1,0.1-0.2,0.1-0.3
			c0,0,0,0,0-0.1C48.6,20.8,48.7,20.4,48.6,20z M36.5,23.4c0.1,0.1,0.1,0.1,0.2,0.1c0.1,0,0.1,0.1,0.2,0.1c0,0,0,0-0.1-0.1
			c-0.2-0.1-0.3-0.2-0.4-0.3c0,0-0.1,0-0.1-0.1C36.4,23.3,36.5,23.4,36.5,23.4z M44.8,23.3c0.1,0,0.1-0.1,0.2-0.1
			c-0.1,0-0.1,0-0.2-0.1c-0.1,0-0.1,0.1-0.2,0.1c-0.1,0-0.1,0.1-0.2,0.1c0.1,0,0.1,0.1,0.2,0.1C44.7,23.4,44.7,23.4,44.8,23.3z
			 M37.1,24.6c-0.1-0.1-0.2-0.2-0.2-0.2c-0.1-0.1-0.1-0.2-0.2-0.2c-0.1-0.1-0.1-0.1-0.1-0.2c0-0.1-0.1-0.2-0.1-0.2c0,0,0,0,0,0
			C36.6,24,36.8,24.3,37.1,24.6c-0.1,0.1,0,0.1,0,0.1c0.1,0.1,0.2,0.1,0.3,0.2C37.3,24.7,37.2,24.6,37.1,24.6z M43.3,24.1
			c0.1,0,0.1,0,0.2-0.1c-0.1,0-0.1-0.1-0.2-0.1c-0.1,0-0.1,0.1-0.2,0.1s-0.1,0-0.2,0.1c0.1,0,0.1,0.1,0.2,0.1
			C43.2,24.2,43.3,24.1,43.3,24.1z M44.3,25.8c-0.1,0-0.1,0-0.2,0.1c-0.1,0-0.1,0-0.2,0.1c0.1,0,0.1,0,0.2,0.1c0.1,0,0.1,0,0.2,0.1
			c0.1,0,0.1,0,0.2-0.1c0.1,0,0.1,0,0.2-0.1c-0.1,0-0.1,0-0.2-0.1C44.5,25.8,44.4,25.8,44.3,25.8z M44.1,23.8c0.1,0,0.1-0.1,0.2-0.1
			c-0.1,0-0.1-0.1-0.2-0.1c-0.1,0-0.1,0.1-0.2,0.1c-0.1,0-0.1,0.1-0.2,0.1c0.1,0,0.1,0.1,0.2,0.1C44,23.8,44,23.8,44.1,23.8z
			 M44.4,23.8c-0.1,0.1-0.2,0.1-0.3,0.2c-0.1,0.1-0.2,0.1-0.3,0.2c-0.1,0.1-0.2,0.1-0.4,0.2c0.1,0.1,0.2,0.1,0.3,0.1
			c0.1,0,0.2,0.1,0.2,0.1c0.1,0,0.2,0.1,0.2,0.1c0.1,0,0.2,0.1,0.2,0.1c0.1,0,0.2,0.1,0.3,0.1c0.1,0,0.2,0.1,0.4,0.2
			c0.1-0.1,0.2-0.1,0.3-0.2c0.1-0.1,0.2-0.1,0.3-0.2c0.1-0.1,0.2-0.1,0.3-0.2c0.1-0.1,0.2-0.1,0.2-0.2c0.1-0.1,0.2-0.1,0.2-0.2
			c0.1-0.1,0.1-0.1,0.2-0.2c0.1-0.1,0.2-0.1,0.2-0.2c0.1-0.1,0.2-0.2,0.2-0.3c0.1-0.1,0.2-0.2,0.3-0.3c-0.1,0-0.3-0.1-0.4-0.1
			s-0.2-0.1-0.3-0.1c-0.1,0-0.2-0.1-0.3-0.1c-0.1,0-0.2-0.1-0.3-0.1c-0.1,0-0.2-0.1-0.3-0.1c-0.1,0.1-0.2,0.2-0.3,0.3
			c-0.1,0.1-0.2,0.2-0.3,0.2c-0.1,0.1-0.2,0.1-0.3,0.2c-0.1,0.1-0.2,0.1-0.3,0.2C44.6,23.7,44.5,23.8,44.4,23.8z M37.8,25.1
			c-0.1,0-0.2-0.1-0.3-0.1c-0.1,0-0.2-0.1-0.3-0.1c0.1,0,0.1,0.1,0.2,0.1c0.1,0,0.1,0.1,0.2,0.1c0.1,0.1,0.2,0.1,0.3,0.1
			c0.1,0,0.2,0.1,0.3,0.1c-0.1,0-0.1-0.1-0.2-0.1C38,25.2,37.9,25.1,37.8,25.1z M42.7,26.1c-0.1,0-0.2,0-0.2,0c-0.1,0-0.1,0-0.2,0
			c0.1,0,0.1,0.1,0.2,0.1c0.1,0,0.1,0.1,0.2,0.1c0.1,0,0.2,0,0.2,0c0.1,0,0.1,0,0.2,0c-0.1,0-0.2-0.1-0.2-0.1
			C42.8,26.2,42.8,26.1,42.7,26.1z M42.9,25.8c0.1,0,0.2,0,0.3-0.1c0.1,0,0.2,0,0.3-0.1c0.1,0,0.2,0,0.3-0.1c0.1,0,0.2-0.1,0.3-0.1
			c0.1,0,0.2-0.1,0.3-0.1c0.1,0,0.2-0.1,0.3-0.1c-0.1-0.1-0.3-0.1-0.4-0.2c-0.1,0-0.2-0.1-0.3-0.1c-0.1,0-0.2-0.1-0.3-0.1
			c-0.1,0-0.2-0.1-0.2-0.1c-0.1,0-0.2-0.1-0.2-0.1s-0.2-0.1-0.3-0.2c-0.1,0-0.3,0.1-0.4,0.1c-0.1,0-0.2,0.1-0.4,0.1
			c-0.1,0-0.2,0-0.3,0.1c-0.1,0-0.2,0-0.3,0c-0.1,0-0.2,0-0.3,0c-0.1,0-0.2,0-0.3,0c-0.1,0-0.2,0-0.4,0c-0.1,0-0.3,0-0.4,0
			c0.1,0.1,0.2,0.1,0.3,0.2c0.1,0.1,0.2,0.1,0.2,0.2c0.1,0.1,0.2,0.1,0.2,0.2c0.1,0.1,0.2,0.1,0.2,0.2c0.1,0.1,0.2,0.1,0.3,0.2
			c0.1,0.1,0.2,0.1,0.4,0.2c0.1,0,0.3,0,0.4,0c0.1,0,0.2,0,0.3,0C42.7,25.9,42.8,25.9,42.9,25.8z M37.6,24c0.1,0,0.1,0.1,0.2,0.1
			C37.7,24,37.7,24,37.6,24c-0.1-0.1-0.2-0.1-0.3-0.2c0,0,0.1,0.1,0.1,0.1C37.5,23.9,37.5,24,37.6,24z M43.5,26c-0.1,0-0.1,0-0.2,0
			c-0.1,0-0.1,0-0.2,0c0.1,0,0.1,0.1,0.2,0.1c0.1,0,0.1,0,0.2,0.1c0.1,0,0.1,0,0.2,0s0.1,0,0.2,0c-0.1,0-0.1-0.1-0.2-0.1
			C43.7,26,43.6,26,43.5,26z M39.3,24.5c0.1,0,0.1,0,0.2,0c-0.1-0.1-0.1-0.1-0.2-0.2c-0.1,0-0.1,0-0.2,0c-0.1,0-0.1,0-0.2,0
			c0.1,0.1,0.1,0.1,0.2,0.2C39.2,24.5,39.2,24.5,39.3,24.5z M48.4,22.2C48.4,22.2,48.4,22.2,48.4,22.2c0.1-0.1,0.1-0.2,0.1-0.2
			c0,0,0,0,0,0C48.5,22.1,48.4,22.1,48.4,22.2z M45.8,25c-0.1,0-0.1,0.1-0.2,0.1c-0.1,0-0.1,0.1-0.2,0.1c0.1,0,0.1,0,0.2,0.1
			c0.1,0,0.1,0,0.2,0.1c0.1,0,0.1-0.1,0.2-0.1c0.1,0,0.1-0.1,0.2-0.1c-0.1,0-0.1,0-0.2-0.1C45.9,25.1,45.9,25.1,45.8,25z M42.6,24.4
			c0.1,0,0.1,0,0.2-0.1c-0.1,0-0.1-0.1-0.2-0.1c-0.1,0-0.1,0-0.2,0.1c-0.1,0-0.1,0-0.2,0.1c0.1,0,0.2,0.1,0.2,0.1
			C42.5,24.4,42.5,24.4,42.6,24.4z M46.3,24.7c0,0-0.1,0.1-0.2,0.1c0.1,0,0.1,0,0.2,0.1c0.1,0,0.1,0,0.2,0.1c0.1,0,0.1-0.1,0.2-0.1
			c0,0,0.1-0.1,0.2-0.1c-0.1,0-0.2-0.1-0.3-0.1C46.4,24.6,46.3,24.6,46.3,24.7z M48,22.8c0,0.1-0.1,0.1-0.1,0.2c0.1,0,0.2,0,0.3,0.1
			c0-0.1,0.1-0.1,0.1-0.2c0,0,0,0,0,0c0-0.1,0-0.1,0-0.2c-0.1,0-0.1,0-0.2,0C48.1,22.7,48.1,22.7,48,22.8z M41,24.6
			c0.1,0,0.1,0,0.2,0c-0.1-0.1-0.1-0.1-0.2-0.1c-0.1,0-0.1,0-0.2,0c-0.1,0-0.1,0-0.2,0c0.1,0.1,0.2,0.1,0.2,0.1
			C40.8,24.6,40.9,24.6,41,24.6z M41,25.9c0.1,0,0.2,0,0.4,0c-0.2-0.1-0.3-0.2-0.4-0.2c-0.1-0.1-0.2-0.1-0.3-0.2
			c-0.1-0.1-0.2-0.1-0.2-0.2c-0.1-0.1-0.1-0.1-0.2-0.2c-0.1-0.1-0.1-0.1-0.2-0.2c-0.1-0.1-0.2-0.1-0.3-0.2c-0.1,0-0.3,0-0.4-0.1
			s-0.2,0-0.3-0.1c-0.1,0-0.2-0.1-0.3-0.1c-0.1,0-0.2-0.1-0.3-0.1s-0.2-0.1-0.3-0.1c-0.1,0-0.2-0.1-0.3-0.1c-0.1,0-0.2-0.1-0.3-0.1
			c-0.1-0.1-0.2-0.1-0.4-0.2c-0.1-0.1-0.2-0.1-0.4-0.2c0.1,0.1,0.1,0.2,0.2,0.2c0.1,0.1,0.1,0.2,0.2,0.2s0.1,0.1,0.2,0.2
			c0.1,0.1,0.1,0.1,0.2,0.2c0.1,0.1,0.1,0.2,0.2,0.2c0.1,0.1,0.2,0.2,0.3,0.3c0.1,0.1,0.3,0.1,0.4,0.2c0.1,0,0.3,0.1,0.4,0.1
			c0.1,0,0.2,0.1,0.3,0.1c0.1,0,0.2,0.1,0.3,0.1c0.1,0,0.2,0.1,0.3,0.1c0.1,0,0.2,0,0.3,0.1c0.1,0,0.2,0,0.3,0.1s0.2,0,0.3,0
			C40.8,25.9,40.9,25.9,41,25.9z M41.8,24.5c0.1,0,0.1,0,0.2,0c-0.1-0.1-0.1-0.1-0.2-0.1c-0.1,0-0.1,0-0.2,0c-0.1,0-0.1,0-0.2,0
			c0.1,0.1,0.2,0.1,0.2,0.1C41.7,24.6,41.7,24.6,41.8,24.5z M41.8,26.1c-0.1,0-0.2,0-0.2,0s-0.1,0-0.2,0c0.1,0,0.1,0.1,0.2,0.1
			s0.1,0.1,0.2,0.1c0.1,0,0.2,0,0.2,0c0.1,0,0.1,0,0.2,0c-0.1,0-0.2-0.1-0.2-0.1C41.9,26.2,41.9,26.2,41.8,26.1z M40.1,24.6
			c0.1,0,0.1,0,0.2,0c-0.1-0.1-0.1-0.1-0.2-0.1c-0.1,0-0.1,0-0.2,0s-0.1,0-0.2,0c0.1,0.1,0.1,0.1,0.2,0.1
			C40,24.6,40.1,24.6,40.1,24.6z M40.9,26c-0.1,0-0.2,0-0.2,0c-0.1,0-0.1,0-0.2,0c0.1,0,0.1,0.1,0.2,0.1c0.1,0,0.1,0.1,0.2,0.1
			c0.1,0,0.2,0,0.2,0c0.1,0,0.1,0,0.2,0c-0.1,0-0.2-0.1-0.2-0.1C41,26.1,41,26.1,40.9,26z M38.9,25.5c-0.1,0-0.2-0.1-0.3-0.1
			c-0.1,0-0.2-0.1-0.3-0.1c0.1,0,0.1,0.1,0.2,0.1c0.1,0,0.1,0.1,0.2,0.1c0.1,0,0.2,0.1,0.3,0.1c0.1,0,0.2,0.1,0.3,0.1
			c-0.1,0-0.2-0.1-0.2-0.1C39,25.6,39,25.6,38.9,25.5z M38.4,24.3c0.1,0,0.1,0,0.2,0.1C38.6,24.3,38.5,24.3,38.4,24.3
			c-0.1-0.1-0.2-0.1-0.2-0.2c-0.1,0-0.1,0-0.2-0.1c0.1,0.1,0.1,0.1,0.2,0.2C38.3,24.3,38.4,24.3,38.4,24.3z M39.9,25.8
			c-0.1,0-0.2,0-0.2-0.1c-0.1,0-0.2,0-0.3-0.1c0.1,0,0.1,0.1,0.2,0.1C39.7,25.8,39.7,25.9,39.9,25.8c0,0.1,0.1,0.1,0.2,0.1
			c0.1,0,0.2,0,0.3,0.1c-0.1,0-0.2-0.1-0.2-0.1C40,25.9,40,25.9,39.9,25.8z"/>
		<path class="st0" d="M34.7,8.7c-3.4,3.7-2.1,10.2,0.5,13.3c2.3,2.8,7.9,5.8,10.8,4.3c-4.8,2.7-10.4,2-13.6-1.8
			c-0.3-0.4-0.5-1.4-0.6-1.8c-1.1-1.9-1.2-4-1-7.1l2.5-5.8L34.7,8.7z"/>
		<path class="st0" d="M55.9,8.7c3.4,3.7,2.1,10.2-0.5,13.3c-2.3,2.8-7.9,5.8-10.8,4.3c4.8,2.7,10.4,2,13.6-1.8
			c0.3-0.4,0.5-1.5,0.6-2c1.1-1.9,1.2-3.8,1-6.9l-2.5-5.8L55.9,8.7z"/>
		<path class="st0" d="M45.9,26.3c5.8-3.8,8-14.2-0.6-20.5l-5.1,3.6C48,12.4,49.5,23.9,45.9,26.3z"/>
		<path class="st0" d="M50.1,13.7c0,0.1,0,0.1,0.1,0.2c0.1-0.1,0.1-0.1,0.2-0.2c0-0.1,0-0.2-0.1-0.2c0-0.1,0-0.1-0.1-0.2
			c-0.1,0.1-0.1,0.1-0.2,0.2C50.1,13.6,50.1,13.6,50.1,13.7z M49.8,12.8c0,0.1,0,0.1,0.1,0.2C50,13,50,13,50.1,12.9
			c0-0.1-0.1-0.2-0.1-0.2c0-0.1,0-0.1-0.1-0.2c-0.1,0.1-0.1,0.1-0.2,0.2C49.8,12.7,49.8,12.8,49.8,12.8z M50.5,15.5
			c0,0.1,0,0.1,0,0.2c0.1-0.1,0.1-0.1,0.2-0.2c0-0.1,0-0.2,0-0.2c0-0.1,0-0.1,0-0.2c-0.1,0.1-0.1,0.1-0.2,0.2
			C50.5,15.3,50.5,15.4,50.5,15.5z M50.6,16.3c0,0.1,0,0.1,0,0.2c0.1-0.1,0.1-0.1,0.2-0.2c0-0.1,0-0.2,0-0.2c0-0.1,0-0.1,0-0.2
			c-0.1,0.1-0.1,0.1-0.2,0.2C50.6,16.2,50.6,16.3,50.6,16.3z M49.4,12c0,0.1,0.1,0.1,0.1,0.2c0.1-0.1,0.1-0.1,0.2-0.2
			c0-0.1-0.1-0.1-0.1-0.2c0-0.1-0.1-0.1-0.1-0.2c-0.1,0.1-0.1,0.1-0.2,0.2C49.4,11.9,49.4,11.9,49.4,12z M50.3,14.6
			c0,0.1,0,0.1,0,0.2c0.1-0.1,0.1-0.1,0.2-0.2c0-0.1,0-0.2,0-0.2c0-0.1,0-0.1,0-0.2c-0.1,0.1-0.1,0.1-0.2,0.2
			C50.3,14.4,50.3,14.5,50.3,14.6z M47.4,14.8c0-0.1-0.1-0.1-0.1-0.2c-0.1,0-0.1,0.1-0.2,0.1c0,0-0.1,0.1-0.2,0.1
			c0,0.1,0.1,0.1,0.1,0.2s0.1,0.1,0.1,0.2c0.1,0,0.1-0.1,0.2-0.1c0,0,0.1-0.1,0.2-0.1C47.4,14.9,47.4,14.9,47.4,14.8z M47.7,15.4
			c-0.1,0-0.1,0.1-0.1,0.1c0,0-0.1,0.1-0.2,0.1c0,0.1,0.1,0.1,0.1,0.2c0,0.1,0,0.1,0.1,0.2c0.1,0,0.1-0.1,0.1-0.1
			c0,0,0.1-0.1,0.1-0.1c0-0.1-0.1-0.2-0.1-0.2C47.7,15.6,47.7,15.5,47.7,15.4z M46.5,13.1c0-0.1-0.1-0.1-0.1-0.2
			c-0.1,0-0.1,0.1-0.2,0.1c0,0-0.1,0.1-0.2,0.1c0.1,0.1,0.1,0.1,0.1,0.2c0,0.1,0.1,0.1,0.1,0.2c0.1,0,0.1-0.1,0.2-0.1
			c0,0,0.1-0.1,0.2-0.1C46.6,13.2,46.5,13.2,46.5,13.1z M49.1,11.4c0.1-0.1,0.1-0.1,0.2-0.2c0-0.1-0.1-0.1-0.1-0.2
			c0-0.1-0.1-0.1-0.1-0.2c-0.1,0.1-0.1,0.1-0.2,0.2c0,0.1,0.1,0.1,0.1,0.2C49,11.2,49.1,11.3,49.1,11.4z M47,13.9
			c0-0.1-0.1-0.1-0.1-0.2c-0.1,0-0.1,0.1-0.2,0.1c0,0-0.1,0.1-0.2,0.1c0,0.1,0.1,0.1,0.1,0.2c0,0.1,0.1,0.1,0.1,0.2
			c0.1,0,0.1-0.1,0.2-0.1c0,0,0.1-0.1,0.2-0.1C47,14.1,47,14,47,13.9z M47.4,24.8c0,0.1,0,0.1-0.1,0.2c0.1-0.1,0.1-0.1,0.2-0.2
			c0-0.1,0.1-0.1,0.1-0.2c0-0.1,0-0.1,0.1-0.2c-0.1,0.1-0.1,0.1-0.2,0.2C47.5,24.7,47.4,24.8,47.4,24.8z M47.9,23.9
			c0-0.1,0-0.1,0.1-0.2c-0.1,0.1-0.1,0.1-0.2,0.2c0,0.1,0,0.1-0.1,0.2c0,0.1,0,0.1-0.1,0.2c0.1-0.1,0.1-0.1,0.2-0.2
			C47.8,24,47.9,24,47.9,23.9z M48.6,10.5c0.1-0.1,0.1-0.1,0.2-0.2c-0.1-0.1-0.1-0.1-0.1-0.2c0-0.1-0.1-0.1-0.1-0.2
			c-0.1,0.1-0.1,0.1-0.2,0.2c0.1,0.1,0.1,0.1,0.1,0.2C48.5,10.4,48.6,10.4,48.6,10.5z M48.2,24.1c-0.1,0.1-0.2,0.1-0.3,0.2
			c-0.1,0.1-0.1,0.3-0.1,0.4c0,0,0,0.1-0.1,0.1c0.3-0.3,0.6-0.7,0.9-1.1c-0.1,0-0.1,0.1-0.2,0.1C48.4,23.9,48.3,24,48.2,24.1z
			 M48.8,20.3c0,0.1,0,0.2,0,0.4c0.1-0.1,0.2-0.2,0.3-0.3c0.1-0.1,0.2-0.2,0.3-0.2c0.1-0.1,0.2-0.1,0.2-0.2c0.1-0.1,0.1-0.1,0.2-0.2
			c0.1-0.1,0.2-0.1,0.2-0.2c0.1-0.1,0.2-0.1,0.3-0.2c0-0.1,0-0.3,0-0.4c0-0.1,0-0.2,0-0.4s0-0.2,0-0.3c0-0.1,0-0.2,0-0.3
			c0-0.1,0-0.2,0-0.3c0-0.1,0-0.2,0-0.3c0-0.1,0-0.2,0-0.3c0-0.1,0-0.2,0-0.4c0-0.1,0-0.3,0-0.4c-0.1,0.1-0.2,0.2-0.3,0.2
			s-0.2,0.1-0.3,0.2c-0.1,0.1-0.2,0.1-0.2,0.2c-0.1,0.1-0.2,0.1-0.3,0.2c-0.1,0.1-0.2,0.2-0.3,0.2c-0.1,0.1-0.2,0.2-0.3,0.3
			c0,0.1,0,0.3,0.1,0.4c0,0.1,0,0.2,0,0.3c0,0.1,0,0.2,0,0.3s0,0.2,0,0.3c0,0.1,0,0.2,0,0.3c0,0.1,0,0.2,0,0.3c0,0.1,0,0.2,0,0.3
			C48.8,20.1,48.8,20.2,48.8,20.3z M45,6.6c0.1-0.1,0.1-0.1,0.2-0.2C45.1,6.4,45,6.4,45,6.3c-0.1-0.1-0.1-0.1-0.2-0.2l0,0l-0.2,0.2
			c0.1,0.1,0.2,0.1,0.2,0.2C44.8,6.5,44.9,6.6,45,6.6z M47.9,16.3c-0.1,0-0.1,0.1-0.1,0.1c0,0-0.1,0.1-0.1,0.1c0,0.1,0,0.1,0.1,0.2
			c0,0.1,0,0.1,0.1,0.2c0.1,0,0.1-0.1,0.1-0.1c0,0,0.1-0.1,0.1-0.1c0-0.1,0-0.2-0.1-0.2C48,16.4,48,16.4,47.9,16.3z M47.2,9.7
			c-0.1,0.1-0.2,0.1-0.3,0.2c-0.1,0.1-0.2,0.1-0.3,0.2c-0.1,0.1-0.2,0.1-0.3,0.2c-0.1,0.1-0.2,0.1-0.3,0.2c-0.1,0.1-0.2,0.1-0.3,0.2
			c-0.1,0.1-0.2,0.2-0.4,0.3c0.1,0.1,0.2,0.2,0.3,0.3c0.1,0.1,0.2,0.2,0.2,0.3c0.1,0.1,0.1,0.2,0.2,0.3c0.1,0.1,0.1,0.2,0.2,0.3
			s0.1,0.2,0.2,0.3s0.1,0.2,0.2,0.3c0.1,0.1,0.1,0.2,0.2,0.3c0.1,0.1,0.1,0.2,0.2,0.3c0.1,0.1,0.1,0.2,0.2,0.3s0.1,0.2,0.2,0.3
			c0.1-0.1,0.2-0.2,0.3-0.3c0.1-0.1,0.2-0.2,0.3-0.2c0.1-0.1,0.2-0.1,0.3-0.2c0.1-0.1,0.2-0.1,0.2-0.2c0.1-0.1,0.2-0.1,0.2-0.2
			c0.1-0.1,0.2-0.1,0.2-0.2c0.1-0.1,0.2-0.1,0.3-0.2c-0.1-0.1-0.1-0.2-0.2-0.3C49.1,12,49,11.9,49,11.8c-0.1-0.1-0.1-0.2-0.2-0.3
			c-0.1-0.1-0.1-0.2-0.2-0.3c-0.1-0.1-0.1-0.2-0.2-0.3s-0.1-0.2-0.2-0.3c-0.1-0.1-0.1-0.2-0.2-0.3c-0.1-0.1-0.1-0.2-0.2-0.3
			c-0.1-0.1-0.1-0.2-0.2-0.3c-0.1-0.1-0.2-0.2-0.3-0.3C47.4,9.6,47.3,9.7,47.2,9.7z M48.1,9.7c0.1-0.1,0.1-0.1,0.2-0.2
			c-0.1-0.1-0.1-0.1-0.2-0.2c0-0.1-0.1-0.1-0.2-0.2c-0.1,0.1-0.1,0.1-0.2,0.2c0.1,0.1,0.1,0.1,0.2,0.2C48,9.6,48,9.6,48.1,9.7z
			 M45.3,11.5c-0.1-0.1-0.1-0.1-0.2-0.2c-0.1,0.1-0.1,0.1-0.2,0.1c0,0-0.1,0.1-0.2,0.1c0.1,0.1,0.1,0.1,0.2,0.2
			c0.1,0.1,0.1,0.1,0.2,0.2c0.1-0.1,0.1-0.1,0.2-0.1c0.1,0,0.1-0.1,0.2-0.1C45.4,11.6,45.3,11.6,45.3,11.5z M45.9,12.3
			c0-0.1-0.1-0.1-0.2-0.2c-0.1,0.1-0.1,0.1-0.2,0.1c-0.1,0-0.1,0.1-0.2,0.1c0.1,0.1,0.1,0.1,0.2,0.2c0,0.1,0.1,0.1,0.2,0.2
			c0.1-0.1,0.1-0.1,0.2-0.1c0,0,0.1-0.1,0.2-0.1C46,12.4,46,12.4,45.9,12.3z M42.7,8.5c0.1,0.1,0.2,0.1,0.3,0.2
			c0.1,0.1,0.2,0.1,0.3,0.2C43.3,9,43.4,9,43.5,9.1c0.1,0.1,0.2,0.1,0.2,0.2c0.1,0.1,0.2,0.1,0.2,0.2c0.1,0.1,0.2,0.1,0.2,0.2
			c0.1,0.1,0.2,0.1,0.2,0.2c0.1,0.1,0.2,0.1,0.2,0.2c0.1,0.1,0.2,0.2,0.2,0.2c0.1,0.1,0.2,0.2,0.3,0.3c0.1-0.1,0.2-0.2,0.4-0.3
			c0.1-0.1,0.2-0.2,0.3-0.2C45.9,10,46,10,46.1,9.9c0.1-0.1,0.2-0.1,0.3-0.2c0.1-0.1,0.2-0.1,0.3-0.2c0.1-0.1,0.2-0.1,0.3-0.2
			c0.1-0.1,0.2-0.1,0.3-0.2C47,9,47,8.9,46.9,8.8c-0.1-0.1-0.2-0.2-0.2-0.3c-0.1-0.1-0.2-0.2-0.2-0.2c-0.1-0.1-0.2-0.2-0.2-0.2
			C46.1,8,46,7.9,45.9,7.9c-0.1-0.1-0.2-0.1-0.2-0.2c-0.1-0.1-0.2-0.1-0.3-0.2c-0.1-0.1-0.2-0.1-0.3-0.2S45,7.1,44.9,7
			c-0.1-0.1-0.2-0.2-0.3-0.2c-0.1-0.1-0.2-0.2-0.3-0.3L42,8c0.1,0.1,0.2,0.2,0.3,0.2C42.5,8.4,42.6,8.4,42.7,8.5z M46.7,8.1
			C46.8,8.1,46.8,8,46.9,8c-0.1-0.1-0.1-0.1-0.2-0.2c-0.1-0.1-0.1-0.1-0.2-0.2c-0.1,0.1-0.1,0.1-0.2,0.2c0.1,0.1,0.1,0.1,0.2,0.2
			C46.5,8,46.6,8.1,46.7,8.1z M45.9,7.4C46,7.3,46,7.3,46.1,7.2C46,7.1,46,7.1,45.9,7c-0.1-0.1-0.1-0.1-0.2-0.2
			c-0.1,0.1-0.1,0.1-0.2,0.2c0.1,0.1,0.2,0.1,0.2,0.2C45.7,7.2,45.8,7.3,45.9,7.4z M50.8,16.8c-0.1,0.1-0.1,0.1-0.2,0.2
			c0,0.1,0,0.2,0,0.2s0,0.1,0,0.2c0.1-0.1,0.1-0.1,0.2-0.2c0-0.1,0-0.2,0-0.2C50.8,17,50.8,16.9,50.8,16.8z M47.4,8.9
			c0.1-0.1,0.1-0.1,0.2-0.2c-0.1-0.1-0.1-0.1-0.2-0.2c-0.1-0.1-0.1-0.1-0.2-0.2c-0.1,0.1-0.1,0.1-0.2,0.2c0.1,0.1,0.1,0.1,0.2,0.2
			C47.3,8.8,47.3,8.8,47.4,8.9z M44.3,10.5c-0.1,0.1-0.1,0.1-0.2,0.1c-0.1,0-0.1,0.1-0.2,0.1c0.1,0.1,0.1,0.1,0.2,0.2
			c0.1,0.1,0.1,0.1,0.2,0.2c0.1-0.1,0.1-0.1,0.2-0.1c0.1,0,0.1-0.1,0.2-0.1c-0.1-0.1-0.1-0.1-0.2-0.2C44.5,10.7,44.4,10.6,44.3,10.5
			z M43.5,9.8c-0.1,0.1-0.1,0.1-0.2,0.1S43.2,10,43.1,10c0.1,0.1,0.2,0.1,0.2,0.2c0.1,0.1,0.1,0.1,0.2,0.2c0.1-0.1,0.1-0.1,0.2-0.1
			c0.1,0,0.1-0.1,0.2-0.1c-0.1-0.1-0.1-0.1-0.2-0.2C43.7,9.9,43.6,9.8,43.5,9.8z M42.6,9c-0.1,0.1-0.1,0.1-0.2,0.1
			c-0.1,0-0.1,0.1-0.2,0.1c0.1,0.1,0.2,0.1,0.2,0.2s0.1,0.1,0.2,0.2c0.1-0.1,0.1-0.1,0.2-0.1c0.1,0,0.1-0.1,0.2-0.1
			c-0.1-0.1-0.2-0.1-0.2-0.2C42.8,9.2,42.7,9.1,42.6,9z M50.2,20.7c0,0.1,0,0.1-0.1,0.2c0,0,0,0,0.1-0.1c0.1-0.2,0.1-0.3,0.2-0.5
			c0,0-0.1,0.1-0.1,0.1C50.2,20.6,50.2,20.7,50.2,20.7z M49.9,20.1c-0.1,0.1-0.2,0.1-0.2,0.2c-0.1,0.1-0.1,0.1-0.2,0.2
			s-0.1,0.1-0.2,0.2s-0.2,0.1-0.2,0.2c-0.1,0.1-0.2,0.2-0.3,0.3c0,0.1,0,0.3-0.1,0.4c0,0.1,0,0.2-0.1,0.4c0,0.1,0,0.2-0.1,0.3
			c0,0.1,0,0.2-0.1,0.3s0,0.2-0.1,0.3c0,0.1-0.1,0.2-0.1,0.3c0,0.1-0.1,0.2-0.1,0.3c0,0.1-0.1,0.2-0.1,0.4c0.1-0.1,0.2-0.2,0.3-0.2
			c0.1-0.1,0.2-0.1,0.3-0.2c0.1-0.1,0.2-0.1,0.2-0.2c0.1-0.1,0.1-0.1,0.2-0.2c0.2-0.3,0.4-0.6,0.5-0.9c0,0,0-0.1,0-0.1
			c0-0.1,0.1-0.2,0.1-0.3c0-0.1,0.1-0.2,0.1-0.3c0-0.1,0.1-0.2,0.1-0.3c0-0.1,0.1-0.2,0.1-0.3c0-0.1,0-0.2,0.1-0.3
			c0-0.1,0-0.2,0.1-0.3c0-0.1,0-0.3,0.1-0.4C50.1,19.9,50,20,49.9,20.1z M48.3,18c-0.1,0.1-0.2,0.1-0.3,0.2c0,0.1,0,0.1,0,0.2
			c0,0.1,0,0.1,0,0.2c0.1-0.1,0.2-0.1,0.3-0.2c0-0.1,0-0.1,0-0.2C48.4,18.1,48.4,18.1,48.3,18z M50.6,18.1c0,0.1,0,0.1,0,0.2
			c0.1-0.1,0.1-0.1,0.2-0.2c0-0.1,0-0.2,0-0.2c0-0.1,0-0.1,0-0.2c-0.1,0.1-0.1,0.1-0.2,0.2C50.6,18,50.6,18,50.6,18.1z M41.6,8.4
			l-0.4,0.3c0.1,0.1,0.2,0.1,0.3,0.2s0.2,0.1,0.3,0.2c0.1-0.1,0.1-0.1,0.2-0.1c0.1,0,0.1-0.1,0.2-0.1c-0.1-0.1-0.2-0.1-0.3-0.2
			C41.8,8.5,41.7,8.4,41.6,8.4z M48.4,21.6c0-0.1,0-0.1,0-0.2c-0.1,0.1-0.1,0.1-0.2,0.2c0,0.1,0,0.1,0,0.2c0,0.1,0,0.1,0,0.2
			c0.1-0.1,0.1-0.1,0.2-0.2C48.4,21.7,48.4,21.6,48.4,21.6z M48.3,22.4c0-0.1,0-0.1,0-0.2c-0.1,0.1-0.1,0.1-0.2,0.2
			c0,0.1,0,0.1,0,0.2s0,0.1,0,0.2c0.1-0.1,0.1-0.1,0.2-0.2C48.2,22.5,48.3,22.4,48.3,22.4z M48.1,23.2c0-0.1,0-0.1,0-0.2
			c-0.1,0.1-0.1,0.1-0.2,0.2c0,0.1,0,0.1,0,0.2c0,0.1,0,0.1,0,0.2c0.1-0.1,0.1-0.1,0.2-0.2C48.1,23.3,48.1,23.2,48.1,23.2z
			 M48.2,17.1c-0.1,0-0.1,0.1-0.1,0.1c0,0-0.1,0.1-0.1,0.1c0,0.1,0,0.1,0,0.2c0,0.1,0,0.1,0,0.2c0.1-0.1,0.2-0.1,0.3-0.2
			c0-0.1,0-0.2,0-0.2C48.2,17.3,48.2,17.2,48.2,17.1z M48.2,19.5c0.1-0.1,0.2-0.1,0.3-0.2c0-0.1,0-0.1,0-0.2c0-0.1,0-0.1,0-0.2
			c-0.1,0.1-0.2,0.1-0.3,0.2c0,0.1,0,0.1,0,0.2C48.2,19.3,48.2,19.4,48.2,19.5z M48.6,17.3c0.1-0.1,0.2-0.2,0.3-0.2
			c0.1-0.1,0.2-0.1,0.3-0.2c0.1-0.1,0.2-0.1,0.2-0.2c0.1-0.1,0.1-0.1,0.2-0.2c0.1-0.1,0.1-0.1,0.2-0.2c0.1-0.1,0.1-0.1,0.2-0.2
			c0.1-0.1,0.2-0.1,0.2-0.2c0-0.1,0-0.3-0.1-0.4c0-0.1,0-0.2-0.1-0.4c0-0.1,0-0.2-0.1-0.3c0-0.1,0-0.2-0.1-0.3
			c0-0.1-0.1-0.2-0.1-0.3c0-0.1-0.1-0.2-0.1-0.3c0-0.1-0.1-0.2-0.1-0.3c0-0.1-0.1-0.2-0.1-0.3s-0.1-0.2-0.1-0.4
			c-0.1,0.1-0.2,0.1-0.3,0.2s-0.2,0.1-0.2,0.2c-0.1,0.1-0.2,0.1-0.2,0.2c-0.1,0.1-0.2,0.1-0.2,0.2c-0.1,0.1-0.2,0.1-0.3,0.2
			C48.1,13.9,48.1,14,48,14c-0.1,0.1-0.2,0.2-0.3,0.3c0.1,0.1,0.1,0.3,0.2,0.4c0,0.1,0.1,0.2,0.1,0.3c0,0.1,0.1,0.2,0.1,0.3
			c0,0.1,0.1,0.2,0.1,0.3c0,0.1,0.1,0.2,0.1,0.3c0,0.1,0.1,0.2,0.1,0.3c0,0.1,0.1,0.2,0.1,0.3c0,0.1,0.1,0.2,0.1,0.3
			C48.5,17,48.6,17.2,48.6,17.3z M50.3,19.9c0,0.1,0,0.1,0,0.2c0.1-0.1,0.1-0.1,0.2-0.2c0-0.1,0-0.2,0-0.2c0-0.1,0-0.1,0-0.2
			c-0.1,0.1-0.1,0.1-0.2,0.2C50.4,19.7,50.4,19.8,50.3,19.9z M50.5,19c0,0.1,0,0.1,0,0.2c0.1-0.1,0.1-0.1,0.2-0.2c0-0.1,0-0.2,0-0.2
			c0-0.1,0-0.1,0-0.2c-0.1,0.1-0.1,0.1-0.2,0.2C50.5,18.9,50.5,18.9,50.5,19z M48.5,19.9c0-0.1,0-0.1,0-0.2
			c-0.1,0.1-0.2,0.1-0.3,0.2c0,0.1,0,0.1,0,0.2c0,0.1,0,0.1,0,0.2c0.1-0.1,0.2-0.1,0.3-0.2C48.5,20,48.5,20,48.5,19.9z M48.5,20.7
			c0-0.1,0-0.1,0-0.2c-0.1,0.1-0.1,0.1-0.3,0.2c0,0.1,0,0.1,0,0.2c0,0.1,0,0.1,0,0.2c0.1-0.1,0.1-0.1,0.2-0.2
			C48.5,20.9,48.5,20.8,48.5,20.7z"/>
		<path class="st0" d="M46.8,27.1c-0.1,0-0.2,0-0.2,0c0,0-0.1,0-0.1,0c0.1,0,0.2,0.1,0.3,0.1c0,0,0.1,0,0.1,0c0.1,0,0.1,0,0.2,0
			C47,27.1,46.9,27.1,46.8,27.1z M49.1,27.8c0.1,0,0.1,0,0.2,0C49.2,27.8,49.2,27.8,49.1,27.8C49.1,27.8,49.1,27.8,49.1,27.8z
			 M49.9,27.7c-0.1,0-0.1,0-0.2,0C49.7,27.8,49.8,27.8,49.9,27.7c0.1,0,0.1,0,0.2,0c0.1,0,0.1,0,0.2,0c-0.1,0-0.1,0-0.2,0
			C50,27.7,49.9,27.7,49.9,27.7z M51.9,26c0.1,0,0.1,0,0.2-0.1c-0.1,0-0.2-0.1-0.3-0.1c-0.1,0-0.1,0.1-0.2,0.1c-0.1,0-0.1,0-0.2,0.1
			c0.1,0,0.2,0.1,0.3,0.1C51.7,26,51.8,26,51.9,26z M50.5,27.4c-0.1,0-0.2-0.1-0.3-0.1s-0.2-0.1-0.3-0.1c-0.1,0-0.2-0.1-0.3-0.1
			c-0.1,0-0.2-0.1-0.4-0.1c-0.1,0-0.3,0.1-0.4,0.1c-0.1,0-0.2,0-0.4,0.1s-0.2,0-0.3,0c-0.1,0-0.2,0-0.3,0c-0.1,0-0.2,0-0.3,0
			c-0.1,0-0.2,0-0.3,0c0,0,0,0-0.1,0c0.6,0.2,1.2,0.3,1.8,0.4h0c0.1,0,0.2,0,0.3,0c0.1,0,0.2,0,0.3,0c0.1,0,0.2,0,0.3,0
			c0.1,0,0.2,0,0.3,0c0.1,0,0.2,0,0.3,0c0.1,0,0.2,0,0.4-0.1C50.7,27.5,50.6,27.5,50.5,27.4z M50.3,26.6c0.1,0,0.1,0,0.2-0.1
			c-0.1,0-0.2-0.1-0.3-0.1c-0.1,0-0.1,0-0.2,0.1c-0.1,0-0.1,0-0.2,0.1c0.1,0,0.2,0.1,0.3,0.1C50.2,26.6,50.2,26.6,50.3,26.6z
			 M51.1,26.3c0.1,0,0.1,0,0.2-0.1c-0.1,0-0.2-0.1-0.3-0.1c-0.1,0-0.1,0-0.2,0.1c-0.1,0-0.1,0-0.2,0.1c0.1,0,0.2,0.1,0.3,0.1
			C51,26.3,51,26.3,51.1,26.3z M55.7,23.4c0,0,0.1-0.1,0.1-0.1c-0.1,0-0.2,0-0.3-0.1c-0.1,0.1-0.1,0.1-0.1,0.1s-0.1,0.1-0.1,0.1
			c0.1,0,0.2,0.1,0.3,0.1C55.6,23.4,55.7,23.4,55.7,23.4z M54.1,26.6c-0.1,0-0.1,0.1-0.2,0.1c0.1,0,0.1,0,0.2,0
			c0.1,0,0.1-0.1,0.2-0.1c0.1,0,0.1-0.1,0.2-0.1c-0.1,0-0.1,0-0.2,0C54.3,26.6,54.2,26.6,54.1,26.6z M47.7,27.1c0.1,0,0.1,0,0.2,0
			c-0.1,0-0.2-0.1-0.3-0.1c-0.1,0-0.2,0-0.2,0c-0.1,0-0.1,0-0.2,0c0.1,0,0.2,0.1,0.3,0.1C47.6,27.1,47.7,27.1,47.7,27.1z M56.3,22.8
			c0,0,0.1-0.1,0.1-0.2c-0.1,0-0.2,0-0.3-0.1C56,22.6,56,22.7,56,22.7c0,0-0.1,0.1-0.1,0.1c0.1,0,0.2,0,0.3,0.1
			C56.2,22.9,56.2,22.8,56.3,22.8z M55.2,23.9c0,0,0.1-0.1,0.1-0.1c-0.1,0-0.2,0-0.3-0.1c-0.1,0.1-0.1,0.1-0.1,0.1
			c0,0-0.1,0.1-0.1,0.1c0.1,0,0.2,0.1,0.3,0.1C55.1,24,55.1,23.9,55.2,23.9z M48.6,27c0.1,0,0.1,0,0.2,0c-0.1,0-0.2-0.1-0.3-0.1
			c-0.1,0-0.2,0-0.2,0c-0.1,0-0.1,0-0.2,0c0.1,0,0.2,0.1,0.3,0.1C48.5,27,48.6,27,48.6,27z M49.5,26.8c0.1,0,0.1,0,0.2-0.1
			c-0.1,0-0.2-0.1-0.3-0.1c-0.1,0-0.1,0-0.2,0.1c-0.1,0-0.1,0-0.2,0c0.1,0,0.2,0.1,0.3,0.1C49.4,26.8,49.4,26.8,49.5,26.8z
			 M62.6,14.7c0,0.1,0,0.1,0,0.2c0.1,0.1,0.1,0.1,0.2,0.2c0-0.1,0-0.1,0-0.2c0-0.1,0-0.1,0-0.2c-0.1-0.1-0.1-0.1-0.2-0.2
			C62.6,14.6,62.6,14.6,62.6,14.7z M54.9,26.3c-0.1,0-0.1,0.1-0.2,0.1c0.1,0,0.1,0,0.2,0c0.1,0,0.1-0.1,0.2-0.1s0.1-0.1,0.2-0.1
			c-0.1,0-0.1,0-0.2,0C55,26.2,55,26.2,54.9,26.3z M62.3,16.3c0,0.1,0,0.1-0.1,0.2c0.1,0.1,0.1,0.1,0.2,0.1c0-0.1,0-0.1,0.1-0.2
			c0-0.1,0-0.1,0.1-0.2c-0.1-0.1-0.1-0.1-0.2-0.2C62.3,16.1,62.3,16.2,62.3,16.3z M60.1,19.6c-0.1,0-0.2,0-0.3-0.1
			c-0.1,0-0.2-0.1-0.3-0.1c-0.1,0-0.2-0.1-0.3-0.1c-0.1,0-0.2-0.1-0.4-0.1c-0.1,0.1-0.1,0.3-0.2,0.4c-0.1,0.1-0.1,0.2-0.2,0.3
			c-0.1,0.1-0.1,0.2-0.2,0.3s-0.1,0.2-0.2,0.3c-0.1,0.1-0.1,0.2-0.2,0.3c-0.1,0.1-0.1,0.2-0.2,0.3c-0.1,0.1-0.1,0.2-0.2,0.3
			c-0.1,0.1-0.1,0.2-0.2,0.3c0.1,0,0.2,0.1,0.4,0.1c0.1,0,0.2,0,0.3,0.1c0.1,0,0.2,0,0.3,0.1c0.1,0,0.2,0,0.3,0.1
			c0.1,0,0.2,0,0.3,0.1c0.1,0,0.2,0,0.3,0.1c0.1-0.1,0.2-0.2,0.2-0.3c0.1-0.1,0.1-0.2,0.2-0.3c0.1-0.1,0.1-0.2,0.2-0.3
			c0.1-0.1,0.1-0.2,0.2-0.3c0.1-0.1,0.1-0.2,0.2-0.3c0.1-0.1,0.1-0.2,0.2-0.3s0.1-0.2,0.2-0.3c0.1-0.1,0.1-0.2,0.2-0.4
			c-0.1,0-0.2-0.1-0.3-0.1S60.1,19.6,60.1,19.6z M60.7,15.6c0.1,0.1,0.2,0.1,0.3,0.2c0.1,0,0.2,0.1,0.3,0.2c0.1,0.1,0.2,0.1,0.3,0.2
			c0.1,0.1,0.2,0.1,0.3,0.2c0-0.1,0.1-0.3,0.1-0.4c0-0.1,0.1-0.2,0.1-0.4c0-0.1,0-0.2,0.1-0.3c0-0.1,0-0.2,0.1-0.3
			c0-0.1,0-0.2,0.1-0.3c0-0.1,0-0.2,0.1-0.3c0-0.1,0-0.2,0.1-0.4c0-0.1,0-0.3,0.1-0.4c-0.1-0.1-0.2-0.2-0.3-0.2
			C62.1,13.1,62,13,61.9,13c-0.1-0.1-0.2-0.1-0.2-0.2c-0.1-0.1-0.2-0.1-0.2-0.2c-0.1-0.1-0.2-0.1-0.2-0.2c-0.1-0.1-0.2-0.1-0.2-0.2
			c-0.1-0.1-0.2-0.1-0.3-0.2c-0.1-0.1-0.2-0.2-0.3-0.2c0,0.1,0,0.3,0,0.4c0,0.1,0,0.3,0,0.4c0,0.1,0,0.2,0,0.4c0,0.1,0,0.2,0,0.3
			c0,0.1,0,0.2,0,0.3s0,0.2,0,0.3c0,0.1,0,0.2,0,0.3c0,0.1,0,0.2-0.1,0.3c0,0.1,0,0.2-0.1,0.4c0,0.1,0,0.3-0.1,0.4
			c0.1,0.1,0.3,0.1,0.4,0.2C60.5,15.5,60.6,15.6,60.7,15.6z M56.8,22.2c0,0,0.1-0.1,0.1-0.2c-0.1,0-0.2,0-0.3-0.1
			c0,0.1-0.1,0.1-0.1,0.2s-0.1,0.1-0.1,0.2c0.1,0,0.2,0,0.3,0.1C56.7,22.3,56.7,22.2,56.8,22.2z M59.2,22.7c0,0-0.1,0.1-0.1,0.2
			c0.1,0,0.1,0,0.2,0c0-0.1,0.1-0.1,0.1-0.2c0,0,0.1-0.1,0.1-0.2c-0.1,0-0.1,0-0.2,0C59.2,22.6,59.2,22.6,59.2,22.7z M62.4,15.5
			c0,0.1,0,0.1,0,0.2c0.1,0.1,0.1,0.1,0.2,0.2c0-0.1,0-0.1,0-0.2c0-0.1,0-0.1,0-0.2c-0.1-0.1-0.1-0.1-0.2-0.2
			C62.5,15.4,62.5,15.4,62.4,15.5z M62,17c0,0.1,0,0.1-0.1,0.2c0.1,0,0.1,0.1,0.2,0.1c0-0.1,0-0.1,0.1-0.2c0-0.1,0-0.1,0.1-0.2
			c-0.1-0.1-0.1-0.1-0.2-0.1C62.1,16.9,62.1,17,62,17z M56.3,25.4c0,0-0.1,0.1-0.2,0.1c0.1,0,0.1,0,0.2,0c0.1,0,0.1-0.1,0.2-0.1
			c0,0,0.1-0.1,0.2-0.1c-0.1,0-0.1,0-0.2,0C56.4,25.3,56.3,25.4,56.3,25.4z M56,25.4c0.1-0.1,0.2-0.1,0.3-0.2
			c0.1-0.1,0.2-0.1,0.3-0.2c0.1-0.1,0.2-0.2,0.3-0.2c-0.1,0-0.2,0-0.4-0.1c-0.1,0-0.2,0-0.3-0.1c-0.1,0-0.2,0-0.3-0.1
			s-0.2,0-0.3-0.1c-0.1,0-0.3-0.1-0.4-0.1c-0.1,0.1-0.2,0.2-0.3,0.2c-0.1,0.1-0.2,0.1-0.3,0.2c-0.1,0.1-0.2,0.1-0.3,0.2
			c-0.1,0.1-0.2,0.1-0.3,0.2s-0.2,0.1-0.3,0.2c-0.1,0.1-0.2,0.1-0.3,0.2s-0.2,0.1-0.3,0.2c-0.1,0.1-0.2,0.1-0.4,0.2
			c0.2,0,0.3,0.1,0.4,0.1c0.1,0,0.2,0.1,0.3,0.1c0.1,0,0.2,0.1,0.3,0.1c0.1,0,0.2,0,0.3,0.1c0.1,0,0.2,0,0.4,0.1
			c0.1-0.1,0.2-0.1,0.4-0.2c0.1-0.1,0.2-0.1,0.3-0.2c0.1-0.1,0.2-0.1,0.3-0.2s0.2-0.1,0.3-0.2C55.8,25.5,55.9,25.5,56,25.4z
			 M55.6,25.8c-0.1,0-0.1,0.1-0.2,0.1c0.1,0,0.1,0,0.2,0c0.1,0,0.1-0.1,0.2-0.1c0.1,0,0.1-0.1,0.2-0.1c-0.1,0-0.1,0-0.2,0
			C55.7,25.8,55.7,25.8,55.6,25.8z M58.4,22.3c-0.1,0-0.2,0-0.3-0.1c-0.1,0-0.2,0-0.3-0.1c-0.1,0-0.2,0-0.3-0.1s-0.2,0-0.4-0.1
			c-0.1,0.1-0.2,0.2-0.2,0.3c-0.1,0.1-0.2,0.2-0.2,0.3c-0.1,0.1-0.1,0.2-0.2,0.2s-0.1,0.2-0.2,0.2c-0.1,0.1-0.1,0.2-0.2,0.2
			s-0.1,0.2-0.2,0.2c-0.1,0.1-0.2,0.2-0.3,0.2c-0.1,0.1-0.2,0.2-0.3,0.3c0.2,0,0.3,0.1,0.4,0.1c0.1,0,0.2,0.1,0.3,0.1
			c0.1,0,0.2,0,0.3,0.1c0.1,0,0.2,0,0.3,0.1c0.1,0,0.2,0,0.4,0.1c0.1-0.1,0.2-0.2,0.3-0.3c0.1-0.1,0.2-0.2,0.3-0.2
			c0.1-0.1,0.2-0.2,0.2-0.2c0.1-0.1,0.1-0.2,0.2-0.2c0.1-0.1,0.1-0.2,0.2-0.2c0.1-0.1,0.1-0.2,0.2-0.2c0.1-0.1,0.1-0.2,0.2-0.3
			c0.1-0.1,0.2-0.2,0.2-0.3c-0.1,0-0.2,0-0.3-0.1C58.6,22.4,58.5,22.4,58.4,22.3z M58.6,23.3c0,0-0.1,0.1-0.1,0.1c0.1,0,0.1,0,0.2,0
			c0.1-0.1,0.1-0.1,0.1-0.1c0,0,0.1-0.1,0.1-0.2c-0.1,0-0.1,0-0.2,0C58.7,23.2,58.7,23.2,58.6,23.3z M58.1,23.9c0,0-0.1,0.1-0.1,0.1
			c0.1,0,0.1,0,0.2,0c0.1-0.1,0.1-0.1,0.1-0.1c0,0,0.1-0.1,0.1-0.1c-0.1,0-0.1,0-0.2,0C58.2,23.8,58.2,23.8,58.1,23.9z M57.5,24.4
			c0,0-0.1,0.1-0.1,0.1c0.1,0,0.1,0,0.2,0c0.1-0.1,0.1-0.1,0.1-0.1s0.1-0.1,0.1-0.1c-0.1,0-0.1,0-0.2,0
			C57.6,24.3,57.6,24.4,57.5,24.4z M56.9,24.9c0,0-0.1,0.1-0.2,0.1c0.1,0,0.1,0,0.2,0c0.1,0,0.1-0.1,0.2-0.1c0,0,0.1-0.1,0.2-0.1
			c-0.1,0-0.1,0-0.2,0C57,24.8,57,24.9,56.9,24.9z M57.6,20.8c0-0.1,0.1-0.1,0.1-0.2c-0.1,0-0.2,0-0.3-0.1c0,0.1-0.1,0.1-0.1,0.2
			c0,0.1-0.1,0.1-0.1,0.2c0.1,0,0.2,0,0.3,0.1C57.6,20.9,57.6,20.9,57.6,20.8z M58,20.1c0-0.1,0.1-0.1,0.1-0.2
			c-0.1,0-0.2-0.1-0.3-0.1c0,0.1-0.1,0.1-0.1,0.2c0,0.1-0.1,0.1-0.1,0.2c0.1,0,0.2,0.1,0.3,0.1C58,20.2,58,20.1,58,20.1z M57.2,21.5
			c0,0,0.1-0.1,0.1-0.2c-0.1,0-0.2,0-0.3-0.1c0,0.1-0.1,0.1-0.1,0.2s-0.1,0.1-0.1,0.2c0.1,0,0.2,0,0.3,0.1
			C57.1,21.6,57.2,21.6,57.2,21.5z M60,12.8c0-0.1,0-0.2,0-0.3c-0.1,0-0.1-0.1-0.1-0.1s-0.1,0.2-0.3,0.4c0.1,0.1,0.2,0.1,0.3,0.2
			C59.9,13,60,12.9,60,12.8z M58.4,19.3c0-0.1,0.1-0.1,0.1-0.2c-0.1,0-0.2-0.1-0.3-0.1c0,0.1-0.1,0.1-0.1,0.2c0,0.1-0.1,0.1-0.1,0.2
			c0.1,0,0.2,0.1,0.3,0.1C58.4,19.4,58.4,19.4,58.4,19.3z M61,19c0-0.1,0.1-0.2,0.1-0.3c0-0.1,0.1-0.2,0.1-0.3
			c0-0.1,0.1-0.2,0.1-0.3c0-0.1,0.1-0.2,0.1-0.3c0-0.1,0.1-0.2,0.1-0.3c0-0.1,0.1-0.2,0.1-0.3c0-0.1,0.1-0.3,0.1-0.4
			c-0.1-0.1-0.2-0.1-0.3-0.2c-0.1-0.1-0.2-0.1-0.3-0.1c-0.1,0-0.2-0.1-0.3-0.1c-0.1,0-0.2-0.1-0.3-0.1c-0.1,0-0.2-0.1-0.3-0.2
			c-0.1-0.1-0.2-0.1-0.4-0.2c0,0.1-0.1,0.3-0.1,0.4c0,0.1-0.1,0.3-0.1,0.4c0,0.1-0.1,0.2-0.1,0.3c0,0.1-0.1,0.2-0.1,0.3
			c0,0.1-0.1,0.2-0.1,0.3c0,0.1-0.1,0.2-0.1,0.3c0,0.1-0.1,0.2-0.1,0.3c0,0.1-0.1,0.2-0.1,0.3c0,0.1-0.1,0.2-0.1,0.4
			c0.1,0,0.3,0.1,0.4,0.1c0.1,0,0.2,0.1,0.3,0.1c0.1,0,0.2,0.1,0.3,0.1c0.1,0,0.2,0.1,0.3,0.1c0.1,0,0.2,0.1,0.3,0.1
			c0.1,0,0.2,0.1,0.3,0.1C60.9,19.2,60.9,19.1,61,19z M50.8,27.6c-0.1,0-0.1,0-0.2,0C50.7,27.7,50.7,27.7,50.8,27.6
			c0.1,0.1,0.1,0.1,0.2,0c0.1,0,0.1,0,0.2,0c-0.1,0-0.1,0-0.2,0C50.9,27.6,50.9,27.6,50.8,27.6z M61.5,18.5c0,0.1,0,0.1-0.1,0.2
			c0.1,0,0.1,0.1,0.2,0.1c0-0.1,0.1-0.1,0.1-0.2c0-0.1,0-0.1,0.1-0.2c-0.1,0-0.1-0.1-0.2-0.1C61.6,18.4,61.5,18.5,61.5,18.5z
			 M61.8,17.8c0,0.1,0,0.1-0.1,0.2c0.1,0,0.1,0.1,0.2,0.1c0-0.1,0-0.1,0.1-0.2c0-0.1,0-0.1,0.1-0.2c-0.1,0-0.1-0.1-0.2-0.1
			C61.8,17.7,61.8,17.7,61.8,17.8z M62.8,13.7c0,0.1,0,0.1,0,0.2c0,0.1,0,0.1,0,0.2c0.1,0.1,0.2,0.1,0.2,0.2c0-0.1,0-0.1,0-0.2
			c0-0.1,0-0.1,0-0.2C62.9,13.9,62.9,13.8,62.8,13.7z M51.7,27.4c-0.1,0-0.1,0-0.2,0C51.6,27.5,51.6,27.5,51.7,27.4
			c0.1,0.1,0.1,0.1,0.2,0c0.1,0,0.1,0,0.2-0.1c-0.1,0-0.1,0-0.2,0C51.8,27.4,51.8,27.4,51.7,27.4z M53.7,26.6c0.1,0,0.2-0.1,0.3-0.2
			c-0.1,0-0.2-0.1-0.3-0.1c-0.1,0-0.2,0-0.3-0.1c-0.1,0-0.2-0.1-0.3-0.1c-0.1,0-0.2-0.1-0.3-0.1c-0.1,0-0.3-0.1-0.4-0.1
			c-0.1,0.1-0.2,0.1-0.3,0.1c-0.1,0-0.2,0.1-0.3,0.1c-0.1,0-0.2,0.1-0.3,0.1c-0.1,0-0.2,0.1-0.3,0.1c-0.1,0-0.2,0.1-0.3,0.1
			c-0.1,0-0.2,0.1-0.3,0.1c-0.1,0-0.2,0.1-0.3,0.1s-0.2,0.1-0.3,0.1c-0.1,0-0.2,0.1-0.4,0.1c0.1,0.1,0.3,0.1,0.4,0.1
			c0.1,0,0.2,0.1,0.3,0.1c0.1,0,0.2,0.1,0.3,0.1c0.1,0,0.2,0.1,0.3,0.1c0.1,0,0.2,0.1,0.3,0.1c0.1,0,0.3-0.1,0.4-0.1
			c0.1,0,0.2-0.1,0.3-0.1c0.1,0,0.2-0.1,0.3-0.1c0.1,0,0.2-0.1,0.3-0.1c0.1,0,0.2-0.1,0.3-0.1c0.1,0,0.2-0.1,0.3-0.1
			s0.2-0.1,0.3-0.1C53.5,26.7,53.6,26.7,53.7,26.6z M52.5,27.2c-0.1,0-0.1,0-0.2,0.1c0.1,0,0.1,0,0.2,0c0.1,0,0.1,0,0.2-0.1
			c0.1,0,0.1,0,0.2-0.1c-0.1,0-0.1,0-0.2,0C52.7,27.2,52.6,27.2,52.5,27.2z M53.4,26.9c-0.1,0-0.1,0-0.2,0.1c0.1,0,0.1,0,0.2,0
			c0.1,0,0.1-0.1,0.2-0.1c0.1,0,0.1,0,0.2-0.1c-0.1,0-0.1,0-0.2,0C53.5,26.9,53.4,26.9,53.4,26.9z M59,17.7c0-0.1,0-0.1,0.1-0.2
			c-0.1,0-0.2-0.1-0.3-0.1c0,0.1,0,0.2-0.1,0.2c0,0.1,0,0.1-0.1,0.2c0.1,0,0.2,0.1,0.3,0.1C59,17.8,59,17.7,59,17.7z M59.3,16.8
			c0-0.1,0-0.1,0.1-0.2c-0.1,0-0.2-0.1-0.3-0.1c0,0.1,0,0.2-0.1,0.2c0,0.1,0,0.1-0.1,0.2c0.1,0,0.2,0.1,0.3,0.1
			C59.2,16.9,59.3,16.8,59.3,16.8z M59.7,14.9c0-0.1,0-0.1,0-0.2c-0.1-0.1-0.2-0.1-0.3-0.2c0,0.1,0,0.2,0,0.3c0,0.1,0,0.2,0,0.3
			c0.1,0.1,0.2,0.1,0.3,0.2C59.7,15,59.7,14.9,59.7,14.9z M59.8,13.9c0-0.1,0-0.2,0-0.3c-0.1-0.1-0.2-0.1-0.3-0.2c0,0.1,0,0.2,0,0.3
			c0,0.1,0,0.2,0,0.3c0.1,0.1,0.2,0.1,0.3,0.2C59.8,14,59.8,13.9,59.8,13.9z M61.2,19.3c0,0.1-0.1,0.1-0.1,0.2c0.1,0,0.1,0,0.2,0.1
			c0-0.1,0.1-0.1,0.1-0.2c0-0.1,0-0.1,0.1-0.2c-0.1,0-0.1,0-0.2-0.1C61.2,19.2,61.2,19.2,61.2,19.3z M52.6,25.7
			c0.1,0,0.1-0.1,0.2-0.1c-0.1,0-0.2-0.1-0.3-0.1c-0.1,0-0.1,0.1-0.2,0.1c-0.1,0-0.1,0.1-0.2,0.1c0.1,0,0.2,0.1,0.3,0.1
			C52.5,25.7,52.5,25.7,52.6,25.7z M53.9,24.9c0,0,0.1-0.1,0.2-0.1c-0.1,0-0.2-0.1-0.3-0.1c-0.1,0-0.1,0.1-0.2,0.1
			c0,0-0.1,0.1-0.2,0.1c0.1,0,0.2,0.1,0.3,0.1C53.8,24.9,53.9,24.9,53.9,24.9z M53.3,25.3c0,0,0.1-0.1,0.2-0.1
			c-0.1,0-0.2-0.1-0.3-0.1c-0.1,0-0.1,0.1-0.2,0.1c0,0-0.1,0.1-0.2,0.1c0.1,0,0.2,0.1,0.3,0.1C53.2,25.3,53.2,25.3,53.3,25.3z
			 M59.5,15.8c0-0.1,0-0.1,0.1-0.2c-0.1-0.1-0.2-0.1-0.3-0.1c0,0.1,0,0.2,0,0.2c0,0.1,0,0.1-0.1,0.2c0.1,0.1,0.2,0.1,0.3,0.1
			C59.5,16,59.5,15.9,59.5,15.8z M60.5,20.7c0,0.1-0.1,0.1-0.1,0.2c0.1,0,0.1,0,0.2,0.1c0-0.1,0.1-0.1,0.1-0.2
			c0-0.1,0.1-0.1,0.1-0.2c-0.1,0-0.1,0-0.2-0.1C60.5,20.6,60.5,20.6,60.5,20.7z M60.9,20c0,0.1-0.1,0.1-0.1,0.2c0.1,0,0.1,0,0.2,0.1
			c0-0.1,0.1-0.1,0.1-0.2c0-0.1,0.1-0.1,0.1-0.2c-0.1,0-0.1,0-0.2-0.1C60.9,19.9,60.9,19.9,60.9,20z M60.1,21.4c0,0-0.1,0.1-0.1,0.2
			c0.1,0,0.1,0,0.2,0c0-0.1,0.1-0.1,0.1-0.2c0,0,0.1-0.1,0.1-0.2c-0.1,0-0.1,0-0.2-0.1C60.1,21.3,60.1,21.3,60.1,21.4z M59.6,22
			c0,0-0.1,0.1-0.1,0.2c0.1,0,0.1,0,0.2,0c0-0.1,0.1-0.1,0.1-0.2c0,0,0.1-0.1,0.1-0.2c-0.1,0-0.1,0-0.2,0C59.7,21.9,59.7,22,59.6,22
			z M54.6,24.4c0,0,0.1-0.1,0.2-0.1c-0.1,0-0.2-0.1-0.3-0.1c-0.1,0-0.1,0.1-0.2,0.1c0,0-0.1,0.1-0.2,0.1c0.1,0,0.2,0.1,0.3,0.1
			C54.5,24.5,54.5,24.4,54.6,24.4z M58.7,18.5c0-0.1,0-0.1,0.1-0.2c-0.1,0-0.2-0.1-0.3-0.1c0,0.1-0.1,0.1-0.1,0.2
			c0,0.1,0,0.1-0.1,0.2c0.1,0,0.2,0.1,0.3,0.1C58.7,18.6,58.7,18.6,58.7,18.5z"/>
		<path class="st0" d="M30.5,12c0.1,0,0.1-0.1,0.1-0.1c0,0,0.1-0.1,0.1-0.1c0-0.1,0-0.2,0-0.3c0-0.1,0-0.2,0-0.3
			c-0.1,0.1-0.1,0.1-0.1,0.1s-0.1,0.1-0.2,0.1c0,0.1,0,0.2,0,0.3C30.5,11.8,30.5,11.9,30.5,12z M30.9,14.9c0,0.1,0,0.1,0,0.2
			c0.1-0.1,0.2-0.1,0.3-0.2c0-0.1,0-0.2,0-0.3c0-0.1,0-0.2,0-0.3c-0.1,0.1-0.2,0.1-0.3,0.2C30.8,14.7,30.9,14.8,30.9,14.9z
			 M31.5,17.7c0,0.1,0,0.1,0.1,0.2c0.1,0,0.2-0.1,0.3-0.1c0-0.1,0-0.2-0.1-0.2c0-0.1,0-0.1-0.1-0.2c-0.1,0-0.2,0.1-0.3,0.1
			C31.5,17.5,31.5,17.6,31.5,17.7z M31.1,15.8c0,0.1,0,0.1,0.1,0.2c0.1-0.1,0.2-0.1,0.3-0.1c0-0.1,0-0.2-0.1-0.2c0-0.1,0-0.1,0-0.2
			c-0.1,0.1-0.2,0.1-0.3,0.1C31,15.7,31,15.8,31.1,15.8z M31.8,18.5c0,0.1,0,0.1,0.1,0.2c0.1,0,0.2-0.1,0.3-0.1
			c0-0.1-0.1-0.1-0.1-0.2c0-0.1,0-0.1-0.1-0.2c-0.1,0-0.2,0.1-0.3,0.1C31.8,18.4,31.8,18.4,31.8,18.5z M32.2,19.3
			c0,0.1,0.1,0.1,0.1,0.2c0.1,0,0.2-0.1,0.3-0.1c0-0.1-0.1-0.1-0.1-0.2c0-0.1-0.1-0.1-0.1-0.2c-0.1,0-0.2,0.1-0.3,0.1
			C32.1,19.2,32.1,19.3,32.2,19.3z M32.5,20.1c0,0.1,0.1,0.1,0.1,0.2c0.1,0,0.2,0,0.3-0.1c0-0.1-0.1-0.1-0.1-0.2
			c0-0.1-0.1-0.1-0.1-0.2c-0.1,0-0.2,0.1-0.3,0.1C32.5,20,32.5,20,32.5,20.1z M31.3,16.8c0,0.1,0,0.1,0.1,0.2c0.1,0,0.2-0.1,0.3-0.1
			c0-0.1,0-0.2-0.1-0.2c0-0.1,0-0.1-0.1-0.2c-0.1,0.1-0.2,0.1-0.3,0.1C31.2,16.6,31.3,16.7,31.3,16.8z M30.7,13.9c0,0.1,0,0.2,0,0.3
			c0.1-0.1,0.2-0.1,0.3-0.2c0-0.1,0-0.2,0-0.3c0-0.1,0-0.2,0-0.3c-0.1,0.1-0.2,0.1-0.3,0.2C30.7,13.7,30.7,13.8,30.7,13.9z
			 M40.5,27.7c-0.1,0-0.1,0-0.2,0C40.3,27.8,40.4,27.8,40.5,27.7c0.1,0.1,0.2,0.1,0.3,0.1c0.1,0,0.1,0,0.2,0c-0.1,0-0.2,0-0.2,0
			S40.5,27.7,40.5,27.7z M41.3,26.8c0.1,0,0.2-0.1,0.3-0.1c-0.1,0-0.1,0-0.2,0c-0.1,0-0.1,0-0.2-0.1c-0.1,0-0.2,0.1-0.3,0.1
			c0.1,0,0.1,0,0.2,0.1S41.2,26.8,41.3,26.8z M43.1,27.3c-0.1,0-0.2,0-0.3,0c-0.1,0-0.2,0-0.3,0c-0.1,0-0.2,0-0.3,0s-0.2,0-0.4-0.1
			c-0.1,0-0.3,0-0.4-0.1c-0.1,0.1-0.3,0.1-0.4,0.1c-0.1,0-0.2,0.1-0.3,0.1c-0.1,0-0.2,0.1-0.3,0.1s-0.2,0.1-0.3,0.1
			c-0.1,0-0.2,0.1-0.3,0.1c0.1,0,0.2,0,0.4,0.1c0.1,0,0.2,0,0.3,0c0.1,0,0.2,0,0.3,0c0.1,0,0.2,0,0.3,0c0.1,0,0.2,0,0.3,0
			c0.1,0,0.2,0,0.3,0l0,0c0.6-0.1,1.2-0.2,1.8-0.4c0,0,0,0-0.1,0C43.3,27.3,43.2,27.3,43.1,27.3z M33.8,22.2c0,0,0.1,0.1,0.1,0.2
			c0.1,0,0.2,0,0.3-0.1c0-0.1-0.1-0.1-0.1-0.2c0,0-0.1-0.1-0.1-0.2c-0.1,0-0.2,0-0.3,0.1C33.7,22.1,33.8,22.1,33.8,22.2z M32.9,20.8
			c0,0.1,0.1,0.1,0.1,0.2c0.1,0,0.2,0,0.3-0.1c0-0.1-0.1-0.1-0.1-0.2c0-0.1-0.1-0.1-0.1-0.2c-0.1,0-0.2,0-0.3,0.1
			C32.9,20.7,32.9,20.8,32.9,20.8z M33.4,21.5c0,0.1,0.1,0.1,0.1,0.2c0.1,0,0.2,0,0.3-0.1c0-0.1-0.1-0.1-0.1-0.2
			c0-0.1-0.1-0.1-0.1-0.2c-0.1,0-0.2,0-0.3,0.1C33.3,21.4,33.3,21.5,33.4,21.5z M34.1,25.3c-0.1,0-0.1,0-0.2,0
			c0.1,0,0.1,0.1,0.2,0.1c0,0,0.1,0.1,0.2,0.1c0.1,0,0.1,0,0.2,0c-0.1,0-0.1-0.1-0.2-0.1S34.2,25.3,34.1,25.3z M35.8,26.1
			c0.1,0.1,0.2,0.1,0.4,0.2c0.1,0,0.2-0.1,0.4-0.1c0.1,0,0.2,0,0.3-0.1c0.1,0,0.2-0.1,0.3-0.1s0.2-0.1,0.3-0.1
			c0.1,0,0.3-0.1,0.4-0.1c-0.1-0.1-0.2-0.1-0.4-0.2c-0.1-0.1-0.2-0.1-0.3-0.2c-0.1-0.1-0.2-0.1-0.3-0.2c-0.1-0.1-0.2-0.1-0.3-0.2
			c-0.1-0.1-0.2-0.1-0.3-0.2c-0.1-0.1-0.2-0.1-0.3-0.2c-0.1-0.1-0.2-0.1-0.3-0.2c-0.1-0.1-0.2-0.2-0.3-0.2c-0.2,0-0.3,0.1-0.4,0.1
			c-0.1,0-0.2,0.1-0.3,0.1c-0.1,0-0.2,0-0.3,0.1c-0.1,0-0.2,0-0.3,0.1c-0.1,0-0.2,0-0.4,0.1c0.1,0.1,0.2,0.2,0.3,0.2
			c0.1,0.1,0.2,0.1,0.3,0.2c0.1,0.1,0.2,0.1,0.3,0.2c0.1,0.1,0.2,0.1,0.3,0.2c0.1,0.1,0.2,0.1,0.3,0.2c0.1,0.1,0.2,0.1,0.3,0.2
			C35.5,26,35.6,26,35.8,26.1z M42.2,27c0.1,0,0.2-0.1,0.3-0.1c-0.1,0-0.2,0-0.2,0c-0.1,0-0.1,0-0.2,0c-0.1,0-0.2,0.1-0.3,0.1
			c0.1,0,0.2,0,0.2,0C42,27,42.1,27,42.2,27z M37,26.9c-0.1,0-0.1,0-0.2,0c0.1,0,0.1,0.1,0.2,0.1c0.1,0,0.1,0,0.2,0.1
			c0.1,0,0.1,0,0.2,0c-0.1,0-0.1-0.1-0.2-0.1C37.1,26.9,37.1,26.9,37,26.9z M34.8,25.7c-0.1,0-0.1,0-0.2,0c0.1,0,0.1,0.1,0.2,0.1
			c0.1,0,0.1,0.1,0.2,0.1c0.1,0,0.1,0,0.2,0c-0.1,0-0.1-0.1-0.2-0.1C34.9,25.8,34.9,25.8,34.8,25.7z M39,27.3c0.1,0,0.2,0.1,0.4,0.1
			c0.1,0,0.2-0.1,0.3-0.1c0.1,0,0.2-0.1,0.3-0.1c0.1,0,0.2-0.1,0.3-0.1s0.2-0.1,0.3-0.1c0.1,0,0.2-0.1,0.4-0.1
			c-0.1,0-0.3-0.1-0.4-0.1c-0.1,0-0.2-0.1-0.3-0.1c-0.1,0-0.2-0.1-0.3-0.1c-0.1,0-0.2-0.1-0.3-0.1c-0.1,0-0.2-0.1-0.3-0.1
			c-0.1,0-0.2-0.1-0.3-0.1c-0.1,0-0.2-0.1-0.3-0.1c-0.1,0-0.2-0.1-0.3-0.1c-0.1,0-0.2-0.1-0.3-0.1c-0.2,0-0.3,0.1-0.4,0.1
			c-0.1,0-0.2,0.1-0.3,0.1s-0.2,0.1-0.3,0.1c-0.1,0-0.2,0.1-0.3,0.1c-0.1,0-0.2,0.1-0.3,0.1c0.1,0.1,0.2,0.1,0.3,0.2
			c0.1,0,0.2,0.1,0.3,0.1c0.1,0,0.2,0.1,0.3,0.1c0.1,0,0.2,0.1,0.3,0.1c0.1,0,0.2,0.1,0.3,0.1c0.1,0,0.2,0.1,0.3,0.1
			c0.1,0,0.2,0.1,0.3,0.1C38.7,27.3,38.8,27.3,39,27.3z M37.8,27.1c-0.1,0-0.1,0-0.2,0c0.1,0,0.1,0,0.2,0.1c0.1,0,0.1,0,0.2,0.1
			c0.1,0,0.1,0,0.2,0c-0.1,0-0.1,0-0.2-0.1C38,27.2,37.9,27.2,37.8,27.1z M38.7,27.4c-0.1,0-0.1,0-0.2,0
			C38.5,27.4,38.6,27.5,38.7,27.4c0.1,0.1,0.1,0.1,0.2,0.1c0.1,0,0.1,0,0.2,0c-0.1,0-0.2,0-0.2,0C38.8,27.4,38.7,27.4,38.7,27.4z
			 M29.4,19.3c0-0.1,0-0.1-0.1-0.2c-0.1,0-0.1,0-0.2,0.1c0,0.1,0.1,0.1,0.1,0.2c0,0.1,0,0.1,0.1,0.2c0.1,0,0.1,0,0.2-0.1
			C29.4,19.4,29.4,19.3,29.4,19.3z M29.7,20c0-0.1-0.1-0.1-0.1-0.2c-0.1,0-0.1,0-0.2,0.1c0,0.1,0.1,0.1,0.1,0.2
			c0,0.1,0.1,0.1,0.1,0.2c0.1,0,0.1,0,0.2-0.1C29.8,20.1,29.7,20,29.7,20z M30.6,19.1c0.1,0,0.2-0.1,0.3-0.1c0.1,0,0.2-0.1,0.3-0.1
			c0.1,0,0.2-0.1,0.4-0.1c0-0.1-0.1-0.2-0.1-0.4c0-0.1-0.1-0.2-0.1-0.3c0-0.1-0.1-0.2-0.1-0.3c0-0.1-0.1-0.2-0.1-0.3
			c0-0.1-0.1-0.2-0.1-0.3c0-0.1-0.1-0.2-0.1-0.3c0-0.1-0.1-0.2-0.1-0.3c0-0.1-0.1-0.2-0.1-0.4c0-0.1-0.1-0.3-0.1-0.4
			c-0.1,0.1-0.3,0.1-0.4,0.2C30.2,16,30.1,16,30,16.1c-0.1,0-0.2,0.1-0.3,0.1c-0.1,0-0.2,0.1-0.3,0.1c-0.1,0-0.2,0.1-0.3,0.1
			c-0.1,0.1-0.2,0.1-0.3,0.2c0,0.1,0.1,0.3,0.1,0.4c0,0.1,0.1,0.2,0.1,0.3s0.1,0.2,0.1,0.3c0,0.1,0.1,0.2,0.1,0.3
			c0,0.1,0.1,0.2,0.1,0.3c0,0.1,0.1,0.2,0.1,0.3c0,0.1,0.1,0.2,0.1,0.3c0,0.1,0.1,0.2,0.2,0.4c0.1,0,0.2-0.1,0.3-0.1
			c0.1,0,0.2-0.1,0.3-0.1C30.4,19.2,30.5,19.1,30.6,19.1z M29.1,18.5c0-0.1,0-0.1-0.1-0.2c-0.1,0-0.1,0.1-0.2,0.1
			c0,0.1,0,0.1,0.1,0.2c0,0.1,0,0.1,0.1,0.2c0.1,0,0.1-0.1,0.2-0.1C29.1,18.6,29.1,18.6,29.1,18.5z M30.6,12.6c0,0.1,0,0.2,0,0.3
			c0,0.1,0,0.2,0,0.3c0.1-0.1,0.2-0.1,0.3-0.2c0-0.1,0-0.2,0-0.3c0-0.1,0-0.2,0-0.3c-0.1,0-0.1,0.1-0.1,0.1
			C30.7,12.5,30.6,12.5,30.6,12.6z M30.8,21.9c-0.1,0-0.1,0-0.2,0c0,0.1,0.1,0.1,0.1,0.2s0.1,0.1,0.1,0.2c0.1,0,0.1,0,0.2,0
			c0-0.1-0.1-0.1-0.1-0.2C30.9,22,30.9,21.9,30.8,21.9z M30.2,20.4c0.1,0.1,0.1,0.2,0.2,0.3c0.1,0.1,0.1,0.2,0.2,0.3
			c0.1,0.1,0.1,0.2,0.2,0.3s0.1,0.2,0.2,0.3c0.1,0.1,0.1,0.2,0.2,0.3c0.1,0.1,0.1,0.2,0.2,0.3c0.1,0,0.2,0,0.3-0.1
			c0.1,0,0.2,0,0.3-0.1c0.1,0,0.2,0,0.3-0.1c0.1,0,0.2,0,0.3-0.1c0.1,0,0.2,0,0.3-0.1c0.1,0,0.2-0.1,0.4-0.1
			c-0.1-0.1-0.2-0.2-0.2-0.3s-0.1-0.2-0.2-0.3c-0.1-0.1-0.1-0.2-0.2-0.3c-0.1-0.1-0.1-0.2-0.2-0.3c-0.1-0.1-0.1-0.2-0.2-0.3
			c-0.1-0.1-0.1-0.2-0.2-0.3s-0.1-0.2-0.2-0.3c-0.1-0.1-0.1-0.3-0.2-0.4c-0.1,0-0.2,0.1-0.4,0.1c-0.1,0-0.2,0.1-0.3,0.1
			c-0.1,0-0.2,0.1-0.3,0.1c-0.1,0-0.2,0-0.3,0.1s-0.2,0.1-0.3,0.1c-0.1,0-0.2,0.1-0.3,0.1c0.1,0.1,0.1,0.2,0.2,0.4
			C30.1,20.2,30.2,20.3,30.2,20.4z M35.5,26.2c-0.1,0-0.1,0-0.2,0c0.1,0,0.1,0.1,0.2,0.1c0.1,0,0.1,0.1,0.2,0.1c0.1,0,0.1,0,0.2,0
			c-0.1,0-0.1-0.1-0.2-0.1C35.6,26.2,35.6,26.2,35.5,26.2z M28.8,17.8c0-0.1,0-0.1-0.1-0.2c-0.1,0-0.1,0.1-0.2,0.1
			c0,0.1,0,0.1,0.1,0.2c0,0.1,0,0.1,0.1,0.2c0.1,0,0.1-0.1,0.2-0.1C28.8,17.9,28.8,17.8,28.8,17.8z M30.1,20.7
			c0-0.1-0.1-0.1-0.1-0.2c-0.1,0-0.1,0-0.2,0.1c0,0.1,0.1,0.1,0.1,0.2c0,0.1,0.1,0.1,0.1,0.2c0.1,0,0.1,0,0.2-0.1
			C30.2,20.8,30.1,20.7,30.1,20.7z M30.5,21.4c0-0.1-0.1-0.1-0.1-0.2c-0.1,0-0.1,0-0.2,0.1c0,0.1,0.1,0.1,0.1,0.2s0.1,0.1,0.1,0.2
			c0.1,0,0.1,0,0.2,0C30.6,21.5,30.5,21.4,30.5,21.4z M28.1,15.5c0-0.1,0-0.1,0-0.2c-0.1,0.1-0.1,0.1-0.2,0.2c0,0.1,0,0.1,0,0.2
			c0,0.1,0,0.1,0,0.2c0.1-0.1,0.1-0.1,0.2-0.2C28.1,15.6,28.1,15.5,28.1,15.5z M28.5,17c0-0.1,0-0.1-0.1-0.2
			c-0.1,0.1-0.1,0.1-0.2,0.1c0,0.1,0,0.1,0.1,0.2c0,0.1,0,0.1,0.1,0.2c0.1-0.1,0.1-0.1,0.2-0.1C28.6,17.1,28.5,17.1,28.5,17z
			 M28,14.7c0-0.1,0-0.1,0-0.2c-0.1,0.1-0.1,0.1-0.2,0.2c0,0.1,0,0.1,0,0.2c0,0.1,0,0.1,0,0.2c0.1-0.1,0.1-0.1,0.2-0.2
			C28,14.8,28,14.8,28,14.7z M28.3,16.3c0-0.1,0-0.1-0.1-0.2c-0.1,0.1-0.1,0.1-0.2,0.2c0,0.1,0,0.1,0,0.2c0,0.1,0,0.1,0.1,0.2
			c0.1-0.1,0.1-0.1,0.2-0.1C28.3,16.4,28.3,16.3,28.3,16.3z M27.8,13.9c0-0.1,0-0.1,0-0.2c-0.1,0.1-0.2,0.2-0.3,0.3
			c0,0.1,0,0.1,0,0.2c0,0.1,0,0.1,0,0.2c0.1-0.1,0.1-0.1,0.2-0.2C27.9,14,27.8,14,27.8,13.9z M32.9,24.3c-0.1,0-0.1,0-0.2,0
			c0.1,0.1,0.1,0.1,0.1,0.1c0,0,0.1,0.1,0.1,0.1c0.1,0,0.1,0,0.2,0c-0.1-0.1-0.1-0.1-0.1-0.1C33,24.4,32.9,24.3,32.9,24.3z
			 M33.5,24.8c-0.1,0-0.1,0-0.2,0c0.1,0,0.1,0.1,0.2,0.1c0,0,0.1,0.1,0.2,0.1c0.1,0,0.1,0,0.2,0c-0.1,0-0.1-0.1-0.2-0.1
			C33.6,24.9,33.5,24.8,33.5,24.8z M31.7,22.5C31.7,22.5,31.7,22.6,31.7,22.5c0,0.1,0.1,0.2,0.1,0.3C31.9,22.9,32,23,32,23
			c0.1,0.1,0.1,0.2,0.2,0.2c0.1,0.1,0.1,0.2,0.2,0.2c0.1,0.1,0.1,0.2,0.2,0.2c0.1,0.1,0.2,0.2,0.2,0.2c0.1,0.1,0.2,0.2,0.3,0.2
			c0.1,0.1,0.2,0.2,0.3,0.3c0.1,0,0.3,0,0.4-0.1s0.2,0,0.3-0.1c0.1,0,0.2,0,0.3-0.1c0.1,0,0.2,0,0.3-0.1c0.1,0,0.3-0.1,0.4-0.1
			c-0.1-0.1-0.2-0.2-0.3-0.3c-0.1-0.1-0.2-0.2-0.3-0.2c-0.1-0.1-0.2-0.2-0.2-0.2c-0.1-0.1-0.1-0.2-0.2-0.2S34.1,23,34,22.9
			c-0.1-0.1-0.1-0.2-0.2-0.2c-0.1-0.1-0.1-0.2-0.2-0.3c-0.1-0.1-0.2-0.2-0.2-0.3c-0.1,0-0.2,0.1-0.4,0.1c-0.1,0-0.2,0-0.3,0.1
			s-0.2,0-0.3,0.1c-0.1,0-0.2,0-0.3,0.1c-0.1,0-0.2,0-0.3,0.1s-0.2,0-0.3,0.1C31.6,22.5,31.6,22.5,31.7,22.5
			C31.7,22.5,31.7,22.5,31.7,22.5z M32.5,23.9c0,0-0.1-0.1-0.1-0.1c-0.1,0-0.1,0-0.2,0c0.1,0.1,0.1,0.1,0.1,0.1c0,0,0.1,0.1,0.1,0.1
			c0.1,0,0.1,0,0.2,0C32.5,23.9,32.5,23.9,32.5,23.9z M31.5,22.8L31.5,22.8C31.5,22.8,31.5,22.8,31.5,22.8L31.5,22.8z M31.8,23.1
			c-0.1,0-0.1,0-0.2,0c0.1,0.1,0.1,0.1,0.1,0.2c0,0,0.1,0.1,0.1,0.1c0.1,0,0.1,0,0.2,0c-0.1-0.1-0.1-0.1-0.1-0.1
			C31.9,23.2,31.8,23.2,31.8,23.1z M31.3,22.5c-0.1,0-0.1,0-0.2,0c0,0.1,0.1,0.1,0.1,0.2c0,0,0.1,0.1,0.1,0.2c0,0,0,0,0,0
			c0,0,0.1-0.1,0.1-0.1c0,0,0,0,0-0.1C31.4,22.6,31.3,22.6,31.3,22.5z M44,27.1c-0.1,0-0.1,0-0.2,0c-0.1,0-0.2,0.1-0.3,0.1
			c0.1,0,0.2,0,0.2,0c0,0,0.1,0,0.1,0c0.1,0,0.2-0.1,0.3-0.1C44.1,27.1,44.1,27.1,44,27.1z M38.9,26.1c0.1,0,0.2-0.1,0.3-0.1
			c-0.1,0-0.1-0.1-0.2-0.1c-0.1,0-0.1,0-0.2-0.1c-0.1,0-0.2,0.1-0.3,0.1c0.1,0,0.1,0.1,0.2,0.1C38.8,26,38.8,26,38.9,26.1z
			 M38.2,25.7c0.1,0,0.2-0.1,0.3-0.1c-0.1,0-0.1-0.1-0.2-0.1c-0.1,0-0.1-0.1-0.2-0.1c-0.1,0-0.2,0.1-0.3,0.1c0.1,0,0.1,0.1,0.2,0.1
			C38,25.7,38.1,25.7,38.2,25.7z M37.5,25.4c0.1,0,0.2-0.1,0.3-0.1c-0.1,0-0.1-0.1-0.2-0.1c-0.1,0-0.1-0.1-0.2-0.1
			c-0.1,0-0.2,0.1-0.3,0.1c0.1,0,0.1,0.1,0.2,0.1C37.3,25.3,37.4,25.3,37.5,25.4z M40.5,26.6c0.1,0,0.2-0.1,0.3-0.1
			c-0.1,0-0.1,0-0.2-0.1c-0.1,0-0.1,0-0.2-0.1c-0.1,0-0.2,0.1-0.3,0.1c0.1,0,0.1,0,0.2,0.1C40.3,26.6,40.4,26.6,40.5,26.6z M43,27.1
			c0.1,0,0.2-0.1,0.3-0.1c-0.1,0-0.2,0-0.2,0c-0.1,0-0.1,0-0.2,0c-0.1,0-0.2,0.1-0.3,0.1c0.1,0,0.2,0,0.2,0
			C42.9,27.1,43,27.1,43,27.1z M36.8,25c0.1,0,0.2-0.1,0.3-0.1c-0.1,0-0.1-0.1-0.2-0.1c0,0-0.1-0.1-0.2-0.1c-0.1,0-0.2,0.1-0.3,0.1
			c0.1,0,0.1,0.1,0.2,0.1C36.7,24.9,36.7,24.9,36.8,25z M39.7,26.4c0.1,0,0.2-0.1,0.3-0.1c-0.1,0-0.1,0-0.2-0.1
			c-0.1,0-0.1,0-0.2-0.1c-0.1,0-0.2,0.1-0.3,0.1c0.1,0,0.1,0,0.2,0.1C39.5,26.3,39.6,26.3,39.7,26.4z M36.2,24.5
			c0.1,0,0.2-0.1,0.3-0.1c-0.1,0-0.1-0.1-0.2-0.1c0,0-0.1-0.1-0.2-0.1c-0.1,0-0.2,0.1-0.3,0.1c0.1,0,0.1,0.1,0.2,0.1
			C36.1,24.4,36.1,24.5,36.2,24.5z M36.2,26.5c-0.1,0-0.1,0-0.2,0c0.1,0,0.1,0.1,0.2,0.1c0.1,0,0.1,0.1,0.2,0.1c0.1,0,0.1,0,0.2,0
			c-0.1,0-0.1-0.1-0.2-0.1C36.4,26.6,36.3,26.6,36.2,26.5z M39.5,27.6c-0.1,0-0.1,0-0.2,0C39.4,27.6,39.5,27.6,39.5,27.6
			c0.1,0.1,0.2,0.1,0.2,0.1c0.1,0,0.1,0,0.2,0c-0.1,0-0.2,0-0.2,0C39.7,27.6,39.6,27.6,39.5,27.6z M28.2,14.2c0,0.1,0,0.2,0.1,0.3
			c0,0.1,0,0.2,0.1,0.3c0,0.1,0,0.2,0.1,0.3c0,0.1,0,0.2,0.1,0.3c0,0.1,0.1,0.2,0.1,0.4c0,0.1,0.1,0.3,0.1,0.4
			c0.1-0.1,0.2-0.1,0.3-0.2c0.1-0.1,0.2-0.1,0.3-0.2c0.1-0.1,0.2-0.1,0.3-0.2c0.1,0,0.2-0.1,0.3-0.2c0.1-0.1,0.2-0.1,0.3-0.2
			c0.1-0.1,0.2-0.1,0.4-0.2c0-0.1,0-0.3-0.1-0.4c0-0.1,0-0.2-0.1-0.4c0-0.1,0-0.2-0.1-0.3c0-0.1,0-0.2,0-0.3c0-0.1,0-0.2,0-0.3
			c0-0.1,0-0.2,0-0.3c0-0.1,0-0.2,0-0.3c0-0.1,0-0.2,0-0.4c0-0.1,0-0.3,0-0.4c0-0.1,0-0.3,0-0.4c-0.1,0.1-0.2,0.2-0.3,0.2
			c-0.1,0.1-0.2,0.1-0.3,0.2c-0.1,0.1-0.2,0.1-0.2,0.2c-0.1,0.1-0.2,0.1-0.2,0.2c-0.1,0.1-0.2,0.1-0.2,0.2c-0.1,0.1-0.2,0.1-0.2,0.2
			c-0.1,0.1-0.2,0.1-0.3,0.2c-0.1,0.1-0.2,0.2-0.3,0.2c0,0.1,0,0.3,0.1,0.4C28.2,14,28.2,14.1,28.2,14.2z M41.3,27.8
			c0.1,0,0.1,0,0.2,0c0,0,0,0,0,0C41.4,27.8,41.3,27.8,41.3,27.8z M34.3,22.8c0,0,0.1,0.1,0.1,0.1c0.1,0,0.2,0,0.3-0.1
			c-0.1-0.1-0.1-0.1-0.1-0.1c0,0-0.1-0.1-0.1-0.2c-0.1,0-0.2,0-0.3,0.1C34.2,22.7,34.3,22.7,34.3,22.8z M35.4,23.9
			c0,0,0.1,0.1,0.1,0.1c0.1,0,0.2,0,0.3-0.1c-0.1,0-0.1-0.1-0.1-0.1c0,0-0.1-0.1-0.1-0.1c-0.1,0-0.2,0.1-0.3,0.1
			C35.3,23.8,35.4,23.9,35.4,23.9z M34.8,23.4c0,0,0.1,0.1,0.1,0.1c0.1,0,0.2,0,0.3-0.1c-0.1-0.1-0.1-0.1-0.1-0.1
			c0,0-0.1-0.1-0.1-0.1c-0.1,0-0.2,0-0.3,0.1C34.8,23.3,34.8,23.3,34.8,23.4z"/>
	</g>
	<g>
		<rect x="-0.5" y="59.6" class="st0" width="28.6" height="0.3"/>
		<rect x="62.5" y="59.6" class="st0" width="28.6" height="0.3"/>
		<path class="st0" d="M36.7,57.4c-0.1,0-1.5,0.2-2,0.2c-0.1,0,0.3,0.6,0.5,0.6c0,0,0.2,0,0.4,0c-0.3,1.7-0.7,3.3-0.9,3.7
			c0,0,0,0,0,0c-0.3,0.1-0.6,0.1-0.7,0.1c-0.1,0,0.1,0.5,0.3,0.5c0.3,0,1.9-0.2,2-0.3c0.1-0.2-0.5-0.5-0.6-0.5c0,0,0,0-0.1,0
			c0.3-1.4,0.6-2.8,0.8-3.4c0,0,0-0.1,0-0.1c0.4,0,0.7,0,0.7,0C37.1,58.2,36.8,57.5,36.7,57.4z"/>
		<path class="st0" d="M41.1,57.2c-0.2,0.6-0.9,3.6-1,3.6c-0.5-0.2-1-2-1.2-2.7c-0.1-0.4-0.7-0.5-0.9-0.5c0,0,0,0,0,0c0,0,0,0,0,0
			c0,0,0,0,0,0c0,1.3-0.7,4.1-0.8,4.2c-0.1,0.3,0.5,0.9,0.6,0.8c0.2-0.9,0.4-2.2,0.7-3.5c1.3,3.6,2.1,3.4,2.6,3.3
			c0.1,0,0-1.3,0.3-2.7c0.1-0.6,0.4-1.1,0.7-1.5C42.1,58.2,41.3,56.9,41.1,57.2z"/>
		<path class="st0" d="M46.5,59.6c-0.3-0.1-2.2,0.2-2.2,0.2c0,0.2,0.2,0.3,0.3,0.3c0.1,0.1,0.6,0.1,1.1,0.2
			c-0.1,0.5-0.4,1.5-1.6,1.5c-1.4,0-0.9-2.2-0.2-3.1c0.4-0.5,0.7-0.8,1.6-0.9c0.2,0,0.4,0,0.7-0.3c0.1-0.1-1.6-0.9-2.9,0.3
			c-1,1-1.7,4.1,0.2,4.7c1,0.3,2.7-0.5,2.7-2.1c0,0,0,0,0-0.1c0.1,0,0.2,0.1,0.3,0.1c0.1,0.1,0.3-0.3,0.3-0.6
			C46.8,59.9,46.7,59.7,46.5,59.6z"/>
		<path class="st0" d="M47.7,57.5c-0.1,0,0.3,0.3,0.8,0.4c0.1,0,0.2,0,0.3,0c-0.2,0.6-0.5,1.9-0.9,3.7c-0.1,0-0.1,0-0.2,0
			c-0.2,0-0.8,0.5-0.8,0.8c0,0.2,5.1,0.6,4.9-3.2C51.6,58.3,50.8,56.6,47.7,57.5z M48.6,61.5c0.6-1.8,0.9-2.9,0.9-3.2
			c0-0.1-0.1-0.3-0.2-0.5c0.4,0,0.9,0.1,1.3,0.4C51.1,58.6,51.6,61.1,48.6,61.5z"/>
		<path class="st0" d="M56.1,60.8c0-0.1-0.4-0.7-0.6-0.8c0,0,0,0,0,0c-0.4-1-0.7-2-0.8-2.1c-0.2-0.6-0.8-0.9-0.8-0.8
			c-0.2,0.9-0.8,2.4-1.2,3.5c-0.2,0-0.3,0.1-0.5,0.1c-0.2,0,0,0.3,0.2,0.5c-0.1,0.3-0.2,0.5-0.2,0.5c-0.1,0.1,0.3,1,0.6,0.9
			c0.1-0.1,0.4-0.6,0.6-1.2c0.7-0.1,1.2-0.2,1.7-0.3c0.2,0.6,0.3,1.1,0.3,1.1c0.1,0.2,0.7,0.4,0.8,0.2c0-0.1-0.2-0.7-0.4-1.4
			C56,60.9,56.1,60.9,56.1,60.8z M53.8,60.3c0.2-0.7,0.5-1.4,0.6-1.8c0.1,0.5,0.3,1.1,0.5,1.6C54.6,60.2,54.2,60.3,53.8,60.3z"/>
		<path class="st0" d="M32.5,57.2c-0.4,0-2.2,0-2.8,2.7c-0.1,1.2,0.1,2.7,1.5,2.8c0.5,0,1-0.2,1.4-0.6c0.2,0.2,0.3,0.3,0.4,0.1
			c0.1-0.2,0.1-0.4,0-0.6c0.4-0.5,0.6-1.1,0.7-1.5C34.1,59.1,34.2,57.2,32.5,57.2z M33.2,59.6c-0.1,0.5-0.3,0.9-0.5,1.2
			c-0.3-0.3-0.6-0.5-0.7-0.5c-0.2-0.1-0.4-0.2-0.4-0.2c0.2,0.4,0.4,0.9,0.6,1.2c-0.3,0.3-0.7,0.4-1.1,0.3c-0.9-0.1-0.5-2-0.5-2
			c0.5-1.9,1.4-1.8,1.6-1.8C33,57.9,33.4,58.6,33.2,59.6z"/>
		<path class="st0" d="M59.4,57.2c-0.4,0-2.2,0-2.8,2.7c-0.1,1.2,0.1,2.7,1.5,2.8c1.3,0.1,2.4-1.6,2.6-2.6
			C61,59.1,61.1,57.2,59.4,57.2z M60.1,59.6c-0.2,1.2-1.2,2.2-2,2.1c-0.9-0.1-0.5-2-0.5-2c0.5-1.9,1.4-1.8,1.6-1.8
			C59.9,57.9,60.3,58.6,60.1,59.6z"/>
	</g>
</g>
</svg>
