<?xml version="1.0" encoding="utf-8"?>
<!-- Generator: Adobe Illustrator 19.2.1, SVG Export Plug-In . SVG Version: 6.00 Build 0)  -->
<svg version="1.1" id="图层_1" xmlns="http://www.w3.org/2000/svg" xmlns:xlink="http://www.w3.org/1999/xlink" x="0px" y="0px"
	 viewBox="0 0 84.7 79.4" style="enable-background:new 0 0 84.7 79.4;" xml:space="preserve">
<style type="text/css">
	.st0{fill:url(#SVGID_1_);}
	.st1{fill:url(#SVGID_2_);}
	.st2{fill:url(#SVGID_3_);}
	.st3{fill:url(#SVGID_4_);}
	.st4{fill:url(#SVGID_5_);}
	.st5{fill:url(#SVGID_6_);}
	.st6{fill:url(#SVGID_7_);}
	.st7{fill:url(#SVGID_8_);}
	.st8{fill:url(#SVGID_9_);}
	.st9{fill:url(#SVGID_10_);}
	.st10{fill:url(#SVGID_11_);}
	.st11{fill:url(#SVGID_12_);}
	.st12{fill:url(#SVGID_13_);}
</style>
<g>
	
		<radialGradient id="SVGID_1_" cx="42.3578" cy="41.678" r="41.0387" gradientTransform="matrix(1 0 0 -1 0 81.3536)" gradientUnits="userSpaceOnUse">
		<stop  offset="0.8245" style="stop-color:#C30D23"/>
		<stop  offset="1" style="stop-color:#E50020"/>
	</radialGradient>
	<path class="st0" d="M75.6,23.3c-0.3,2.4-1.5,4.8-3.6,6.8c3.4-6.8,2.9-15.1-2-21.6c-6-7.9-16.7-10.1-25.2-5.8
		c1.9,1.5,3.4,3.7,4.1,6.5C44.7,2.9,37.2-0.9,29.2,0.2c-9.8,1.3-17.1,9.4-17.6,19c2.3-0.9,4.9-1.1,7.7-0.3
		c-7.6,0.4-14.6,5-17.7,12.5c-3.8,9.2-0.4,19.5,7.6,24.7c0.3-2.4,1.5-4.8,3.6-6.8c-3.4,6.8-2.9,15.2,2,21.6
		c6,7.9,16.7,10.1,25.2,5.8c-1.9-1.5-3.4-3.7-4.1-6.5c4.1,6.3,11.7,10.1,19.7,9.1c9.8-1.3,17.1-9.4,17.6-19
		c-2.3,0.9-4.9,1.1-7.7,0.3c7.6-0.4,14.6-5,17.7-12.5C87,38.8,83.6,28.5,75.6,23.3z M42.4,70.7c-17.2,0-31-13.9-31-31
		s13.9-31.1,31-31.1c17.1,0,31.1,13.9,31.1,31.1C73.4,56.8,59.5,70.7,42.4,70.7z"/>
	
		<linearGradient id="SVGID_2_" gradientUnits="userSpaceOnUse" x1="37.1028" y1="61.1899" x2="37.1028" y2="-1.8854" gradientTransform="matrix(1 0 0 -1 0 81.3536)">
		<stop  offset="0" style="stop-color:#690211"/>
		<stop  offset="0.2128" style="stop-color:#E50020"/>
		<stop  offset="0.4396" style="stop-color:#ED4A60"/>
		<stop  offset="0.9628" style="stop-color:#FFFFFF"/>
	</linearGradient>
	<path class="st1" d="M41.9,49.9c-2.2,1.9-4.9,2.8-7.3,3c1.9-7.7-0.8-22.8-3.4-32.5c2.8,0,7.6-0.4,8.9,0
		C41.7,27.5,44.5,42,41.9,49.9z"/>
	
		<linearGradient id="SVGID_3_" gradientUnits="userSpaceOnUse" x1="36.4752" y1="61.2235" x2="39.6086" y2="8.7808" gradientTransform="matrix(1 0 0 -1 0 81.3536)">
		<stop  offset="0" style="stop-color:#5C0614"/>
		<stop  offset="0.1853" style="stop-color:#800417"/>
		<stop  offset="0.4414" style="stop-color:#AB031B"/>
		<stop  offset="0.6718" style="stop-color:#CB011E"/>
		<stop  offset="0.8658" style="stop-color:#DE001F"/>
		<stop  offset="1" style="stop-color:#E50020"/>
	</linearGradient>
	<path class="st2" d="M34.8,27.6c0-0.2-0.1-0.3-0.1-0.5c-0.3,0.1-0.4,0.1-0.7,0.1c0,0.2,0.1,0.4,0.1,0.5c0,0.2,0.1,0.3,0.1,0.5
		c0.3,0,0.4-0.1,0.7-0.1C34.8,28,34.8,27.8,34.8,27.6z M34.3,25.5c0-0.2-0.1-0.3-0.1-0.5c-0.3,0-0.4,0.1-0.7,0.1
		c0.1,0.2,0.1,0.4,0.1,0.6c0,0.2,0.1,0.3,0.1,0.5c0.3,0,0.4,0,0.7-0.1C34.3,25.8,34.3,25.6,34.3,25.5z M33.7,23.3
		c0-0.2-0.1-0.3-0.1-0.5c-0.3,0-0.4,0.1-0.7,0.1c0.1,0.2,0.1,0.4,0.1,0.6c0,0.2,0.1,0.3,0.1,0.6c0.3,0,0.4,0,0.7-0.1
		C33.8,23.6,33.8,23.4,33.7,23.3z M40.7,31.8c0,0.2,0,0.3,0.1,0.5c0.2-0.1,0.3-0.1,0.5-0.2c0-0.2,0-0.4-0.1-0.5c0-0.2,0-0.3-0.1-0.5
		c-0.2,0.1-0.3,0.1-0.5,0.2C40.7,31.5,40.7,31.7,40.7,31.8z M35.6,31.9c0-0.2-0.1-0.3-0.1-0.5c-0.3,0.1-0.4,0.1-0.6,0.1
		c0,0.2,0.1,0.4,0.1,0.5c0,0.2,0.1,0.3,0.1,0.5c0.3,0,0.4-0.1,0.6-0.1C35.6,32.3,35.6,32.1,35.6,31.9z M36.4,38.2
		c0-0.2,0-0.3-0.1-0.5c-0.3,0.1-0.4,0.1-0.6,0.2c0,0.2,0,0.4,0,0.5c0,0.2,0,0.3,0,0.5c0.3-0.1,0.4-0.1,0.6-0.2
		C36.4,38.5,36.4,38.4,36.4,38.2z M36.2,36.1c0-0.2,0-0.3-0.1-0.5c-0.2,0.1-0.4,0.1-0.6,0.2c0,0.2,0,0.4,0.1,0.5
		c0,0.2,0,0.3,0.1,0.5c0.3-0.1,0.4-0.1,0.6-0.2C36.2,36.5,36.2,36.3,36.2,36.1z M35.9,34.1c0-0.2,0-0.3-0.1-0.5
		c-0.3,0.1-0.4,0.1-0.6,0.1c0,0.2,0.1,0.4,0.1,0.5c0,0.2,0,0.3,0.1,0.5c0.3-0.1,0.4-0.1,0.6-0.2C35.9,34.4,35.9,34.2,35.9,34.1z
		 M41.2,49.4c0,0.1,0,0.3,0,0.5c0.2-0.1,0.3-0.1,0.5-0.2c0-0.2,0-0.3,0-0.5c0-0.1,0-0.3,0-0.5c-0.2,0.1-0.3,0.1-0.5,0.2
		C41.2,49.1,41.2,49.2,41.2,49.4z M35.9,40.9c0.3-0.1,0.4-0.1,0.7-0.2c0-0.2,0-0.4,0-0.5c0-0.2,0-0.3,0-0.5
		c-0.3,0.1-0.4,0.1-0.6,0.2c0,0.2,0,0.4,0,0.5C35.9,40.6,35.9,40.7,35.9,40.9z M41.4,45.6c0,0.1,0,0.3,0,0.5
		c0.2-0.1,0.3-0.2,0.5-0.2c0-0.2,0-0.3,0-0.5c0-0.1,0-0.3,0-0.5c-0.2,0.1-0.3,0.1-0.5,0.2C41.4,45.4,41.4,45.5,41.4,45.6z
		 M41.3,47.5c0,0.1,0,0.3,0,0.5c0.2-0.1,0.3-0.1,0.5-0.2c0-0.2,0-0.3,0-0.5c0-0.1,0-0.3,0-0.5c-0.2,0.1-0.3,0.1-0.5,0.2
		C41.3,47.2,41.3,47.4,41.3,47.5z M41.4,41.8c0,0.1,0,0.3,0,0.5c0.2-0.1,0.3-0.1,0.5-0.2c0-0.2,0-0.3,0-0.5c0-0.1,0-0.3,0-0.5
		c-0.2,0.1-0.3,0.1-0.5,0.2C41.4,41.5,41.4,41.7,41.4,41.8z M41.4,33.7c0-0.2,0-0.3,0-0.5c-0.2,0.1-0.3,0.1-0.5,0.2
		c0,0.2,0,0.4,0,0.5c0,0.2,0,0.3,0,0.5c0.2-0.1,0.3-0.1,0.5-0.2C41.4,34,41.4,33.8,41.4,33.7z M41.6,36.2c0-0.2,0-0.3,0-0.5
		s0-0.3,0-0.5c-0.2,0.1-0.3,0.1-0.5,0.2c0,0.2,0,0.4,0,0.5c0,0.2,0,0.3,0,0.5C41.3,36.3,41.4,36.2,41.6,36.2z M41.2,37.9
		c0,0.1,0,0.3,0,0.5c0.2-0.1,0.3-0.1,0.5-0.2c0-0.2,0-0.3,0-0.5c0-0.2,0-0.3,0-0.5c-0.2,0.1-0.3,0.1-0.5,0.2
		C41.2,37.6,41.2,37.7,41.2,37.9z M41.3,39.8c0,0.1,0,0.3,0,0.5c0.2-0.1,0.3-0.1,0.5-0.2c0-0.2,0-0.3,0-0.5c0-0.1,0-0.3,0-0.5
		c-0.2,0.1-0.3,0.1-0.5,0.2C41.3,39.6,41.3,39.7,41.3,39.8z M35.2,29.8c0-0.2-0.1-0.3-0.1-0.5c-0.3,0.1-0.4,0.1-0.7,0.1
		c0,0.2,0.1,0.4,0.1,0.5c0,0.2,0.1,0.3,0.1,0.5c0.3,0,0.4-0.1,0.6-0.1C35.2,30.1,35.2,30,35.2,29.8z M39.9,25.7c0,0.2,0,0.3,0.1,0.5
		c0.2-0.1,0.3-0.1,0.5-0.2c0-0.2-0.1-0.4-0.1-0.5c0-0.2,0-0.3-0.1-0.5c-0.2,0-0.3,0.1-0.5,0.1C39.8,25.4,39.8,25.5,39.9,25.7z
		 M39.5,23.6c0,0.2,0.1,0.3,0.1,0.5c0.2-0.1,0.3-0.1,0.5-0.1c0-0.2-0.1-0.4-0.1-0.5c0-0.2-0.1-0.3-0.1-0.5c-0.2,0-0.3,0.1-0.5,0.1
		C39.5,23.3,39.5,23.5,39.5,23.6z M36.7,41.7c-0.3,0.1-0.4,0.1-0.7,0.2c0,0.2,0,0.4,0,0.5c0,0.1,0,0.3,0,0.5
		c0.3-0.1,0.4-0.1,0.7-0.2c0-0.2,0-0.3,0-0.5C36.7,42.1,36.7,41.9,36.7,41.7z M40.2,27.8c0,0.2,0,0.3,0.1,0.5
		c0.2-0.1,0.3-0.1,0.5-0.2c0-0.2-0.1-0.4-0.1-0.5c0-0.2,0-0.3-0.1-0.5c-0.2,0.1-0.3,0.1-0.5,0.2C40.1,27.4,40.2,27.6,40.2,27.8z
		 M40.5,29.8c0,0.2,0,0.3,0.1,0.5c0.2-0.1,0.3-0.1,0.5-0.2c0-0.2,0-0.4-0.1-0.5c0-0.2,0-0.3-0.1-0.5c-0.2,0.1-0.3,0.1-0.5,0.2
		C40.4,29.5,40.4,29.6,40.5,29.8z M34.2,22.1c0.1,0.3,0.1,0.5,0.2,0.7c0.1,0.2,0.1,0.5,0.2,0.7c0.1,0.2,0.1,0.5,0.2,0.7
		c0.1,0.2,0.1,0.5,0.2,0.7c0.1,0.2,0.1,0.5,0.2,0.7c0.1,0.2,0.1,0.5,0.2,0.7c0.1,0.3,0.1,0.5,0.2,0.8c0.1,0.3,0.1,0.6,0.2,0.9
		c0.3-0.1,0.5-0.2,0.8-0.3c0.2-0.1,0.4-0.2,0.6-0.3c0.2-0.1,0.4-0.2,0.6-0.3c0.2-0.1,0.4-0.2,0.6-0.3c0.2-0.1,0.4-0.2,0.6-0.3
		c0.2-0.1,0.4-0.2,0.7-0.3c0-0.3-0.1-0.6-0.1-0.8c0-0.3-0.1-0.5-0.1-0.8c0-0.2-0.1-0.5-0.1-0.7c0-0.2-0.1-0.5-0.1-0.7
		c0-0.2-0.1-0.4-0.1-0.7c0-0.2-0.1-0.4-0.1-0.7c0-0.2-0.1-0.4-0.1-0.7c0-0.2-0.1-0.5-0.1-0.7c0-0.2-0.1-0.4-0.1-0.6
		c-1.1,0-2.5,0-3.9,0.1c-0.2,0-0.4,0.1-0.6,0.1c0.1,0.3,0.2,0.6,0.2,0.9C34.1,21.5,34.1,21.8,34.2,22.1z M41.4,43.3
		c0,0.2,0,0.3,0,0.5c0,0.1,0,0.3,0,0.5c0.2-0.1,0.3-0.1,0.5-0.2c0-0.2,0-0.3,0-0.5c0-0.1,0-0.3,0-0.5C41.7,43.1,41.6,43.2,41.4,43.3
		z M33.1,21.1c0-0.2-0.1-0.3-0.2-0.6c-0.3,0-0.4,0-0.7,0.1c0.1,0.2,0.1,0.4,0.2,0.6c0.1,0.2,0.1,0.3,0.2,0.6c0.3,0,0.4,0,0.7-0.1
		C33.2,21.4,33.2,21.2,33.1,21.1z M39.2,22.1c0.2-0.1,0.3-0.1,0.5-0.1c0-0.2-0.1-0.4-0.1-0.5c0-0.2-0.1-0.3-0.1-0.5
		c-0.2,0-0.3,0.1-0.6,0.1c0,0.2,0.1,0.4,0.1,0.5C39.2,21.7,39.2,21.9,39.2,22.1z M36.1,48.2c0,0.1,0,0.3,0,0.5
		c0.3-0.1,0.4-0.1,0.7-0.2c0-0.2,0-0.3,0-0.5c0-0.1,0-0.3,0-0.5c-0.3,0.1-0.4,0.1-0.7,0.2C36.1,47.9,36.1,48.1,36.1,48.2z M36,50.1
		c0,0.1,0,0.3,0,0.5c0.3-0.1,0.4-0.1,0.7-0.2c0-0.2,0-0.3,0-0.5c0-0.1,0-0.3,0-0.5c-0.3,0.1-0.4,0.1-0.7,0.2
		C36.1,49.8,36,49.9,36,50.1z M35.9,51.9c0,0.1,0,0.3,0,0.4c0.3-0.1,0.4-0.1,0.7-0.2c0-0.2,0-0.3,0-0.4c0-0.1,0-0.3,0-0.4
		c-0.3,0.1-0.4,0.1-0.7,0.2C36,51.6,35.9,51.7,35.9,51.9z M36.1,44.9c0.3-0.1,0.4-0.1,0.7-0.2c0-0.2,0-0.3,0-0.5c0-0.1,0-0.3,0-0.5
		c-0.3,0.1-0.4,0.1-0.7,0.2c0,0.2,0,0.3,0,0.5C36.1,44.5,36.1,44.7,36.1,44.9z M37.3,41.3c0,0.2,0,0.5,0,0.7c0,0.2,0,0.5,0,0.7
		c0,0.3,0,0.5,0,0.8c0,0.3,0,0.6,0,0.9c0.3-0.1,0.6-0.2,0.8-0.4c0.2-0.1,0.5-0.2,0.7-0.4c0.2-0.1,0.4-0.2,0.6-0.3
		c0.2-0.1,0.4-0.2,0.6-0.4c0.2-0.1,0.4-0.3,0.7-0.4c0-0.3,0-0.6,0-0.9c0-0.3,0-0.5,0-0.8c0-0.3,0-0.5,0-0.7c0-0.2,0-0.5,0-0.7
		s0-0.5,0-0.7c0-0.2,0-0.5,0-0.7c0-0.2,0-0.5,0-0.7c0-0.3,0-0.5-0.1-0.8c0-0.3,0-0.6-0.1-0.9c-0.3,0.1-0.5,0.3-0.7,0.4
		c-0.2,0.1-0.4,0.2-0.6,0.4c-0.2,0.1-0.4,0.2-0.6,0.3c-0.2,0.1-0.4,0.2-0.7,0.3c-0.2,0.1-0.5,0.2-0.8,0.4c0,0.3,0.1,0.6,0.1,0.9
		c0,0.3,0,0.6,0.1,0.8c0,0.3,0,0.5,0.1,0.8c0,0.2,0,0.5,0.1,0.7C37.3,40.9,37.3,41.1,37.3,41.3z M39.6,44.3
		c-0.2,0.1-0.4,0.2-0.6,0.3c-0.2,0.1-0.4,0.2-0.7,0.4c-0.2,0.1-0.5,0.2-0.8,0.4c0,0.3,0,0.6,0,0.8c0,0.3,0,0.5,0,0.8
		c0,0.2,0,0.5,0,0.7c0,0.2,0,0.4,0,0.7c0,0.2,0,0.4,0,0.7c0,0.2,0,0.4,0,0.7c0,0.2,0,0.4,0,0.7c0,0.2,0,0.5,0,0.7
		c0,0.3,0,0.5-0.1,0.8c0.3-0.1,0.6-0.2,0.8-0.4c0.2-0.1,0.4-0.2,0.6-0.3c0.2-0.1,0.4-0.2,0.6-0.3c0.2-0.1,0.4-0.2,0.6-0.4
		c0.2-0.1,0.4-0.3,0.7-0.4c0-0.3,0-0.6,0.1-0.8c0-0.3,0-0.5,0.1-0.7c0-0.2,0-0.5,0-0.7c0-0.2,0-0.4,0-0.7c0-0.2,0-0.4,0-0.7
		c0-0.2,0-0.4,0-0.7c0-0.2,0-0.5,0-0.7c0-0.2,0-0.5,0-0.8c0-0.3,0-0.6,0-0.9c-0.3,0.1-0.5,0.3-0.7,0.4S39.8,44.2,39.6,44.3z
		 M36.8,45.7c-0.3,0.1-0.4,0.1-0.7,0.2c0,0.2,0,0.3,0,0.5s0,0.3,0,0.5c0.3-0.1,0.4-0.1,0.7-0.2c0-0.2,0-0.3,0-0.5
		C36.8,46,36.8,45.8,36.8,45.7z M38.4,35.7c0.2-0.1,0.4-0.2,0.6-0.3c0.2-0.1,0.4-0.2,0.6-0.4c0.2-0.1,0.5-0.3,0.7-0.4
		c0-0.3-0.1-0.6-0.1-0.8c0-0.3-0.1-0.5-0.1-0.7c0-0.2-0.1-0.5-0.1-0.7c0-0.2-0.1-0.4-0.1-0.7c0-0.2-0.1-0.4-0.1-0.6
		c0-0.2-0.1-0.4-0.1-0.6c0-0.2-0.1-0.4-0.1-0.7c0-0.2-0.1-0.5-0.1-0.7c0-0.2-0.1-0.5-0.1-0.8c0-0.3-0.1-0.5-0.1-0.8
		c-0.2,0.1-0.5,0.2-0.7,0.3c-0.2,0.1-0.4,0.2-0.6,0.3c-0.2,0.1-0.4,0.2-0.5,0.3c-0.2,0.1-0.4,0.2-0.6,0.3s-0.4,0.2-0.6,0.3
		s-0.5,0.2-0.7,0.3c0.1,0.3,0.1,0.6,0.2,0.9c0,0.3,0.1,0.5,0.1,0.8c0,0.2,0.1,0.5,0.1,0.7c0,0.2,0.1,0.5,0.1,0.7
		c0,0.2,0.1,0.4,0.1,0.7c0,0.2,0.1,0.4,0.1,0.7c0,0.2,0.1,0.4,0.1,0.7c0,0.2,0.1,0.5,0.1,0.7c0,0.2,0.1,0.5,0.1,0.8
		c0,0.3,0.1,0.5,0.1,0.8c0.3-0.1,0.6-0.2,0.8-0.4C38,36,38.2,35.8,38.4,35.7z"/>
	
		<linearGradient id="SVGID_4_" gradientUnits="userSpaceOnUse" x1="53.0693" y1="25.3229" x2="35.3308" y2="46.0783" gradientTransform="matrix(1 0 0 -1 0 81.3536)">
		<stop  offset="0" style="stop-color:#690211"/>
		<stop  offset="0.2128" style="stop-color:#E50020"/>
		<stop  offset="0.4396" style="stop-color:#ED4A60"/>
		<stop  offset="0.9628" style="stop-color:#FFFFFF"/>
	</linearGradient>
	<path class="st3" d="M46.9,50.8c-3,2.4-5.2,3.9-7.9,4.7c0.6,0.6,1.2,1.2,2,1.7c3.7,2.4,19,1.7,21-6.8C59,53.3,52.4,53.3,46.9,50.8z
		"/>
	
		<linearGradient id="SVGID_5_" gradientUnits="userSpaceOnUse" x1="57.2202" y1="27.0558" x2="27.261" y2="31.3082" gradientTransform="matrix(1 0 0 -1 0 81.3536)">
		<stop  offset="0" style="stop-color:#5C0614"/>
		<stop  offset="0.1853" style="stop-color:#800417"/>
		<stop  offset="0.4414" style="stop-color:#AB031B"/>
		<stop  offset="0.6718" style="stop-color:#CB011E"/>
		<stop  offset="0.8658" style="stop-color:#DE001F"/>
		<stop  offset="1" style="stop-color:#E50020"/>
	</linearGradient>
	<path class="st4" d="M56.3,55.6c-0.2,0.1-0.3,0.2-0.4,0.2c-0.1,0.1-0.3,0.1-0.5,0.2c0.2-0.1,0.4-0.1,0.6-0.2
		c0.2-0.1,0.3-0.1,0.6-0.2c0.2-0.1,0.3-0.2,0.5-0.2c0.1-0.1,0.3-0.1,0.4-0.2c-0.2,0.1-0.4,0.2-0.6,0.2
		C56.7,55.4,56.5,55.5,56.3,55.6z M54.4,55.9c0.2-0.1,0.4-0.1,0.7-0.2c0.2-0.1,0.5-0.1,0.7-0.2c0.2-0.1,0.5-0.2,0.7-0.2
		c0.3-0.1,0.5-0.2,0.8-0.3c0.3-0.1,0.6-0.2,0.9-0.4c0.3-0.2,0.5-0.4,0.7-0.6c0.2-0.2,0.4-0.4,0.5-0.5c0.2-0.2,0.3-0.3,0.4-0.5
		c0.1-0.2,0.2-0.3,0.3-0.5c0.1-0.2,0.2-0.3,0.3-0.5c0.1-0.2,0.2-0.3,0.4-0.5c-0.3,0.2-0.6,0.3-0.8,0.5c-0.3,0.1-0.5,0.3-0.8,0.4
		c-0.2,0.1-0.5,0.2-0.7,0.3c-0.2,0.1-0.5,0.2-0.7,0.3c-0.2,0.1-0.4,0.2-0.7,0.2c-0.2,0.1-0.4,0.1-0.7,0.2c-0.2,0.1-0.5,0.1-0.7,0.2
		c-0.2,0.1-0.5,0.1-0.8,0.2c-0.3,0.1-0.5,0.1-0.8,0.1c-0.2,0.2-0.4,0.3-0.6,0.5c-0.2,0.1-0.3,0.3-0.5,0.4c-0.2,0.1-0.3,0.3-0.5,0.4
		c-0.2,0.1-0.3,0.3-0.5,0.4c-0.2,0.1-0.4,0.3-0.6,0.4c-0.2,0.2-0.5,0.3-0.8,0.5c0.3,0,0.5,0,0.8-0.1c0.3,0,0.5-0.1,0.7-0.1
		s0.5-0.1,0.7-0.1c0.2,0,0.5-0.1,0.7-0.1C54,56,54.2,55.9,54.4,55.9z M54.1,56.2c-0.2,0.1-0.3,0.2-0.4,0.2c-0.1,0.1-0.3,0.1-0.5,0.2
		c0.2-0.1,0.4-0.1,0.5-0.1c0.2,0,0.3-0.1,0.6-0.2c0.2-0.1,0.3-0.2,0.5-0.2c0.1-0.1,0.3-0.1,0.4-0.2c-0.2,0.1-0.4,0.1-0.5,0.2
		C54.4,56.1,54.3,56.2,54.1,56.2z M49.9,56.8c-0.2,0.1-0.3,0.1-0.4,0.2c-0.1,0.1-0.3,0.1-0.5,0.2c0.2,0,0.3,0,0.5,0
		c0.2,0,0.3,0,0.5,0c0.2-0.1,0.3-0.1,0.5-0.2c0.1-0.1,0.3-0.1,0.4-0.2c-0.2,0-0.4,0-0.5,0C50.3,56.8,50.1,56.8,49.9,56.8z M52,56.7
		c-0.2,0.1-0.3,0.1-0.4,0.2c-0.1,0.1-0.3,0.1-0.5,0.2c0.2,0,0.4-0.1,0.5-0.1c0.2,0,0.3-0.1,0.5-0.1c0.2-0.1,0.3-0.2,0.5-0.2
		c0.1-0.1,0.3-0.1,0.4-0.2c-0.2,0-0.4,0.1-0.5,0.1C52.3,56.6,52.2,56.6,52,56.7z M54,53.6c0.2-0.1,0.3-0.2,0.5-0.3
		c-0.2,0-0.3,0-0.4,0c-0.1,0-0.3,0-0.5,0c-0.2,0.1-0.3,0.2-0.5,0.3c0.2,0,0.3,0,0.5,0C53.7,53.6,53.8,53.6,54,53.6z M59.5,52
		c0.1-0.1,0.2-0.1,0.2-0.2c0,0-0.1,0-0.1,0C59.6,51.9,59.5,51.9,59.5,52c-0.1-0.1-0.2,0-0.3,0c-0.1,0-0.1,0-0.2,0.1c0,0,0,0,0,0
		c-0.2,0.1-0.3,0.2-0.4,0.3c0.2-0.1,0.3-0.1,0.5-0.2C59.2,52.2,59.4,52.1,59.5,52z M55.9,53.3c0.2-0.1,0.3-0.2,0.5-0.3
		C56.2,53,56,53,55.9,53c-0.1,0-0.3,0.1-0.5,0.1c-0.2,0.1-0.3,0.2-0.5,0.3c0.2,0,0.3-0.1,0.5-0.1C55.5,53.3,55.7,53.3,55.9,53.3z
		 M61.3,52c-0.1,0.2-0.2,0.3-0.3,0.5c-0.1,0.2-0.2,0.3-0.4,0.5s-0.3,0.3-0.5,0.5c-0.2,0.2-0.4,0.4-0.7,0.6c0.2-0.1,0.5-0.2,0.7-0.4
		c0.1,0,0.1-0.1,0.2-0.1c0.1-0.1,0.1-0.2,0.2-0.2c0,0,0,0,0,0c0.1-0.1,0.1-0.2,0.2-0.2c0,0,0,0,0,0c0.4-0.5,0.7-1.1,0.9-1.7
		c0,0,0,0.1-0.1,0.1C61.5,51.6,61.4,51.8,61.3,52z M52.2,53.6c0.2-0.1,0.3-0.2,0.5-0.3c-0.2,0-0.3,0-0.4,0c-0.1,0-0.3,0-0.4,0
		c-0.2,0.1-0.3,0.2-0.5,0.3c0.2,0,0.3,0,0.4,0C51.9,53.6,52,53.6,52.2,53.6z M57.7,52.8c0.2-0.1,0.3-0.2,0.5-0.4
		c-0.2,0.1-0.3,0.1-0.5,0.2c-0.1,0-0.3,0.1-0.5,0.1c-0.2,0.1-0.3,0.2-0.5,0.4c0.2-0.1,0.3-0.1,0.5-0.1
		C57.4,52.9,57.5,52.8,57.7,52.8z M61.4,51c0.1-0.2,0.2-0.2,0.4-0.4c-0.1,0.1-0.2,0.1-0.2,0.1c0,0-0.1,0.1-0.1,0.1
		C61.4,50.9,61.3,50.9,61.4,51c-0.2,0-0.2,0.1-0.3,0.1c0,0-0.1,0-0.1,0.1c-0.1,0-0.1,0.1-0.2,0.1c0,0-0.1,0-0.1,0.1c0,0,0,0,0,0
		c0,0-0.1,0.1-0.1,0.1c0.2-0.1,0.3-0.2,0.5-0.3C61,51.2,61.2,51.1,61.4,51z M44.8,56.2c-0.1,0-0.3-0.1-0.4-0.1
		c-0.2,0.1-0.3,0.1-0.4,0.2c-0.1,0-0.3,0.1-0.4,0.2c0.2,0.1,0.3,0.1,0.4,0.1c0.1,0,0.3,0.1,0.4,0.1c0.2-0.1,0.3-0.1,0.5-0.2
		c0.1,0,0.3-0.1,0.4-0.2C45.1,56.3,45,56.2,44.8,56.2z M46.2,56.5c-0.2,0.1-0.3,0.1-0.4,0.2c-0.1,0-0.3,0.1-0.5,0.2
		c0.2,0,0.3,0.1,0.4,0.1c0.1,0,0.3,0.1,0.5,0.1c0.2-0.1,0.3-0.1,0.5-0.2c0.1-0.1,0.3-0.1,0.4-0.2c-0.2,0-0.3,0-0.5-0.1
		C46.5,56.6,46.3,56.6,46.2,56.5z M50.7,55.9c0.2-0.1,0.5-0.3,0.6-0.4c0.2-0.1,0.4-0.3,0.5-0.4s0.3-0.2,0.5-0.4
		c0.2-0.1,0.3-0.3,0.5-0.4c0.2-0.1,0.4-0.3,0.6-0.4c-0.3,0-0.6,0-0.9,0.1c-0.3,0-0.6,0-0.8,0s-0.5,0-0.7,0c-0.2,0-0.5,0-0.7-0.1
		c-0.2,0-0.5-0.1-0.7-0.1c-0.2,0-0.5-0.1-0.7-0.1c-0.2-0.1-0.5-0.1-0.8-0.2c-0.3-0.1-0.5-0.2-0.8-0.3c-0.2,0.1-0.4,0.2-0.6,0.3
		c-0.2,0.1-0.4,0.2-0.5,0.3c-0.2,0.1-0.3,0.2-0.5,0.3c-0.2,0.1-0.4,0.2-0.5,0.3c-0.2,0.1-0.4,0.2-0.6,0.3c-0.2,0.1-0.5,0.2-0.8,0.3
		c0.3,0.1,0.5,0.2,0.7,0.3c0.2,0.1,0.5,0.2,0.7,0.3c0.2,0.1,0.4,0.1,0.6,0.2s0.4,0.1,0.6,0.2c0.2,0.1,0.4,0.1,0.6,0.1
		c0.2,0,0.4,0.1,0.6,0.1c0.2,0,0.4,0.1,0.7,0.1c0.2,0,0.5,0,0.8,0.1c0.3,0,0.5,0,0.8,0C50.2,56.2,50.5,56.1,50.7,55.9z M58.6,54.6
		c-0.2,0.1-0.3,0.2-0.4,0.2C58,55,57.9,55,57.7,55.1c0.2-0.1,0.4-0.2,0.6-0.3c0.2-0.1,0.4-0.2,0.6-0.3c0.2-0.1,0.3-0.2,0.4-0.3
		c0.1-0.1,0.3-0.2,0.4-0.3c-0.2,0.1-0.4,0.2-0.6,0.3C59,54.4,58.8,54.5,58.6,54.6z M48,56.8c-0.2,0.1-0.3,0.1-0.4,0.2
		c-0.1,0.1-0.3,0.1-0.5,0.2c0.2,0,0.3,0,0.5,0c0.1,0,0.3,0,0.5,0c0.2-0.1,0.3-0.1,0.5-0.2c0.1-0.1,0.3-0.1,0.4-0.2
		c-0.2,0-0.3,0-0.5,0C48.3,56.8,48.2,56.8,48,56.8z M41.6,54.7c-0.1,0-0.2-0.1-0.2-0.1c-0.2,0.1-0.5,0.2-0.7,0.3
		c0,0,0.1,0.1,0.1,0.1c0.1,0.1,0.2,0.1,0.4,0.2c0.2-0.1,0.3-0.1,0.4-0.1c0.1,0,0.2-0.1,0.4-0.1C41.9,54.9,41.7,54.8,41.6,54.7z
		 M42.8,54.7c0.3-0.1,0.6-0.2,0.8-0.3c0.2-0.1,0.4-0.2,0.6-0.3c0.2-0.1,0.4-0.2,0.5-0.3c0.2-0.1,0.3-0.2,0.5-0.3
		c0.2-0.1,0.3-0.2,0.5-0.3c0.2-0.1,0.4-0.2,0.6-0.3c-0.3-0.1-0.6-0.2-0.8-0.3c-0.2-0.1-0.4-0.2-0.6-0.3c-1,0.8-2,1.4-3,1.9
		c0,0,0,0,0.1,0C42.4,54.4,42.6,54.5,42.8,54.7z M47,52.6c0.2-0.1,0.3-0.1,0.5-0.2c-0.2-0.1-0.3-0.1-0.4-0.2c-0.1,0-0.2-0.1-0.4-0.2
		c-0.2,0.1-0.3,0.1-0.5,0.2c0.2,0.1,0.3,0.1,0.4,0.2C46.7,52.5,46.8,52.6,47,52.6z M48.7,53.2c0.2-0.1,0.3-0.2,0.5-0.3
		c-0.2,0-0.3-0.1-0.4-0.1c-0.1,0-0.3-0.1-0.4-0.1c-0.2,0.1-0.3,0.2-0.5,0.3c0.2,0.1,0.3,0.1,0.4,0.1C48.4,53.1,48.5,53.1,48.7,53.2z
		 M43.2,55.6c-0.1-0.1-0.2-0.1-0.4-0.2c-0.2,0.1-0.3,0.1-0.4,0.1c-0.1,0-0.3,0.1-0.4,0.1c0.2,0.1,0.3,0.1,0.4,0.2
		c0.1,0.1,0.2,0.1,0.4,0.2c0.2-0.1,0.3-0.1,0.4-0.1c0.1,0,0.3-0.1,0.4-0.1C43.4,55.7,43.3,55.6,43.2,55.6z M45.8,51.7
		c-0.1,0-0.1,0.1-0.2,0.1C45.7,51.8,45.8,51.7,45.8,51.7C45.9,51.7,45.8,51.7,45.8,51.7z M50.4,53.5c0.2-0.1,0.3-0.2,0.5-0.3
		c-0.2,0-0.3,0-0.4-0.1c-0.1,0-0.3,0-0.4-0.1c-0.2,0.1-0.3,0.2-0.5,0.3c0.2,0,0.3,0.1,0.4,0.1S50.3,53.5,50.4,53.5z"/>
	
		<linearGradient id="SVGID_6_" gradientUnits="userSpaceOnUse" x1="30.1165" y1="25.1933" x2="48.3184" y2="38.724" gradientTransform="matrix(1 0 0 -1 0 81.3536)">
		<stop  offset="0" style="stop-color:#5C0614"/>
		<stop  offset="0.1853" style="stop-color:#800417"/>
		<stop  offset="0.4414" style="stop-color:#AB031B"/>
		<stop  offset="0.6718" style="stop-color:#CB011E"/>
		<stop  offset="0.8658" style="stop-color:#DE001F"/>
		<stop  offset="1" style="stop-color:#E50020"/>
	</linearGradient>
	<path class="st5" d="M43.7,57.2c7.3-4.8,7.7-17.6,2.1-22.3c5.7,14.6-16.8,21.6-23,15.5C24.8,58.9,40,59.6,43.7,57.2z"/>
	
		<linearGradient id="SVGID_7_" gradientUnits="userSpaceOnUse" x1="30.2203" y1="27.0478" x2="51.4743" y2="36.2947" gradientTransform="matrix(1 0 0 -1 0 81.3536)">
		<stop  offset="0" style="stop-color:#690211"/>
		<stop  offset="0.2128" style="stop-color:#E50020"/>
		<stop  offset="0.4396" style="stop-color:#ED4A60"/>
		<stop  offset="0.9628" style="stop-color:#FFFFFF"/>
	</linearGradient>
	<path class="st6" d="M42.7,49.7c0.1-0.1,0.2-0.2,0.3-0.3c-0.2-0.1-0.3-0.1-0.5-0.2c-0.1,0.1-0.2,0.2-0.3,0.3
		c-0.1,0.1-0.2,0.2-0.4,0.3c0.2,0.1,0.3,0.1,0.5,0.2C42.5,49.9,42.6,49.8,42.7,49.7z M45.9,52.5c-0.1,0.1-0.2,0.2-0.3,0.3
		c0.3,0.1,0.4,0.1,0.7,0.2c0.1-0.1,0.2-0.2,0.3-0.3c0.1-0.1,0.2-0.2,0.3-0.3c-0.3-0.1-0.4-0.1-0.7-0.2C46.1,52.3,46,52.4,45.9,52.5z
		 M45.3,47c0.1-0.1,0.2-0.2,0.3-0.4c-0.2,0-0.3-0.1-0.4-0.1c-0.1,0.1-0.2,0.3-0.3,0.4c-0.1,0.1-0.2,0.2-0.3,0.4
		c0.2,0,0.3,0.1,0.4,0.1C45.1,47.2,45.2,47.1,45.3,47z M46.4,45.4c0.1-0.1,0.2-0.2,0.3-0.4c-0.2,0-0.2,0-0.4-0.1
		c-0.1,0.2-0.2,0.3-0.3,0.4c-0.1,0.1-0.2,0.2-0.3,0.4c0.2,0,0.3,0.1,0.4,0.1C46.2,45.7,46.3,45.6,46.4,45.4z M47.2,51.1
		c-0.1,0.1-0.2,0.2-0.3,0.4c0.3,0.1,0.4,0.1,0.7,0.2c0.1-0.1,0.2-0.3,0.3-0.4c0.1-0.1,0.2-0.2,0.3-0.4c-0.3-0.1-0.4-0.1-0.7-0.1
		C47.3,50.9,47.3,51,47.2,51.1z M47.4,43.7c0.1-0.1,0.1-0.3,0.2-0.4c-0.2,0-0.2,0-0.4-0.1c-0.1,0.2-0.2,0.3-0.2,0.4
		c-0.1,0.1-0.1,0.3-0.2,0.4c0.2,0,0.2,0,0.4,0.1C47.2,44,47.3,43.9,47.4,43.7z M48.5,42.4c0.3,0,0.5,0,0.7,0c0.1,0,0.2,0,0.4,0
		c-0.1-0.6-0.2-1.3-0.4-1.9c0,0.1-0.1,0.2-0.1,0.3c-0.1,0.2-0.2,0.5-0.3,0.7S48.6,42.2,48.5,42.4z M48.9,40
		C48.9,40,48.9,39.9,48.9,40c0-0.2-0.1-0.4-0.1-0.5c0,0-0.1,0-0.1,0c-0.1,0.2-0.1,0.3-0.2,0.5s-0.1,0.3-0.2,0.5c0.2,0,0.2,0,0.4,0
		C48.8,40.3,48.9,40.1,48.9,40z M44,48.4c0.1-0.1,0.2-0.2,0.3-0.3c-0.2-0.1-0.3-0.1-0.4-0.1c-0.1,0.1-0.2,0.2-0.3,0.3
		c-0.1,0.1-0.2,0.2-0.3,0.3c0.2,0.1,0.3,0.1,0.5,0.1C43.9,48.6,43.9,48.5,44,48.4z M48.2,41.9c0.1-0.1,0.1-0.3,0.2-0.5
		c-0.2,0-0.2,0-0.4,0c-0.1,0.2-0.1,0.3-0.2,0.5c-0.1,0.1-0.1,0.3-0.2,0.5c0.2,0,0.2,0,0.4,0C48.1,42.2,48.2,42.1,48.2,41.9z
		 M41.9,55.4c-0.2,0.1-0.3,0.1-0.4,0.2c-0.1,0.1-0.2,0.1-0.4,0.2c0.2,0.1,0.3,0.1,0.4,0.1c0.1,0,0.3,0.1,0.4,0.1
		c0.2-0.1,0.3-0.1,0.4-0.2c0.1-0.1,0.2-0.1,0.4-0.2c-0.2-0.1-0.3-0.1-0.4-0.1C42.2,55.5,42.1,55.4,41.9,55.4z M49.6,43.5
		c-0.1,0-0.2,0-0.3,0c-0.2,0-0.4,0-0.6-0.1c-0.2,0-0.4,0-0.7-0.1c-0.1,0.3-0.3,0.5-0.4,0.8c-0.1,0.2-0.3,0.5-0.4,0.7
		c-0.1,0.2-0.3,0.4-0.4,0.6c-0.1,0.2-0.2,0.4-0.4,0.6c-0.1,0.2-0.3,0.4-0.4,0.6c-0.1,0.2-0.3,0.4-0.4,0.5c-0.1,0.2-0.3,0.4-0.4,0.6
		c-0.2,0.2-0.3,0.4-0.5,0.6c-0.2,0.2-0.4,0.4-0.6,0.6c0.2,0.1,0.4,0.1,0.6,0.2c0.2,0.1,0.4,0.1,0.6,0.2c0.2,0.1,0.4,0.1,0.5,0.2
		c0.2,0.1,0.4,0.1,0.6,0.2s0.5,0.1,0.8,0.2c0.2-0.2,0.3-0.4,0.5-0.6c0.1-0.2,0.3-0.4,0.4-0.6c0.1-0.2,0.2-0.4,0.4-0.6
		c0.1-0.2,0.2-0.4,0.3-0.6c0.1-0.2,0.2-0.4,0.3-0.6c0.1-0.2,0.2-0.4,0.3-0.6c0,0,0-0.1,0.1-0.1C49.7,45.3,49.7,44.4,49.6,43.5z
		 M23.3,51c0.2,0.1,0.3,0.2,0.5,0.3c0.1,0.1,0.3,0.2,0.5,0.3c-0.1-0.1-0.1-0.1-0.1-0.1c-0.3-0.2-0.6-0.4-0.9-0.6
		c-0.1,0-0.1-0.1-0.2-0.1C23.1,50.8,23.2,50.9,23.3,51z M41.3,50.8c0.1-0.1,0.2-0.2,0.4-0.3c-0.2-0.1-0.3-0.1-0.5-0.2
		c-0.1,0.1-0.3,0.2-0.4,0.3c-0.1,0.1-0.2,0.1-0.4,0.2c0.2,0.1,0.3,0.1,0.5,0.2C41,50.9,41.1,50.9,41.3,50.8z M24.6,53.5
		c-0.2-0.2-0.3-0.4-0.5-0.5c-0.1-0.2-0.3-0.3-0.4-0.5c-0.1-0.2-0.2-0.3-0.3-0.5c-0.1-0.2-0.2-0.3-0.3-0.5c0,0,0-0.1-0.1-0.1
		c0.3,0.8,0.8,1.6,1.3,2.3c0.1,0,0.1,0.1,0.2,0.1c0.2,0.1,0.5,0.2,0.7,0.4C25,53.8,24.8,53.6,24.6,53.5z M38.1,52.5
		c0.1,0,0.2-0.1,0.4-0.2c-0.2-0.1-0.3-0.1-0.5-0.2c-0.2,0.1-0.3,0.1-0.4,0.2c-0.1,0-0.2,0.1-0.4,0.2c0.2,0.1,0.3,0.1,0.5,0.2
		C37.9,52.6,38,52.5,38.1,52.5z M40.3,56.1c-0.2,0.1-0.3,0.1-0.4,0.1c-0.1,0-0.3,0.1-0.4,0.1c0.2,0.1,0.3,0.1,0.4,0.2
		c0.1,0,0.3,0.1,0.4,0.2c0.2-0.1,0.3-0.1,0.4-0.1c0.1,0,0.3-0.1,0.4-0.1c-0.2-0.1-0.3-0.1-0.4-0.2C40.6,56.2,40.5,56.1,40.3,56.1z
		 M39.7,51.7c0.1-0.1,0.2-0.1,0.4-0.2c-0.2-0.1-0.3-0.1-0.5-0.2c-0.2,0.1-0.3,0.2-0.4,0.2c-0.1,0.1-0.2,0.1-0.4,0.2
		c0.2,0.1,0.3,0.1,0.5,0.2C39.5,51.8,39.6,51.8,39.7,51.7z M40.4,51.9c-0.2,0.1-0.4,0.2-0.6,0.4c-0.2,0.1-0.5,0.2-0.7,0.3
		c-0.3,0.1-0.5,0.2-0.8,0.3c0.2,0.1,0.4,0.2,0.6,0.3c0.2,0.1,0.4,0.2,0.5,0.3c0.2,0.1,0.3,0.2,0.5,0.3c0.2,0.1,0.3,0.2,0.5,0.3
		c0.2,0.1,0.4,0.2,0.6,0.3c0.2,0.1,0.5,0.2,0.8,0.3c0.2-0.1,0.5-0.3,0.7-0.4c0.2-0.1,0.4-0.3,0.6-0.4c0.2-0.1,0.4-0.3,0.5-0.4
		c0.2-0.1,0.3-0.3,0.5-0.4c0.2-0.1,0.3-0.3,0.5-0.4c0.2-0.1,0.3-0.3,0.5-0.4c0.2-0.2,0.3-0.3,0.5-0.5c0.2-0.2,0.3-0.4,0.5-0.5
		c0.2-0.2,0.4-0.4,0.5-0.6c-0.3-0.1-0.6-0.2-0.8-0.2c-0.2-0.1-0.4-0.1-0.6-0.2c-0.2-0.1-0.4-0.1-0.6-0.2c-0.2-0.1-0.4-0.1-0.6-0.2
		c-0.2-0.1-0.4-0.1-0.7-0.2c-0.2,0.2-0.5,0.4-0.7,0.6c-0.2,0.2-0.4,0.4-0.6,0.5s-0.4,0.3-0.6,0.4c-0.2,0.1-0.4,0.3-0.6,0.4
		C40.9,51.6,40.7,51.7,40.4,51.9z M26.1,54.6c-0.2-0.1-0.4-0.2-0.6-0.3c-0.2-0.1-0.4-0.2-0.6-0.3c0.2,0.1,0.3,0.2,0.4,0.3
		c0.1,0.1,0.3,0.2,0.4,0.3c0.2,0.1,0.4,0.2,0.6,0.3c0.2,0.1,0.4,0.2,0.6,0.3c-0.2-0.1-0.3-0.2-0.5-0.2
		C26.4,54.8,26.3,54.7,26.1,54.6z M36.7,56.8c-0.2,0-0.3,0-0.5,0c-0.1,0-0.3,0-0.5,0c0.2,0.1,0.3,0.1,0.4,0.2
		c0.1,0.1,0.3,0.1,0.5,0.2c0.2,0,0.3,0,0.5,0c0.1,0,0.3,0,0.5,0c-0.2-0.1-0.3-0.1-0.5-0.2C37,56.9,36.9,56.9,36.7,56.8z M37.2,56.2
		c0.2,0,0.4-0.1,0.6-0.1c0.2,0,0.4-0.1,0.6-0.1c0.2,0,0.4-0.1,0.6-0.2c0.2-0.1,0.4-0.1,0.6-0.2c0.2-0.1,0.4-0.2,0.7-0.3
		c0.2-0.1,0.5-0.2,0.7-0.3c-0.3-0.1-0.6-0.2-0.8-0.3c-0.2-0.1-0.4-0.2-0.6-0.3c-0.2-0.1-0.4-0.2-0.5-0.3c-0.2-0.1-0.3-0.2-0.5-0.3
		c-0.2-0.1-0.3-0.2-0.5-0.3c-0.2-0.1-0.4-0.2-0.6-0.3c-0.3,0.1-0.6,0.2-0.8,0.3c-0.3,0.1-0.5,0.1-0.8,0.2c-0.2,0.1-0.5,0.1-0.7,0.1
		c-0.2,0-0.5,0.1-0.7,0.1c-0.2,0-0.5,0.1-0.7,0.1c-0.2,0-0.5,0-0.7,0c-0.3,0-0.5,0-0.8,0c-0.3,0-0.6,0-0.9-0.1
		c0.2,0.2,0.4,0.3,0.6,0.4c0.2,0.1,0.3,0.3,0.5,0.4c0.2,0.1,0.3,0.2,0.5,0.4c0.2,0.1,0.3,0.2,0.5,0.4c0.2,0.1,0.4,0.3,0.6,0.4
		c0.2,0.1,0.5,0.3,0.8,0.5c0.3,0,0.6,0,0.8,0c0.3,0,0.5,0,0.8-0.1C36.7,56.3,36.9,56.3,37.2,56.2z M25.6,52.2
		c0.1,0.1,0.3,0.1,0.5,0.2c-0.2-0.1-0.3-0.2-0.4-0.3c-0.2-0.1-0.5-0.2-0.7-0.3c0.1,0.1,0.1,0.1,0.2,0.2
		C25.4,52.1,25.5,52.2,25.6,52.2z M38.6,56.5c-0.2,0-0.3,0.1-0.4,0.1c-0.1,0-0.3,0-0.5,0.1c0.2,0.1,0.3,0.1,0.4,0.2
		c0.1,0.1,0.3,0.1,0.5,0.2c0.2,0,0.3-0.1,0.5-0.1c0.1,0,0.3-0.1,0.4-0.1c-0.2-0.1-0.3-0.1-0.5-0.2C38.9,56.7,38.7,56.6,38.6,56.5z
		 M29.3,53.4c0.1,0,0.3,0,0.5,0.1c-0.2-0.1-0.3-0.2-0.5-0.3c-0.2,0-0.3-0.1-0.5-0.1c-0.1,0-0.3-0.1-0.5-0.1c0.2,0.1,0.3,0.2,0.5,0.3
		C29,53.3,29.2,53.3,29.3,53.4z M49.1,48.3c0.1,0,0.1,0,0.2,0c0-0.2,0.1-0.4,0.1-0.6c0,0,0,0.1-0.1,0.1C49.3,48,49.2,48.2,49.1,48.3
		z M43.5,54.5c-0.1,0.1-0.3,0.2-0.4,0.2s-0.2,0.1-0.4,0.2c0.2,0.1,0.3,0.1,0.4,0.1c0.1,0,0.2,0.1,0.4,0.1c0.2-0.1,0.3-0.2,0.4-0.2
		c0.1-0.1,0.2-0.1,0.4-0.2c-0.2,0-0.3-0.1-0.4-0.1C43.7,54.6,43.6,54.5,43.5,54.5z M36.5,53.1c0.1,0,0.3-0.1,0.4-0.1
		c-0.2-0.1-0.3-0.2-0.5-0.3c-0.2,0.1-0.3,0.1-0.4,0.1c-0.1,0-0.3,0.1-0.4,0.1c0.2,0.1,0.3,0.2,0.5,0.3
		C36.2,53.1,36.3,53.1,36.5,53.1z M44.6,53.7c-0.1,0.1-0.2,0.2-0.4,0.3c0.1,0,0.3,0.1,0.4,0.1c0.1,0,0.2,0.1,0.4,0.1
		c0.1-0.1,0.2-0.2,0.3-0.3c0.1-0.1,0.2-0.2,0.3-0.3c-0.3-0.1-0.5-0.1-0.8-0.2C44.8,53.6,44.7,53.6,44.6,53.7z M48.3,49.6
		c-0.1,0.1-0.2,0.2-0.3,0.4c0.2,0.1,0.4,0.1,0.6,0.1c0.1-0.2,0.2-0.3,0.3-0.4c0,0,0,0,0-0.1c0-0.1,0.1-0.2,0.1-0.4
		c-0.2,0-0.3-0.1-0.5-0.1C48.5,49.4,48.4,49.5,48.3,49.6z M33,53.6c0.1,0,0.3,0,0.4,0c-0.2-0.1-0.3-0.2-0.5-0.3c-0.2,0-0.3,0-0.4,0
		c-0.1,0-0.3,0-0.4,0c0.2,0.1,0.3,0.2,0.5,0.3C32.7,53.6,32.8,53.6,33,53.6z M33.1,56.3c0.3,0,0.5,0,0.8,0.1
		c-0.3-0.2-0.6-0.3-0.8-0.5c-0.2-0.2-0.5-0.3-0.6-0.4s-0.4-0.3-0.5-0.4c-0.2-0.1-0.3-0.3-0.5-0.4c-0.2-0.1-0.3-0.3-0.5-0.4
		c-0.2-0.1-0.4-0.3-0.6-0.5c-0.3,0-0.6-0.1-0.8-0.1s-0.5-0.1-0.8-0.2c-0.2-0.1-0.5-0.1-0.7-0.2c-0.2-0.1-0.5-0.1-0.7-0.2
		c-0.2-0.1-0.4-0.2-0.7-0.2c-0.2-0.1-0.4-0.2-0.7-0.3c-0.2-0.1-0.5-0.2-0.7-0.3c-0.2-0.1-0.5-0.2-0.8-0.4c-0.3-0.1-0.5-0.3-0.8-0.5
		c0.1,0.2,0.3,0.4,0.4,0.5c0.1,0.2,0.2,0.3,0.3,0.5c0.1,0.2,0.2,0.3,0.3,0.5c0.1,0.2,0.3,0.3,0.4,0.5c0.1,0.2,0.3,0.3,0.5,0.5
		c0.2,0.2,0.4,0.4,0.7,0.6c0.3,0.1,0.6,0.3,0.9,0.4c0.3,0.1,0.6,0.2,0.8,0.3c0.3,0.1,0.5,0.2,0.7,0.2c0.2,0.1,0.5,0.1,0.7,0.2
		c0.2,0.1,0.5,0.1,0.7,0.2c0.2,0.1,0.4,0.1,0.7,0.2c0.2,0,0.5,0.1,0.7,0.1c0.2,0,0.5,0.1,0.7,0.1S32.8,56.3,33.1,56.3z M34.7,53.4
		c0.1,0,0.3,0,0.4-0.1c-0.2-0.1-0.3-0.2-0.5-0.3c-0.2,0-0.3,0.1-0.4,0.1c-0.1,0-0.3,0-0.4,0.1c0.2,0.1,0.3,0.2,0.5,0.3
		C34.5,53.5,34.6,53.5,34.7,53.4z M34.8,56.8c-0.2,0-0.3,0-0.5,0c-0.2,0-0.3,0-0.5,0c0.2,0.1,0.3,0.1,0.4,0.2
		c0.1,0.1,0.3,0.1,0.5,0.2c0.2,0,0.4,0,0.5,0c0.1,0,0.3,0,0.5,0c-0.2-0.1-0.3-0.1-0.5-0.2C35.1,57,35,56.9,34.8,56.8z M31.2,53.6
		c0.1,0,0.3,0,0.5,0c-0.2-0.1-0.3-0.2-0.5-0.3c-0.2,0-0.3,0-0.5,0c-0.1,0-0.3,0-0.5,0c0.2,0.1,0.3,0.2,0.5,0.3
		C30.9,53.6,31,53.6,31.2,53.6z M32.8,56.7c-0.2,0-0.4-0.1-0.5-0.1s-0.3-0.1-0.5-0.1c0.2,0.1,0.3,0.2,0.4,0.2s0.3,0.1,0.5,0.2
		c0.2,0,0.4,0.1,0.5,0.1c0.2,0,0.3,0.1,0.5,0.1c-0.2-0.1-0.3-0.1-0.5-0.2C33.1,56.8,32.9,56.7,32.8,56.7z M28.4,55.6
		c-0.2-0.1-0.4-0.1-0.6-0.2c-0.2-0.1-0.3-0.1-0.6-0.2c0.2,0.1,0.3,0.2,0.4,0.2c0.1,0.1,0.3,0.1,0.5,0.2c0.2,0.1,0.4,0.2,0.6,0.2
		c0.2,0.1,0.3,0.1,0.6,0.2c-0.2-0.1-0.3-0.2-0.5-0.2C28.7,55.7,28.6,55.7,28.4,55.6z M27.5,52.9c0.1,0,0.3,0.1,0.5,0.1
		c-0.2-0.1-0.3-0.2-0.5-0.4c-0.2-0.1-0.3-0.1-0.5-0.1c-0.1,0-0.3-0.1-0.5-0.2c0.2,0.1,0.3,0.2,0.5,0.4
		C27.2,52.8,27.3,52.9,27.5,52.9z M30.6,56.2c-0.2-0.1-0.4-0.1-0.5-0.1c-0.2,0-0.3-0.1-0.5-0.2c0.2,0.1,0.3,0.2,0.4,0.2
		c0.1,0.1,0.3,0.1,0.5,0.2c0.2,0.1,0.4,0.1,0.6,0.2c0.2,0,0.3,0.1,0.5,0.1c-0.2-0.1-0.3-0.2-0.5-0.2C30.9,56.4,30.8,56.3,30.6,56.2z
		"/>
	
		<linearGradient id="SVGID_8_" gradientUnits="userSpaceOnUse" x1="45.1656" y1="28.6252" x2="20.1948" y2="42.5127" gradientTransform="matrix(1 0 0 -1 0 81.3536)">
		<stop  offset="0" style="stop-color:#690211"/>
		<stop  offset="0.2128" style="stop-color:#E50020"/>
		<stop  offset="0.2601" style="stop-color:#EA3549"/>
		<stop  offset="0.3157" style="stop-color:#EF6D74"/>
		<stop  offset="0.3673" style="stop-color:#F49996"/>
		<stop  offset="0.4133" style="stop-color:#F7B9AF"/>
		<stop  offset="0.452" style="stop-color:#F8CCBE"/>
		<stop  offset="0.4787" style="stop-color:#F9D3C3"/>
		<stop  offset="0.5433" style="stop-color:#F0B2A9"/>
		<stop  offset="0.6926" style="stop-color:#DD6C70"/>
		<stop  offset="0.8173" style="stop-color:#CF3946"/>
		<stop  offset="0.9109" style="stop-color:#C6192D"/>
		<stop  offset="0.9628" style="stop-color:#C30D23"/>
	</linearGradient>
	<path class="st7" d="M19.2,18.9c-7.5,8-4.5,22.2,1.1,29c5.1,6.2,17.3,12.6,23.5,9.3C33.4,63,21,61.6,14,53.3c-0.7-0.9-1.2-3-1.3-4
		c-2.5-4.2-2.5-8.6-2.1-15.4l5.4-12.6L19.2,18.9z"/>
	
		<linearGradient id="SVGID_9_" gradientUnits="userSpaceOnUse" x1="37.4272" y1="27.2841" x2="65.4715" y2="43.0424" gradientTransform="matrix(1 0 0 -1 0 81.3536)">
		<stop  offset="0" style="stop-color:#690211"/>
		<stop  offset="0.2128" style="stop-color:#E50020"/>
		<stop  offset="0.2601" style="stop-color:#EA3549"/>
		<stop  offset="0.3157" style="stop-color:#EF6D74"/>
		<stop  offset="0.3673" style="stop-color:#F49996"/>
		<stop  offset="0.4133" style="stop-color:#F7B9AF"/>
		<stop  offset="0.452" style="stop-color:#F8CCBE"/>
		<stop  offset="0.4787" style="stop-color:#F9D3C3"/>
		<stop  offset="0.5433" style="stop-color:#F0B2A9"/>
		<stop  offset="0.6926" style="stop-color:#DD6C70"/>
		<stop  offset="0.8173" style="stop-color:#CF3946"/>
		<stop  offset="0.9109" style="stop-color:#C6192D"/>
		<stop  offset="0.9628" style="stop-color:#C30D23"/>
	</linearGradient>
	<path class="st8" d="M65.5,18.9c7.5,8,4.5,22.2-1.1,29C59.4,54,47.1,60.5,41,57.2c10.4,5.9,22.7,4.4,29.7-3.9
		c0.7-0.9,1.2-3.3,1.3-4.3c2.5-4.2,2.5-8.3,2.1-15.1l-5.4-12.6L65.5,18.9z"/>
	
		<linearGradient id="SVGID_10_" gradientUnits="userSpaceOnUse" x1="47.1526" y1="24.4756" x2="41.2414" y2="67.5211" gradientTransform="matrix(1 0 0 -1 0 81.3536)">
		<stop  offset="0" style="stop-color:#690211"/>
		<stop  offset="0.2128" style="stop-color:#E50020"/>
		<stop  offset="0.4396" style="stop-color:#ED4A60"/>
		<stop  offset="0.9628" style="stop-color:#FFFFFF"/>
	</linearGradient>
	<path class="st9" d="M43.7,57.2c12.7-8.2,17.4-31-1.4-44.7l-11.1,7.9C48.2,27,51.5,52.1,43.7,57.2z"/>
	
		<linearGradient id="SVGID_11_" gradientUnits="userSpaceOnUse" x1="53.4643" y1="25.3451" x2="39.7848" y2="68.6634" gradientTransform="matrix(1 0 0 -1 0 81.3536)">
		<stop  offset="0" style="stop-color:#5C0614"/>
		<stop  offset="0.1853" style="stop-color:#800417"/>
		<stop  offset="0.4414" style="stop-color:#AB031B"/>
		<stop  offset="0.6718" style="stop-color:#CB011E"/>
		<stop  offset="0.8658" style="stop-color:#DE001F"/>
		<stop  offset="1" style="stop-color:#E50020"/>
	</linearGradient>
	<path class="st10" d="M52.8,29.8c0,0.1,0.1,0.3,0.1,0.5c0.2-0.2,0.3-0.2,0.5-0.4c0-0.2-0.1-0.3-0.1-0.5c0-0.1-0.1-0.3-0.1-0.5
		c-0.2,0.1-0.3,0.2-0.5,0.4C52.7,29.6,52.8,29.7,52.8,29.8z M52.2,28c0.1,0.1,0.1,0.3,0.2,0.5c0.2-0.2,0.3-0.2,0.5-0.4
		c-0.1-0.2-0.1-0.3-0.2-0.5c-0.1-0.1-0.1-0.3-0.2-0.5c-0.2,0.1-0.3,0.2-0.5,0.4C52.1,27.7,52.1,27.8,52.2,28z M53.7,33.6
		c0,0.1,0,0.3,0.1,0.5c0.2-0.2,0.3-0.2,0.5-0.4c0-0.2,0-0.3-0.1-0.5c0-0.1,0-0.3-0.1-0.5c-0.2,0.2-0.3,0.2-0.5,0.4
		C53.6,33.4,53.6,33.5,53.7,33.6z M53.9,35.6c0,0.1,0,0.3,0,0.5c0.2-0.2,0.3-0.2,0.4-0.4c0-0.2,0-0.3,0-0.5c0-0.1,0-0.3,0-0.5
		c-0.2,0.1-0.3,0.2-0.5,0.4C53.8,35.3,53.9,35.4,53.9,35.6z M51.4,26.1c0.1,0.1,0.1,0.3,0.2,0.5c0.2-0.2,0.3-0.2,0.5-0.4
		C52,26,52,25.9,51.9,25.7c-0.1-0.1-0.1-0.3-0.2-0.5c-0.2,0.1-0.3,0.2-0.5,0.4C51.3,25.8,51.3,26,51.4,26.1z M53.3,31.7
		c0,0.1,0.1,0.3,0.1,0.5c0.2-0.2,0.3-0.2,0.5-0.4c0-0.2-0.1-0.3-0.1-0.5c0-0.1-0.1-0.3-0.1-0.5c-0.2,0.2-0.3,0.2-0.5,0.4
		C53.3,31.5,53.3,31.6,53.3,31.7z M46.9,32.2c-0.1-0.1-0.1-0.3-0.2-0.5c-0.1,0.1-0.2,0.2-0.3,0.3c-0.1,0.1-0.2,0.2-0.3,0.3
		c0.1,0.2,0.2,0.3,0.2,0.5c0.1,0.1,0.1,0.3,0.2,0.5c0.1-0.1,0.2-0.2,0.3-0.3c0.1-0.1,0.2-0.2,0.3-0.3C47.1,32.5,47,32.3,46.9,32.2z
		 M47.5,33.6c-0.1,0.1-0.2,0.2-0.3,0.3c-0.1,0.1-0.2,0.2-0.3,0.3c0.1,0.2,0.1,0.3,0.2,0.5c0.1,0.1,0.1,0.3,0.2,0.5
		c0.1-0.1,0.2-0.2,0.3-0.3c0.1-0.1,0.2-0.2,0.3-0.3c-0.1-0.2-0.1-0.3-0.2-0.5C47.6,33.9,47.6,33.8,47.5,33.6z M45,28.5
		c-0.1-0.1-0.2-0.3-0.3-0.4c-0.1,0.1-0.2,0.2-0.4,0.3c-0.1,0.1-0.2,0.2-0.4,0.3c0.1,0.2,0.2,0.3,0.3,0.4c0.1,0.1,0.2,0.3,0.3,0.4
		c0.1-0.1,0.2-0.2,0.4-0.3c0.1-0.1,0.2-0.2,0.3-0.3C45.1,28.8,45,28.7,45,28.5z M50.7,24.7c0.2-0.2,0.3-0.2,0.5-0.4
		c-0.1-0.2-0.2-0.3-0.3-0.5c-0.1-0.1-0.2-0.3-0.3-0.5c-0.2,0.1-0.3,0.2-0.5,0.4c0.1,0.2,0.2,0.3,0.3,0.5
		C50.5,24.4,50.6,24.6,50.7,24.7z M46,30.4c-0.1-0.1-0.1-0.3-0.3-0.5c-0.1,0.1-0.2,0.2-0.3,0.3c-0.1,0.1-0.2,0.2-0.3,0.3
		c0.1,0.2,0.2,0.3,0.3,0.5c0.1,0.1,0.1,0.3,0.2,0.5c0.1-0.1,0.2-0.2,0.3-0.3s0.2-0.2,0.3-0.3C46.2,30.6,46.1,30.5,46,30.4z M47,54
		c0,0.1-0.1,0.2-0.2,0.4c0.2-0.1,0.3-0.2,0.4-0.3c0.1-0.2,0.1-0.3,0.2-0.4s0.1-0.2,0.2-0.4c-0.2,0.1-0.3,0.2-0.4,0.3
		C47.1,53.8,47,53.9,47,54z M48,52.1c0-0.1,0.1-0.2,0.1-0.4c-0.2,0.1-0.3,0.2-0.5,0.4c0,0.2-0.1,0.3-0.1,0.4c0,0.1-0.1,0.2-0.1,0.4
		c0.2-0.1,0.3-0.2,0.5-0.4C47.9,52.3,48,52.2,48,52.1z M49.6,22.9c0.2-0.2,0.3-0.2,0.5-0.4c-0.1-0.2-0.2-0.3-0.3-0.4
		c-0.1-0.1-0.2-0.3-0.3-0.4c-0.2,0.1-0.3,0.2-0.5,0.4c0.1,0.2,0.2,0.3,0.3,0.4C49.4,22.6,49.5,22.7,49.6,22.9z M48.7,52.4
		c-0.2,0.2-0.4,0.3-0.6,0.5c-0.1,0.3-0.2,0.6-0.3,0.8c0,0.1-0.1,0.2-0.1,0.3c0.7-0.7,1.3-1.5,1.9-2.3c-0.1,0.1-0.2,0.2-0.4,0.3
		C49.1,52.1,48.9,52.2,48.7,52.4z M49.9,44.3c0,0.3,0,0.5-0.1,0.8c0.2-0.2,0.4-0.4,0.6-0.6c0.2-0.2,0.4-0.3,0.5-0.5
		c0.2-0.1,0.3-0.3,0.5-0.4c0.2-0.1,0.3-0.3,0.5-0.4s0.3-0.3,0.5-0.4c0.2-0.2,0.4-0.3,0.6-0.5c0-0.3,0.1-0.6,0.1-0.8
		c0-0.3,0.1-0.5,0.1-0.8c0-0.2,0-0.5,0.1-0.7c0-0.2,0-0.5,0-0.7c0-0.2,0-0.4,0-0.7c0-0.2,0-0.5,0-0.7c0-0.2,0-0.5,0-0.7
		c0-0.2,0-0.5,0-0.8c0-0.3,0-0.6-0.1-0.9c-0.2,0.2-0.4,0.4-0.6,0.5c-0.2,0.2-0.4,0.3-0.6,0.5c-0.2,0.2-0.4,0.3-0.5,0.5
		c-0.2,0.2-0.4,0.3-0.6,0.5c-0.2,0.2-0.4,0.3-0.6,0.5c-0.2,0.2-0.5,0.4-0.7,0.6c0,0.3,0.1,0.6,0.1,0.8c0,0.3,0.1,0.5,0.1,0.8
		c0,0.2,0,0.5,0.1,0.7c0,0.2,0,0.4,0,0.7c0,0.2,0,0.4,0,0.7c0,0.2,0,0.4,0,0.7c0,0.2,0,0.5,0,0.7C50,43.8,49.9,44,49.9,44.3z
		 M41.7,14.5c0.2-0.2,0.3-0.2,0.5-0.4c-0.2-0.2-0.4-0.3-0.5-0.4s-0.3-0.2-0.5-0.4l0,0l-0.5,0.4c0.2,0.2,0.4,0.3,0.5,0.4
		C41.3,14.2,41.5,14.3,41.7,14.5z M48.2,35.4c-0.1,0.1-0.2,0.2-0.3,0.3c-0.1,0.1-0.2,0.2-0.3,0.3c0.1,0.2,0.1,0.3,0.1,0.5
		c0,0.1,0.1,0.3,0.1,0.5c0.1-0.1,0.2-0.2,0.3-0.3c0.1-0.1,0.2-0.2,0.3-0.3c-0.1-0.2-0.1-0.3-0.1-0.5C48.3,35.8,48.2,35.6,48.2,35.4z
		 M46.5,21.2c-0.2,0.1-0.4,0.3-0.6,0.4c-0.2,0.1-0.4,0.3-0.6,0.4c-0.2,0.1-0.4,0.3-0.6,0.4c-0.2,0.1-0.4,0.3-0.6,0.4
		c-0.2,0.2-0.4,0.3-0.7,0.5c-0.2,0.2-0.5,0.4-0.8,0.6c0.2,0.2,0.4,0.5,0.6,0.7c0.2,0.2,0.4,0.4,0.5,0.6s0.3,0.4,0.5,0.6
		c0.1,0.2,0.3,0.4,0.4,0.6s0.3,0.4,0.4,0.6c0.1,0.2,0.3,0.4,0.4,0.6c0.1,0.2,0.2,0.4,0.4,0.6c0.1,0.2,0.2,0.4,0.4,0.6
		c0.1,0.2,0.3,0.4,0.4,0.7c0.1,0.2,0.3,0.5,0.4,0.7c0.3-0.2,0.5-0.4,0.7-0.6c0.2-0.2,0.4-0.3,0.6-0.5c0.2-0.2,0.4-0.3,0.5-0.4
		c0.2-0.1,0.3-0.3,0.5-0.4c0.2-0.1,0.3-0.3,0.5-0.4c0.2-0.1,0.4-0.3,0.5-0.4c0.2-0.1,0.4-0.3,0.6-0.5c-0.1-0.3-0.2-0.5-0.3-0.7
		c-0.1-0.2-0.2-0.5-0.3-0.7c-0.1-0.2-0.2-0.4-0.3-0.6c-0.1-0.2-0.2-0.4-0.3-0.6c-0.1-0.2-0.2-0.4-0.3-0.6s-0.2-0.4-0.4-0.6
		c-0.1-0.2-0.3-0.4-0.4-0.6c-0.1-0.2-0.3-0.4-0.4-0.6c-0.2-0.2-0.3-0.4-0.5-0.6c-0.2-0.2-0.4-0.5-0.6-0.7
		C46.9,20.9,46.7,21,46.5,21.2z M48.4,21.1c0.2-0.2,0.3-0.2,0.5-0.4c-0.1-0.2-0.2-0.3-0.3-0.4c-0.1-0.1-0.2-0.3-0.3-0.4
		c-0.2,0.1-0.3,0.2-0.5,0.4c0.1,0.2,0.2,0.3,0.3,0.4C48.2,20.8,48.3,21,48.4,21.1z M42.3,25c-0.1-0.1-0.2-0.3-0.4-0.4
		c-0.1,0.1-0.3,0.2-0.4,0.3c-0.1,0.1-0.2,0.2-0.4,0.3c0.2,0.2,0.3,0.3,0.4,0.4c0.1,0.1,0.2,0.3,0.4,0.4c0.1-0.1,0.3-0.2,0.4-0.3
		c0.1-0.1,0.2-0.2,0.4-0.3C42.5,25.3,42.4,25.2,42.3,25z M43.7,26.8c-0.1-0.1-0.2-0.3-0.3-0.4c-0.1,0.1-0.3,0.2-0.4,0.3
		c-0.1,0.1-0.2,0.2-0.4,0.3c0.1,0.2,0.2,0.3,0.3,0.4c0.1,0.1,0.2,0.3,0.3,0.4c0.1-0.1,0.3-0.2,0.4-0.3c0.1-0.1,0.2-0.2,0.4-0.3
		C43.9,27,43.8,26.9,43.7,26.8z M36.6,18.5c0.2,0.2,0.4,0.3,0.6,0.5c0.2,0.1,0.4,0.3,0.6,0.4c0.2,0.1,0.4,0.3,0.5,0.4
		c0.2,0.1,0.3,0.3,0.5,0.4c0.2,0.1,0.3,0.3,0.5,0.4c0.2,0.1,0.3,0.3,0.5,0.4c0.2,0.1,0.3,0.3,0.5,0.5c0.2,0.2,0.3,0.3,0.5,0.5
		c0.2,0.2,0.3,0.3,0.5,0.5c0.2,0.2,0.4,0.4,0.5,0.6c0.3-0.2,0.5-0.4,0.8-0.6c0.2-0.2,0.5-0.3,0.7-0.5c0.2-0.2,0.4-0.3,0.6-0.4
		c0.2-0.1,0.4-0.3,0.6-0.4c0.2-0.1,0.4-0.3,0.6-0.4c0.2-0.1,0.4-0.3,0.6-0.4c0.2-0.1,0.4-0.3,0.6-0.5c-0.2-0.2-0.4-0.4-0.6-0.6
		c-0.2-0.2-0.4-0.4-0.5-0.6c-0.2-0.2-0.4-0.4-0.5-0.5c-0.2-0.2-0.3-0.3-0.5-0.5s-0.3-0.3-0.5-0.5c-0.2-0.2-0.3-0.3-0.5-0.5
		c-0.2-0.2-0.4-0.3-0.5-0.5c-0.2-0.2-0.4-0.3-0.6-0.5c-0.2-0.2-0.4-0.3-0.6-0.5c-0.2-0.2-0.5-0.3-0.7-0.5c-0.2-0.2-0.5-0.4-0.8-0.6
		l-4.8,3.4c0.3,0.2,0.5,0.3,0.7,0.5C36.2,18.2,36.4,18.3,36.6,18.5z M45.4,17.7c0.2-0.1,0.3-0.2,0.5-0.4c-0.2-0.2-0.3-0.3-0.4-0.4
		c-0.1-0.1-0.3-0.2-0.4-0.4c-0.2,0.1-0.3,0.2-0.5,0.4c0.2,0.2,0.3,0.3,0.4,0.4C45.1,17.4,45.2,17.5,45.4,17.7z M43.6,16.1
		c0.2-0.2,0.3-0.2,0.5-0.4c-0.2-0.2-0.3-0.3-0.5-0.4c-0.1-0.1-0.3-0.2-0.5-0.4c-0.2,0.1-0.3,0.2-0.5,0.4c0.2,0.2,0.3,0.3,0.5,0.4
		C43.3,15.8,43.5,15.9,43.6,16.1z M54.4,36.6c-0.2,0.2-0.3,0.2-0.4,0.4c0,0.2,0,0.3,0,0.5c0,0.1,0,0.3,0,0.5
		c0.2-0.2,0.3-0.2,0.4-0.4c0-0.2,0-0.3,0-0.5C54.4,37,54.4,36.8,54.4,36.6z M47,19.4c0.2-0.1,0.3-0.2,0.5-0.4
		c-0.2-0.2-0.3-0.3-0.4-0.4c-0.1-0.1-0.2-0.3-0.4-0.4c-0.2,0.1-0.3,0.2-0.5,0.4c0.2,0.2,0.3,0.3,0.4,0.4S46.8,19.2,47,19.4z
		 M40.3,22.9c-0.2,0.1-0.3,0.2-0.4,0.3c-0.1,0.1-0.2,0.2-0.4,0.3c0.2,0.2,0.3,0.3,0.4,0.4c0.1,0.1,0.3,0.3,0.4,0.4
		c0.2-0.1,0.3-0.2,0.4-0.3c0.1-0.1,0.2-0.2,0.4-0.3c-0.2-0.2-0.3-0.3-0.4-0.4C40.6,23.2,40.5,23.1,40.3,22.9z M38.5,21.3
		c-0.2,0.1-0.3,0.2-0.4,0.3c-0.1,0.1-0.2,0.2-0.4,0.3c0.2,0.2,0.3,0.3,0.5,0.4c0.1,0.1,0.3,0.2,0.5,0.4c0.2-0.1,0.3-0.2,0.4-0.3
		c0.1-0.1,0.2-0.2,0.4-0.3c-0.2-0.2-0.3-0.3-0.5-0.4C38.8,21.6,38.7,21.4,38.5,21.3z M36.5,19.7c-0.2,0.1-0.3,0.2-0.4,0.3
		c-0.1,0.1-0.2,0.2-0.4,0.3c0.2,0.2,0.4,0.3,0.5,0.4c0.2,0.1,0.3,0.2,0.5,0.4c0.2-0.1,0.3-0.2,0.4-0.3c0.1-0.1,0.2-0.2,0.4-0.3
		c-0.2-0.2-0.4-0.3-0.5-0.4C36.9,20,36.7,19.8,36.5,19.7z M53,45.1c0,0.1-0.1,0.3-0.1,0.5c0.1,0,0.1-0.1,0.1-0.1
		c0.1-0.4,0.3-0.7,0.4-1.1c-0.1,0.1-0.2,0.2-0.3,0.3C53,44.9,53,45,53,45.1z M52.4,43.7c-0.2,0.2-0.3,0.3-0.5,0.4
		c-0.2,0.1-0.3,0.3-0.5,0.4c-0.2,0.1-0.3,0.3-0.5,0.4c-0.2,0.1-0.3,0.3-0.5,0.5c-0.2,0.2-0.4,0.3-0.6,0.5c0,0.3-0.1,0.6-0.1,0.9
		c0,0.3-0.1,0.5-0.1,0.8s-0.1,0.5-0.1,0.7c0,0.2-0.1,0.5-0.2,0.7c-0.1,0.2-0.1,0.5-0.2,0.7c-0.1,0.2-0.1,0.5-0.2,0.7
		c-0.1,0.2-0.1,0.5-0.2,0.8c-0.1,0.3-0.2,0.5-0.3,0.8c0.2-0.2,0.4-0.4,0.6-0.5c0.2-0.2,0.4-0.3,0.5-0.5c0.2-0.1,0.3-0.3,0.5-0.4
		c0.2-0.1,0.3-0.3,0.5-0.4c0.4-0.6,0.8-1.2,1.1-1.9c0-0.1,0-0.1,0.1-0.2c0.1-0.2,0.1-0.5,0.2-0.7c0.1-0.2,0.1-0.4,0.2-0.7
		c0.1-0.2,0.1-0.4,0.2-0.7c0.1-0.2,0.1-0.4,0.2-0.7c0.1-0.2,0.1-0.5,0.2-0.7c0.1-0.2,0.1-0.5,0.2-0.8c0.1-0.3,0.1-0.5,0.2-0.8
		C52.8,43.4,52.6,43.5,52.4,43.7z M49,39.2c-0.2,0.2-0.4,0.3-0.6,0.5c0,0.2,0.1,0.3,0.1,0.5c0,0.1,0,0.3,0.1,0.5
		c0.2-0.2,0.4-0.3,0.6-0.5c0-0.2,0-0.3-0.1-0.5C49.1,39.5,49.1,39.3,49,39.2z M53.9,39.4c0,0.1,0,0.3,0,0.5c0.2-0.2,0.3-0.2,0.4-0.4
		c0-0.2,0-0.3,0-0.5c0-0.1,0-0.3,0-0.5c-0.2,0.1-0.3,0.2-0.4,0.4C53.9,39.1,53.9,39.3,53.9,39.4z M34.3,18.2l-0.8,0.6
		c0.2,0.1,0.4,0.3,0.6,0.4c0.2,0.1,0.3,0.2,0.6,0.4c0.2-0.1,0.3-0.2,0.4-0.3c0.1-0.1,0.2-0.2,0.4-0.3c-0.2-0.1-0.4-0.3-0.6-0.4
		C34.7,18.4,34.5,18.3,34.3,18.2z M49.1,46.9c0-0.1,0-0.3,0.1-0.4c-0.2,0.2-0.3,0.3-0.5,0.4c0,0.2,0,0.3,0,0.4c0,0.1,0,0.3-0.1,0.4
		c0.2-0.2,0.3-0.3,0.5-0.4C49.1,47.2,49.1,47.1,49.1,46.9z M48.9,48.7c0-0.1,0-0.3,0.1-0.4c-0.2,0.2-0.3,0.3-0.5,0.4
		c0,0.2-0.1,0.3-0.1,0.4c0,0.1,0,0.3-0.1,0.4c0.2-0.2,0.3-0.2,0.5-0.4C48.8,48.9,48.8,48.8,48.9,48.7z M48.5,50.4
		c0-0.1,0.1-0.3,0.1-0.4c-0.2,0.2-0.3,0.2-0.5,0.4c0,0.2-0.1,0.3-0.1,0.4c0,0.1-0.1,0.3-0.1,0.4c0.2-0.2,0.3-0.2,0.5-0.4
		C48.4,50.6,48.4,50.5,48.5,50.4z M48.7,37.3c-0.1,0.1-0.2,0.2-0.3,0.3c-0.1,0.1-0.2,0.2-0.3,0.3c0,0.2,0.1,0.3,0.1,0.5
		c0,0.1,0.1,0.3,0.1,0.5c0.2-0.2,0.4-0.3,0.6-0.5c0-0.2-0.1-0.3-0.1-0.5C48.7,37.6,48.7,37.5,48.7,37.3z M48.7,42.4
		c0.2-0.2,0.3-0.3,0.6-0.5c0-0.2,0-0.3,0-0.5c0-0.1,0-0.3,0-0.5c-0.2,0.2-0.3,0.3-0.6,0.5c0,0.2,0,0.3,0,0.5
		C48.7,42.1,48.7,42.2,48.7,42.4z M49.5,37.7c0.2-0.2,0.4-0.4,0.6-0.5c0.2-0.2,0.4-0.3,0.5-0.5c0.2-0.1,0.3-0.3,0.5-0.4
		c0.2-0.1,0.3-0.3,0.5-0.4c0.2-0.1,0.3-0.3,0.5-0.4c0.2-0.1,0.3-0.3,0.5-0.4c0.2-0.1,0.4-0.3,0.5-0.5c0-0.3-0.1-0.6-0.1-0.8
		c0-0.3-0.1-0.5-0.1-0.8c0-0.2-0.1-0.5-0.1-0.7c-0.1-0.2-0.1-0.5-0.2-0.7c-0.1-0.2-0.1-0.4-0.2-0.7c-0.1-0.2-0.1-0.4-0.2-0.7
		c-0.1-0.2-0.1-0.5-0.2-0.7c-0.1-0.2-0.2-0.5-0.3-0.8c-0.1-0.3-0.2-0.5-0.3-0.8c-0.2,0.2-0.4,0.3-0.6,0.5s-0.4,0.3-0.5,0.4
		c-0.2,0.1-0.3,0.3-0.5,0.4c-0.2,0.1-0.3,0.3-0.5,0.4c-0.2,0.1-0.4,0.3-0.5,0.4c-0.2,0.2-0.4,0.3-0.6,0.5c-0.2,0.2-0.4,0.4-0.7,0.6
		c0.1,0.3,0.3,0.6,0.4,0.8c0.1,0.3,0.2,0.5,0.3,0.7c0.1,0.2,0.2,0.5,0.3,0.7c0.1,0.2,0.2,0.4,0.2,0.7c0.1,0.2,0.1,0.4,0.2,0.7
		c0.1,0.2,0.1,0.4,0.2,0.7c0.1,0.2,0.1,0.5,0.2,0.7c0.1,0.2,0.1,0.5,0.2,0.8C49.4,37.1,49.5,37.4,49.5,37.7z M53.4,43.2
		c0,0.1-0.1,0.3-0.1,0.5c0.2-0.1,0.3-0.2,0.4-0.4c0-0.2,0.1-0.3,0.1-0.5c0-0.1,0.1-0.3,0.1-0.5c-0.2,0.1-0.3,0.2-0.4,0.4
		C53.4,43,53.4,43.1,53.4,43.2z M53.7,41.3c0,0.1,0,0.3-0.1,0.5c0.2-0.1,0.3-0.2,0.4-0.4c0-0.2,0-0.3,0.1-0.5c0-0.1,0-0.3,0.1-0.5
		c-0.2,0.1-0.3,0.2-0.4,0.4C53.7,41,53.7,41.2,53.7,41.3z M49.4,43.3c0-0.1,0-0.3,0-0.5c-0.2,0.2-0.3,0.3-0.6,0.5c0,0.2,0,0.3,0,0.5
		c0,0.1,0,0.3,0,0.5c0.2-0.2,0.3-0.3,0.6-0.5C49.4,43.6,49.4,43.5,49.4,43.3z M49.3,45.1c0-0.1,0-0.3,0-0.5
		c-0.2,0.2-0.3,0.3-0.5,0.5c0,0.2,0,0.3,0,0.4c0,0.1,0,0.3,0,0.4c0.2-0.2,0.3-0.3,0.5-0.5C49.3,45.4,49.3,45.3,49.3,45.1z"/>
	
		<linearGradient id="SVGID_12_" gradientUnits="userSpaceOnUse" x1="44.4939" y1="19.9023" x2="78.2958" y2="46.588" gradientTransform="matrix(1 0 0 -1 0 81.3536)">
		<stop  offset="0" style="stop-color:#5A0007"/>
		<stop  offset="0.1383" style="stop-color:#920417"/>
		<stop  offset="0.2926" style="stop-color:#C30D23"/>
		<stop  offset="0.3606" style="stop-color:#BF0C22"/>
		<stop  offset="0.7553" style="stop-color:#A9051A"/>
		<stop  offset="1" style="stop-color:#CF1126"/>
	</linearGradient>
	<path class="st11" d="M45.6,58.9c-0.2,0-0.4,0-0.5,0c-0.1,0-0.2,0-0.3,0c0.2,0.1,0.4,0.2,0.7,0.2c0.1,0,0.2,0,0.3,0
		c0.2,0,0.3,0,0.5,0C46,59.1,45.9,59,45.6,58.9z M50.7,60.5c0.1,0,0.2,0,0.4,0C51,60.5,50.9,60.5,50.7,60.5
		C50.8,60.5,50.7,60.5,50.7,60.5z M52.4,60.4c-0.2,0-0.3,0-0.5,0.1c0.2,0,0.3,0,0.4,0.1c0.2,0,0.4,0,0.5-0.1c0.2,0,0.3,0,0.5-0.1
		c-0.2,0-0.3,0-0.5-0.1C52.7,60.4,52.5,60.4,52.4,60.4z M56.7,56.6c0.1-0.1,0.2-0.1,0.4-0.2c-0.3-0.1-0.4-0.1-0.6-0.2
		c-0.2,0.1-0.3,0.1-0.4,0.2c-0.1,0.1-0.2,0.1-0.4,0.2c0.3,0.1,0.4,0.1,0.6,0.2C56.4,56.7,56.5,56.6,56.7,56.6z M53.6,59.7
		c-0.2-0.1-0.4-0.1-0.6-0.2c-0.2-0.1-0.4-0.1-0.6-0.2c-0.2-0.1-0.4-0.1-0.7-0.2c-0.3-0.1-0.5-0.2-0.9-0.3C50.5,58.9,50.2,59,50,59
		c-0.3,0-0.5,0.1-0.8,0.1c-0.2,0-0.5,0.1-0.7,0.1c-0.2,0-0.5,0.1-0.7,0.1c-0.2,0-0.5,0.1-0.7,0.1c-0.2,0-0.5,0-0.7,0.1
		c0,0-0.1,0-0.1,0c1.3,0.4,2.6,0.7,3.9,0.9h0c0.2,0,0.4,0,0.7,0c0.2,0,0.4,0,0.7-0.1c0.2,0,0.4,0,0.7-0.1c0.2,0,0.5-0.1,0.7-0.1
		c0.2,0,0.5-0.1,0.7-0.1c0.3,0,0.5-0.1,0.8-0.1C54.1,59.9,53.8,59.8,53.6,59.7z M53.3,57.8c0.1,0,0.3-0.1,0.4-0.1
		c-0.3-0.1-0.4-0.1-0.6-0.2c-0.2,0.1-0.3,0.1-0.4,0.1c-0.1,0-0.3,0.1-0.4,0.1c0.3,0.1,0.4,0.2,0.6,0.2C53,57.9,53.2,57.8,53.3,57.8z
		 M55,57.2c0.1,0,0.3-0.1,0.4-0.2c-0.3-0.1-0.4-0.1-0.6-0.2c-0.2,0.1-0.3,0.1-0.4,0.2c-0.1,0-0.3,0.1-0.4,0.1
		c0.3,0.1,0.4,0.2,0.6,0.2C54.8,57.3,54.9,57.3,55,57.2z M65.1,50.9c0.1-0.1,0.2-0.2,0.3-0.3c-0.3-0.1-0.4-0.1-0.6-0.2
		c-0.1,0.1-0.2,0.2-0.3,0.3c-0.1,0.1-0.2,0.2-0.3,0.3c0.3,0.1,0.4,0.1,0.6,0.2C64.9,51,65,50.9,65.1,50.9z M61.7,57.9
		c-0.1,0.1-0.2,0.1-0.4,0.2c0.2,0,0.3,0.1,0.5,0.1c0.2-0.1,0.3-0.1,0.4-0.2c0.1-0.1,0.3-0.1,0.4-0.2c-0.2,0-0.3-0.1-0.5-0.1
		C61.9,57.8,61.8,57.9,61.7,57.9z M47.7,59c0.1,0,0.3,0,0.5-0.1c-0.2-0.1-0.4-0.2-0.6-0.3c-0.2,0-0.3,0-0.5,0.1
		c-0.1,0-0.3,0-0.5,0.1c0.3,0.1,0.4,0.2,0.6,0.3C47.4,59,47.6,59,47.7,59z M66.2,49.6c0.1-0.1,0.2-0.2,0.3-0.3
		c-0.3-0.1-0.4-0.1-0.6-0.2c-0.1,0.1-0.2,0.2-0.3,0.3c-0.1,0.1-0.2,0.2-0.3,0.3c0.3,0.1,0.4,0.1,0.6,0.2
		C66.1,49.8,66.2,49.7,66.2,49.6z M63.9,52c0.1-0.1,0.2-0.2,0.3-0.3c-0.3-0.1-0.4-0.1-0.6-0.2c-0.1,0.1-0.2,0.2-0.3,0.3
		c-0.1,0.1-0.2,0.2-0.3,0.3c0.3,0.1,0.4,0.1,0.6,0.2C63.7,52.2,63.8,52.1,63.9,52z M49.6,58.7c0.1,0,0.3-0.1,0.5-0.1
		c-0.2-0.1-0.4-0.1-0.6-0.3c-0.2,0-0.3,0.1-0.5,0.1c-0.1,0-0.3,0.1-0.5,0.1c0.3,0.1,0.4,0.2,0.6,0.3C49.4,58.7,49.5,58.7,49.6,58.7z
		 M51.5,58.3c0.1,0,0.3-0.1,0.5-0.1c-0.3-0.1-0.4-0.1-0.6-0.3C51.1,58,51,58,50.9,58c-0.1,0-0.3,0.1-0.5,0.1
		c0.3,0.1,0.4,0.2,0.6,0.3C51.2,58.4,51.4,58.3,51.5,58.3z M80.1,32c0,0.1,0,0.3-0.1,0.4c0.2,0.2,0.3,0.3,0.5,0.4
		c0-0.2,0.1-0.3,0.1-0.4c0-0.1,0-0.2,0.1-0.4c-0.2-0.2-0.3-0.3-0.5-0.5C80.1,31.8,80.1,31.9,80.1,32z M63.3,57.1
		c-0.1,0.1-0.2,0.1-0.4,0.2c0.2,0,0.3,0.1,0.5,0.1c0.2-0.1,0.3-0.1,0.4-0.2c0.1-0.1,0.2-0.1,0.4-0.2c-0.2,0-0.3-0.1-0.5-0.1
		C63.5,57,63.4,57.1,63.3,57.1z M79.3,35.4c0,0.1-0.1,0.3-0.1,0.4c0.2,0.1,0.3,0.2,0.5,0.3c0-0.2,0.1-0.3,0.1-0.4
		c0-0.1,0.1-0.2,0.1-0.4c-0.2-0.1-0.3-0.2-0.5-0.4C79.4,35.1,79.3,35.3,79.3,35.4z M74.5,42.6c-0.2-0.1-0.4-0.1-0.6-0.2
		c-0.2-0.1-0.4-0.1-0.6-0.2c-0.2-0.1-0.4-0.1-0.7-0.2c-0.2-0.1-0.5-0.1-0.8-0.2c-0.1,0.3-0.3,0.6-0.4,0.8c-0.1,0.3-0.2,0.5-0.4,0.7
		c-0.1,0.2-0.2,0.5-0.3,0.7c-0.1,0.2-0.2,0.4-0.3,0.6c-0.1,0.2-0.2,0.4-0.3,0.6c-0.1,0.2-0.2,0.4-0.4,0.6c-0.1,0.2-0.3,0.4-0.4,0.7
		c-0.1,0.2-0.3,0.5-0.5,0.7c0.3,0.1,0.5,0.1,0.8,0.2c0.2,0.1,0.5,0.1,0.7,0.1c0.2,0,0.4,0.1,0.6,0.1c0.2,0,0.4,0.1,0.6,0.1
		c0.2,0,0.4,0.1,0.6,0.1c0.2,0,0.4,0.1,0.7,0.1c0.2-0.2,0.3-0.5,0.5-0.7c0.2-0.2,0.3-0.4,0.4-0.6c0.1-0.2,0.3-0.4,0.4-0.6
		c0.1-0.2,0.2-0.4,0.4-0.6c0.1-0.2,0.2-0.4,0.3-0.6c0.1-0.2,0.2-0.4,0.3-0.6c0.1-0.2,0.2-0.4,0.4-0.7s0.3-0.5,0.4-0.8
		c-0.2-0.1-0.5-0.1-0.7-0.2S74.7,42.6,74.5,42.6z M75.9,34c0.2,0.1,0.4,0.2,0.7,0.3c0.2,0.1,0.4,0.2,0.6,0.3
		c0.2,0.1,0.4,0.2,0.7,0.4c0.2,0.1,0.5,0.3,0.7,0.4c0.1-0.3,0.2-0.6,0.2-0.9c0.1-0.3,0.1-0.5,0.2-0.8c0.1-0.3,0.1-0.5,0.2-0.7
		c0-0.2,0.1-0.5,0.1-0.7c0-0.2,0.1-0.5,0.1-0.7c0-0.2,0.1-0.5,0.1-0.7c0-0.3,0.1-0.5,0.1-0.8c0-0.3,0.1-0.6,0.1-0.9
		c-0.2-0.2-0.4-0.4-0.6-0.5c-0.2-0.2-0.4-0.3-0.5-0.5c-0.2-0.2-0.3-0.3-0.5-0.4c-0.2-0.1-0.3-0.3-0.5-0.4c-0.2-0.1-0.3-0.3-0.5-0.4
		c-0.2-0.1-0.4-0.3-0.5-0.4c-0.2-0.1-0.4-0.3-0.6-0.5c-0.2-0.2-0.4-0.3-0.6-0.5c0,0.3,0,0.6-0.1,0.9c0,0.3,0,0.6-0.1,0.8
		c0,0.3,0,0.5-0.1,0.8c0,0.3,0,0.5-0.1,0.7c0,0.2-0.1,0.5-0.1,0.7c0,0.2-0.1,0.5-0.1,0.7c0,0.2-0.1,0.5-0.1,0.7
		c0,0.2-0.1,0.5-0.1,0.7c0,0.3-0.1,0.5-0.1,0.8c0,0.3-0.1,0.5-0.2,0.8c0.3,0.1,0.6,0.3,0.8,0.4C75.4,33.8,75.7,33.9,75.9,34z
		 M67.3,48.3c0.1-0.1,0.2-0.2,0.3-0.3c-0.3-0.1-0.4-0.1-0.6-0.2c-0.1,0.1-0.2,0.2-0.3,0.3c-0.1,0.1-0.2,0.2-0.3,0.3
		c0.3,0.1,0.4,0.1,0.6,0.2C67.2,48.5,67.2,48.4,67.3,48.3z M72.6,49.3c-0.1,0.1-0.2,0.2-0.3,0.3c0.2,0,0.3,0.1,0.5,0.1
		c0.1-0.1,0.2-0.2,0.3-0.3c0.1-0.1,0.2-0.2,0.3-0.3c-0.2,0-0.3-0.1-0.5-0.1C72.7,49.1,72.6,49.2,72.6,49.3z M79.7,33.7
		c0,0.1-0.1,0.3-0.1,0.4c0.2,0.2,0.3,0.2,0.5,0.4c0-0.2,0.1-0.3,0.1-0.4s0.1-0.2,0.1-0.4c-0.2-0.2-0.3-0.2-0.5-0.4
		C79.8,33.5,79.7,33.6,79.7,33.7z M78.8,37.1c0,0.1-0.1,0.3-0.1,0.4c0.2,0.1,0.3,0.2,0.5,0.3c0.1-0.2,0.1-0.3,0.1-0.4
		c0-0.1,0.1-0.2,0.1-0.4c-0.2-0.1-0.3-0.2-0.5-0.3C78.9,36.8,78.9,36.9,78.8,37.1z M66.3,55.3c-0.1,0.1-0.2,0.2-0.4,0.3
		c0.2,0,0.3,0.1,0.5,0.1c0.1-0.1,0.3-0.2,0.4-0.3c0.1-0.1,0.2-0.2,0.4-0.3c-0.2,0-0.3-0.1-0.5-0.1C66.5,55.1,66.4,55.2,66.3,55.3z
		 M65.6,55.3c0.2-0.1,0.4-0.3,0.6-0.4c0.2-0.1,0.4-0.3,0.6-0.5c0.2-0.2,0.4-0.3,0.7-0.5c-0.3-0.1-0.5-0.1-0.8-0.1
		c-0.2,0-0.5-0.1-0.7-0.1c-0.2,0-0.5-0.1-0.7-0.1c-0.2-0.1-0.5-0.1-0.8-0.2c-0.3-0.1-0.6-0.1-0.9-0.2c-0.2,0.2-0.5,0.4-0.7,0.5
		c-0.2,0.2-0.4,0.3-0.6,0.4c-0.2,0.1-0.4,0.3-0.6,0.4c-0.2,0.1-0.4,0.2-0.6,0.4c-0.2,0.1-0.4,0.2-0.6,0.4c-0.2,0.1-0.4,0.2-0.6,0.4
		c-0.2,0.1-0.4,0.2-0.7,0.4c-0.2,0.1-0.5,0.3-0.8,0.4c0.3,0.1,0.6,0.2,0.9,0.3s0.5,0.1,0.7,0.2c0.2,0.1,0.5,0.1,0.7,0.2
		c0.2,0.1,0.4,0.1,0.7,0.2c0.2,0.1,0.5,0.1,0.8,0.2c0.3-0.1,0.5-0.3,0.8-0.4c0.2-0.1,0.5-0.3,0.7-0.4c0.2-0.1,0.4-0.3,0.6-0.4
		c0.2-0.1,0.4-0.3,0.6-0.4C65.2,55.6,65.4,55.4,65.6,55.3z M64.8,56.3c-0.1,0.1-0.2,0.1-0.4,0.2c0.2,0,0.3,0.1,0.5,0.1
		c0.2-0.1,0.3-0.2,0.4-0.2c0.1-0.1,0.2-0.1,0.4-0.2c-0.2,0-0.3-0.1-0.5-0.1C65.1,56.1,64.9,56.2,64.8,56.3z M70.9,48.7
		c-0.2,0-0.4-0.1-0.6-0.1c-0.2,0-0.4-0.1-0.6-0.1c-0.2,0-0.4-0.1-0.7-0.1c-0.2-0.1-0.5-0.1-0.8-0.2c-0.2,0.2-0.4,0.5-0.5,0.7
		c-0.2,0.2-0.3,0.4-0.5,0.6c-0.2,0.2-0.3,0.4-0.5,0.5c-0.1,0.2-0.3,0.3-0.4,0.5c-0.2,0.2-0.3,0.3-0.5,0.5c-0.2,0.2-0.3,0.3-0.5,0.5
		c-0.2,0.2-0.4,0.3-0.5,0.5c-0.2,0.2-0.4,0.4-0.6,0.6c0.3,0.1,0.6,0.2,0.9,0.2c0.3,0.1,0.5,0.1,0.8,0.2c0.2,0.1,0.5,0.1,0.7,0.1
		c0.2,0,0.5,0.1,0.7,0.1c0.2,0,0.5,0.1,0.8,0.1c0.2-0.2,0.4-0.4,0.6-0.6c0.2-0.2,0.4-0.4,0.6-0.5c0.2-0.2,0.3-0.3,0.5-0.5
		c0.2-0.2,0.3-0.3,0.5-0.5c0.2-0.2,0.3-0.3,0.5-0.5c0.2-0.2,0.3-0.4,0.5-0.5c0.2-0.2,0.3-0.4,0.5-0.6c0.2-0.2,0.3-0.4,0.5-0.7
		c-0.2,0-0.5-0.1-0.7-0.1C71.3,48.7,71.1,48.7,70.9,48.7z M71.5,50.7c-0.1,0.1-0.2,0.2-0.3,0.3c0.2,0,0.3,0,0.5,0.1
		c0.1-0.1,0.2-0.2,0.3-0.3c0.1-0.1,0.2-0.2,0.3-0.3c-0.2,0-0.3-0.1-0.5-0.1C71.6,50.5,71.5,50.6,71.5,50.7z M70.3,51.9
		c-0.1,0.1-0.2,0.2-0.3,0.3c0.2,0,0.3,0,0.5,0.1c0.1-0.1,0.2-0.2,0.3-0.3c0.1-0.1,0.2-0.2,0.3-0.3c-0.2,0-0.3,0-0.5-0.1
		C70.5,51.7,70.4,51.8,70.3,51.9z M69,53.1c-0.1,0.1-0.2,0.2-0.3,0.3c0.2,0,0.3,0.1,0.5,0.1c0.1-0.1,0.2-0.2,0.3-0.3
		c0.1-0.1,0.2-0.2,0.3-0.3c-0.2,0-0.3,0-0.5-0.1C69.2,52.9,69.1,53,69,53.1z M67.7,54.2c-0.1,0.1-0.2,0.2-0.3,0.3
		c0.2,0,0.3,0.1,0.5,0.1c0.1-0.1,0.2-0.2,0.3-0.3c0.1-0.1,0.2-0.2,0.3-0.3c-0.2,0-0.3,0-0.5-0.1C67.9,54.1,67.8,54.2,67.7,54.2z
		 M69.3,45.3c0.1-0.1,0.1-0.2,0.2-0.4c-0.3-0.1-0.4-0.1-0.6-0.2c-0.1,0.2-0.2,0.3-0.2,0.4c-0.1,0.1-0.1,0.2-0.2,0.4
		c0.3,0.1,0.4,0.1,0.6,0.2C69.1,45.6,69.2,45.4,69.3,45.3z M70.1,43.7c0.1-0.1,0.1-0.2,0.2-0.4c-0.2-0.1-0.4-0.1-0.6-0.2
		c-0.1,0.2-0.1,0.3-0.2,0.4c-0.1,0.1-0.1,0.2-0.2,0.4c0.3,0.1,0.4,0.1,0.6,0.2C70,44,70.1,43.9,70.1,43.7z M68.3,46.8
		c0.1-0.1,0.1-0.2,0.2-0.4c-0.3-0.1-0.4-0.1-0.6-0.2c-0.1,0.2-0.2,0.3-0.2,0.4c-0.1,0.1-0.1,0.2-0.2,0.4c0.3,0.1,0.4,0.1,0.6,0.2
		C68.2,47.1,68.3,46.9,68.3,46.8z M74.3,27.9c0-0.2,0-0.3,0-0.6c-0.1-0.1-0.2-0.1-0.2-0.1s-0.2,0.4-0.5,0.9c0.3,0.2,0.3,0.2,0.6,0.4
		C74.3,28.3,74.3,28.1,74.3,27.9z M70.9,42.1c0.1-0.1,0.1-0.3,0.2-0.4c-0.3-0.1-0.4-0.1-0.6-0.2c-0.1,0.2-0.1,0.3-0.2,0.4
		c-0.1,0.1-0.1,0.3-0.2,0.4c0.3,0.1,0.4,0.1,0.6,0.2C70.8,42.3,70.9,42.2,70.9,42.1z M76.6,41.4c0.1-0.3,0.2-0.5,0.3-0.7
		c0.1-0.2,0.2-0.5,0.3-0.7c0.1-0.2,0.2-0.4,0.2-0.7c0.1-0.2,0.2-0.4,0.2-0.7c0.1-0.2,0.2-0.5,0.2-0.7c0.1-0.2,0.2-0.5,0.2-0.8
		c0.1-0.3,0.2-0.5,0.2-0.9c-0.3-0.1-0.5-0.3-0.7-0.4c-0.2-0.1-0.4-0.2-0.7-0.3c-0.2-0.1-0.4-0.2-0.6-0.3c-0.2-0.1-0.4-0.2-0.6-0.3
		c-0.2-0.1-0.5-0.2-0.7-0.3c-0.3-0.1-0.5-0.2-0.8-0.4c-0.1,0.3-0.1,0.6-0.2,0.9c-0.1,0.3-0.1,0.5-0.2,0.8c-0.1,0.3-0.1,0.5-0.2,0.7
		c-0.1,0.2-0.1,0.5-0.2,0.7c-0.1,0.2-0.1,0.4-0.2,0.7c-0.1,0.2-0.1,0.4-0.2,0.7c-0.1,0.2-0.1,0.5-0.2,0.7c-0.1,0.2-0.2,0.5-0.3,0.7
		c-0.1,0.3-0.2,0.5-0.3,0.8c0.3,0.1,0.5,0.2,0.8,0.2c0.2,0.1,0.5,0.1,0.7,0.2c0.2,0.1,0.4,0.1,0.6,0.2c0.2,0.1,0.4,0.1,0.6,0.2
		c0.2,0.1,0.4,0.1,0.6,0.2c0.2,0.1,0.4,0.1,0.7,0.2C76.3,41.9,76.5,41.6,76.6,41.4z M54.4,60.1c-0.1,0-0.3,0.1-0.5,0.1
		c0.2,0,0.3,0.1,0.5,0.1c0.2,0,0.4-0.1,0.5-0.1c0.1,0,0.3,0,0.5-0.1c-0.2,0-0.3-0.1-0.5-0.1C54.7,60.1,54.5,60.1,54.4,60.1z
		 M77.7,40.3c0,0.1-0.1,0.2-0.2,0.4c0.2,0.1,0.3,0.1,0.5,0.2c0.1-0.2,0.1-0.3,0.2-0.4c0-0.1,0.1-0.2,0.2-0.4
		c-0.2-0.1-0.3-0.1-0.5-0.2C77.8,40.1,77.7,40.2,77.7,40.3z M78.3,38.7c0,0.1-0.1,0.2-0.1,0.4c0.2,0.1,0.3,0.1,0.5,0.2
		c0.1-0.2,0.1-0.3,0.1-0.4c0-0.1,0.1-0.2,0.1-0.4c-0.2-0.1-0.3-0.2-0.5-0.3C78.4,38.5,78.3,38.6,78.3,38.7z M80.4,29.9
		c0,0.2,0,0.3-0.1,0.4c0,0.1,0,0.3-0.1,0.4c0.2,0.2,0.3,0.3,0.5,0.5c0-0.2,0-0.3,0.1-0.4c0-0.1,0-0.2,0.1-0.4
		C80.7,30.2,80.6,30.1,80.4,29.9z M56.3,59.7c-0.1,0-0.3,0.1-0.5,0.1c0.2,0,0.3,0.1,0.5,0.1c0.2,0,0.3-0.1,0.5-0.1
		c0.1,0,0.3-0.1,0.5-0.1c-0.2,0-0.3-0.1-0.5-0.1C56.6,59.7,56.5,59.7,56.3,59.7z M60.8,58c0.2-0.1,0.5-0.2,0.7-0.3
		c-0.3-0.1-0.5-0.1-0.8-0.2c-0.2-0.1-0.5-0.1-0.7-0.2c-0.2-0.1-0.4-0.1-0.7-0.2c-0.2-0.1-0.5-0.1-0.7-0.2c-0.3-0.1-0.6-0.2-0.9-0.3
		c-0.3,0.1-0.5,0.2-0.7,0.3c-0.2,0.1-0.4,0.2-0.7,0.3c-0.2,0.1-0.4,0.2-0.6,0.2c-0.2,0.1-0.4,0.1-0.6,0.2c-0.2,0.1-0.4,0.1-0.6,0.2
		c-0.2,0.1-0.4,0.1-0.6,0.2c-0.2,0.1-0.4,0.1-0.7,0.2s-0.5,0.1-0.7,0.2c-0.3,0.1-0.5,0.1-0.8,0.2c0.3,0.1,0.6,0.2,0.9,0.3
		c0.3,0.1,0.5,0.2,0.7,0.2c0.2,0.1,0.4,0.1,0.6,0.2c0.2,0.1,0.4,0.1,0.6,0.2c0.2,0.1,0.5,0.1,0.7,0.2c0.3-0.1,0.6-0.1,0.8-0.2
		c0.3-0.1,0.5-0.1,0.7-0.2c0.2-0.1,0.5-0.1,0.7-0.2c0.2-0.1,0.4-0.1,0.6-0.2c0.2-0.1,0.4-0.1,0.6-0.2c0.2-0.1,0.4-0.1,0.6-0.2
		c0.2-0.1,0.4-0.2,0.6-0.3C60.3,58.2,60.5,58.1,60.8,58z M58.2,59.2c-0.1,0-0.3,0.1-0.5,0.1c0.2,0,0.3,0.1,0.5,0.1
		c0.2-0.1,0.3-0.1,0.5-0.1c0.1,0,0.3-0.1,0.5-0.1c-0.2,0-0.3-0.1-0.5-0.1C58.4,59.1,58.3,59.2,58.2,59.2z M60,58.6
		c-0.1,0-0.3,0.1-0.4,0.2c0.2,0,0.3,0.1,0.5,0.1c0.2-0.1,0.3-0.1,0.4-0.2c0.1,0,0.3-0.1,0.4-0.2c-0.2,0-0.3-0.1-0.5-0.1
		C60.2,58.5,60.1,58.6,60,58.6z M72.3,38.4c0-0.1,0.1-0.3,0.1-0.5c-0.2-0.1-0.4-0.1-0.6-0.2c-0.1,0.2-0.1,0.3-0.1,0.5
		s-0.1,0.3-0.2,0.5c0.3,0.1,0.4,0.1,0.6,0.2C72.2,38.7,72.2,38.6,72.3,38.4z M72.8,36.5c0-0.2,0.1-0.3,0.1-0.5
		c-0.3-0.1-0.4-0.2-0.6-0.3c-0.1,0.2-0.1,0.4-0.1,0.5c0,0.2-0.1,0.3-0.1,0.5c0.3,0.1,0.4,0.2,0.6,0.3C72.8,36.8,72.8,36.6,72.8,36.5
		z M73.7,32.4c0-0.2,0.1-0.3,0.1-0.5c-0.3-0.1-0.4-0.2-0.6-0.4c0,0.2-0.1,0.4-0.1,0.5c0,0.2-0.1,0.3-0.1,0.5
		c0.3,0.1,0.4,0.2,0.6,0.3C73.7,32.7,73.7,32.5,73.7,32.4z M74.1,30.2c0-0.2,0-0.3,0.1-0.6c-0.3-0.2-0.4-0.2-0.6-0.4
		c0,0.2-0.1,0.4-0.1,0.6c0,0.2,0,0.3-0.1,0.6c0.3,0.2,0.4,0.2,0.6,0.4C74,30.5,74,30.3,74.1,30.2z M77,41.9
		c-0.1,0.1-0.1,0.2-0.2,0.4c0.2,0.1,0.3,0.1,0.5,0.2c0.1-0.2,0.1-0.3,0.2-0.4c0.1-0.1,0.1-0.2,0.2-0.4c-0.2-0.1-0.3-0.1-0.5-0.2
		C77.1,41.7,77,41.8,77,41.9z M58.2,55.8c0.1-0.1,0.2-0.1,0.4-0.2c-0.3-0.1-0.4-0.1-0.6-0.2c-0.2,0.1-0.3,0.1-0.4,0.2
		c-0.1,0.1-0.2,0.1-0.4,0.2c0.3,0.1,0.4,0.1,0.6,0.2C58,56,58.1,55.9,58.2,55.8z M61.2,54.1c0.1-0.1,0.2-0.1,0.3-0.2
		c-0.3-0.1-0.4-0.1-0.6-0.2c-0.1,0.1-0.2,0.2-0.3,0.2c-0.1,0.1-0.2,0.1-0.4,0.2c0.3,0.1,0.4,0.1,0.6,0.2
		C61,54.3,61.1,54.2,61.2,54.1z M59.7,55c0.1-0.1,0.2-0.1,0.4-0.2c-0.3-0.1-0.4-0.1-0.6-0.2c-0.1,0.1-0.3,0.2-0.4,0.2
		c-0.1,0.1-0.2,0.1-0.4,0.2c0.3,0.1,0.4,0.1,0.6,0.2C59.5,55.2,59.6,55.1,59.7,55z M73.3,34.5c0-0.2,0.1-0.3,0.1-0.5
		c-0.3-0.1-0.4-0.2-0.6-0.3c0,0.2-0.1,0.4-0.1,0.5c0,0.2-0.1,0.3-0.1,0.5c0.3,0.1,0.4,0.2,0.6,0.3C73.2,34.8,73.3,34.6,73.3,34.5z
		 M75.4,45c-0.1,0.1-0.1,0.2-0.2,0.4c0.2,0,0.3,0.1,0.5,0.1c0.1-0.1,0.2-0.3,0.2-0.4c0.1-0.1,0.1-0.2,0.2-0.4
		c-0.2-0.1-0.3-0.1-0.5-0.1C75.6,44.8,75.5,44.9,75.4,45z M76.2,43.5c-0.1,0.1-0.1,0.2-0.2,0.4c0.2,0.1,0.3,0.1,0.5,0.1
		c0.1-0.2,0.1-0.3,0.2-0.4c0.1-0.1,0.1-0.2,0.2-0.4c-0.2-0.1-0.3-0.1-0.5-0.2C76.4,43.3,76.3,43.4,76.2,43.5z M74.5,46.5
		c-0.1,0.1-0.1,0.2-0.2,0.4c0.2,0,0.3,0.1,0.5,0.1c0.1-0.1,0.2-0.3,0.2-0.4c0.1-0.1,0.1-0.2,0.2-0.4c-0.2,0-0.3-0.1-0.5-0.1
		C74.7,46.3,74.6,46.4,74.5,46.5z M73.6,48c-0.1,0.1-0.2,0.2-0.3,0.3c0.2,0,0.3,0.1,0.5,0.1c0.1-0.1,0.2-0.2,0.3-0.3
		c0.1-0.1,0.2-0.2,0.2-0.4c-0.2,0-0.3-0.1-0.5-0.1C73.7,47.7,73.7,47.8,73.6,48z M62.6,53.1c0.1-0.1,0.2-0.2,0.3-0.3
		c-0.3-0.1-0.4-0.1-0.6-0.2c-0.1,0.1-0.2,0.2-0.3,0.3c-0.1,0.1-0.2,0.2-0.3,0.3c0.3,0.1,0.4,0.1,0.6,0.2
		C62.4,53.3,62.5,53.2,62.6,53.1z M71.6,40.3c0.1-0.1,0.1-0.3,0.2-0.5c-0.3-0.1-0.4-0.1-0.6-0.2c-0.1,0.2-0.1,0.3-0.2,0.5
		c-0.1,0.1-0.1,0.3-0.2,0.5c0.3,0.1,0.4,0.1,0.6,0.2C71.5,40.6,71.6,40.4,71.6,40.3z"/>
	
		<linearGradient id="SVGID_13_" gradientUnits="userSpaceOnUse" x1="38.1767" y1="20.9288" x2="7.4241" y2="47.3606" gradientTransform="matrix(1 0 0 -1 0 81.3536)">
		<stop  offset="0" style="stop-color:#5A0007"/>
		<stop  offset="0.1383" style="stop-color:#920417"/>
		<stop  offset="0.2926" style="stop-color:#C30D23"/>
		<stop  offset="0.3606" style="stop-color:#BF0C22"/>
		<stop  offset="0.7553" style="stop-color:#A9051A"/>
		<stop  offset="1" style="stop-color:#CF1126"/>
	</linearGradient>
	<path class="st12" d="M10.3,26.1c0.1-0.1,0.2-0.2,0.3-0.3c0.1-0.1,0.2-0.2,0.3-0.3c0-0.2,0-0.4,0-0.6c0-0.2,0-0.4,0-0.6
		c-0.1,0.1-0.2,0.2-0.3,0.3c-0.1,0.1-0.2,0.2-0.3,0.3c0,0.2,0,0.4,0,0.6C10.2,25.7,10.3,25.9,10.3,26.1z M11,32.4
		c0,0.2,0.1,0.3,0.1,0.5c0.3-0.1,0.4-0.2,0.6-0.3c0-0.2-0.1-0.4-0.1-0.5c0-0.2-0.1-0.3-0.1-0.5c-0.3,0.1-0.4,0.2-0.6,0.4
		C10.9,32,11,32.2,11,32.4z M12.4,38.4c0,0.1,0.1,0.3,0.2,0.5c0.3-0.1,0.4-0.1,0.6-0.2c-0.1-0.2-0.1-0.3-0.2-0.5
		c0-0.1-0.1-0.3-0.1-0.5c-0.3,0.1-0.4,0.2-0.6,0.2C12.4,38.1,12.4,38.3,12.4,38.4z M11.4,34.5c0,0.2,0.1,0.3,0.1,0.5
		c0.3-0.1,0.4-0.2,0.6-0.3c0-0.2-0.1-0.4-0.1-0.5c0-0.2-0.1-0.3-0.1-0.5c-0.3,0.1-0.4,0.2-0.6,0.3C11.3,34.2,11.4,34.3,11.4,34.5z
		 M13.1,40.3c0.1,0.1,0.1,0.3,0.2,0.5c0.2-0.1,0.4-0.1,0.6-0.2c-0.1-0.2-0.1-0.3-0.2-0.5c-0.1-0.1-0.1-0.3-0.2-0.5
		c-0.3,0.1-0.4,0.1-0.6,0.2C13,40,13,40.1,13.1,40.3z M13.8,42.1c0.1,0.1,0.1,0.3,0.2,0.4c0.3-0.1,0.4-0.1,0.6-0.2
		c-0.1-0.2-0.1-0.3-0.2-0.4c-0.1-0.1-0.1-0.3-0.2-0.4c-0.3,0.1-0.4,0.1-0.6,0.2C13.7,41.8,13.7,41.9,13.8,42.1z M14.6,43.7
		c0.1,0.1,0.1,0.2,0.2,0.4c0.3-0.1,0.4-0.1,0.6-0.2c-0.1-0.2-0.1-0.3-0.2-0.4c-0.1-0.1-0.1-0.2-0.2-0.4c-0.3,0.1-0.4,0.1-0.6,0.2
		C14.5,43.5,14.5,43.6,14.6,43.7z M11.9,36.5c0,0.1,0.1,0.3,0.1,0.5c0.3-0.1,0.4-0.2,0.6-0.3c-0.1-0.2-0.1-0.3-0.1-0.5
		c0-0.2-0.1-0.3-0.1-0.5c-0.3,0.1-0.4,0.2-0.6,0.3C11.8,36.2,11.8,36.3,11.9,36.5z M10.7,30.2c0,0.2,0,0.3,0.1,0.6
		c0.3-0.2,0.4-0.2,0.6-0.4c0-0.2-0.1-0.4-0.1-0.6s0-0.3-0.1-0.6c-0.3,0.2-0.4,0.2-0.6,0.4C10.6,29.8,10.6,30,10.7,30.2z M31.8,60.3
		c-0.2,0-0.3,0.1-0.5,0.1c0.2,0,0.4,0,0.5,0.1c0.2,0,0.3,0,0.5,0.1c0.2,0,0.3,0,0.4-0.1c-0.2,0-0.4,0-0.5-0.1
		C32.2,60.4,32,60.4,31.8,60.3z M33.7,58.4c0.2-0.1,0.4-0.1,0.6-0.3c-0.2,0-0.3-0.1-0.5-0.1c-0.1,0-0.3-0.1-0.4-0.1
		c-0.3,0.1-0.4,0.2-0.6,0.3c0.2,0,0.3,0.1,0.5,0.1C33.4,58.3,33.5,58.4,33.7,58.4z M37.7,59.4c-0.2,0-0.5,0-0.7-0.1
		c-0.2,0-0.5-0.1-0.7-0.1c-0.2,0-0.5-0.1-0.7-0.1c-0.2,0-0.5-0.1-0.8-0.1c-0.3,0-0.5-0.1-0.8-0.2c-0.3,0.1-0.6,0.2-0.8,0.3
		c-0.3,0.1-0.5,0.2-0.7,0.2c-0.2,0.1-0.4,0.1-0.6,0.2c-0.2,0.1-0.4,0.1-0.6,0.2c-0.2,0.1-0.5,0.1-0.7,0.2c0.3,0,0.5,0.1,0.8,0.1
		c0.3,0,0.5,0.1,0.7,0.1c0.2,0,0.5,0.1,0.7,0.1c0.2,0,0.4,0.1,0.7,0.1c0.2,0,0.4,0,0.7,0.1c0.2,0,0.4,0,0.7,0l0,0
		c1.3-0.2,2.6-0.5,3.9-0.9c0,0-0.1,0-0.1,0C38.1,59.5,37.9,59.4,37.7,59.4z M17.4,48.3c0.1,0.1,0.2,0.2,0.3,0.3
		c0.3-0.1,0.4-0.1,0.6-0.2c-0.1-0.1-0.2-0.2-0.3-0.3c-0.1-0.1-0.2-0.2-0.3-0.3c-0.3,0.1-0.4,0.1-0.6,0.2
		C17.2,48.1,17.3,48.2,17.4,48.3z M15.4,45.3c0.1,0.1,0.1,0.2,0.2,0.4c0.3-0.1,0.4-0.1,0.6-0.2c-0.1-0.2-0.2-0.3-0.2-0.4
		c-0.1-0.1-0.1-0.2-0.2-0.4c-0.3,0.1-0.4,0.1-0.6,0.2C15.3,45.1,15.4,45.2,15.4,45.3z M16.4,46.8c0.1,0.1,0.1,0.2,0.2,0.4
		c0.3-0.1,0.4-0.1,0.6-0.2c-0.1-0.1-0.2-0.3-0.2-0.4c-0.1-0.1-0.1-0.2-0.2-0.4c-0.3,0.1-0.4,0.1-0.6,0.2
		C16.2,46.6,16.3,46.7,16.4,46.8z M18.1,55c-0.2,0-0.3,0.1-0.5,0.1c0.1,0.1,0.3,0.2,0.4,0.3c0.1,0.1,0.2,0.2,0.4,0.3
		c0.2,0,0.3-0.1,0.5-0.1c-0.1-0.1-0.3-0.2-0.4-0.3C18.3,55.2,18.2,55.1,18.1,55z M21.6,56.8c0.2,0.1,0.5,0.3,0.8,0.4
		c0.3-0.1,0.5-0.1,0.8-0.2c0.2-0.1,0.5-0.1,0.7-0.2c0.2-0.1,0.4-0.1,0.7-0.2s0.5-0.1,0.7-0.2c0.3-0.1,0.6-0.2,0.9-0.3
		c-0.3-0.1-0.5-0.3-0.8-0.4s-0.5-0.3-0.7-0.4c-0.2-0.1-0.4-0.2-0.6-0.4c-0.2-0.1-0.4-0.2-0.6-0.4c-0.2-0.1-0.4-0.2-0.6-0.4
		c-0.2-0.1-0.4-0.3-0.6-0.4c-0.2-0.1-0.4-0.3-0.6-0.4c-0.2-0.2-0.4-0.3-0.7-0.5c-0.3,0.1-0.6,0.2-0.9,0.2c-0.3,0.1-0.5,0.1-0.8,0.2
		c-0.2,0.1-0.5,0.1-0.7,0.1c-0.2,0-0.5,0.1-0.7,0.1s-0.5,0.1-0.8,0.1c0.2,0.2,0.5,0.4,0.7,0.5c0.2,0.2,0.4,0.3,0.6,0.5
		c0.2,0.1,0.4,0.3,0.6,0.4c0.2,0.1,0.4,0.3,0.6,0.4c0.2,0.1,0.4,0.3,0.6,0.4c0.2,0.1,0.4,0.2,0.6,0.4C21.1,56.6,21.4,56.7,21.6,56.8
		z M35.5,58.8c0.2-0.1,0.4-0.1,0.6-0.3c-0.2,0-0.3-0.1-0.5-0.1c-0.1,0-0.3-0.1-0.5-0.1c-0.3,0.1-0.4,0.2-0.6,0.3
		c0.2,0,0.3,0.1,0.5,0.1C35.2,58.7,35.4,58.7,35.5,58.8z M24.3,58.5c-0.2,0-0.3,0.1-0.5,0.1c0.2,0.1,0.3,0.1,0.4,0.2
		c0.1,0,0.3,0.1,0.4,0.2c0.2,0,0.3-0.1,0.5-0.1c-0.2-0.1-0.3-0.1-0.4-0.2C24.6,58.6,24.5,58.5,24.3,58.5z M19.5,56
		c-0.2,0-0.3,0.1-0.5,0.1c0.1,0.1,0.3,0.2,0.4,0.2c0.1,0.1,0.2,0.1,0.4,0.2c0.2,0,0.3-0.1,0.5-0.1c-0.2-0.1-0.3-0.2-0.4-0.2
		C19.8,56.2,19.7,56.1,19.5,56z M28.6,59.5c0.3,0.1,0.5,0.1,0.8,0.2c0.3-0.1,0.5-0.1,0.7-0.2c0.2-0.1,0.4-0.1,0.6-0.2
		c0.2-0.1,0.4-0.1,0.6-0.2c0.2-0.1,0.4-0.1,0.7-0.2c0.3-0.1,0.5-0.2,0.9-0.3c-0.3-0.1-0.6-0.1-0.8-0.2c-0.3-0.1-0.5-0.1-0.7-0.2
		c-0.2-0.1-0.5-0.1-0.7-0.2c-0.2-0.1-0.4-0.1-0.6-0.2c-0.2-0.1-0.4-0.1-0.6-0.2c-0.2-0.1-0.4-0.1-0.6-0.2c-0.2-0.1-0.4-0.2-0.6-0.2
		c-0.2-0.1-0.4-0.2-0.7-0.3c-0.2-0.1-0.5-0.2-0.7-0.3c-0.3,0.1-0.6,0.2-0.9,0.3c-0.3,0.1-0.5,0.1-0.7,0.2c-0.2,0.1-0.5,0.1-0.7,0.2
		c-0.2,0.1-0.4,0.1-0.7,0.2c-0.2,0.1-0.5,0.1-0.8,0.2c0.3,0.1,0.5,0.2,0.7,0.3c0.2,0.1,0.5,0.2,0.7,0.3c0.2,0.1,0.4,0.2,0.6,0.3
		c0.2,0.1,0.4,0.2,0.6,0.2c0.2,0.1,0.4,0.1,0.6,0.2c0.2,0.1,0.4,0.1,0.6,0.2c0.2,0.1,0.4,0.1,0.7,0.2C28.1,59.4,28.3,59.5,28.6,59.5
		z M26.1,59.1c-0.2,0-0.3,0.1-0.5,0.1c0.2,0.1,0.3,0.1,0.5,0.1c0.1,0,0.3,0.1,0.5,0.1c0.2,0,0.3-0.1,0.5-0.1
		c-0.2-0.1-0.3-0.1-0.5-0.1C26.4,59.2,26.3,59.1,26.1,59.1z M27.9,59.6c-0.2,0-0.3,0.1-0.5,0.1c0.2,0,0.3,0.1,0.5,0.1
		s0.3,0.1,0.5,0.1c0.2,0,0.3-0.1,0.5-0.1c-0.2,0-0.3-0.1-0.5-0.1C28.3,59.7,28.1,59.7,27.9,59.6z M7.7,41.9
		c-0.1-0.1-0.1-0.2-0.2-0.4c-0.2,0.1-0.3,0.1-0.5,0.2c0.1,0.2,0.1,0.3,0.2,0.4c0.1,0.1,0.1,0.2,0.2,0.4c0.2-0.1,0.3-0.1,0.5-0.2
		C7.8,42.2,7.8,42.1,7.7,41.9z M8.5,43.5c-0.1-0.1-0.1-0.2-0.2-0.4c-0.2,0.1-0.3,0.1-0.5,0.2c0.1,0.2,0.1,0.3,0.2,0.4
		C8,43.8,8.1,43.9,8.2,44C8.4,44,8.5,44,8.7,43.9C8.6,43.7,8.5,43.6,8.5,43.5z M10.4,41.6c0.2-0.1,0.4-0.1,0.6-0.2
		c0.2-0.1,0.4-0.1,0.7-0.2c0.2-0.1,0.5-0.2,0.8-0.2c-0.1-0.3-0.2-0.5-0.3-0.8c-0.1-0.3-0.2-0.5-0.3-0.7c-0.1-0.2-0.2-0.5-0.2-0.7
		c-0.1-0.2-0.1-0.4-0.2-0.7c-0.1-0.2-0.1-0.4-0.2-0.7c-0.1-0.2-0.1-0.5-0.2-0.7C11.1,36.5,11,36.3,11,36s-0.1-0.5-0.2-0.8
		c-0.1-0.3-0.1-0.6-0.2-0.9c-0.3,0.1-0.6,0.3-0.8,0.4C9.5,34.8,9.3,34.9,9,35c-0.2,0.1-0.4,0.2-0.6,0.3c-0.2,0.1-0.4,0.2-0.6,0.3
		c-0.2,0.1-0.4,0.2-0.7,0.3c-0.2,0.1-0.5,0.2-0.7,0.4c0.1,0.3,0.2,0.6,0.3,0.9c0.1,0.3,0.2,0.5,0.2,0.8c0.1,0.2,0.2,0.5,0.2,0.7
		c0.1,0.2,0.2,0.4,0.2,0.7c0.1,0.2,0.2,0.4,0.2,0.7c0.1,0.2,0.2,0.4,0.3,0.7c0.1,0.2,0.2,0.5,0.3,0.7c0.1,0.3,0.2,0.5,0.4,0.8
		C8.7,42.1,9,42,9.2,41.9c0.2-0.1,0.4-0.1,0.6-0.2C10,41.7,10.2,41.6,10.4,41.6z M7,40.3c-0.1-0.1-0.1-0.2-0.2-0.4
		c-0.2,0.1-0.3,0.1-0.5,0.2c0.1,0.2,0.1,0.3,0.2,0.4c0,0.1,0.1,0.2,0.2,0.4c0.2-0.1,0.3-0.1,0.5-0.2C7.1,40.6,7.1,40.5,7,40.3z
		 M10.4,27.3c0,0.2,0,0.4,0,0.6c0,0.2,0,0.3,0.1,0.6c0.3-0.2,0.4-0.3,0.6-0.4c0-0.2,0-0.4-0.1-0.6s0-0.4,0-0.6
		c-0.1,0.1-0.2,0.2-0.3,0.2C10.6,27.2,10.5,27.2,10.4,27.3z M10.9,47.6c-0.2,0-0.3,0.1-0.5,0.1c0.1,0.1,0.2,0.2,0.2,0.4
		c0.1,0.1,0.1,0.2,0.3,0.3c0.2,0,0.3-0.1,0.5-0.1c-0.1-0.1-0.2-0.2-0.3-0.3C11.1,47.8,11,47.7,10.9,47.6z M9.6,44.4
		c0.1,0.2,0.2,0.4,0.3,0.6c0.1,0.2,0.2,0.4,0.3,0.6c0.1,0.2,0.2,0.4,0.4,0.6c0.1,0.2,0.2,0.4,0.4,0.6c0.1,0.2,0.3,0.4,0.4,0.6
		c0.2,0.2,0.3,0.5,0.5,0.7c0.2,0,0.5-0.1,0.7-0.1c0.2,0,0.4-0.1,0.6-0.1c0.2,0,0.4-0.1,0.6-0.1c0.2,0,0.4-0.1,0.6-0.1
		c0.2,0,0.4-0.1,0.7-0.1c0.2-0.1,0.5-0.1,0.8-0.2c-0.2-0.3-0.3-0.5-0.5-0.7c-0.1-0.2-0.3-0.5-0.4-0.7c-0.1-0.2-0.3-0.4-0.4-0.6
		c-0.1-0.2-0.2-0.4-0.4-0.6c-0.1-0.2-0.2-0.4-0.3-0.6c-0.1-0.2-0.2-0.4-0.3-0.7c-0.1-0.2-0.2-0.5-0.4-0.7s-0.2-0.5-0.4-0.8
		c-0.3,0.1-0.5,0.2-0.8,0.2c-0.2,0.1-0.5,0.1-0.7,0.2c-0.2,0.1-0.4,0.1-0.6,0.2c-0.2,0.1-0.4,0.1-0.6,0.2c-0.2,0.1-0.4,0.1-0.6,0.2
		s-0.4,0.1-0.7,0.2c0.1,0.3,0.3,0.5,0.4,0.8C9.4,44,9.5,44.2,9.6,44.4z M21,56.9c-0.2,0-0.3,0.1-0.5,0.1c0.2,0.1,0.3,0.2,0.4,0.2
		c0.1,0.1,0.2,0.1,0.4,0.2c0.2,0,0.3-0.1,0.5-0.1c-0.2-0.1-0.3-0.1-0.4-0.2C21.3,57.1,21.2,57,21,56.9z M6.4,38.7
		c0-0.1-0.1-0.2-0.1-0.4c-0.2,0.1-0.3,0.2-0.5,0.3c0.1,0.2,0.1,0.3,0.1,0.4c0,0.1,0.1,0.2,0.1,0.4c0.2-0.1,0.3-0.1,0.5-0.2
		C6.5,39,6.5,38.8,6.4,38.7z M9.3,45c-0.1-0.1-0.1-0.2-0.2-0.4c-0.2,0.1-0.3,0.1-0.5,0.1c0.1,0.1,0.1,0.3,0.2,0.4
		c0.1,0.1,0.1,0.2,0.2,0.4c0.2,0,0.3-0.1,0.5-0.1C9.4,45.3,9.4,45.2,9.3,45z M10.2,46.5c-0.1-0.1-0.1-0.2-0.2-0.4
		c-0.2,0-0.3,0.1-0.5,0.1c0.1,0.1,0.2,0.3,0.2,0.4s0.1,0.2,0.2,0.4c0.2,0,0.3-0.1,0.5-0.1C10.3,46.7,10.2,46.6,10.2,46.5z M5,33.7
		c0-0.1-0.1-0.3-0.1-0.4c-0.2,0.2-0.3,0.2-0.5,0.4c0,0.2,0.1,0.3,0.1,0.4c0,0.1,0.1,0.2,0.1,0.4c0.2-0.2,0.3-0.2,0.5-0.4
		C5.1,34,5,33.8,5,33.7z M5.9,37.1c0-0.1-0.1-0.2-0.1-0.4c-0.2,0.1-0.3,0.2-0.5,0.3c0.1,0.2,0.1,0.3,0.1,0.4c0,0.1,0.1,0.2,0.1,0.4
		c0.2-0.1,0.3-0.2,0.5-0.3C6,37.3,5.9,37.2,5.9,37.1z M4.7,32c0-0.1,0-0.3-0.1-0.4c-0.2,0.2-0.3,0.3-0.5,0.5c0,0.2,0.1,0.3,0.1,0.4
		c0,0.1,0.1,0.2,0.1,0.4c0.2-0.2,0.3-0.3,0.5-0.4C4.7,32.3,4.7,32.1,4.7,32z M5.4,35.4c0-0.1-0.1-0.3-0.1-0.4
		c-0.2,0.1-0.3,0.2-0.5,0.4c0,0.2,0.1,0.3,0.1,0.4C4.9,35.9,5,36,5,36.1c0.2-0.1,0.3-0.2,0.5-0.3C5.5,35.6,5.4,35.5,5.4,35.4z
		 M4.4,30.3c0-0.1,0-0.3-0.1-0.4c-0.2,0.2-0.3,0.3-0.5,0.6c0,0.2,0,0.3,0.1,0.4c0,0.1,0,0.2,0.1,0.4c0.2-0.2,0.3-0.3,0.5-0.5
		C4.4,30.6,4.4,30.4,4.4,30.3z M15.4,52.8c-0.2,0-0.3,0-0.5,0.1c0.1,0.1,0.2,0.2,0.3,0.3c0.1,0.1,0.2,0.2,0.3,0.3
		c0.2,0,0.3,0,0.5-0.1c-0.1-0.1-0.2-0.2-0.3-0.3S15.5,52.9,15.4,52.8z M16.7,54c-0.2,0-0.3,0-0.5,0.1c0.1,0.1,0.2,0.2,0.3,0.3
		c0.1,0.1,0.2,0.2,0.3,0.3c0.2,0,0.3,0,0.5-0.1c-0.1-0.1-0.2-0.2-0.3-0.3C16.9,54.2,16.8,54.1,16.7,54z M12.8,49
		c0,0.1-0.1,0.1-0.1,0.2c0.1,0.1,0.2,0.3,0.3,0.4c0.2,0.2,0.3,0.4,0.5,0.6c0.2,0.2,0.3,0.4,0.5,0.5c0.2,0.2,0.3,0.3,0.5,0.5
		c0.2,0.2,0.3,0.3,0.5,0.5c0.2,0.2,0.3,0.3,0.5,0.5c0.2,0.2,0.4,0.3,0.6,0.5s0.4,0.4,0.6,0.6c0.3,0,0.5-0.1,0.8-0.1
		c0.2,0,0.5-0.1,0.7-0.1c0.2,0,0.5-0.1,0.7-0.1c0.2-0.1,0.5-0.1,0.8-0.2c0.3-0.1,0.6-0.1,0.9-0.2c-0.2-0.2-0.4-0.4-0.6-0.6
		s-0.4-0.4-0.5-0.5c-0.2-0.2-0.3-0.3-0.5-0.5c-0.2-0.2-0.3-0.3-0.5-0.5s-0.3-0.3-0.5-0.5c-0.2-0.2-0.3-0.4-0.5-0.5
		c-0.2-0.2-0.3-0.4-0.5-0.6s-0.3-0.4-0.5-0.7c-0.3,0.1-0.5,0.1-0.8,0.2c-0.2,0.1-0.5,0.1-0.7,0.1s-0.4,0.1-0.6,0.1
		c-0.2,0-0.4,0.1-0.6,0.1c-0.2,0-0.4,0.1-0.6,0.1c-0.2,0-0.4,0.1-0.7,0.1c0.1,0.1,0.1,0.1,0.2,0.2C12.7,49.1,12.7,49,12.8,49z
		 M14.4,51.9c-0.1-0.1-0.2-0.2-0.3-0.3c-0.2,0-0.3,0.1-0.5,0.1c0.1,0.1,0.2,0.2,0.3,0.3c0.1,0.1,0.2,0.2,0.3,0.3
		c0.2,0,0.3-0.1,0.5-0.1C14.6,52.1,14.5,52,14.4,51.9z M12.4,49.7L12.4,49.7C12.4,49.7,12.4,49.7,12.4,49.7L12.4,49.7z M13,50.3
		c-0.2,0-0.3,0.1-0.5,0.1c0.1,0.1,0.2,0.2,0.3,0.3c0.1,0.1,0.2,0.2,0.3,0.3c0.2,0,0.3,0,0.5-0.1c-0.1-0.1-0.2-0.2-0.3-0.3
		C13.2,50.6,13.1,50.5,13,50.3z M11.9,49c-0.2,0-0.3,0.1-0.5,0.1c0.1,0.1,0.2,0.2,0.3,0.3c0.1,0.1,0.2,0.2,0.3,0.3c0,0,0.1,0,0.1,0
		c0.1-0.1,0.2-0.2,0.3-0.3c0,0-0.1-0.1-0.1-0.1C12.1,49.2,12,49.1,11.9,49z M39.6,59c-0.1,0-0.3,0-0.5,0c-0.3,0.1-0.4,0.2-0.6,0.3
		c0.2,0,0.4,0,0.5,0c0.1,0,0.2,0,0.3,0c0.2-0.1,0.4-0.2,0.7-0.2C39.8,59,39.7,59,39.6,59z M28.5,56.8c0.3-0.1,0.4-0.1,0.6-0.2
		c-0.2-0.1-0.3-0.1-0.4-0.2c-0.1-0.1-0.2-0.1-0.4-0.2c-0.3,0.1-0.4,0.1-0.6,0.2c0.2,0.1,0.3,0.1,0.4,0.2
		C28.2,56.6,28.3,56.7,28.5,56.8z M26.9,56c0.3-0.1,0.4-0.1,0.6-0.2c-0.2-0.1-0.3-0.1-0.4-0.2c-0.1-0.1-0.2-0.1-0.4-0.2
		c-0.3,0.1-0.4,0.1-0.6,0.2c0.2,0.1,0.3,0.1,0.4,0.2C26.6,55.9,26.7,56,26.9,56z M25.3,55.2c0.3-0.1,0.4-0.1,0.6-0.2
		c-0.2-0.1-0.3-0.1-0.4-0.2c-0.1-0.1-0.2-0.1-0.4-0.2c-0.3,0.1-0.4,0.1-0.6,0.2c0.1,0.1,0.3,0.2,0.4,0.2
		C25.1,55.1,25.2,55.2,25.3,55.2z M31.9,57.9c0.3-0.1,0.4-0.1,0.6-0.2c-0.2-0.1-0.3-0.1-0.4-0.1c-0.1,0-0.3-0.1-0.4-0.1
		c-0.3,0.1-0.4,0.2-0.6,0.2c0.2,0.1,0.3,0.1,0.4,0.1C31.6,57.8,31.7,57.9,31.9,57.9z M37.5,59.1c0.2-0.1,0.4-0.1,0.6-0.3
		c-0.2,0-0.3,0-0.5-0.1c-0.1,0-0.3,0-0.5-0.1c-0.3,0.1-0.4,0.2-0.6,0.3c0.2,0,0.3,0,0.5,0.1C37.1,59,37.3,59,37.5,59.1z M23.9,54.3
		c0.3-0.1,0.4-0.1,0.6-0.2c-0.1-0.1-0.3-0.2-0.4-0.2c-0.1-0.1-0.2-0.1-0.3-0.2c-0.3,0.1-0.4,0.1-0.6,0.2c0.1,0.1,0.2,0.2,0.3,0.2
		C23.6,54.2,23.7,54.3,23.9,54.3z M30.1,57.4c0.3-0.1,0.4-0.1,0.6-0.2c-0.2-0.1-0.3-0.1-0.4-0.1c-0.1,0-0.3-0.1-0.4-0.2
		c-0.3,0.1-0.4,0.1-0.6,0.2c0.2,0.1,0.3,0.1,0.4,0.2C29.8,57.3,30,57.3,30.1,57.4z M22.5,53.4c0.3-0.1,0.4-0.1,0.6-0.2
		c-0.1-0.1-0.2-0.2-0.3-0.3c-0.1-0.1-0.2-0.2-0.3-0.3c-0.3,0.1-0.4,0.1-0.6,0.2c0.1,0.1,0.2,0.2,0.3,0.3
		C22.3,53.2,22.4,53.3,22.5,53.4z M22.6,57.7c-0.2,0-0.3,0.1-0.5,0.1c0.2,0.1,0.3,0.1,0.4,0.2c0.1,0.1,0.3,0.1,0.4,0.2
		c0.2,0,0.3-0.1,0.5-0.1c-0.2-0.1-0.3-0.1-0.4-0.2C22.9,57.9,22.8,57.8,22.6,57.7z M29.8,60c-0.2,0-0.3,0.1-0.5,0.1
		c0.2,0,0.3,0.1,0.5,0.1c0.1,0,0.3,0,0.5,0.1c0.2,0,0.3-0.1,0.5-0.1c-0.2,0-0.4-0.1-0.5-0.1C30.2,60.1,30,60.1,29.8,60z M5.2,30.9
		c0,0.3,0.1,0.5,0.1,0.7c0,0.2,0.1,0.5,0.1,0.7c0,0.2,0.1,0.5,0.1,0.7c0,0.2,0.1,0.5,0.2,0.7c0.1,0.2,0.1,0.5,0.2,0.8
		c0.1,0.3,0.1,0.6,0.2,0.9c0.3-0.1,0.5-0.3,0.7-0.4c0.2-0.1,0.4-0.2,0.7-0.4c0.2-0.1,0.4-0.2,0.6-0.3c0.2-0.1,0.4-0.2,0.6-0.3
		c0.2-0.1,0.5-0.2,0.7-0.4c0.3-0.1,0.5-0.3,0.8-0.4c-0.1-0.3-0.1-0.6-0.2-0.8c0-0.3-0.1-0.5-0.1-0.8c0-0.2-0.1-0.5-0.1-0.7
		c0-0.2-0.1-0.5-0.1-0.7c0-0.2-0.1-0.5-0.1-0.7c0-0.2-0.1-0.5-0.1-0.7c0-0.2,0-0.5-0.1-0.7c0-0.2,0-0.5-0.1-0.8c0-0.3,0-0.5-0.1-0.8
		c0-0.3,0-0.6-0.1-0.9c-0.2,0.2-0.4,0.4-0.6,0.5c-0.2,0.2-0.4,0.3-0.6,0.5C8,26.7,7.8,26.8,7.7,27c-0.2,0.1-0.3,0.3-0.5,0.4
		c-0.2,0.1-0.3,0.3-0.5,0.4c-0.2,0.1-0.3,0.3-0.5,0.4c-0.2,0.1-0.4,0.3-0.6,0.5c-0.2,0.2-0.4,0.3-0.6,0.5c0,0.3,0.1,0.6,0.1,0.9
		C5.1,30.4,5.2,30.7,5.2,30.9z M33.6,60.6c0.1,0,0.2,0,0.4,0c0,0,0,0-0.1,0C33.8,60.5,33.7,60.5,33.6,60.6z M18.5,49.6
		c0.1,0.1,0.2,0.2,0.3,0.3c0.3-0.1,0.4-0.1,0.6-0.2c-0.1-0.1-0.2-0.2-0.3-0.3c-0.1-0.1-0.2-0.2-0.3-0.3c-0.3,0.1-0.4,0.1-0.6,0.2
		C18.3,49.4,18.4,49.5,18.5,49.6z M20.9,52c0.1,0.1,0.2,0.2,0.3,0.3c0.3-0.1,0.4-0.1,0.6-0.2c-0.1-0.1-0.2-0.2-0.3-0.3
		c-0.1-0.1-0.2-0.2-0.3-0.3c-0.3,0.1-0.4,0.1-0.6,0.2C20.7,51.9,20.8,51.9,20.9,52z M19.6,50.9c0.1,0.1,0.2,0.2,0.3,0.3
		c0.3-0.1,0.4-0.1,0.6-0.2c-0.1-0.1-0.2-0.2-0.3-0.3c-0.1-0.1-0.2-0.2-0.3-0.3c-0.3,0.1-0.4,0.1-0.6,0.2
		C19.5,50.7,19.5,50.8,19.6,50.9z"/>
</g>
</svg>
